<svg width="200" height="77" viewBox="0 0 200 77" fill="none" xmlns="http://www.w3.org/2000/svg">
<path d="M40.25 20.6719C40.8958 21.1094 41.4323 21.6823 41.8594 22.3906C42.2865 23.099 42.5 23.9583 42.5 24.9688C42.5 26 42.276 26.8958 41.8281 27.6562C41.3802 28.4167 40.7969 29.0417 40.0781 29.5312C39.3802 30.0104 38.5885 30.375 37.7031 30.625C36.8281 30.875 35.9219 31 34.9844 31H24.4844V29.8906C24.7344 29.8698 25.099 29.8281 25.5781 29.7656C26.0573 29.6927 26.401 29.6094 26.6094 29.5156C26.9323 29.3698 27.1615 29.1771 27.2969 28.9375C27.4323 28.6875 27.5 28.3698 27.5 27.9844V12.0469C27.5 11.6927 27.4375 11.3802 27.3125 11.1094C27.1979 10.8385 26.9635 10.6198 26.6094 10.4531C26.2969 10.2969 25.9479 10.1771 25.5625 10.0938C25.1771 10.0104 24.8542 9.95833 24.5938 9.9375V8.82812H34.8281C35.6198 8.82812 36.375 8.90625 37.0938 9.0625C37.8229 9.21875 38.5156 9.49479 39.1719 9.89062C39.7865 10.2552 40.2917 10.75 40.6875 11.375C41.0833 12 41.2812 12.7604 41.2812 13.6562C41.2812 14.4375 41.1406 15.1354 40.8594 15.75C40.5781 16.3542 40.1823 16.875 39.6719 17.3125C39.1927 17.7292 38.6406 18.0833 38.0156 18.375C37.401 18.6562 36.7344 18.875 36.0156 19.0312V19.1719C36.651 19.2448 37.3594 19.4062 38.1406 19.6562C38.9323 19.8958 39.6354 20.2344 40.25 20.6719ZM36.4844 17.3281C36.8698 16.8802 37.1354 16.3906 37.2812 15.8594C37.4375 15.3281 37.5156 14.6979 37.5156 13.9688C37.5156 12.75 37.1823 11.7969 36.5156 11.1094C35.849 10.4115 34.7969 10.0625 33.3594 10.0625C33.026 10.0625 32.6042 10.0729 32.0938 10.0938C31.5938 10.1042 31.1719 10.1146 30.8281 10.125V18.6406H32.8125C33.6667 18.6406 34.3958 18.5312 35 18.3125C35.6146 18.0938 36.1094 17.7656 36.4844 17.3281ZM38.6406 24.4062C38.6406 23.0938 38.1979 22.0156 37.3125 21.1719C36.4375 20.3281 35.1823 19.9062 33.5469 19.9062C32.8802 19.9062 32.3177 19.9167 31.8594 19.9375C31.401 19.9479 31.0573 19.9583 30.8281 19.9688V27.7812C30.8281 28.4375 31.0938 28.9323 31.625 29.2656C32.1562 29.599 32.8958 29.7656 33.8438 29.7656C35.3958 29.7656 36.5833 29.3125 37.4062 28.4062C38.2292 27.5 38.6406 26.1667 38.6406 24.4062ZM56.8594 17.5781C56.8594 18.1094 56.7292 18.5833 56.4688 19C56.2083 19.4062 55.8073 19.6094 55.2656 19.6094C54.6823 19.6094 54.2344 19.4583 53.9219 19.1562C53.6198 18.8542 53.4688 18.5208 53.4688 18.1562C53.4688 17.9271 53.4844 17.7188 53.5156 17.5312C53.5573 17.3438 53.5938 17.1562 53.625 16.9688C53.1354 16.9688 52.5625 17.1667 51.9062 17.5625C51.25 17.9583 50.6927 18.5208 50.2344 19.25V28.2188C50.2344 28.5833 50.3021 28.8802 50.4375 29.1094C50.5833 29.3385 50.8073 29.5104 51.1094 29.625C51.3698 29.7292 51.7031 29.8073 52.1094 29.8594C52.526 29.9115 52.8854 29.9479 53.1875 29.9688V31H45.0625V29.9688C45.3021 29.9479 45.5469 29.9271 45.7969 29.9062C46.0573 29.8854 46.2812 29.8438 46.4688 29.7812C46.7604 29.6875 46.974 29.526 47.1094 29.2969C47.2552 29.0573 47.3281 28.75 47.3281 28.375V18.8594C47.3281 18.5365 47.25 18.2188 47.0938 17.9062C46.9479 17.5938 46.7396 17.3438 46.4688 17.1562C46.2708 17.0312 46.0365 16.9427 45.7656 16.8906C45.4948 16.8281 45.2031 16.7865 44.8906 16.7656V15.75L50.0156 15.4062L50.2344 15.625V17.7969H50.3125C50.9583 16.9531 51.6771 16.3125 52.4688 15.875C53.2604 15.4375 53.9844 15.2188 54.6406 15.2188C55.2969 15.2188 55.8281 15.4323 56.2344 15.8594C56.651 16.2865 56.8594 16.8594 56.8594 17.5781ZM72.7812 30.7188C72.2917 30.8958 71.8594 31.0365 71.4844 31.1406C71.1198 31.2552 70.7031 31.3125 70.2344 31.3125C69.4219 31.3125 68.7708 31.125 68.2812 30.75C67.8021 30.3646 67.4948 29.8073 67.3594 29.0781H67.2656C66.5885 29.8281 65.8594 30.401 65.0781 30.7969C64.3073 31.1927 63.375 31.3906 62.2812 31.3906C61.125 31.3906 60.1719 31.0365 59.4219 30.3281C58.6823 29.6198 58.3125 28.6927 58.3125 27.5469C58.3125 26.9531 58.3958 26.4219 58.5625 25.9531C58.7292 25.4844 58.9792 25.0625 59.3125 24.6875C59.5729 24.375 59.9167 24.099 60.3438 23.8594C60.7708 23.6094 61.1719 23.4115 61.5469 23.2656C62.0156 23.0885 62.9635 22.7604 64.3906 22.2812C65.8281 21.8021 66.7969 21.4271 67.2969 21.1562V19.6094C67.2969 19.474 67.2656 19.2135 67.2031 18.8281C67.151 18.4427 67.0312 18.0781 66.8438 17.7344C66.6354 17.349 66.3385 17.0156 65.9531 16.7344C65.5781 16.4427 65.0417 16.2969 64.3438 16.2969C63.8646 16.2969 63.4167 16.3802 63 16.5469C62.5938 16.7031 62.3073 16.8698 62.1406 17.0469C62.1406 17.2552 62.1875 17.5625 62.2812 17.9688C62.3854 18.375 62.4375 18.75 62.4375 19.0938C62.4375 19.4583 62.2708 19.7917 61.9375 20.0938C61.6146 20.3958 61.1615 20.5469 60.5781 20.5469C60.0573 20.5469 59.6719 20.3646 59.4219 20C59.1823 19.625 59.0625 19.2083 59.0625 18.75C59.0625 18.2708 59.2292 17.8125 59.5625 17.375C59.9062 16.9375 60.349 16.5469 60.8906 16.2031C61.3594 15.9115 61.9271 15.6667 62.5938 15.4688C63.2604 15.2604 63.9115 15.1562 64.5469 15.1562C65.4219 15.1562 66.1823 15.2188 66.8281 15.3438C67.4844 15.4583 68.0781 15.7135 68.6094 16.1094C69.1406 16.4948 69.5417 17.0208 69.8125 17.6875C70.0938 18.3438 70.2344 19.1927 70.2344 20.2344C70.2344 21.724 70.2188 23.0469 70.1875 24.2031C70.1562 25.349 70.1406 26.6042 70.1406 27.9688C70.1406 28.375 70.2083 28.6979 70.3438 28.9375C70.4896 29.1771 70.7083 29.3802 71 29.5469C71.1562 29.6406 71.401 29.6927 71.7344 29.7031C72.0781 29.7135 72.4271 29.7188 72.7812 29.7188V30.7188ZM67.3281 22.4688C66.4427 22.7292 65.6667 22.9844 65 23.2344C64.3333 23.4844 63.7135 23.7969 63.1406 24.1719C62.6198 24.526 62.2083 24.9479 61.9062 25.4375C61.6042 25.9167 61.4531 26.4896 61.4531 27.1562C61.4531 28.0208 61.6771 28.6562 62.125 29.0625C62.5833 29.4688 63.1615 29.6719 63.8594 29.6719C64.599 29.6719 65.25 29.4948 65.8125 29.1406C66.375 28.776 66.849 28.349 67.2344 27.8594L67.3281 22.4688ZM91.3281 31H83.7812V29.9688C84.0208 29.9479 84.2812 29.9271 84.5625 29.9062C84.8542 29.8854 85.0938 29.8438 85.2812 29.7812C85.5729 29.6875 85.7865 29.526 85.9219 29.2969C86.0677 29.0573 86.1406 28.75 86.1406 28.375V20.4531C86.1406 19.3594 85.8802 18.5156 85.3594 17.9219C84.849 17.3281 84.224 17.0312 83.4844 17.0312C82.9323 17.0312 82.4271 17.1198 81.9688 17.2969C81.5104 17.4635 81.1042 17.6719 80.75 17.9219C80.4062 18.1615 80.1302 18.4219 79.9219 18.7031C79.724 18.974 79.5781 19.1927 79.4844 19.3594V28.2188C79.4844 28.5729 79.5573 28.8646 79.7031 29.0938C79.849 29.3229 80.0677 29.5 80.3594 29.625C80.5781 29.7292 80.8125 29.8073 81.0625 29.8594C81.3229 29.9115 81.5885 29.9479 81.8594 29.9688V31H74.3125V29.9688C74.5521 29.9479 74.7969 29.9271 75.0469 29.9062C75.3073 29.8854 75.5312 29.8438 75.7188 29.7812C76.0104 29.6875 76.224 29.526 76.3594 29.2969C76.5052 29.0573 76.5781 28.75 76.5781 28.375V18.8594C76.5781 18.5052 76.5 18.1823 76.3438 17.8906C76.1979 17.5885 75.9896 17.3438 75.7188 17.1562C75.5208 17.0312 75.2865 16.9427 75.0156 16.8906C74.7448 16.8281 74.4531 16.7865 74.1406 16.7656V15.75L79.2656 15.4062L79.4844 15.625V17.7969H79.5625C79.8125 17.5469 80.125 17.25 80.5 16.9062C80.875 16.5521 81.2292 16.2656 81.5625 16.0469C81.9479 15.7969 82.4062 15.5885 82.9375 15.4219C83.4688 15.2552 84.0677 15.1719 84.7344 15.1719C86.2135 15.1719 87.3073 15.6354 88.0156 16.5625C88.7344 17.4792 89.0938 18.7031 89.0938 20.2344V28.25C89.0938 28.6146 89.1562 28.9115 89.2812 29.1406C89.4062 29.3594 89.6198 29.5312 89.9219 29.6562C90.1719 29.7604 90.3854 29.8333 90.5625 29.875C90.75 29.9167 91.0052 29.9479 91.3281 29.9688V31ZM110.094 30.7188L104.719 31.0625L104.484 30.8438V29.4062L104.359 29.375C103.818 29.9792 103.146 30.474 102.344 30.8594C101.552 31.2448 100.734 31.4375 99.8906 31.4375C99.0156 31.4375 98.1667 31.2448 97.3438 30.8594C96.5312 30.4635 95.8229 29.9115 95.2188 29.2031C94.6042 28.4844 94.1146 27.6198 93.75 26.6094C93.3958 25.599 93.2188 24.4844 93.2188 23.2656C93.2188 22.151 93.4115 21.0938 93.7969 20.0938C94.1823 19.0938 94.7135 18.2188 95.3906 17.4688C96.026 16.7708 96.8021 16.2135 97.7188 15.7969C98.6458 15.3802 99.5885 15.1719 100.547 15.1719C101.266 15.1719 101.969 15.2656 102.656 15.4531C103.354 15.6302 103.953 15.8594 104.453 16.1406V10.7812C104.453 10.3438 104.38 9.94792 104.234 9.59375C104.089 9.22917 103.885 8.95312 103.625 8.76562C103.333 8.56771 102.938 8.42708 102.438 8.34375C101.948 8.25 101.417 8.18229 100.844 8.14062V7.17188L107.141 6.8125L107.375 7.04688V27.8281C107.375 28.1927 107.443 28.5052 107.578 28.7656C107.724 29.0156 107.932 29.2292 108.203 29.4062C108.401 29.5312 108.688 29.6094 109.062 29.6406C109.438 29.6719 109.781 29.6927 110.094 29.7031V30.7188ZM104.453 28.0156V19C104.37 18.7292 104.234 18.4375 104.047 18.125C103.859 17.8125 103.625 17.526 103.344 17.2656C103.042 17.0052 102.688 16.7917 102.281 16.625C101.875 16.4479 101.401 16.3594 100.859 16.3594C100.234 16.3594 99.6562 16.5208 99.125 16.8438C98.6042 17.1667 98.1406 17.6302 97.7344 18.2344C97.349 18.8177 97.0417 19.5625 96.8125 20.4688C96.5938 21.3646 96.4844 22.3594 96.4844 23.4531C96.4844 24.3281 96.5677 25.125 96.7344 25.8438C96.901 26.5521 97.1823 27.2135 97.5781 27.8281C97.9427 28.4115 98.4062 28.8802 98.9688 29.2344C99.5417 29.5885 100.219 29.7656 101 29.7656C101.833 29.7656 102.521 29.5833 103.062 29.2188C103.615 28.8542 104.078 28.4531 104.453 28.0156ZM132.453 9.9375C132.182 9.94792 131.854 10.0104 131.469 10.125C131.083 10.2292 130.766 10.3594 130.516 10.5156C130.161 10.7344 129.875 11.0156 129.656 11.3594C129.448 11.7031 129.24 12.1094 129.031 12.5781C128.333 14.2344 127.286 16.8177 125.891 20.3281C124.495 23.8281 123.057 27.4792 121.578 31.2812H120.281C118.781 27.25 117.333 23.3646 115.938 19.625C114.542 15.8854 113.594 13.3594 113.094 12.0469C112.969 11.724 112.802 11.4427 112.594 11.2031C112.385 10.9531 112.109 10.7188 111.766 10.5C111.484 10.3229 111.172 10.1927 110.828 10.1094C110.484 10.0156 110.167 9.95833 109.875 9.9375V8.82812H119.047V9.9375C118.266 9.97917 117.604 10.0573 117.062 10.1719C116.531 10.2865 116.266 10.4896 116.266 10.7812C116.266 10.8958 116.286 11.0312 116.328 11.1875C116.37 11.3438 116.406 11.4688 116.438 11.5625C116.823 12.5833 117.448 14.25 118.312 16.5625C119.177 18.8646 120.406 22.1458 122 26.4062C122.792 24.4792 123.703 22.2031 124.734 19.5781C125.766 16.9531 126.458 15.151 126.812 14.1719C127.156 13.224 127.354 12.5677 127.406 12.2031C127.469 11.8385 127.5 11.5417 127.5 11.3125C127.5 11.0729 127.391 10.875 127.172 10.7188C126.964 10.5521 126.682 10.4115 126.328 10.2969C125.984 10.1927 125.635 10.1146 125.281 10.0625C124.927 10.0104 124.568 9.96875 124.203 9.9375V8.82812H132.453V9.9375ZM149.453 30.7188L144.438 31.0625L144.203 30.8438V28.8906H144.109C143.859 29.151 143.578 29.4323 143.266 29.7344C142.953 30.026 142.594 30.2917 142.188 30.5312C141.719 30.8125 141.266 31.026 140.828 31.1719C140.391 31.3177 139.771 31.3906 138.969 31.3906C137.604 31.3906 136.562 30.9479 135.844 30.0625C135.135 29.1667 134.781 27.8698 134.781 26.1719V18.7969C134.781 18.4219 134.708 18.1094 134.562 17.8594C134.427 17.599 134.224 17.375 133.953 17.1875C133.766 17.0625 133.531 16.974 133.25 16.9219C132.969 16.8594 132.672 16.8177 132.359 16.7969V15.7812L137.5 15.4062L137.734 15.625V26.3281C137.734 27.4427 137.984 28.2812 138.484 28.8438C138.984 29.4062 139.583 29.6875 140.281 29.6875C140.854 29.6875 141.365 29.599 141.812 29.4219C142.26 29.2448 142.635 29.0365 142.938 28.7969C143.219 28.5781 143.464 28.349 143.672 28.1094C143.891 27.8594 144.057 27.6302 144.172 27.4219V18.6875C144.172 18.3438 144.099 18.0417 143.953 17.7812C143.807 17.5104 143.604 17.2812 143.344 17.0938C143.156 16.9688 142.875 16.8958 142.5 16.875C142.135 16.8438 141.724 16.8177 141.266 16.7969V15.7812L146.859 15.4062L147.094 15.625V27.8594C147.094 28.2135 147.167 28.5156 147.312 28.7656C147.458 29.0156 147.661 29.2292 147.922 29.4062C148.109 29.5208 148.333 29.599 148.594 29.6406C148.854 29.6719 149.141 29.6927 149.453 29.7031V30.7188ZM165.031 27.375C164.385 28.6042 163.521 29.5833 162.438 30.3125C161.354 31.0417 160.109 31.4062 158.703 31.4062C157.464 31.4062 156.375 31.1875 155.438 30.75C154.51 30.3125 153.745 29.7188 153.141 28.9688C152.536 28.2188 152.083 27.3438 151.781 26.3438C151.49 25.3438 151.344 24.2865 151.344 23.1719C151.344 22.1719 151.5 21.1927 151.812 20.2344C152.135 19.2656 152.604 18.3958 153.219 17.625C153.812 16.8854 154.547 16.2917 155.422 15.8438C156.307 15.3854 157.297 15.1562 158.391 15.1562C159.516 15.1562 160.479 15.3333 161.281 15.6875C162.083 16.0417 162.734 16.526 163.234 17.1406C163.714 17.724 164.068 18.4115 164.297 19.2031C164.536 19.9948 164.656 20.8542 164.656 21.7812V22.8125H154.453C154.453 23.8229 154.547 24.7396 154.734 25.5625C154.932 26.3854 155.24 27.1094 155.656 27.7344C156.062 28.3385 156.594 28.8177 157.25 29.1719C157.906 29.5156 158.688 29.6875 159.594 29.6875C160.521 29.6875 161.318 29.474 161.984 29.0469C162.661 28.6094 163.312 27.8281 163.938 26.7031L165.031 27.375ZM161.578 21.5C161.578 20.9167 161.526 20.2917 161.422 19.625C161.328 18.9583 161.172 18.401 160.953 17.9531C160.714 17.474 160.385 17.0833 159.969 16.7812C159.552 16.4792 159.016 16.3281 158.359 16.3281C157.266 16.3281 156.354 16.7865 155.625 17.7031C154.906 18.6094 154.516 19.875 154.453 21.5H161.578Z" fill="white"/>
<path d="M43.1719 61.4688L42.75 68H24.3438V66.8906C24.6562 66.8698 25.0729 66.8281 25.5938 66.7656C26.1146 66.6927 26.4531 66.6198 26.6094 66.5469C26.9427 66.3906 27.1719 66.1875 27.2969 65.9375C27.4323 65.6875 27.5 65.3698 27.5 64.9844V49.0469C27.5 48.7031 27.4427 48.401 27.3281 48.1406C27.2135 47.8698 26.974 47.651 26.6094 47.4844C26.3281 47.349 25.9479 47.2292 25.4688 47.125C25 47.0208 24.625 46.9583 24.3438 46.9375V45.8281H41.5V51.1719H40.3281C40.1198 50.3802 39.6667 49.5417 38.9688 48.6562C38.2812 47.7604 37.625 47.2708 37 47.1875C36.6771 47.1458 36.2917 47.1146 35.8438 47.0938C35.3958 47.0729 34.8854 47.0625 34.3125 47.0625H30.8281V55.875H33.3281C34.1302 55.875 34.7135 55.8021 35.0781 55.6562C35.4531 55.5 35.7812 55.2448 36.0625 54.8906C36.2917 54.5885 36.4844 54.1875 36.6406 53.6875C36.8073 53.1771 36.9167 52.6979 36.9688 52.25H38.1406V60.9219H36.9688C36.9271 60.4219 36.8125 59.8958 36.625 59.3438C36.4479 58.7812 36.2604 58.375 36.0625 58.125C35.7396 57.7188 35.3698 57.4531 34.9531 57.3281C34.5469 57.2031 34.0052 57.1406 33.3281 57.1406H30.8281V63.7969C30.8281 64.4635 30.875 64.9896 30.9688 65.375C31.0625 65.7604 31.2448 66.0521 31.5156 66.25C31.7865 66.4479 32.1562 66.5781 32.625 66.6406C33.0938 66.6927 33.7604 66.7188 34.625 66.7188C34.9688 66.7188 35.4219 66.7188 35.9844 66.7188C36.5469 66.7188 37.0208 66.6979 37.4062 66.6562C37.8021 66.6146 38.2083 66.5417 38.625 66.4375C39.0521 66.3229 39.3542 66.1719 39.5312 65.9844C40.0104 65.4844 40.5104 64.7292 41.0312 63.7188C41.5625 62.6979 41.901 61.9479 42.0469 61.4688H43.1719ZM59.625 67.7188C59.1354 67.8958 58.7031 68.0365 58.3281 68.1406C57.9635 68.2552 57.5469 68.3125 57.0781 68.3125C56.2656 68.3125 55.6146 68.125 55.125 67.75C54.6458 67.3646 54.3385 66.8073 54.2031 66.0781H54.1094C53.4323 66.8281 52.7031 67.401 51.9219 67.7969C51.151 68.1927 50.2188 68.3906 49.125 68.3906C47.9688 68.3906 47.0156 68.0365 46.2656 67.3281C45.526 66.6198 45.1562 65.6927 45.1562 64.5469C45.1562 63.9531 45.2396 63.4219 45.4062 62.9531C45.5729 62.4844 45.8229 62.0625 46.1562 61.6875C46.4167 61.375 46.7604 61.099 47.1875 60.8594C47.6146 60.6094 48.0156 60.4115 48.3906 60.2656C48.8594 60.0885 49.8073 59.7604 51.2344 59.2812C52.6719 58.8021 53.6406 58.4271 54.1406 58.1562V56.6094C54.1406 56.474 54.1094 56.2135 54.0469 55.8281C53.9948 55.4427 53.875 55.0781 53.6875 54.7344C53.4792 54.349 53.1823 54.0156 52.7969 53.7344C52.4219 53.4427 51.8854 53.2969 51.1875 53.2969C50.7083 53.2969 50.2604 53.3802 49.8438 53.5469C49.4375 53.7031 49.151 53.8698 48.9844 54.0469C48.9844 54.2552 49.0312 54.5625 49.125 54.9688C49.2292 55.375 49.2812 55.75 49.2812 56.0938C49.2812 56.4583 49.1146 56.7917 48.7812 57.0938C48.4583 57.3958 48.0052 57.5469 47.4219 57.5469C46.901 57.5469 46.5156 57.3646 46.2656 57C46.026 56.625 45.9062 56.2083 45.9062 55.75C45.9062 55.2708 46.0729 54.8125 46.4062 54.375C46.75 53.9375 47.1927 53.5469 47.7344 53.2031C48.2031 52.9115 48.7708 52.6667 49.4375 52.4688C50.1042 52.2604 50.7552 52.1562 51.3906 52.1562C52.2656 52.1562 53.026 52.2188 53.6719 52.3438C54.3281 52.4583 54.9219 52.7135 55.4531 53.1094C55.9844 53.4948 56.3854 54.0208 56.6562 54.6875C56.9375 55.3438 57.0781 56.1927 57.0781 57.2344C57.0781 58.724 57.0625 60.0469 57.0312 61.2031C57 62.349 56.9844 63.6042 56.9844 64.9688C56.9844 65.375 57.0521 65.6979 57.1875 65.9375C57.3333 66.1771 57.5521 66.3802 57.8438 66.5469C58 66.6406 58.2448 66.6927 58.5781 66.7031C58.9219 66.7135 59.2708 66.7188 59.625 66.7188V67.7188ZM54.1719 59.4688C53.2865 59.7292 52.5104 59.9844 51.8438 60.2344C51.1771 60.4844 50.5573 60.7969 49.9844 61.1719C49.4635 61.526 49.0521 61.9479 48.75 62.4375C48.4479 62.9167 48.2969 63.4896 48.2969 64.1562C48.2969 65.0208 48.5208 65.6562 48.9688 66.0625C49.4271 66.4688 50.0052 66.6719 50.7031 66.6719C51.4427 66.6719 52.0938 66.4948 52.6562 66.1406C53.2188 65.776 53.6927 65.349 54.0781 64.8594L54.1719 59.4688ZM70.6719 67.3281C69.9948 67.6094 69.3542 67.8438 68.75 68.0312C68.1458 68.2292 67.4062 68.3281 66.5312 68.3281C65.2396 68.3281 64.3281 68.0052 63.7969 67.3594C63.276 66.7031 63.0156 65.7812 63.0156 64.5938V54.1562H60.2344V52.6562H63.0781V47.8594H65.9219V52.6562H70.3438V54.1562H65.9531V62.7656C65.9531 63.4115 65.974 63.9531 66.0156 64.3906C66.0677 64.8177 66.1823 65.1927 66.3594 65.5156C66.526 65.8177 66.776 66.0469 67.1094 66.2031C67.4427 66.3594 67.8906 66.4375 68.4531 66.4375C68.7135 66.4375 69.0938 66.4167 69.5938 66.375C70.1042 66.3229 70.4635 66.2604 70.6719 66.1875V67.3281ZM79.7031 68H72.25V66.9688C72.4896 66.9479 72.7344 66.9271 72.9844 66.9062C73.2448 66.8854 73.4688 66.8438 73.6562 66.7812C73.9479 66.6875 74.1615 66.526 74.2969 66.2969C74.4427 66.0573 74.5156 65.75 74.5156 65.375V55.8594C74.5156 55.526 74.4375 55.224 74.2812 54.9531C74.1354 54.6719 73.9271 54.4375 73.6562 54.25C73.4583 54.125 73.1719 54.0208 72.7969 53.9375C72.4219 53.8438 72.0781 53.7865 71.7656 53.7656V52.75L77.2031 52.4062L77.4219 52.625V65.1875C77.4219 65.5521 77.4896 65.8542 77.625 66.0938C77.7708 66.3333 77.9948 66.5104 78.2969 66.625C78.526 66.7188 78.75 66.7969 78.9688 66.8594C79.1875 66.9115 79.4323 66.9479 79.7031 66.9688V68ZM77.7344 46.3281C77.7344 46.9219 77.5365 47.4427 77.1406 47.8906C76.7552 48.3281 76.276 48.5469 75.7031 48.5469C75.1719 48.5469 74.7083 48.3385 74.3125 47.9219C73.9271 47.4948 73.7344 47.0104 73.7344 46.4688C73.7344 45.8958 73.9271 45.3958 74.3125 44.9688C74.7083 44.5417 75.1719 44.3281 75.7031 44.3281C76.2969 44.3281 76.7812 44.5312 77.1562 44.9375C77.5417 45.3333 77.7344 45.7969 77.7344 46.3281ZM98.6094 68H91.0625V66.9688C91.3021 66.9479 91.5625 66.9271 91.8438 66.9062C92.1354 66.8854 92.375 66.8438 92.5625 66.7812C92.8542 66.6875 93.0677 66.526 93.2031 66.2969C93.349 66.0573 93.4219 65.75 93.4219 65.375V57.4531C93.4219 56.3594 93.1615 55.5156 92.6406 54.9219C92.1302 54.3281 91.5052 54.0312 90.7656 54.0312C90.2135 54.0312 89.7083 54.1198 89.25 54.2969C88.7917 54.4635 88.3854 54.6719 88.0312 54.9219C87.6875 55.1615 87.4115 55.4219 87.2031 55.7031C87.0052 55.974 86.8594 56.1927 86.7656 56.3594V65.2188C86.7656 65.5729 86.8385 65.8646 86.9844 66.0938C87.1302 66.3229 87.349 66.5 87.6406 66.625C87.8594 66.7292 88.0938 66.8073 88.3438 66.8594C88.6042 66.9115 88.8698 66.9479 89.1406 66.9688V68H81.5938V66.9688C81.8333 66.9479 82.0781 66.9271 82.3281 66.9062C82.5885 66.8854 82.8125 66.8438 83 66.7812C83.2917 66.6875 83.5052 66.526 83.6406 66.2969C83.7865 66.0573 83.8594 65.75 83.8594 65.375V55.8594C83.8594 55.5052 83.7812 55.1823 83.625 54.8906C83.4792 54.5885 83.2708 54.3438 83 54.1562C82.8021 54.0312 82.5677 53.9427 82.2969 53.8906C82.026 53.8281 81.7344 53.7865 81.4219 53.7656V52.75L86.5469 52.4062L86.7656 52.625V54.7969H86.8438C87.0938 54.5469 87.4062 54.25 87.7812 53.9062C88.1562 53.5521 88.5104 53.2656 88.8438 53.0469C89.2292 52.7969 89.6875 52.5885 90.2188 52.4219C90.75 52.2552 91.349 52.1719 92.0156 52.1719C93.4948 52.1719 94.5885 52.6354 95.2969 53.5625C96.0156 54.4792 96.375 55.7031 96.375 57.2344V65.25C96.375 65.6146 96.4375 65.9115 96.5625 66.1406C96.6875 66.3594 96.901 66.5312 97.2031 66.6562C97.4531 66.7604 97.6667 66.8333 97.8438 66.875C98.0312 66.9167 98.2865 66.9479 98.6094 66.9688V68ZM113.703 66.4062C114.12 66.8021 114.448 67.25 114.688 67.75C114.927 68.25 115.047 68.8698 115.047 69.6094C115.047 70.349 114.885 71.0417 114.562 71.6875C114.24 72.3438 113.75 72.9115 113.094 73.3906C112.396 73.8802 111.562 74.2604 110.594 74.5312C109.625 74.8021 108.427 74.9375 107 74.9375C104.667 74.9375 102.922 74.5938 101.766 73.9062C100.609 73.2292 100.031 72.2344 100.031 70.9219C100.031 69.8594 100.448 69.0208 101.281 68.4062C102.115 67.7917 103.177 67.4583 104.469 67.4062V67.1875C104.156 67.0938 103.833 66.9792 103.5 66.8438C103.167 66.6979 102.88 66.5312 102.641 66.3438C102.37 66.125 102.151 65.8698 101.984 65.5781C101.818 65.276 101.734 64.9062 101.734 64.4688C101.734 63.9167 101.927 63.4115 102.312 62.9531C102.708 62.4844 103.302 62.0833 104.094 61.75V61.5156C103.094 61.0469 102.318 60.4479 101.766 59.7188C101.214 58.9792 100.938 58.125 100.938 57.1562C100.938 55.6979 101.479 54.5 102.562 53.5625C103.656 52.625 105.052 52.1562 106.75 52.1562C107.219 52.1562 107.682 52.2031 108.141 52.2969C108.609 52.3906 109.083 52.5104 109.562 52.6562H114.938V54.1562H111.312V54.25C111.698 54.6979 111.984 55.1927 112.172 55.7344C112.359 56.276 112.453 56.8073 112.453 57.3281C112.453 58.6823 111.901 59.8281 110.797 60.7656C109.703 61.7031 108.427 62.1719 106.969 62.1719H105.078C104.839 62.2552 104.589 62.4062 104.328 62.625C104.068 62.8438 103.938 63.1406 103.938 63.5156C103.938 63.901 104.047 64.1979 104.266 64.4062C104.484 64.6042 104.75 64.7396 105.062 64.8125C105.365 64.8958 105.714 64.9479 106.109 64.9688C106.516 64.9896 106.932 65.0052 107.359 65.0156C107.818 65.026 108.443 65.0573 109.234 65.1094C110.036 65.1615 110.604 65.1927 110.938 65.2031C111.417 65.224 111.896 65.3385 112.375 65.5469C112.865 65.7552 113.307 66.0417 113.703 66.4062ZM109.484 57.2656C109.484 56.0469 109.234 55.0781 108.734 54.3594C108.245 53.6302 107.552 53.2656 106.656 53.2656C106.167 53.2656 105.745 53.3698 105.391 53.5781C105.047 53.776 104.766 54.0625 104.547 54.4375C104.339 54.7812 104.188 55.1979 104.094 55.6875C104.01 56.1667 103.969 56.6615 103.969 57.1719C103.969 58.3281 104.219 59.2708 104.719 60C105.229 60.7292 105.885 61.0938 106.688 61.0938C107.583 61.0938 108.271 60.7344 108.75 60.0156C109.24 59.2865 109.484 58.3698 109.484 57.2656ZM112.484 70.1875C112.484 69.6042 112.349 69.125 112.078 68.75C111.807 68.375 111.396 68.1198 110.844 67.9844C110.552 67.9427 109.953 67.8958 109.047 67.8438C108.141 67.7917 107.089 67.7656 105.891 67.7656C104.766 67.9844 103.964 68.349 103.484 68.8594C103.016 69.3802 102.781 70.0469 102.781 70.8594C102.781 71.224 102.859 71.5729 103.016 71.9062C103.172 72.2396 103.443 72.5469 103.828 72.8281C104.193 73.099 104.682 73.3177 105.297 73.4844C105.911 73.6615 106.661 73.75 107.547 73.75C109.078 73.75 110.281 73.4531 111.156 72.8594C112.042 72.276 112.484 71.3854 112.484 70.1875ZM142.844 48.4531C143.823 49.474 144.589 50.7083 145.141 52.1562C145.693 53.5938 145.969 55.1875 145.969 56.9375C145.969 58.6979 145.688 60.2969 145.125 61.7344C144.562 63.1719 143.781 64.3958 142.781 65.4062C141.812 66.4062 140.688 67.1771 139.406 67.7188C138.125 68.2604 136.76 68.5312 135.312 68.5312C133.771 68.5312 132.344 68.2448 131.031 67.6719C129.729 67.0885 128.609 66.2812 127.672 65.25C126.734 64.2396 125.995 63.0156 125.453 61.5781C124.922 60.1302 124.656 58.5833 124.656 56.9375C124.656 55.1354 124.938 53.5312 125.5 52.125C126.062 50.7083 126.839 49.4844 127.828 48.4531C128.807 47.4323 129.943 46.651 131.234 46.1094C132.536 45.5677 133.896 45.2969 135.312 45.2969C136.781 45.2969 138.167 45.5729 139.469 46.125C140.771 46.6771 141.896 47.4531 142.844 48.4531ZM140.516 64.1719C141.099 63.224 141.521 62.151 141.781 60.9531C142.052 59.7552 142.188 58.4167 142.188 56.9375C142.188 55.4167 142.036 54.0208 141.734 52.75C141.443 51.4792 141.01 50.3958 140.438 49.5C139.865 48.6146 139.146 47.9271 138.281 47.4375C137.417 46.9375 136.427 46.6875 135.312 46.6875C134.062 46.6875 133 46.974 132.125 47.5469C131.25 48.1198 130.536 48.8854 129.984 49.8438C129.464 50.7604 129.073 51.8333 128.812 53.0625C128.562 54.2917 128.438 55.5833 128.438 56.9375C128.438 58.4375 128.573 59.7917 128.844 61C129.115 62.2083 129.542 63.2812 130.125 64.2188C130.688 65.1354 131.396 65.8542 132.25 66.375C133.104 66.8854 134.125 67.1406 135.312 67.1406C136.427 67.1406 137.432 66.8802 138.328 66.3594C139.224 65.8385 139.953 65.1094 140.516 64.1719ZM164.859 67.7188L159.844 68.0625L159.609 67.8438V65.8906H159.516C159.266 66.151 158.984 66.4323 158.672 66.7344C158.359 67.026 158 67.2917 157.594 67.5312C157.125 67.8125 156.672 68.026 156.234 68.1719C155.797 68.3177 155.177 68.3906 154.375 68.3906C153.01 68.3906 151.969 67.9479 151.25 67.0625C150.542 66.1667 150.188 64.8698 150.188 63.1719V55.7969C150.188 55.4219 150.115 55.1094 149.969 54.8594C149.833 54.599 149.63 54.375 149.359 54.1875C149.172 54.0625 148.938 53.974 148.656 53.9219C148.375 53.8594 148.078 53.8177 147.766 53.7969V52.7812L152.906 52.4062L153.141 52.625V63.3281C153.141 64.4427 153.391 65.2812 153.891 65.8438C154.391 66.4062 154.99 66.6875 155.688 66.6875C156.26 66.6875 156.771 66.599 157.219 66.4219C157.667 66.2448 158.042 66.0365 158.344 65.7969C158.625 65.5781 158.87 65.349 159.078 65.1094C159.297 64.8594 159.464 64.6302 159.578 64.4219V55.6875C159.578 55.3438 159.505 55.0417 159.359 54.7812C159.214 54.5104 159.01 54.2812 158.75 54.0938C158.562 53.9688 158.281 53.8958 157.906 53.875C157.542 53.8438 157.13 53.8177 156.672 53.7969V52.7812L162.266 52.4062L162.5 52.625V64.8594C162.5 65.2135 162.573 65.5156 162.719 65.7656C162.865 66.0156 163.068 66.2292 163.328 66.4062C163.516 66.5208 163.74 66.599 164 66.6406C164.26 66.6719 164.547 66.6927 164.859 66.7031V67.7188ZM176.266 67.3281C175.589 67.6094 174.948 67.8438 174.344 68.0312C173.74 68.2292 173 68.3281 172.125 68.3281C170.833 68.3281 169.922 68.0052 169.391 67.3594C168.87 66.7031 168.609 65.7812 168.609 64.5938V54.1562H165.828V52.6562H168.672V47.8594H171.516V52.6562H175.938V54.1562H171.547V62.7656C171.547 63.4115 171.568 63.9531 171.609 64.3906C171.661 64.8177 171.776 65.1927 171.953 65.5156C172.12 65.8177 172.37 66.0469 172.703 66.2031C173.036 66.3594 173.484 66.4375 174.047 66.4375C174.307 66.4375 174.688 66.4167 175.188 66.375C175.698 66.3229 176.057 66.2604 176.266 66.1875V67.3281Z" fill="#F5AEB3"/>
</svg>
