<svg width="24" height="24" viewBox="0 0 24 24" fill="none" xmlns="http://www.w3.org/2000/svg">
<path d="M16.6461 7.05375L18.0861 8.49375L13.2061 13.3738L9.91609 10.0838C9.72926 9.8965 9.47561 9.79127 9.21109 9.79127C8.94657 9.79127 8.69292 9.8965 8.50609 10.0838L2.50609 16.0938C2.11609 16.4838 2.11609 17.1138 2.50609 17.5038C2.89609 17.8938 3.52609 17.8938 3.91609 17.5038L9.20609 12.2038L12.4961 15.4938C12.8861 15.8838 13.5161 15.8838 13.9061 15.4938L19.4961 9.91375L20.9361 11.3538C21.2461 11.6638 21.7861 11.4438 21.7861 11.0038V6.70375C21.7961 6.42375 21.5761 6.20375 21.2961 6.20375H17.0061C16.5561 6.20375 16.3361 6.74375 16.6461 7.05375V7.05375Z" fill="#5EA19B"/>
</svg>
