<svg width="12" height="13" viewBox="0 0 12 13" fill="none" xmlns="http://www.w3.org/2000/svg">
<g clip-path="url(#clip0_4440_54592)">
<path fill-rule="evenodd" clip-rule="evenodd" d="M11.6788 6.99681C11.6788 10.3131 9.06444 13.0014 5.83942 13.0014C2.6144 13.0014 0 10.3131 0 6.99681C0 3.68055 2.6144 0.992188 5.83942 0.992188C9.06444 0.992188 11.6788 3.68055 11.6788 6.99681ZM2.91971 6.99681C2.91971 8.64495 4.21121 9.9829 5.81031 9.99896L5.81022 9.99911C5.95752 10.0248 6.21559 10.0067 6.53419 9.91358C6.92064 9.8166 7.27696 9.64049 7.58595 9.40295C8.33565 8.88652 9.12917 7.97886 9.60584 6.45639H10C9.33863 5.53252 8.05863 4.7878 7.29054 4.39098C6.86306 4.13873 6.36762 3.9945 5.83942 3.9945C4.22692 3.9945 2.91971 5.33869 2.91971 6.99681Z" fill="#27E5B7"/>
<path fill-rule="evenodd" clip-rule="evenodd" d="M7.33132 4.41212C8.0517 4.78711 9.18586 5.45209 9.86224 6.277L11.5589 5.78015C11.0119 3.04718 8.65906 0.992188 5.83941 0.992188C4.95748 0.992188 4.12122 1.19323 3.37158 1.55318C4.33006 1.72222 6.74352 2.37473 7.33132 4.41212Z" fill="#27E5B7"/>
<path fill-rule="evenodd" clip-rule="evenodd" d="M7.33132 4.41212C8.0517 4.78711 9.18586 5.45209 9.86224 6.277L11.5589 5.78015C11.0119 3.04718 8.65906 0.992188 5.83941 0.992188C4.95748 0.992188 4.12122 1.19323 3.37158 1.55318C4.33006 1.72222 6.74352 2.37473 7.33132 4.41212Z" fill="url(#paint0_linear_4440_54592)" fill-opacity="0.5"/>
<path d="M9.08008 3.96474C9.08008 3.69943 9.28922 3.48438 9.54723 3.48438H11.5326C11.7906 3.48438 11.9998 3.69943 11.9998 3.96474V12.5213C11.9998 12.7866 11.7906 13.0017 11.5326 13.0017H9.54723C9.28922 13.0017 9.08008 12.7866 9.08008 12.5213V3.96474Z" fill="#27E5B7"/>
<path fill-rule="evenodd" clip-rule="evenodd" d="M1.30709 10.7855C1.30439 10.7743 1.3017 10.763 1.29904 10.7517C0.177872 5.99602 3.31364 4.33673 5.02167 4.10156L5.03323 4.11231C3.81271 4.47202 2.91948 5.62815 2.91948 6.99879C2.91948 8.64694 4.21095 9.98489 5.81008 10.001L5.80999 10.0011C5.95729 10.0268 6.21536 10.0087 6.53396 9.91557C6.92041 9.81859 7.27673 9.64248 7.58573 9.40493C8.22555 8.96419 8.89729 8.2385 9.37673 7.08886H11.678C11.6311 10.3636 9.03495 13.0034 5.83919 13.0034C4.01031 13.0034 2.37779 12.1389 1.30709 10.7855Z" fill="#27E5B7"/>
<path fill-rule="evenodd" clip-rule="evenodd" d="M1.30709 10.7855C1.30439 10.7743 1.3017 10.763 1.29904 10.7517C0.177872 5.99602 3.31364 4.33673 5.02167 4.10156L5.03323 4.11231C3.81271 4.47202 2.91948 5.62815 2.91948 6.99879C2.91948 8.64694 4.21095 9.98489 5.81008 10.001L5.80999 10.0011C5.95729 10.0268 6.21536 10.0087 6.53396 9.91557C6.92041 9.81859 7.27673 9.64248 7.58573 9.40493C8.22555 8.96419 8.89729 8.2385 9.37673 7.08886H11.678C11.6311 10.3636 9.03495 13.0034 5.83919 13.0034C4.01031 13.0034 2.37779 12.1389 1.30709 10.7855Z" fill="url(#paint1_linear_4440_54592)" fill-opacity="0.6"/>
<path d="M10.5399 3.00231C11.3462 3.00231 11.9998 2.33022 11.9998 1.50115C11.9998 0.67209 11.3462 0 10.5399 0C9.73368 0 9.08008 0.67209 9.08008 1.50115C9.08008 2.33022 9.73368 3.00231 10.5399 3.00231Z" fill="#27E5B7"/>
</g>
<defs>
<linearGradient id="paint0_linear_4440_54592" x1="12.2774" y1="1.38249" x2="7.22606" y2="3.53074" gradientUnits="userSpaceOnUse">
<stop offset="0.403522"/>
<stop offset="1" stop-opacity="0"/>
</linearGradient>
<linearGradient id="paint1_linear_4440_54592" x1="1.22605" y1="5.49764" x2="8.22562" y2="6.42134" gradientUnits="userSpaceOnUse">
<stop offset="0.101158"/>
<stop offset="0.982573" stop-opacity="0"/>
</linearGradient>
<clipPath id="clip0_4440_54592">
<rect width="12" height="13" fill="white"/>
</clipPath>
</defs>
</svg>
