<svg xmlns="http://www.w3.org/2000/svg" viewBox="0 0 16 16"><title>application-map-marker</title><path d="M8,1a4.3,4.3,0,0,1,4.29,4.29c0,.68-.38,2.16-2.17,5.37C9.2,12.33,8.27,13.76,8,14.18c-.22-.34-1.17-1.81-2.12-3.52C4.08,7.45,3.71,6,3.71,5.29A4.3,4.3,0,0,1,8,1M8,7.51A2.25,2.25,0,1,0,5.75,5.26,2.25,2.25,0,0,0,8,7.51M8,0A5.3,5.3,0,0,0,2.71,5.29c0,1.18.75,3.09,2.29,5.86,1.09,2,2.17,3.59,2.21,3.66L8,16l.79-1.19c0-.07,1.12-1.7,2.21-3.66,1.54-2.77,2.29-4.68,2.29-5.86A5.3,5.3,0,0,0,8,0ZM8,6.51A1.25,1.25,0,1,1,9.25,5.26,1.25,1.25,0,0,1,8,6.51Z"/></svg>