<svg xmlns="http://www.w3.org/2000/svg" viewBox="0 0 16 16"><title>application-expand</title><path d="M1.73,1H4.29a.5.5,0,0,0,0-1H0V4.28a.5.5,0,0,0,1,0V1.68L5.51,6.19a.5.5,0,0,0,.71-.71Z"/><path d="M5.5,9.78,1,14.26V11.71a.5.5,0,1,0-1,0V16H4.3a.5.5,0,0,0,0-1H1.7l4.51-4.51a.5.5,0,1,0-.71-.71Z"/><path d="M15.85,11.34a.5.5,0,0,0-.85.35v2.6L10.49,9.79a.5.5,0,1,0-.71.71L14.27,15H11.71a.5.5,0,0,0,0,1H16V11.69A.5.5,0,0,0,15.85,11.34Z"/><path d="M10.5,6.2,15,1.71V4.27a.5.5,0,0,0,1,0V0H11.7a.5.5,0,1,0,0,1h2.6L9.79,5.49a.5.5,0,0,0,.71.71Z"/></svg>