<svg xmlns="http://www.w3.org/2000/svg" viewBox="0 0 16 16"><title>application-comments</title><path d="M5.45,10.21l0-.06h.07a4.33,4.33,0,0,0,.71,0h.35a7.05,7.05,0,0,0,5-1.85,4.41,4.41,0,0,0,1.3-3.23c0-2.7-2.83-4.82-6.44-4.82S0,2.48,0,5.14A4.8,4.8,0,0,0,2.52,9.46l.06.06V9.6a5.2,5.2,0,0,1-.83,2.17l0,.07a.26.26,0,0,0,.23.35H2A8.55,8.55,0,0,0,5.45,10.21Zm-.73-.68,0,0a8.32,8.32,0,0,1-1.23.91,3.17,3.17,0,0,0,.13-.87V9.1l-.3-.29-.06-.06-.11-.11L3,8.57A3.81,3.81,0,0,1,1,5.14C1,3.07,3.52,1.32,6.51,1.32S11.95,3,11.95,5.15a3.43,3.43,0,0,1-1,2.51A6.06,6.06,0,0,1,6.62,9.21H6.27a3.42,3.42,0,0,1-.57,0H5.63l-.56-.08Z"/><path d="M13.76,13.26A4.27,4.27,0,0,0,16,9.43a4,4,0,0,0-2.13-3.31,5.32,5.32,0,0,1-.27,1A2.88,2.88,0,0,1,15,9.43a3.27,3.27,0,0,1-1.69,2.95l-.13.07-.11.1L13,12.6l-.31.29v.49a2.67,2.67,0,0,0,.06.53,6.12,6.12,0,0,1-.83-.63l0,0-.35-.43-.55.06h-.1a2.77,2.77,0,0,1-.48,0h-.31a5.26,5.26,0,0,1-3.76-1.34A3.12,3.12,0,0,1,6,11.2h-.2c-.18.15-.41.33-.67.52a4.13,4.13,0,0,0,.47.57,6.26,6.26,0,0,0,4.47,1.64h.31a3.74,3.74,0,0,0,.63,0h.06l0,0a7.61,7.61,0,0,0,3,1.75h.09a.22.22,0,0,0,.22-.22.23.23,0,0,0,0-.09l0-.06a4.63,4.63,0,0,1-.74-1.92v-.07Z"/></svg>