<svg xmlns="http://www.w3.org/2000/svg" viewBox="0 0 16 16"><defs><style>.a{fill:#231f20;}</style></defs><title>application-link</title><path class="a" d="M13.3,2.69a2.5,2.5,0,0,0-3.54,0L8.35,4.11A2.5,2.5,0,0,0,7.8,6.78L8.63,6a1.49,1.49,0,0,1,.43-1.14L10.48,3.4A1.5,1.5,0,0,1,12.6,5.52L11.18,6.93A1.49,1.49,0,0,1,10,7.36l-.83.83a2.5,2.5,0,0,0,2.68-.56L13.3,6.23A2.5,2.5,0,0,0,13.3,2.69Z"/><path class="a" d="M7.37,10s0,.05,0,.08a1.49,1.49,0,0,1-.44,1.06L5.52,12.59A1.5,1.5,0,0,1,3.4,10.47L4.82,9.06A1.49,1.49,0,0,1,6,8.62l.83-.83a2.5,2.5,0,0,0-2.68.56L2.7,9.76A2.5,2.5,0,0,0,6.23,13.3l1.41-1.42A2.49,2.49,0,0,0,8.2,9.21Z"/><path class="a" d="M5.53,10.46a.5.5,0,0,0,.71,0l4.24-4.24a.5.5,0,0,0-.71-.71L5.53,9.76A.5.5,0,0,0,5.53,10.46Z"/></svg>