<svg xmlns="http://www.w3.org/2000/svg" viewBox="0 0 16 16"><title>application-fullscreen</title><path d="M16,2.32h0V5.93a.35.35,0,0,1-.37.33h-.26A.36.36,0,0,1,15,5.89l0-3.11H11.93a.41.41,0,0,1-.42-.37V2.14a.38.38,0,0,1,.37-.37h3.77a.35.35,0,0,1,.26.1.34.34,0,0,1,.09.26l0,.18Z"/><path d="M4.13,14.22H.34a.35.35,0,0,1-.26-.1A.34.34,0,0,1,0,13.86l0-.18H0V10.06a.35.35,0,0,1,.37-.33H.66A.36.36,0,0,1,1,10.1l0,3.11H4.09a.41.41,0,0,1,.42.37v.26a.38.38,0,0,1-.37.37Z"/><path d="M16,13.86a.34.34,0,0,1-.09.26.35.35,0,0,1-.26.1H11.88a.38.38,0,0,1-.37-.37v-.26a.41.41,0,0,1,.42-.37H15l0-3.11a.36.36,0,0,1,.36-.37h.26a.35.35,0,0,1,.37.33v3.61h0l0,.18Z"/><path d="M4.09,2.77H1L1,5.89a.36.36,0,0,1-.36.37H.39A.35.35,0,0,1,0,5.93V2.33H0l0-.18a.34.34,0,0,1,.09-.26.35.35,0,0,1,.26-.1H4.13a.38.38,0,0,1,.37.37v.26a.41.41,0,0,1-.42.37Z"/><rect x="2" y="3.99" width="12" height="8"/></svg>