<svg xmlns="http://www.w3.org/2000/svg" viewBox="0 0 16 16"><title>application-collapse</title><path d="M5.86,1.55a.5.5,0,0,0-.5.5v2.6L.85.14A.5.5,0,0,0,.15.85L4.63,5.34H2.07a.5.5,0,0,0,0,1H6.36V2a.5.5,0,0,0-.5-.5Z"/><path d="M1.71,9.78a.5.5,0,0,0,.35.86h2.6L.15,15.14a.5.5,0,1,0,.71.71l4.5-4.49v2.56a.5.5,0,0,0,1,0V9.63H2.06A.5.5,0,0,0,1.71,9.78Z"/><path d="M11.37,10.64h2.56a.5.5,0,1,0,0-1H9.64v4.29a.5.5,0,0,0,1,0v-2.6l4.51,4.52a.5.5,0,0,0,.71-.71Z"/><path d="M14.29,6.2a.5.5,0,0,0-.35-.85h-2.6L15.85.84a.5.5,0,0,0-.71-.71l-4.5,4.49V2.06a.5.5,0,1,0-1,0V6.35h4.29A.5.5,0,0,0,14.29,6.2Z"/></svg>