<svg xmlns="http://www.w3.org/2000/svg" viewBox="0 0 16 16"><title>application-help-circle</title><path d="M7.95,4.16c-.71,0-2,.35-2,.63a.25.25,0,0,0,0,.12l.28.73a.14.14,0,0,0,.12.11,4.16,4.16,0,0,1,1.33-.35c.58,0,.89.27.89.76a.94.94,0,0,1-.76.93c-.38.13-.76.17-.76.43V8.84c0,.19,0,.22.22.22h.78c.19,0,.22,0,.22-.22V8.11c.63-.21,1.73-.58,1.73-2A1.93,1.93,0,0,0,7.95,4.16Z"/><path d="M7.73,10a.89.89,0,0,0-.91.91A.9.9,0,1,0,7.73,10Z"/><path d="M8,0a8,8,0,1,0,8,8A8,8,0,0,0,8,0ZM8,15a7,7,0,1,1,7-7A7,7,0,0,1,8,15Z"/></svg>