<svg xmlns="http://www.w3.org/2000/svg" viewBox="0 0 16 16"><title>application-settings</title><path d="M15,9.53l-1.3.32a5.86,5.86,0,0,1-.36.86l.7,1.16a1.15,1.15,0,0,1,0,1.41l-.71.71a1.17,1.17,0,0,1-1.45,0l-1.13-.72a6,6,0,0,1-.91.38L9.56,15a1.17,1.17,0,0,1-1.05,1h-1c-.55,0-.89-.52-1-1l-.32-1.28a5.9,5.9,0,0,1-1-.41L4.05,14A1.17,1.17,0,0,1,2.6,14l-.71-.71a1.15,1.15,0,0,1,0-1.41l.73-1.22a6.12,6.12,0,0,1-.33-.8L1,9.53c-.48-.11-1-.45-1-1v-1A1.17,1.17,0,0,1,1,6.48l1.28-.29a6.2,6.2,0,0,1,.35-.86L1.9,4.12a1.15,1.15,0,0,1,0-1.41L2.6,2A1.17,1.17,0,0,1,4.05,2l1.15.73a5.93,5.93,0,0,1,1-.41L6.5,1c.11-.48.45-1,1-1h1A1.17,1.17,0,0,1,9.55,1l.29,1.3a5.85,5.85,0,0,1,.91.38L11.88,2a1.17,1.17,0,0,1,1.45,0L14,2.7a1.15,1.15,0,0,1,0,1.41l-.7,1.16a6,6,0,0,1,.38.92L15,6.48a1.17,1.17,0,0,1,1,1.05v1c0,.55-.52.89-1,1Zm-.21-2.08L12.94,7l-.17-.55a4.77,4.77,0,0,0-.32-.76l-.25-.49,1-1.65a.64.64,0,0,0,.09-.23l-.66-.64a.37.37,0,0,0-.2.07l-1.61,1-.51-.27a5,5,0,0,0-.76-.32L9,3.06l-.42-1.9c0-.07-.08-.16-.07-.17H7.57a.72.72,0,0,0-.1.24L7,3.06l-.53.17a5,5,0,0,0-.81.34l-.51.27L3.48,2.77,3.31,2.7l-.66.66a.69.69,0,0,0,.1.24l1,1.69-.24.49a5.06,5.06,0,0,0-.29.71L3.05,7l-1.89.42A1.13,1.13,0,0,0,1,7.54H1v.93a.72.72,0,0,0,.24.1L3.08,9l.17.53a4.87,4.87,0,0,0,.27.66l.24.49-1,1.7a.66.66,0,0,0-.09.22l.66.64a.38.38,0,0,0,.2-.07l1.65-1,.51.27a4.89,4.89,0,0,0,.82.34l.53.17.46,1.84a.68.68,0,0,0,.09.22h.9a.38.38,0,0,0,.11-.21L9,12.92l.54-.18a5.06,5.06,0,0,0,.75-.32l.51-.26,1.64,1,.17.07.66-.66a.68.68,0,0,0-.1-.24l-1-1.63.25-.49a5.05,5.05,0,0,0,.3-.71L12.92,9l1.85-.46a.63.63,0,0,0,.22-.1V7.58a.35.35,0,0,0-.22-.12ZM8,11a3,3,0,1,1,3-3,3,3,0,0,1-3,3ZM8,6a2,2,0,1,0,2,2A2,2,0,0,0,8,6Z"/></svg>