<svg xmlns="http://www.w3.org/2000/svg" viewBox="0 0 16 16"><title>application-star</title><path d="M12.64,15.63a.5.5,0,0,1-.23-.06L8,13.26,3.6,15.58A.5.5,0,0,1,2.87,15l.84-4.9L.15,6.67a.5.5,0,0,1,.28-.85l4.92-.72L7.55.65a.52.52,0,0,1,.9,0l2.2,4.46,4.92.72a.5.5,0,0,1,.28.85l-3.56,3.47.84,4.9a.5.5,0,0,1-.49.58ZM8,12.2a.5.5,0,0,1,.23.06l3.74,2-.71-4.16a.5.5,0,0,1,.14-.44l3-2.95-4.18-.61a.5.5,0,0,1-.38-.27L8,2,6.13,5.78a.5.5,0,0,1-.38.27l-4.18.61,3,2.95a.5.5,0,0,1,.14.44L4,14.22l3.74-2A.5.5,0,0,1,8,12.2Z"/></svg>