<svg xmlns="http://www.w3.org/2000/svg" viewBox="0 0 16 16"><title>application-sliders</title><path d="M.5,4h9.57a2,2,0,0,0,3.86,0H15.5a.5.5,0,0,0,0-1H13.93a2,2,0,0,0-3.86,0H.5a.5.5,0,0,0,0,1ZM12,2.49a1,1,0,0,1,.86.5h0a1.05,1.05,0,0,1,.09.22v0a.9.9,0,0,1,0,.5v0a1.05,1.05,0,0,1-.09.22h0a1,1,0,0,1-1.72,0h0A1.05,1.05,0,0,1,11,3.78v0a.9.9,0,0,1,0-.5v0A1.05,1.05,0,0,1,11.14,3h0A1,1,0,0,1,12,2.49Z"/><path d="M15.5,7.49H5.93a2,2,0,0,0-3.86,0H.5a.5.5,0,0,0,0,1H2.07a2,2,0,0,0,3.86,0H15.5a.5.5,0,1,0,0-1ZM4,9a1,1,0,0,1-.86-.5h0A1.05,1.05,0,0,1,3,8.28v0a.9.9,0,0,1,0-.5v0a1.05,1.05,0,0,1,.09-.22h0a1,1,0,0,1,1.72,0h0A1.05,1.05,0,0,1,5,7.71v0a.9.9,0,0,1,0,.5v0a1.05,1.05,0,0,1-.09.22h0A1,1,0,0,1,4,9Z"/><path d="M15.5,12H10.93a2,2,0,0,0-3.86,0H.5a.5.5,0,0,0,0,1H7.07a2,2,0,0,0,3.86,0H15.5a.5.5,0,1,0,0-1ZM9,13.49a1,1,0,0,1-.86-.5h0A1.05,1.05,0,0,1,8,12.78v0a.9.9,0,0,1,0-.5v0A1.05,1.05,0,0,1,8.14,12h0a1,1,0,0,1,1.72,0h0a1.05,1.05,0,0,1,.09.22v0a.9.9,0,0,1,0,.5v0a1.05,1.05,0,0,1-.09.22h0A1,1,0,0,1,9,13.49Z"/></svg>