<svg xmlns="http://www.w3.org/2000/svg" viewBox="0 0 16 16"><title>application-share-right</title><path d="M.53,14.72h0A.45.45,0,0,0,1,14.26c0-.19.52-4.67,7.52-4.67l0,2.87a.5.5,0,0,0,.29.45.5.5,0,0,0,.53-.07l6.48-5.37A.5.5,0,0,0,16,7.09a.5.5,0,0,0-.18-.39L9.33,1.38a.5.5,0,0,0-.82.39l0,2.81A8.69,8.69,0,0,0,1.89,7.31C-.49,10.09,0,14.12.07,14.29a.47.47,0,0,0,.46.43ZM9,8.59H9c-5,0-6.92,1.69-8,3.18A7.38,7.38,0,0,1,2.65,8C4,6.39,6.17,5.57,9,5.57a.5.5,0,0,0,.5-.5V2.82l5.2,4.27L9.52,11.4V9.09a.5.5,0,0,0-.5-.5Z"/></svg>