<svg xmlns="http://www.w3.org/2000/svg" viewBox="0 0 16 16"><title>application-pencil-square</title><path d="M12.48,16H1a1,1,0,0,1-1-1V2.51a1,1,0,0,1,1-1H9l0,0-1,1H1V15H12.48V8.63l1-1V15a1,1,0,0,1-1,1ZM15.25,3.84c-.49.51-6.58,6.5-6.89,6.82a.43.43,0,0,1-.17.1c-.5.15-3.54,1.13-3.57,1.14l-.13,0a.42.42,0,0,1-.3-.12.43.43,0,0,1-.11-.43S5,8.4,5.17,7.74a.44.44,0,0,1,.11-.19L12.13.7a2.39,2.39,0,0,1,1.6-.7,2.1,2.1,0,0,1,1.48.65A2.23,2.23,0,0,1,16,2.21a2.29,2.29,0,0,1-.75,1.63Zm-.72-2.47A1.14,1.14,0,0,0,13.74,1a1.42,1.42,0,0,0-.9.41L6.09,8.15c-.14.51-.46,1.58-.73,2.46l2.39-.77.31-.3c4-4,6.19-6.11,6.47-6.4A1.36,1.36,0,0,0,15,2.23a1.29,1.29,0,0,0-.48-.86Z"/></svg>