<svg xmlns="http://www.w3.org/2000/svg" viewBox="0 0 16 16"><title>application-plane</title><path d="M5.64,16H5.56a.87.87,0,0,1-.6-.33L3,13,.34,11A.81.81,0,0,1,0,10.47v-.05a.89.89,0,0,1,.21-.61L1.27,8.74a.82.82,0,0,1,.6-.24.75.75,0,0,1,.23,0L3.89,9,6,6.92,1.13,4.25A.85.85,0,0,1,.7,3.64a.83.83,0,0,1,.24-.73L2.3,1.54a.83.83,0,0,1,.58-.25.8.8,0,0,1,.24,0L9.94,3l1.51-1.51a5.15,5.15,0,0,1,2-1.28,2,2,0,0,1,2.06.22l.06.06a2,2,0,0,1,.22,2.06,5.16,5.16,0,0,1-1.28,2L13,6.08l1.65,7.18a.81.81,0,0,1-.29.85l-1.39,1a.84.84,0,0,1-.71.14.79.79,0,0,1-.54-.44L9.08,10,7,12.12l.49,1.79a.82.82,0,0,1-.21.81l-1,1A.83.83,0,0,1,5.64,16ZM1.08,10.35l2.66,2,1.92,2.56.83-.83-.62-2.27L9.32,8.37l3.22,5.87,1.14-.85L11.93,5.76l1.92-1.92a4.14,4.14,0,0,0,1-1.64,1.18,1.18,0,0,0,0-1.07,1.18,1.18,0,0,0-1.07,0,4.13,4.13,0,0,0-1.64,1L10.25,4.07,2.94,2.32,1.79,3.47,7.63,6.68,4.18,10.13,1.91,9.51Z"/></svg>