<svg xmlns="http://www.w3.org/2000/svg" viewBox="0 0 16 16"><title>application-eye</title><path d="M8.05,11a3,3,0,1,1,3-3,3,3,0,0,1-3,3ZM8,6A2,2,0,0,0,6,8a2,2,0,0,0,2,2A2,2,0,0,0,8,6Zm8,2.15a.62.62,0,0,1,0,.08v0s0,0,0,0A8.6,8.6,0,0,1,8,13.5a8.61,8.61,0,0,1-8-5.21s0,0,0,0v0a.68.68,0,0,1,0-.08A.58.58,0,0,1,0,8a.57.57,0,0,1,0-.13A.74.74,0,0,1,0,7.8v0s0,0,0,0a8.65,8.65,0,0,1,15.9,0s0,0,0,0v0a.64.64,0,0,1,0,.08A.62.62,0,0,1,16,8a.63.63,0,0,1,0,.13ZM8,3.5A7.61,7.61,0,0,0,1,8,7.55,7.55,0,0,0,8,12.5,7.54,7.54,0,0,0,15,8,7.53,7.53,0,0,0,8,3.5Z"/></svg>