<svg xmlns="http://www.w3.org/2000/svg" viewBox="0 0 16 16"><title>application-briefcase</title><path d="M15,3H10.5V2a1,1,0,0,0-1-1h-3a1,1,0,0,0-1,1V3H1A1,1,0,0,0,0,4V14a1,1,0,0,0,1,1H15a1,1,0,0,0,1-1V4A1,1,0,0,0,15,3ZM6.75,2h2.5a.25.25,0,0,1,.25.25V3h-3V2.25A.25.25,0,0,1,6.75,2Zm8,12H1.25A.25.25,0,0,1,1,13.75V8H6.5v.5a1,1,0,0,0,1,1h1a1,1,0,0,0,1-1V8H15v5.75A.25.25,0,0,1,14.75,14ZM7.5,8.25V6.75a.25.25,0,0,1,.25-.25h.5a.25.25,0,0,1,.25.25v1.5a.25.25,0,0,1-.25.25h-.5A.25.25,0,0,1,7.5,8.25ZM15,7H9.5V6.5a1,1,0,0,0-1-1h-1a1,1,0,0,0-1,1V7H1V4.25A.25.25,0,0,1,1.25,4h13.5a.25.25,0,0,1,.25.25Z"/></svg>