<svg xmlns="http://www.w3.org/2000/svg" viewBox="0 0 16 16"><title>application-comments-filled</title><path d="M5.45,10.21l0-.06h.07a4.33,4.33,0,0,0,.71,0h.35a7.05,7.05,0,0,0,5-1.85,4.41,4.41,0,0,0,1.3-3.23c0-2.7-2.83-4.82-6.44-4.82S0,2.48,0,5.14A4.8,4.8,0,0,0,2.52,9.46l.06.06V9.6a5.2,5.2,0,0,1-.83,2.17l0,.07a.26.26,0,0,0,.23.35H2A8.55,8.55,0,0,0,5.45,10.21Z"/><path d="M13.76,13.26A4.26,4.26,0,0,0,16,9.43a4,4,0,0,0-2.13-3.31v0a5.31,5.31,0,0,1-.19.7c0,.1,0,.2-.08.29h0a5.47,5.47,0,0,1-1.23,1.93,8,8,0,0,1-5.74,2.14H5.85c-.18.15-.41.33-.67.52a4.13,4.13,0,0,0,.47.57,6.26,6.26,0,0,0,4.47,1.64h.31a3.74,3.74,0,0,0,.63,0h.06l0,0a7.61,7.61,0,0,0,3,1.75h.09a.22.22,0,0,0,.22-.22.23.23,0,0,0,0-.09l0-.06a4.63,4.63,0,0,1-.74-1.92v-.07Z"/></svg>