<svg xmlns="http://www.w3.org/2000/svg" viewBox="0 0 16 16"><title>application-bell</title><path d="M14.16,11.13a4.88,4.88,0,0,1-1.39-2.75V5.11A4.94,4.94,0,0,0,8,0,4.93,4.93,0,0,0,3.19,5.11V8.38c0,1-.87,2-1.42,2.7s-.89,1.19-.62,1.72.81.52,1.29.52H5.52c0,.06,0,.11,0,.17a2.5,2.5,0,0,0,5,0c0-.06,0-.11,0-.17H13.6c.31,0,1,0,1.27-.52S14.71,11.8,14.16,11.13ZM9.5,13.5a1.5,1.5,0,0,1-3,0,1.42,1.42,0,0,1,0-.17h3A1.53,1.53,0,0,1,9.5,13.5Zm4.1-1.17H2.44l-.31,0c.1-.18.29-.43.44-.63l.24-.31a5.14,5.14,0,0,0,1.38-3V5.11A3.92,3.92,0,0,1,8,1a3.92,3.92,0,0,1,3.8,4.11V8.38a5.73,5.73,0,0,0,1.62,3.39c.14.17.32.39.43.55Z"/></svg>