<svg xmlns="http://www.w3.org/2000/svg" viewBox="0 0 16 16"><title>application-comments-inactive</title><path d="M9.48,8.64,8,10.1a6.51,6.51,0,0,0,3.62-1.73,4.41,4.41,0,0,0,1.3-3.19l-1.2,1.2a3.48,3.48,0,0,1-.81,1.29A4.72,4.72,0,0,1,9.48,8.64Z"/><path d="M2.52,9.46l.06.06V9.6a5.2,5.2,0,0,1-.83,2.17l0,.07a.25.25,0,0,0,0,.1.25.25,0,0,0,.07.18l1.7-1.7a3.13,3.13,0,0,0,.12-.81V9.1l-.3-.29-.06-.06-.11-.11L3,8.57A3.81,3.81,0,0,1,1,5.14C1,3.07,3.52,1.32,6.51,1.32A6.32,6.32,0,0,1,11,2.92l.7-.7A7.31,7.31,0,0,0,6.51.32C2.92.32,0,2.48,0,5.14A4.8,4.8,0,0,0,2.52,9.46Z"/><path d="M13.76,13.26A4.27,4.27,0,0,0,16,9.43a4,4,0,0,0-2.13-3.31,5.32,5.32,0,0,1-.27,1A2.88,2.88,0,0,1,15,9.43a3.27,3.27,0,0,1-1.69,2.95l-.13.07-.11.1L13,12.6l-.31.29v.49a2.67,2.67,0,0,0,.06.53,6.12,6.12,0,0,1-.83-.63l0,0-.35-.43-.55.06h-.1a2.77,2.77,0,0,1-.48,0h-.31a5.33,5.33,0,0,1-3.67-1.26l-.71.71a6.31,6.31,0,0,0,4.37,1.56h.31a3.74,3.74,0,0,0,.63,0h.06l0,0a7.61,7.61,0,0,0,3,1.75h.09a.22.22,0,0,0,.22-.22.23.23,0,0,0,0-.09l0-.06a4.63,4.63,0,0,1-.74-1.92v-.07Z"/><path d="M14.85,1.15a.5.5,0,0,0-.71,0l-13,13a.5.5,0,1,0,.71.71l13-13A.5.5,0,0,0,14.85,1.15Z"/></svg>