<svg width="200" height="77" viewBox="0 0 200 77" fill="none" xmlns="http://www.w3.org/2000/svg">
<path d="M33.25 26.6719C33.8958 27.1094 34.4323 27.6823 34.8594 28.3906C35.2865 29.099 35.5 29.9583 35.5 30.9688C35.5 32 35.276 32.8958 34.8281 33.6562C34.3802 34.4167 33.7969 35.0417 33.0781 35.5312C32.3802 36.0104 31.5885 36.375 30.7031 36.625C29.8281 36.875 28.9219 37 27.9844 37H17.4844V35.8906C17.7344 35.8698 18.099 35.8281 18.5781 35.7656C19.0573 35.6927 19.401 35.6094 19.6094 35.5156C19.9323 35.3698 20.1615 35.1771 20.2969 34.9375C20.4323 34.6875 20.5 34.3698 20.5 33.9844V18.0469C20.5 17.6927 20.4375 17.3802 20.3125 17.1094C20.1979 16.8385 19.9635 16.6198 19.6094 16.4531C19.2969 16.2969 18.9479 16.1771 18.5625 16.0938C18.1771 16.0104 17.8542 15.9583 17.5938 15.9375V14.8281H27.8281C28.6198 14.8281 29.375 14.9062 30.0938 15.0625C30.8229 15.2188 31.5156 15.4948 32.1719 15.8906C32.7865 16.2552 33.2917 16.75 33.6875 17.375C34.0833 18 34.2812 18.7604 34.2812 19.6562C34.2812 20.4375 34.1406 21.1354 33.8594 21.75C33.5781 22.3542 33.1823 22.875 32.6719 23.3125C32.1927 23.7292 31.6406 24.0833 31.0156 24.375C30.401 24.6562 29.7344 24.875 29.0156 25.0312V25.1719C29.651 25.2448 30.3594 25.4062 31.1406 25.6562C31.9323 25.8958 32.6354 26.2344 33.25 26.6719ZM29.4844 23.3281C29.8698 22.8802 30.1354 22.3906 30.2812 21.8594C30.4375 21.3281 30.5156 20.6979 30.5156 19.9688C30.5156 18.75 30.1823 17.7969 29.5156 17.1094C28.849 16.4115 27.7969 16.0625 26.3594 16.0625C26.026 16.0625 25.6042 16.0729 25.0938 16.0938C24.5938 16.1042 24.1719 16.1146 23.8281 16.125V24.6406H25.8125C26.6667 24.6406 27.3958 24.5312 28 24.3125C28.6146 24.0938 29.1094 23.7656 29.4844 23.3281ZM31.6406 30.4062C31.6406 29.0938 31.1979 28.0156 30.3125 27.1719C29.4375 26.3281 28.1823 25.9062 26.5469 25.9062C25.8802 25.9062 25.3177 25.9167 24.8594 25.9375C24.401 25.9479 24.0573 25.9583 23.8281 25.9688V33.7812C23.8281 34.4375 24.0938 34.9323 24.625 35.2656C25.1562 35.599 25.8958 35.7656 26.8438 35.7656C28.3958 35.7656 29.5833 35.3125 30.4062 34.4062C31.2292 33.5 31.6406 32.1667 31.6406 30.4062ZM49.8594 23.5781C49.8594 24.1094 49.7292 24.5833 49.4688 25C49.2083 25.4062 48.8073 25.6094 48.2656 25.6094C47.6823 25.6094 47.2344 25.4583 46.9219 25.1562C46.6198 24.8542 46.4688 24.5208 46.4688 24.1562C46.4688 23.9271 46.4844 23.7188 46.5156 23.5312C46.5573 23.3438 46.5938 23.1562 46.625 22.9688C46.1354 22.9688 45.5625 23.1667 44.9062 23.5625C44.25 23.9583 43.6927 24.5208 43.2344 25.25V34.2188C43.2344 34.5833 43.3021 34.8802 43.4375 35.1094C43.5833 35.3385 43.8073 35.5104 44.1094 35.625C44.3698 35.7292 44.7031 35.8073 45.1094 35.8594C45.526 35.9115 45.8854 35.9479 46.1875 35.9688V37H38.0625V35.9688C38.3021 35.9479 38.5469 35.9271 38.7969 35.9062C39.0573 35.8854 39.2812 35.8438 39.4688 35.7812C39.7604 35.6875 39.974 35.526 40.1094 35.2969C40.2552 35.0573 40.3281 34.75 40.3281 34.375V24.8594C40.3281 24.5365 40.25 24.2188 40.0938 23.9062C39.9479 23.5938 39.7396 23.3438 39.4688 23.1562C39.2708 23.0312 39.0365 22.9427 38.7656 22.8906C38.4948 22.8281 38.2031 22.7865 37.8906 22.7656V21.75L43.0156 21.4062L43.2344 21.625V23.7969H43.3125C43.9583 22.9531 44.6771 22.3125 45.4688 21.875C46.2604 21.4375 46.9844 21.2188 47.6406 21.2188C48.2969 21.2188 48.8281 21.4323 49.2344 21.8594C49.651 22.2865 49.8594 22.8594 49.8594 23.5781ZM65.7812 36.7188C65.2917 36.8958 64.8594 37.0365 64.4844 37.1406C64.1198 37.2552 63.7031 37.3125 63.2344 37.3125C62.4219 37.3125 61.7708 37.125 61.2812 36.75C60.8021 36.3646 60.4948 35.8073 60.3594 35.0781H60.2656C59.5885 35.8281 58.8594 36.401 58.0781 36.7969C57.3073 37.1927 56.375 37.3906 55.2812 37.3906C54.125 37.3906 53.1719 37.0365 52.4219 36.3281C51.6823 35.6198 51.3125 34.6927 51.3125 33.5469C51.3125 32.9531 51.3958 32.4219 51.5625 31.9531C51.7292 31.4844 51.9792 31.0625 52.3125 30.6875C52.5729 30.375 52.9167 30.099 53.3438 29.8594C53.7708 29.6094 54.1719 29.4115 54.5469 29.2656C55.0156 29.0885 55.9635 28.7604 57.3906 28.2812C58.8281 27.8021 59.7969 27.4271 60.2969 27.1562V25.6094C60.2969 25.474 60.2656 25.2135 60.2031 24.8281C60.151 24.4427 60.0312 24.0781 59.8438 23.7344C59.6354 23.349 59.3385 23.0156 58.9531 22.7344C58.5781 22.4427 58.0417 22.2969 57.3438 22.2969C56.8646 22.2969 56.4167 22.3802 56 22.5469C55.5938 22.7031 55.3073 22.8698 55.1406 23.0469C55.1406 23.2552 55.1875 23.5625 55.2812 23.9688C55.3854 24.375 55.4375 24.75 55.4375 25.0938C55.4375 25.4583 55.2708 25.7917 54.9375 26.0938C54.6146 26.3958 54.1615 26.5469 53.5781 26.5469C53.0573 26.5469 52.6719 26.3646 52.4219 26C52.1823 25.625 52.0625 25.2083 52.0625 24.75C52.0625 24.2708 52.2292 23.8125 52.5625 23.375C52.9062 22.9375 53.349 22.5469 53.8906 22.2031C54.3594 21.9115 54.9271 21.6667 55.5938 21.4688C56.2604 21.2604 56.9115 21.1562 57.5469 21.1562C58.4219 21.1562 59.1823 21.2188 59.8281 21.3438C60.4844 21.4583 61.0781 21.7135 61.6094 22.1094C62.1406 22.4948 62.5417 23.0208 62.8125 23.6875C63.0938 24.3438 63.2344 25.1927 63.2344 26.2344C63.2344 27.724 63.2188 29.0469 63.1875 30.2031C63.1562 31.349 63.1406 32.6042 63.1406 33.9688C63.1406 34.375 63.2083 34.6979 63.3438 34.9375C63.4896 35.1771 63.7083 35.3802 64 35.5469C64.1562 35.6406 64.401 35.6927 64.7344 35.7031C65.0781 35.7135 65.4271 35.7188 65.7812 35.7188V36.7188ZM60.3281 28.4688C59.4427 28.7292 58.6667 28.9844 58 29.2344C57.3333 29.4844 56.7135 29.7969 56.1406 30.1719C55.6198 30.526 55.2083 30.9479 54.9062 31.4375C54.6042 31.9167 54.4531 32.4896 54.4531 33.1562C54.4531 34.0208 54.6771 34.6562 55.125 35.0625C55.5833 35.4688 56.1615 35.6719 56.8594 35.6719C57.599 35.6719 58.25 35.4948 58.8125 35.1406C59.375 34.776 59.849 34.349 60.2344 33.8594L60.3281 28.4688ZM84.3281 37H76.7812V35.9688C77.0208 35.9479 77.2812 35.9271 77.5625 35.9062C77.8542 35.8854 78.0938 35.8438 78.2812 35.7812C78.5729 35.6875 78.7865 35.526 78.9219 35.2969C79.0677 35.0573 79.1406 34.75 79.1406 34.375V26.4531C79.1406 25.3594 78.8802 24.5156 78.3594 23.9219C77.849 23.3281 77.224 23.0312 76.4844 23.0312C75.9323 23.0312 75.4271 23.1198 74.9688 23.2969C74.5104 23.4635 74.1042 23.6719 73.75 23.9219C73.4062 24.1615 73.1302 24.4219 72.9219 24.7031C72.724 24.974 72.5781 25.1927 72.4844 25.3594V34.2188C72.4844 34.5729 72.5573 34.8646 72.7031 35.0938C72.849 35.3229 73.0677 35.5 73.3594 35.625C73.5781 35.7292 73.8125 35.8073 74.0625 35.8594C74.3229 35.9115 74.5885 35.9479 74.8594 35.9688V37H67.3125V35.9688C67.5521 35.9479 67.7969 35.9271 68.0469 35.9062C68.3073 35.8854 68.5312 35.8438 68.7188 35.7812C69.0104 35.6875 69.224 35.526 69.3594 35.2969C69.5052 35.0573 69.5781 34.75 69.5781 34.375V24.8594C69.5781 24.5052 69.5 24.1823 69.3438 23.8906C69.1979 23.5885 68.9896 23.3438 68.7188 23.1562C68.5208 23.0312 68.2865 22.9427 68.0156 22.8906C67.7448 22.8281 67.4531 22.7865 67.1406 22.7656V21.75L72.2656 21.4062L72.4844 21.625V23.7969H72.5625C72.8125 23.5469 73.125 23.25 73.5 22.9062C73.875 22.5521 74.2292 22.2656 74.5625 22.0469C74.9479 21.7969 75.4062 21.5885 75.9375 21.4219C76.4688 21.2552 77.0677 21.1719 77.7344 21.1719C79.2135 21.1719 80.3073 21.6354 81.0156 22.5625C81.7344 23.4792 82.0938 24.7031 82.0938 26.2344V34.25C82.0938 34.6146 82.1562 34.9115 82.2812 35.1406C82.4062 35.3594 82.6198 35.5312 82.9219 35.6562C83.1719 35.7604 83.3854 35.8333 83.5625 35.875C83.75 35.9167 84.0052 35.9479 84.3281 35.9688V37ZM103.094 36.7188L97.7188 37.0625L97.4844 36.8438V35.4062L97.3594 35.375C96.8177 35.9792 96.1458 36.474 95.3438 36.8594C94.5521 37.2448 93.7344 37.4375 92.8906 37.4375C92.0156 37.4375 91.1667 37.2448 90.3438 36.8594C89.5312 36.4635 88.8229 35.9115 88.2188 35.2031C87.6042 34.4844 87.1146 33.6198 86.75 32.6094C86.3958 31.599 86.2188 30.4844 86.2188 29.2656C86.2188 28.151 86.4115 27.0938 86.7969 26.0938C87.1823 25.0938 87.7135 24.2188 88.3906 23.4688C89.026 22.7708 89.8021 22.2135 90.7188 21.7969C91.6458 21.3802 92.5885 21.1719 93.5469 21.1719C94.2656 21.1719 94.9688 21.2656 95.6562 21.4531C96.3542 21.6302 96.9531 21.8594 97.4531 22.1406V16.7812C97.4531 16.3438 97.3802 15.9479 97.2344 15.5938C97.0885 15.2292 96.8854 14.9531 96.625 14.7656C96.3333 14.5677 95.9375 14.4271 95.4375 14.3438C94.9479 14.25 94.4167 14.1823 93.8438 14.1406V13.1719L100.141 12.8125L100.375 13.0469V33.8281C100.375 34.1927 100.443 34.5052 100.578 34.7656C100.724 35.0156 100.932 35.2292 101.203 35.4062C101.401 35.5312 101.688 35.6094 102.062 35.6406C102.438 35.6719 102.781 35.6927 103.094 35.7031V36.7188ZM97.4531 34.0156V25C97.3698 24.7292 97.2344 24.4375 97.0469 24.125C96.8594 23.8125 96.625 23.526 96.3438 23.2656C96.0417 23.0052 95.6875 22.7917 95.2812 22.625C94.875 22.4479 94.401 22.3594 93.8594 22.3594C93.2344 22.3594 92.6562 22.5208 92.125 22.8438C91.6042 23.1667 91.1406 23.6302 90.7344 24.2344C90.349 24.8177 90.0417 25.5625 89.8125 26.4688C89.5938 27.3646 89.4844 28.3594 89.4844 29.4531C89.4844 30.3281 89.5677 31.125 89.7344 31.8438C89.901 32.5521 90.1823 33.2135 90.5781 33.8281C90.9427 34.4115 91.4062 34.8802 91.9688 35.2344C92.5417 35.5885 93.2188 35.7656 94 35.7656C94.8333 35.7656 95.5208 35.5833 96.0625 35.2188C96.6146 34.8542 97.0781 34.4531 97.4531 34.0156ZM125.453 15.9375C125.182 15.9479 124.854 16.0104 124.469 16.125C124.083 16.2292 123.766 16.3594 123.516 16.5156C123.161 16.7344 122.875 17.0156 122.656 17.3594C122.448 17.7031 122.24 18.1094 122.031 18.5781C121.333 20.2344 120.286 22.8177 118.891 26.3281C117.495 29.8281 116.057 33.4792 114.578 37.2812H113.281C111.781 33.25 110.333 29.3646 108.938 25.625C107.542 21.8854 106.594 19.3594 106.094 18.0469C105.969 17.724 105.802 17.4427 105.594 17.2031C105.385 16.9531 105.109 16.7188 104.766 16.5C104.484 16.3229 104.172 16.1927 103.828 16.1094C103.484 16.0156 103.167 15.9583 102.875 15.9375V14.8281H112.047V15.9375C111.266 15.9792 110.604 16.0573 110.062 16.1719C109.531 16.2865 109.266 16.4896 109.266 16.7812C109.266 16.8958 109.286 17.0312 109.328 17.1875C109.37 17.3438 109.406 17.4688 109.438 17.5625C109.823 18.5833 110.448 20.25 111.312 22.5625C112.177 24.8646 113.406 28.1458 115 32.4062C115.792 30.4792 116.703 28.2031 117.734 25.5781C118.766 22.9531 119.458 21.151 119.812 20.1719C120.156 19.224 120.354 18.5677 120.406 18.2031C120.469 17.8385 120.5 17.5417 120.5 17.3125C120.5 17.0729 120.391 16.875 120.172 16.7188C119.964 16.5521 119.682 16.4115 119.328 16.2969C118.984 16.1927 118.635 16.1146 118.281 16.0625C117.927 16.0104 117.568 15.9688 117.203 15.9375V14.8281H125.453V15.9375ZM142.453 36.7188L137.438 37.0625L137.203 36.8438V34.8906H137.109C136.859 35.151 136.578 35.4323 136.266 35.7344C135.953 36.026 135.594 36.2917 135.188 36.5312C134.719 36.8125 134.266 37.026 133.828 37.1719C133.391 37.3177 132.771 37.3906 131.969 37.3906C130.604 37.3906 129.562 36.9479 128.844 36.0625C128.135 35.1667 127.781 33.8698 127.781 32.1719V24.7969C127.781 24.4219 127.708 24.1094 127.562 23.8594C127.427 23.599 127.224 23.375 126.953 23.1875C126.766 23.0625 126.531 22.974 126.25 22.9219C125.969 22.8594 125.672 22.8177 125.359 22.7969V21.7812L130.5 21.4062L130.734 21.625V32.3281C130.734 33.4427 130.984 34.2812 131.484 34.8438C131.984 35.4062 132.583 35.6875 133.281 35.6875C133.854 35.6875 134.365 35.599 134.812 35.4219C135.26 35.2448 135.635 35.0365 135.938 34.7969C136.219 34.5781 136.464 34.349 136.672 34.1094C136.891 33.8594 137.057 33.6302 137.172 33.4219V24.6875C137.172 24.3438 137.099 24.0417 136.953 23.7812C136.807 23.5104 136.604 23.2812 136.344 23.0938C136.156 22.9688 135.875 22.8958 135.5 22.875C135.135 22.8438 134.724 22.8177 134.266 22.7969V21.7812L139.859 21.4062L140.094 21.625V33.8594C140.094 34.2135 140.167 34.5156 140.312 34.7656C140.458 35.0156 140.661 35.2292 140.922 35.4062C141.109 35.5208 141.333 35.599 141.594 35.6406C141.854 35.6719 142.141 35.6927 142.453 35.7031V36.7188ZM158.031 33.375C157.385 34.6042 156.521 35.5833 155.438 36.3125C154.354 37.0417 153.109 37.4062 151.703 37.4062C150.464 37.4062 149.375 37.1875 148.438 36.75C147.51 36.3125 146.745 35.7188 146.141 34.9688C145.536 34.2188 145.083 33.3438 144.781 32.3438C144.49 31.3438 144.344 30.2865 144.344 29.1719C144.344 28.1719 144.5 27.1927 144.812 26.2344C145.135 25.2656 145.604 24.3958 146.219 23.625C146.812 22.8854 147.547 22.2917 148.422 21.8438C149.307 21.3854 150.297 21.1562 151.391 21.1562C152.516 21.1562 153.479 21.3333 154.281 21.6875C155.083 22.0417 155.734 22.526 156.234 23.1406C156.714 23.724 157.068 24.4115 157.297 25.2031C157.536 25.9948 157.656 26.8542 157.656 27.7812V28.8125H147.453C147.453 29.8229 147.547 30.7396 147.734 31.5625C147.932 32.3854 148.24 33.1094 148.656 33.7344C149.062 34.3385 149.594 34.8177 150.25 35.1719C150.906 35.5156 151.688 35.6875 152.594 35.6875C153.521 35.6875 154.318 35.474 154.984 35.0469C155.661 34.6094 156.312 33.8281 156.938 32.7031L158.031 33.375ZM154.578 27.5C154.578 26.9167 154.526 26.2917 154.422 25.625C154.328 24.9583 154.172 24.401 153.953 23.9531C153.714 23.474 153.385 23.0833 152.969 22.7812C152.552 22.4792 152.016 22.3281 151.359 22.3281C150.266 22.3281 149.354 22.7865 148.625 23.7031C147.906 24.6094 147.516 25.875 147.453 27.5H154.578Z" fill="white"/>
<path d="M28.2944 53.0898H27.5254C27.3818 52.5498 27.0811 51.9722 26.623 51.3569C26.1719 50.7417 25.7378 50.4033 25.3208 50.3418C25.1089 50.3145 24.856 50.2939 24.562 50.2803C24.2749 50.2666 23.9468 50.2598 23.5776 50.2598H21.1372V56.1045H22.8086C23.3145 56.1045 23.7075 56.0532 23.9878 55.9507C24.2681 55.8413 24.5073 55.6772 24.7056 55.4585C24.8423 55.3081 24.9653 55.0757 25.0747 54.7612C25.1909 54.4399 25.2661 54.0981 25.3003 53.7358H26.0796V59.4473H25.3003C25.2798 59.1465 25.208 58.8047 25.085 58.4219C24.9688 58.0391 24.8423 57.7622 24.7056 57.5913C24.5005 57.3384 24.2407 57.1675 23.9263 57.0786C23.6187 56.9829 23.2461 56.9351 22.8086 56.9351H21.1372V61.9492C21.1372 62.1748 21.1816 62.3765 21.2705 62.5542C21.3594 62.7319 21.5166 62.8755 21.7422 62.9849C21.8447 63.0327 22.0669 63.0908 22.4087 63.1592C22.7505 63.2275 23.0103 63.2651 23.188 63.272V64H16.8818V63.272C17.0869 63.2583 17.3604 63.2378 17.7021 63.2104C18.0439 63.1763 18.2661 63.1353 18.3687 63.0874C18.5737 62.9985 18.7207 62.8687 18.8096 62.6978C18.9053 62.52 18.9531 62.3081 18.9531 62.062V51.562C18.9531 51.3364 18.9155 51.1382 18.8403 50.9673C18.7651 50.7896 18.6079 50.646 18.3687 50.5366C18.1841 50.4478 17.9346 50.3691 17.6201 50.3008C17.3125 50.2324 17.0664 50.1914 16.8818 50.1777V49.4497H28.2944V53.0898ZM34.2417 64H29.3506V63.3232C29.5078 63.3096 29.6685 63.2959 29.8325 63.2822C30.0034 63.2686 30.1504 63.2412 30.2734 63.2002C30.4648 63.1387 30.605 63.0327 30.6938 62.8823C30.7896 62.7251 30.8374 62.5234 30.8374 62.2773V56.0327C30.8374 55.814 30.7861 55.6157 30.6836 55.438C30.5879 55.2534 30.4512 55.0996 30.2734 54.9766C30.1436 54.8945 29.9556 54.8262 29.7095 54.7715C29.4634 54.71 29.2378 54.6724 29.0327 54.6587V53.9922L32.6011 53.7666L32.7446 53.9102V62.1543C32.7446 62.3936 32.7891 62.5918 32.8779 62.749C32.9736 62.9062 33.1206 63.0225 33.3188 63.0977C33.4692 63.1592 33.6162 63.2104 33.7598 63.2515C33.9033 63.2856 34.064 63.3096 34.2417 63.3232V64ZM32.9497 49.7778C32.9497 50.1675 32.8198 50.5093 32.5601 50.8032C32.3071 51.0903 31.9927 51.2339 31.6167 51.2339C31.2681 51.2339 30.9639 51.0972 30.7041 50.8237C30.4512 50.5435 30.3247 50.2256 30.3247 49.8701C30.3247 49.4941 30.4512 49.166 30.7041 48.8857C30.9639 48.6055 31.2681 48.4653 31.6167 48.4653C32.0063 48.4653 32.3242 48.5986 32.5703 48.8652C32.8232 49.125 32.9497 49.4292 32.9497 49.7778ZM46.6489 64H41.6963V63.3232C41.8535 63.3096 42.0244 63.2959 42.209 63.2822C42.4004 63.2686 42.5576 63.2412 42.6807 63.2002C42.8721 63.1387 43.0122 63.0327 43.1011 62.8823C43.1968 62.7251 43.2446 62.5234 43.2446 62.2773V57.0786C43.2446 56.3608 43.0737 55.8071 42.7319 55.4175C42.397 55.0278 41.9868 54.833 41.5015 54.833C41.1392 54.833 40.8076 54.8911 40.5068 55.0073C40.2061 55.1167 39.9395 55.2534 39.707 55.4175C39.4814 55.5747 39.3003 55.7456 39.1636 55.9302C39.0337 56.1079 38.938 56.2515 38.8765 56.3608V62.1748C38.8765 62.4072 38.9243 62.5986 39.02 62.749C39.1157 62.8994 39.2593 63.0156 39.4507 63.0977C39.5942 63.166 39.748 63.2173 39.9121 63.2515C40.083 63.2856 40.2573 63.3096 40.4351 63.3232V64H35.4824V63.3232C35.6396 63.3096 35.8003 63.2959 35.9644 63.2822C36.1353 63.2686 36.2822 63.2412 36.4053 63.2002C36.5967 63.1387 36.7368 63.0327 36.8257 62.8823C36.9214 62.7251 36.9692 62.5234 36.9692 62.2773V56.0327C36.9692 55.8003 36.918 55.5884 36.8154 55.397C36.7197 55.1987 36.583 55.0381 36.4053 54.915C36.2754 54.833 36.1216 54.7749 35.9438 54.7407C35.7661 54.6997 35.5747 54.6724 35.3696 54.6587V53.9922L38.7329 53.7666L38.8765 53.9102V55.3354H38.9277C39.0918 55.1714 39.2969 54.9766 39.543 54.751C39.7891 54.5186 40.0215 54.3306 40.2402 54.187C40.4932 54.0229 40.7939 53.8862 41.1426 53.7769C41.4912 53.6675 41.8843 53.6128 42.3218 53.6128C43.2925 53.6128 44.0103 53.917 44.4751 54.5254C44.9468 55.127 45.1826 55.9302 45.1826 56.9351V62.1953C45.1826 62.4346 45.2236 62.6294 45.3057 62.7798C45.3877 62.9233 45.5278 63.0361 45.7261 63.1182C45.8901 63.1865 46.0303 63.2344 46.1465 63.2617C46.2695 63.2891 46.437 63.3096 46.6489 63.3232V64ZM57.4668 63.8154C57.1455 63.9316 56.8618 64.0239 56.6157 64.0923C56.3765 64.1675 56.103 64.2051 55.7954 64.2051C55.2622 64.2051 54.835 64.082 54.5137 63.8359C54.1992 63.583 53.9976 63.2173 53.9087 62.7388H53.8472C53.4028 63.231 52.9243 63.6069 52.4116 63.8667C51.9058 64.1265 51.2939 64.2563 50.5762 64.2563C49.8174 64.2563 49.1919 64.0239 48.6997 63.5591C48.2144 63.0942 47.9717 62.4858 47.9717 61.7339C47.9717 61.3442 48.0264 60.9956 48.1357 60.688C48.2451 60.3804 48.4092 60.1035 48.6279 59.8574C48.7988 59.6523 49.0244 59.4712 49.3047 59.314C49.585 59.1499 49.8481 59.02 50.0942 58.9243C50.4019 58.8081 51.0239 58.5928 51.9604 58.2783C52.9038 57.9639 53.5396 57.7178 53.8677 57.54V56.5249C53.8677 56.436 53.8472 56.2651 53.8062 56.0122C53.772 55.7593 53.6934 55.52 53.5703 55.2944C53.4336 55.0415 53.2388 54.8228 52.9858 54.6382C52.7397 54.4468 52.3877 54.3511 51.9297 54.3511C51.6152 54.3511 51.3213 54.4058 51.0479 54.5151C50.7812 54.6177 50.5933 54.7271 50.4839 54.8433C50.4839 54.98 50.5146 55.1816 50.5762 55.4482C50.6445 55.7148 50.6787 55.9609 50.6787 56.1865C50.6787 56.4258 50.5693 56.6445 50.3506 56.8428C50.1387 57.041 49.8413 57.1401 49.4585 57.1401C49.1167 57.1401 48.8638 57.0205 48.6997 56.7812C48.5425 56.5352 48.4639 56.2617 48.4639 55.9609C48.4639 55.6465 48.5732 55.3457 48.792 55.0586C49.0176 54.7715 49.3081 54.5151 49.6636 54.2896C49.9712 54.0981 50.3438 53.9375 50.7812 53.8076C51.2188 53.6709 51.646 53.6025 52.063 53.6025C52.6372 53.6025 53.1362 53.6436 53.5601 53.7256C53.9907 53.8008 54.3804 53.9683 54.729 54.228C55.0776 54.481 55.3408 54.8262 55.5186 55.2637C55.7031 55.6943 55.7954 56.2515 55.7954 56.9351C55.7954 57.9126 55.7852 58.7808 55.7646 59.5396C55.7441 60.2915 55.7339 61.1152 55.7339 62.0107C55.7339 62.2773 55.7783 62.4893 55.8672 62.6465C55.9629 62.8037 56.1064 62.937 56.2979 63.0464C56.4004 63.1079 56.561 63.1421 56.7798 63.1489C57.0054 63.1558 57.2344 63.1592 57.4668 63.1592V63.8154ZM53.8882 58.4014C53.3071 58.5723 52.7979 58.7397 52.3604 58.9038C51.9229 59.0679 51.5161 59.2729 51.1401 59.519C50.7983 59.7515 50.5283 60.0283 50.3301 60.3496C50.1318 60.6641 50.0327 61.04 50.0327 61.4775C50.0327 62.0449 50.1797 62.4619 50.4736 62.7285C50.7744 62.9951 51.1538 63.1284 51.6118 63.1284C52.0972 63.1284 52.5244 63.0122 52.8936 62.7798C53.2627 62.5405 53.5737 62.2603 53.8267 61.939L53.8882 58.4014ZM69.6382 64H64.6855V63.3232C64.8428 63.3096 65.0137 63.2959 65.1982 63.2822C65.3896 63.2686 65.5469 63.2412 65.6699 63.2002C65.8613 63.1387 66.0015 63.0327 66.0903 62.8823C66.186 62.7251 66.2339 62.5234 66.2339 62.2773V57.0786C66.2339 56.3608 66.063 55.8071 65.7212 55.4175C65.3862 55.0278 64.9761 54.833 64.4907 54.833C64.1284 54.833 63.7969 54.8911 63.4961 55.0073C63.1953 55.1167 62.9287 55.2534 62.6963 55.4175C62.4707 55.5747 62.2896 55.7456 62.1528 55.9302C62.0229 56.1079 61.9272 56.2515 61.8657 56.3608V62.1748C61.8657 62.4072 61.9136 62.5986 62.0093 62.749C62.105 62.8994 62.2485 63.0156 62.4399 63.0977C62.5835 63.166 62.7373 63.2173 62.9014 63.2515C63.0723 63.2856 63.2466 63.3096 63.4243 63.3232V64H58.4717V63.3232C58.6289 63.3096 58.7896 63.2959 58.9536 63.2822C59.1245 63.2686 59.2715 63.2412 59.3945 63.2002C59.5859 63.1387 59.7261 63.0327 59.8149 62.8823C59.9106 62.7251 59.9585 62.5234 59.9585 62.2773V56.0327C59.9585 55.8003 59.9072 55.5884 59.8047 55.397C59.709 55.1987 59.5723 55.0381 59.3945 54.915C59.2646 54.833 59.1108 54.7749 58.9331 54.7407C58.7554 54.6997 58.564 54.6724 58.3589 54.6587V53.9922L61.7222 53.7666L61.8657 53.9102V55.3354H61.917C62.0811 55.1714 62.2861 54.9766 62.5322 54.751C62.7783 54.5186 63.0107 54.3306 63.2295 54.187C63.4824 54.0229 63.7832 53.8862 64.1318 53.7769C64.4805 53.6675 64.8735 53.6128 65.311 53.6128C66.2817 53.6128 66.9995 53.917 67.4644 54.5254C67.936 55.127 68.1719 55.9302 68.1719 56.9351V62.1953C68.1719 62.4346 68.2129 62.6294 68.2949 62.7798C68.377 62.9233 68.5171 63.0361 68.7153 63.1182C68.8794 63.1865 69.0195 63.2344 69.1357 63.2617C69.2588 63.2891 69.4263 63.3096 69.6382 63.3232V64ZM75.5547 64.2666C74.0918 64.2666 72.9468 63.7812 72.1196 62.8105C71.2925 61.8398 70.8789 60.5376 70.8789 58.9038C70.8789 58.1929 70.9883 57.5298 71.207 56.9146C71.4326 56.2925 71.7573 55.7285 72.1812 55.2227C72.5845 54.7373 73.0903 54.3477 73.6987 54.0537C74.3071 53.7529 74.9702 53.6025 75.688 53.6025C76.6792 53.6025 77.4858 53.8418 78.1079 54.3203C78.73 54.792 79.041 55.438 79.041 56.2583C79.041 56.6001 78.959 56.9043 78.7949 57.1709C78.6309 57.4307 78.3608 57.5605 77.9849 57.5605C77.5815 57.5605 77.2671 57.458 77.0415 57.2529C76.8228 57.0479 76.7134 56.8188 76.7134 56.5659C76.7134 56.2583 76.7544 55.9438 76.8364 55.6226C76.9185 55.2944 76.9663 55.0552 76.98 54.9048C76.8569 54.6929 76.6724 54.5527 76.4263 54.4844C76.187 54.4092 75.9272 54.3716 75.647 54.3716C75.3188 54.3716 75.0044 54.4434 74.7036 54.5869C74.4097 54.7236 74.1226 54.98 73.8423 55.356C73.5894 55.6978 73.3843 56.1592 73.2271 56.7402C73.0698 57.3213 72.9912 58.0151 72.9912 58.8218C72.9912 60.0933 73.2715 61.1323 73.832 61.939C74.3994 62.7388 75.1411 63.1387 76.0571 63.1387C76.7202 63.1387 77.2739 62.978 77.7183 62.6567C78.1694 62.3354 78.5864 61.8535 78.9692 61.2109L79.6255 61.6416C79.1743 62.4482 78.5796 63.0874 77.8413 63.5591C77.103 64.0308 76.3408 64.2666 75.5547 64.2666ZM85.3267 64H80.4355V63.3232C80.5928 63.3096 80.7534 63.2959 80.9175 63.2822C81.0884 63.2686 81.2354 63.2412 81.3584 63.2002C81.5498 63.1387 81.6899 63.0327 81.7788 62.8823C81.8745 62.7251 81.9224 62.5234 81.9224 62.2773V56.0327C81.9224 55.814 81.8711 55.6157 81.7686 55.438C81.6729 55.2534 81.5361 55.0996 81.3584 54.9766C81.2285 54.8945 81.0405 54.8262 80.7944 54.7715C80.5483 54.71 80.3228 54.6724 80.1177 54.6587V53.9922L83.686 53.7666L83.8296 53.9102V62.1543C83.8296 62.3936 83.874 62.5918 83.9629 62.749C84.0586 62.9062 84.2056 63.0225 84.4038 63.0977C84.5542 63.1592 84.7012 63.2104 84.8447 63.2515C84.9883 63.2856 85.1489 63.3096 85.3267 63.3232V64ZM84.0347 49.7778C84.0347 50.1675 83.9048 50.5093 83.645 50.8032C83.3921 51.0903 83.0776 51.2339 82.7017 51.2339C82.353 51.2339 82.0488 51.0972 81.7891 50.8237C81.5361 50.5435 81.4097 50.2256 81.4097 49.8701C81.4097 49.4941 81.5361 49.166 81.7891 48.8857C82.0488 48.6055 82.353 48.4653 82.7017 48.4653C83.0913 48.4653 83.4092 48.5986 83.6553 48.8652C83.9082 49.125 84.0347 49.4292 84.0347 49.7778ZM96.1445 63.8154C95.8232 63.9316 95.5396 64.0239 95.2935 64.0923C95.0542 64.1675 94.7808 64.2051 94.4731 64.2051C93.9399 64.2051 93.5127 64.082 93.1914 63.8359C92.877 63.583 92.6753 63.2173 92.5864 62.7388H92.5249C92.0806 63.231 91.6021 63.6069 91.0894 63.8667C90.5835 64.1265 89.9717 64.2563 89.2539 64.2563C88.4951 64.2563 87.8696 64.0239 87.3774 63.5591C86.8921 63.0942 86.6494 62.4858 86.6494 61.7339C86.6494 61.3442 86.7041 60.9956 86.8135 60.688C86.9229 60.3804 87.0869 60.1035 87.3057 59.8574C87.4766 59.6523 87.7021 59.4712 87.9824 59.314C88.2627 59.1499 88.5259 59.02 88.772 58.9243C89.0796 58.8081 89.7017 58.5928 90.6382 58.2783C91.5815 57.9639 92.2173 57.7178 92.5454 57.54V56.5249C92.5454 56.436 92.5249 56.2651 92.4839 56.0122C92.4497 55.7593 92.3711 55.52 92.248 55.2944C92.1113 55.0415 91.9165 54.8228 91.6636 54.6382C91.4175 54.4468 91.0654 54.3511 90.6074 54.3511C90.293 54.3511 89.999 54.4058 89.7256 54.5151C89.459 54.6177 89.271 54.7271 89.1616 54.8433C89.1616 54.98 89.1924 55.1816 89.2539 55.4482C89.3223 55.7148 89.3564 55.9609 89.3564 56.1865C89.3564 56.4258 89.2471 56.6445 89.0283 56.8428C88.8164 57.041 88.519 57.1401 88.1362 57.1401C87.7944 57.1401 87.5415 57.0205 87.3774 56.7812C87.2202 56.5352 87.1416 56.2617 87.1416 55.9609C87.1416 55.6465 87.251 55.3457 87.4697 55.0586C87.6953 54.7715 87.9858 54.5151 88.3413 54.2896C88.6489 54.0981 89.0215 53.9375 89.459 53.8076C89.8965 53.6709 90.3237 53.6025 90.7407 53.6025C91.3149 53.6025 91.814 53.6436 92.2378 53.7256C92.6685 53.8008 93.0581 53.9683 93.4067 54.228C93.7554 54.481 94.0186 54.8262 94.1963 55.2637C94.3809 55.6943 94.4731 56.2515 94.4731 56.9351C94.4731 57.9126 94.4629 58.7808 94.4424 59.5396C94.4219 60.2915 94.4116 61.1152 94.4116 62.0107C94.4116 62.2773 94.4561 62.4893 94.5449 62.6465C94.6406 62.8037 94.7842 62.937 94.9756 63.0464C95.0781 63.1079 95.2388 63.1421 95.4575 63.1489C95.6831 63.1558 95.9121 63.1592 96.1445 63.1592V63.8154ZM92.5659 58.4014C91.9849 58.5723 91.4756 58.7397 91.0381 58.9038C90.6006 59.0679 90.1938 59.2729 89.8179 59.519C89.4761 59.7515 89.2061 60.0283 89.0078 60.3496C88.8096 60.6641 88.7104 61.04 88.7104 61.4775C88.7104 62.0449 88.8574 62.4619 89.1514 62.7285C89.4521 62.9951 89.8315 63.1284 90.2896 63.1284C90.7749 63.1284 91.2021 63.0122 91.5713 62.7798C91.9404 62.5405 92.2515 62.2603 92.5044 61.939L92.5659 58.4014ZM101.887 64H96.9546V63.3232C97.1118 63.3096 97.2793 63.2959 97.457 63.2822C97.6348 63.2617 97.7817 63.2344 97.8979 63.2002C98.0894 63.1387 98.2329 63.0327 98.3286 62.8823C98.4243 62.7251 98.4722 62.5234 98.4722 62.2773V50.5674C98.4722 50.3213 98.4175 50.0923 98.3081 49.8804C98.2056 49.6616 98.0688 49.4907 97.8979 49.3677C97.7749 49.2856 97.5493 49.2104 97.2212 49.1421C96.8931 49.0737 96.6299 49.0327 96.4316 49.019V48.3628L100.236 48.127L100.379 48.2808V62.1543C100.379 62.3936 100.424 62.5918 100.513 62.749C100.602 62.8994 100.745 63.0156 100.943 63.0977C101.094 63.166 101.241 63.2173 101.384 63.2515C101.535 63.2856 101.702 63.3096 101.887 63.3232V64ZM117.544 57.3247C117.852 57.6665 118.078 58.0425 118.221 58.4526C118.372 58.856 118.447 59.3276 118.447 59.8677C118.447 61.1528 117.972 62.2124 117.021 63.0464C116.071 63.8804 114.892 64.2974 113.484 64.2974C112.834 64.2974 112.185 64.1982 111.536 64C110.886 63.7949 110.326 63.5488 109.854 63.2617L109.413 64.0103H108.593L108.449 59.0269H109.28C109.451 59.6421 109.649 60.1992 109.875 60.6982C110.107 61.1904 110.411 61.6519 110.787 62.0825C111.143 62.4858 111.556 62.8071 112.028 63.0464C112.506 63.2856 113.06 63.4053 113.689 63.4053C114.161 63.4053 114.571 63.3438 114.919 63.2207C115.275 63.0977 115.562 62.9233 115.781 62.6978C116 62.4722 116.16 62.209 116.263 61.9082C116.372 61.6006 116.427 61.2485 116.427 60.8521C116.427 60.271 116.263 59.731 115.935 59.2319C115.606 58.7261 115.118 58.3433 114.468 58.0835C114.024 57.9058 113.515 57.7109 112.94 57.499C112.366 57.2803 111.871 57.0752 111.454 56.8838C110.633 56.5146 109.994 56.0327 109.536 55.438C109.085 54.8364 108.859 54.0537 108.859 53.0898C108.859 52.5361 108.972 52.02 109.198 51.5415C109.423 51.063 109.745 50.6357 110.162 50.2598C110.558 49.9043 111.026 49.6274 111.566 49.4292C112.106 49.2241 112.67 49.1216 113.258 49.1216C113.928 49.1216 114.526 49.2241 115.053 49.4292C115.586 49.6343 116.071 49.8735 116.509 50.147L116.929 49.4497H117.75L117.832 54.2793H117.001C116.851 53.7256 116.68 53.1958 116.488 52.6899C116.304 52.1841 116.061 51.7261 115.76 51.3159C115.466 50.9194 115.107 50.605 114.684 50.3726C114.26 50.1333 113.74 50.0137 113.125 50.0137C112.476 50.0137 111.922 50.2222 111.464 50.6392C111.006 51.0562 110.777 51.5654 110.777 52.167C110.777 52.7959 110.924 53.3188 111.218 53.7358C111.512 54.146 111.939 54.4844 112.5 54.751C112.999 54.9902 113.487 55.1987 113.966 55.3765C114.451 55.5474 114.919 55.7319 115.371 55.9302C115.781 56.1079 116.174 56.3096 116.55 56.5352C116.933 56.7607 117.264 57.0239 117.544 57.3247ZM128.998 61.6211C128.574 62.4277 128.007 63.0703 127.296 63.5488C126.585 64.0273 125.768 64.2666 124.845 64.2666C124.032 64.2666 123.317 64.123 122.702 63.8359C122.094 63.5488 121.591 63.1592 121.195 62.667C120.798 62.1748 120.501 61.6006 120.303 60.9443C120.111 60.2881 120.016 59.5942 120.016 58.8628C120.016 58.2065 120.118 57.564 120.323 56.9351C120.535 56.2993 120.843 55.7285 121.246 55.2227C121.636 54.7373 122.118 54.3477 122.692 54.0537C123.273 53.7529 123.922 53.6025 124.64 53.6025C125.378 53.6025 126.011 53.7188 126.537 53.9512C127.063 54.1836 127.491 54.5015 127.819 54.9048C128.133 55.2876 128.366 55.7388 128.516 56.2583C128.673 56.7778 128.752 57.3418 128.752 57.9502V58.627H122.056C122.056 59.29 122.118 59.8916 122.241 60.4316C122.371 60.9717 122.572 61.4468 122.846 61.8569C123.112 62.2534 123.461 62.5679 123.892 62.8003C124.322 63.0259 124.835 63.1387 125.43 63.1387C126.038 63.1387 126.561 62.9985 126.999 62.7183C127.443 62.4312 127.87 61.9185 128.28 61.1802L128.998 61.6211ZM126.732 57.7656C126.732 57.3828 126.698 56.9727 126.629 56.5352C126.568 56.0977 126.465 55.7319 126.322 55.438C126.165 55.1235 125.949 54.8672 125.676 54.6689C125.402 54.4707 125.05 54.3716 124.62 54.3716C123.902 54.3716 123.304 54.6724 122.825 55.2739C122.354 55.8687 122.097 56.6992 122.056 57.7656H126.732ZM137.909 55.1919C137.909 55.5405 137.823 55.8516 137.652 56.125C137.481 56.3916 137.218 56.5249 136.863 56.5249C136.48 56.5249 136.186 56.4258 135.981 56.2275C135.783 56.0293 135.684 55.8105 135.684 55.5713C135.684 55.4209 135.694 55.2842 135.714 55.1611C135.742 55.0381 135.766 54.915 135.786 54.792C135.465 54.792 135.089 54.9219 134.658 55.1816C134.228 55.4414 133.862 55.8105 133.561 56.2891V62.1748C133.561 62.4141 133.605 62.6089 133.694 62.7593C133.79 62.9097 133.937 63.0225 134.135 63.0977C134.306 63.166 134.525 63.2173 134.792 63.2515C135.065 63.2856 135.301 63.3096 135.499 63.3232V64H130.167V63.3232C130.324 63.3096 130.485 63.2959 130.649 63.2822C130.82 63.2686 130.967 63.2412 131.09 63.2002C131.281 63.1387 131.421 63.0327 131.51 62.8823C131.606 62.7251 131.654 62.5234 131.654 62.2773V56.0327C131.654 55.8208 131.603 55.6123 131.5 55.4072C131.404 55.2021 131.268 55.0381 131.09 54.915C130.96 54.833 130.806 54.7749 130.628 54.7407C130.451 54.6997 130.259 54.6724 130.054 54.6587V53.9922L133.417 53.7666L133.561 53.9102V55.3354H133.612C134.036 54.7817 134.508 54.3613 135.027 54.0742C135.547 53.7871 136.022 53.6436 136.453 53.6436C136.883 53.6436 137.232 53.7837 137.499 54.064C137.772 54.3442 137.909 54.7202 137.909 55.1919ZM148.768 54.5151C148.46 54.5698 148.166 54.6826 147.886 54.8535C147.612 55.0176 147.376 55.3115 147.178 55.7354C146.775 56.6514 146.358 57.6084 145.927 58.6064C145.497 59.5977 145.049 60.6401 144.584 61.7339C144.447 62.0483 144.3 62.4209 144.143 62.8516C143.993 63.2822 143.853 63.6958 143.723 64.0923H142.923C142.273 62.4858 141.675 61.0229 141.128 59.7036C140.582 58.3774 140.014 57.0205 139.426 55.6328C139.29 55.3184 139.067 55.0757 138.76 54.9048C138.459 54.7271 138.155 54.6143 137.847 54.5664V53.8896H142.523V54.6074C142.318 54.6143 142.062 54.6587 141.754 54.7407C141.446 54.8159 141.292 54.9219 141.292 55.0586C141.292 55.0791 141.31 55.1338 141.344 55.2227C141.378 55.3047 141.412 55.4004 141.446 55.5098C141.727 56.207 142.123 57.1812 142.636 58.4321C143.148 59.6831 143.565 60.6914 143.887 61.457C144.133 60.8691 144.44 60.1377 144.81 59.2627C145.186 58.3877 145.589 57.4102 146.02 56.3301C146.088 56.1455 146.153 55.9746 146.214 55.8174C146.276 55.6533 146.307 55.4893 146.307 55.3252C146.307 55.209 146.249 55.1064 146.132 55.0176C146.023 54.9219 145.89 54.8398 145.732 54.7715C145.575 54.7031 145.421 54.6519 145.271 54.6177C145.121 54.5835 144.998 54.5596 144.902 54.5459V53.8896H148.768V54.5151ZM154.13 64H149.239V63.3232C149.396 63.3096 149.557 63.2959 149.721 63.2822C149.892 63.2686 150.039 63.2412 150.162 63.2002C150.354 63.1387 150.494 63.0327 150.583 62.8823C150.678 62.7251 150.726 62.5234 150.726 62.2773V56.0327C150.726 55.814 150.675 55.6157 150.572 55.438C150.477 55.2534 150.34 55.0996 150.162 54.9766C150.032 54.8945 149.844 54.8262 149.598 54.7715C149.352 54.71 149.126 54.6724 148.921 54.6587V53.9922L152.49 53.7666L152.633 53.9102V62.1543C152.633 62.3936 152.678 62.5918 152.767 62.749C152.862 62.9062 153.009 63.0225 153.208 63.0977C153.358 63.1592 153.505 63.2104 153.648 63.2515C153.792 63.2856 153.953 63.3096 154.13 63.3232V64ZM152.838 49.7778C152.838 50.1675 152.708 50.5093 152.449 50.8032C152.196 51.0903 151.881 51.2339 151.505 51.2339C151.157 51.2339 150.853 51.0972 150.593 50.8237C150.34 50.5435 150.213 50.2256 150.213 49.8701C150.213 49.4941 150.34 49.166 150.593 48.8857C150.853 48.6055 151.157 48.4653 151.505 48.4653C151.895 48.4653 152.213 48.5986 152.459 48.8652C152.712 49.125 152.838 49.4292 152.838 49.7778ZM160.047 64.2666C158.584 64.2666 157.439 63.7812 156.612 62.8105C155.785 61.8398 155.371 60.5376 155.371 58.9038C155.371 58.1929 155.48 57.5298 155.699 56.9146C155.925 56.2925 156.25 55.7285 156.673 55.2227C157.077 54.7373 157.583 54.3477 158.191 54.0537C158.799 53.7529 159.462 53.6025 160.18 53.6025C161.171 53.6025 161.978 53.8418 162.6 54.3203C163.222 54.792 163.533 55.438 163.533 56.2583C163.533 56.6001 163.451 56.9043 163.287 57.1709C163.123 57.4307 162.853 57.5605 162.477 57.5605C162.074 57.5605 161.759 57.458 161.534 57.2529C161.315 57.0479 161.206 56.8188 161.206 56.5659C161.206 56.2583 161.247 55.9438 161.329 55.6226C161.411 55.2944 161.458 55.0552 161.472 54.9048C161.349 54.6929 161.165 54.5527 160.918 54.4844C160.679 54.4092 160.419 54.3716 160.139 54.3716C159.811 54.3716 159.497 54.4434 159.196 54.5869C158.902 54.7236 158.615 54.98 158.334 55.356C158.082 55.6978 157.876 56.1592 157.719 56.7402C157.562 57.3213 157.483 58.0151 157.483 58.8218C157.483 60.0933 157.764 61.1323 158.324 61.939C158.892 62.7388 159.633 63.1387 160.549 63.1387C161.212 63.1387 161.766 62.978 162.21 62.6567C162.662 62.3354 163.079 61.8535 163.461 61.2109L164.118 61.6416C163.667 62.4482 163.072 63.0874 162.333 63.5591C161.595 64.0308 160.833 64.2666 160.047 64.2666ZM173.89 61.6211C173.466 62.4277 172.898 63.0703 172.188 63.5488C171.477 64.0273 170.66 64.2666 169.737 64.2666C168.923 64.2666 168.209 64.123 167.594 63.8359C166.985 63.5488 166.483 63.1592 166.086 62.667C165.69 62.1748 165.393 61.6006 165.194 60.9443C165.003 60.2881 164.907 59.5942 164.907 58.8628C164.907 58.2065 165.01 57.564 165.215 56.9351C165.427 56.2993 165.734 55.7285 166.138 55.2227C166.527 54.7373 167.009 54.3477 167.583 54.0537C168.165 53.7529 168.814 53.6025 169.532 53.6025C170.27 53.6025 170.902 53.7188 171.429 53.9512C171.955 54.1836 172.382 54.5015 172.71 54.9048C173.025 55.2876 173.257 55.7388 173.408 56.2583C173.565 56.7778 173.644 57.3418 173.644 57.9502V58.627H166.948C166.948 59.29 167.009 59.8916 167.132 60.4316C167.262 60.9717 167.464 61.4468 167.737 61.8569C168.004 62.2534 168.353 62.5679 168.783 62.8003C169.214 63.0259 169.727 63.1387 170.321 63.1387C170.93 63.1387 171.453 62.9985 171.89 62.7183C172.334 62.4312 172.762 61.9185 173.172 61.1802L173.89 61.6211ZM171.624 57.7656C171.624 57.3828 171.589 56.9727 171.521 56.5352C171.459 56.0977 171.357 55.7319 171.213 55.438C171.056 55.1235 170.841 54.8672 170.567 54.6689C170.294 54.4707 169.942 54.3716 169.511 54.3716C168.793 54.3716 168.195 54.6724 167.717 55.2739C167.245 55.8687 166.989 56.6992 166.948 57.7656H171.624ZM181.734 59.0474C182.014 59.2935 182.229 59.5771 182.38 59.8984C182.53 60.2197 182.605 60.6128 182.605 61.0776C182.605 62.0142 182.253 62.7798 181.549 63.3745C180.852 63.9692 179.946 64.2666 178.832 64.2666C178.244 64.2666 177.701 64.1606 177.202 63.9487C176.709 63.7368 176.357 63.542 176.146 63.3643L175.94 64.0308H175.171L175.069 60.5137H175.776C175.831 60.7803 175.947 61.0913 176.125 61.4468C176.303 61.8022 176.518 62.1235 176.771 62.4106C177.038 62.7114 177.355 62.9644 177.725 63.1694C178.101 63.3745 178.521 63.4771 178.986 63.4771C179.642 63.4771 180.148 63.3301 180.503 63.0361C180.859 62.7354 181.037 62.3081 181.037 61.7544C181.037 61.4673 180.979 61.2212 180.862 61.0161C180.753 60.8042 180.589 60.6196 180.37 60.4624C180.145 60.3052 179.868 60.165 179.54 60.042C179.211 59.9121 178.846 59.7856 178.442 59.6626C178.121 59.5669 177.762 59.437 177.366 59.2729C176.976 59.1021 176.641 58.9038 176.361 58.6782C176.06 58.439 175.814 58.145 175.623 57.7964C175.431 57.4478 175.335 57.0376 175.335 56.5659C175.335 55.7388 175.643 55.0381 176.258 54.4639C176.874 53.8896 177.697 53.6025 178.729 53.6025C179.126 53.6025 179.529 53.6538 179.939 53.7563C180.356 53.8589 180.695 53.9819 180.955 54.1255L181.19 53.5923H181.929L182.083 56.8428H181.375C181.231 56.1182 180.92 55.5303 180.442 55.0791C179.97 54.6211 179.393 54.3921 178.709 54.3921C178.148 54.3921 177.708 54.5322 177.386 54.8125C177.065 55.0928 176.904 55.4312 176.904 55.8276C176.904 56.1353 176.956 56.3916 177.058 56.5967C177.167 56.8018 177.328 56.9761 177.54 57.1196C177.745 57.2563 178.001 57.3862 178.309 57.5093C178.624 57.6255 179.01 57.7588 179.468 57.9092C179.919 58.0527 180.343 58.2202 180.739 58.4116C181.143 58.603 181.474 58.8149 181.734 59.0474Z" fill="#F5AEB3"/>
</svg>
