<svg xmlns="http://www.w3.org/2000/svg" viewBox="0 0 16 16"><title>social-media-kakao</title><path d="M14.75,0H1.25A1.25,1.25,0,0,0,0,1.25v13.5A1.25,1.25,0,0,0,1.25,16h13.5A1.25,1.25,0,0,0,16,14.75V1.25A1.25,1.25,0,0,0,14.75,0ZM8,12.5a8.25,8.25,0,0,1-1.15-.08c-.37.26-2.54,1.79-2.75,1.82a.2.2,0,0,1-.15,0c-.07,0-.06-.15-.06-.15s.56-2,.66-2.36a5,5,0,0,1-3-4.34C1.5,4.54,4.41,2.25,8,2.25s6.5,2.29,6.5,5.12S11.59,12.5,8,12.5Z"/><path d="M5.73,6.21a.37.37,0,0,0-.37-.37H3.45a.37.37,0,1,0,0,.73H4V8.81a.38.38,0,0,0,.75,0V6.58h.59A.37.37,0,0,0,5.73,6.21Z"/><path d="M7.13,6.21a.52.52,0,0,0-1,0l-.9,2.36c-.11.35,0,.48.09.53a.57.57,0,0,0,.24.05A.31.31,0,0,0,5.87,9l.19-.49H7.2L7.38,9a.31.31,0,0,0,.31.17.57.57,0,0,0,.24-.05c.1,0,.2-.18.09-.53ZM6.25,7.84l.37-1.06L7,7.84Z"/><path d="M9.83,8.42H9V6.22a.38.38,0,0,0-.77,0V8.77a.35.35,0,0,0,.36.34h1.2a.34.34,0,1,0,0-.69Z"/><path d="M11.77,7.33l.85-.85a.29.29,0,0,0,.08-.23.38.38,0,0,0-.37-.35.29.29,0,0,0-.21.08l-1,1V6.22a.37.37,0,1,0-.75,0V8.78a.37.37,0,1,0,.75,0V8l.13-.13L12.09,9a.38.38,0,1,0,.6-.45Z"/></svg>