<svg xmlns="http://www.w3.org/2000/svg" viewBox="0 0 16 16"><title>social-media-pinterest</title><path d="M1.85,5.74a5.31,5.31,0,0,1,.36-2,5.06,5.06,0,0,1,1-1.6A6.8,6.8,0,0,1,4.66,1,6.7,6.7,0,0,1,6.44.25,7.59,7.59,0,0,1,8.38,0a6.38,6.38,0,0,1,2.83.64A5.37,5.37,0,0,1,13.34,2.5a4.86,4.86,0,0,1,.82,2.76A8.83,8.83,0,0,1,14,7.07a7.23,7.23,0,0,1-.58,1.7,6,6,0,0,1-1,1.44,4.19,4.19,0,0,1-1.4,1,4.38,4.38,0,0,1-1.82.37,3,3,0,0,1-1.3-.31A1.93,1.93,0,0,1,7,10.41c-.06.25-.15.61-.27,1.08l-.23.91c0,.14-.1.37-.2.68a5,5,0,0,1-.25.68l-.31.6a6.63,6.63,0,0,1-.44.74c-.16.23-.36.51-.6.83l-.13,0-.09-.1c-.1-1-.15-1.61-.15-1.81a10.74,10.74,0,0,1,.21-2q.21-1.1.64-2.76c.29-1.11.46-1.76.5-2a3.71,3.71,0,0,1-.31-1.63,2.54,2.54,0,0,1,.5-1.5,1.51,1.51,0,0,1,1.27-.7A1.12,1.12,0,0,1,8.07,4a1.48,1.48,0,0,1,.33,1A6.13,6.13,0,0,1,8,6.78a6.06,6.06,0,0,0-.42,1.8,1.31,1.31,0,0,0,.43,1A1.49,1.49,0,0,0,9,10a2,2,0,0,0,1-.24,2.22,2.22,0,0,0,.76-.65,5.45,5.45,0,0,0,.54-.91,5.39,5.39,0,0,0,.37-1.06A10.8,10.8,0,0,0,11.86,6a8.06,8.06,0,0,0,.06-1,3.28,3.28,0,0,0-1.05-2.59,4,4,0,0,0-2.75-.93A4.44,4.44,0,0,0,4.91,2.81,4.2,4.2,0,0,0,3.63,6a2.83,2.83,0,0,0,.12.82A2.78,2.78,0,0,0,4,7.41l.26.44a.71.71,0,0,1,.12.29,2.39,2.39,0,0,1-.14.7q-.15.43-.36.43l-.16,0a2,2,0,0,1-.87-.54,2.82,2.82,0,0,1-.59-.91,5.88,5.88,0,0,1-.31-1,5.19,5.19,0,0,1-.11-1"/></svg>