<svg xmlns="http://www.w3.org/2000/svg" viewBox="0 0 16 16"><title>social-media-twitter</title><path d="M16,3a6.85,6.85,0,0,1-1.64,1.69c0,.1,0,.24,0,.43A9.32,9.32,0,0,1,14,7.8a9.55,9.55,0,0,1-1.17,2.52,10,10,0,0,1-1.87,2.14,8.3,8.3,0,0,1-2.62,1.48A9.58,9.58,0,0,1,5,14.5,9.11,9.11,0,0,1,0,13a7.08,7.08,0,0,0,.79,0,6.42,6.42,0,0,0,4.07-1.4A3.29,3.29,0,0,1,1.8,9.39a4.2,4.2,0,0,0,.62,0,3.32,3.32,0,0,0,.86-.11A3.23,3.23,0,0,1,1.4,8.2,3.17,3.17,0,0,1,.65,6.11v0a3.26,3.26,0,0,0,1.48.42A3.23,3.23,0,0,1,1.07,5.32a3.18,3.18,0,0,1-.4-1.56A3.21,3.21,0,0,1,1.12,2.1a9.3,9.3,0,0,0,3,2.42,9.13,9.13,0,0,0,3.77,1,3.67,3.67,0,0,1-.08-.75,3.16,3.16,0,0,1,1-2.32,3.28,3.28,0,0,1,4.72.08,6.43,6.43,0,0,0,2.08-.79,3.19,3.19,0,0,1-1.44,1.81A6.53,6.53,0,0,0,16,3"/></svg>