<svg xmlns="http://www.w3.org/2000/svg" viewBox="0 0 16 16"><title>social-media-youtube</title><path d="M16,6.66C16,7,16,7.43,16,8s0,1,0,1.34,0,.73-.07,1.22a10.34,10.34,0,0,1-.2,1.32A2.08,2.08,0,0,1,15.1,13a1.87,1.87,0,0,1-1.11.52,58.36,58.36,0,0,1-6,.22,58.36,58.36,0,0,1-6-.22A1.9,1.9,0,0,1,.9,13a2.07,2.07,0,0,1-.62-1.1,11,11,0,0,1-.19-1.32C0,10.07,0,9.66,0,9.34S0,8.57,0,8,0,7,0,6.66s0-.73.08-1.22a10.1,10.1,0,0,1,.2-1.32A2.08,2.08,0,0,1,.9,3,1.89,1.89,0,0,1,2,2.51a59.78,59.78,0,0,1,6-.22,59.78,59.78,0,0,1,6,.22A1.89,1.89,0,0,1,15.1,3a2.06,2.06,0,0,1,.62,1.1,11.51,11.51,0,0,1,.19,1.32c0,.49.07.9.07,1.22M11.43,8a.51.51,0,0,0-.27-.48L6.59,4.66a.54.54,0,0,0-.58,0,.53.53,0,0,0-.29.5v5.71a.53.53,0,0,0,.29.5.62.62,0,0,0,.28.07.51.51,0,0,0,.3-.09l4.57-2.86A.51.51,0,0,0,11.43,8"/></svg>