<svg xmlns="http://www.w3.org/2000/svg" viewBox="0 0 16 16"><title>social-media-vine</title><path d="M15,8v1.9a8.53,8.53,0,0,1-1.91.22,15.89,15.89,0,0,1-1.59,2.61,18.63,18.63,0,0,1-1.75,2.07,6.5,6.5,0,0,1-1.23,1,1.47,1.47,0,0,1-1.56,0,5.49,5.49,0,0,1-.58-.42,9,9,0,0,1-.82-.8,11.58,11.58,0,0,1-1-1.24,15.29,15.29,0,0,1-1-1.77,20.85,20.85,0,0,1-1-2.35,27.46,27.46,0,0,1-.88-3A37.49,37.49,0,0,1,1,2.41H3.71a32.6,32.6,0,0,0,.67,3.83,18.06,18.06,0,0,0,1,3,19.24,19.24,0,0,0,1.17,2.27A17.1,17.1,0,0,0,7.9,13.43a14.76,14.76,0,0,0,2.76-3.91A5,5,0,0,1,8.52,7.41a6.56,6.56,0,0,1-.78-3.2,4.51,4.51,0,0,1,1-3A3.39,3.39,0,0,1,11.47,0,3.35,3.35,0,0,1,14.1,1,4.13,4.13,0,0,1,15,3.88a6.54,6.54,0,0,1-.56,2.75l-.19,0a3.17,3.17,0,0,1-.44,0,3.1,3.1,0,0,1-.61-.06,1.94,1.94,0,0,1-.6-.24,1.35,1.35,0,0,1-.49-.5,6.25,6.25,0,0,0,.3-1.77,2.37,2.37,0,0,0-.28-1.27.87.87,0,0,0-.76-.43.94.94,0,0,0-.82.47,2.49,2.49,0,0,0-.31,1.35,3.87,3.87,0,0,0,1,2.82,3.43,3.43,0,0,0,2.57,1A5,5,0,0,0,15,8"/></svg>