<svg xmlns="http://www.w3.org/2000/svg" viewBox="0 0 16 16"><title>social-media-linkedin</title><path d="M3.86,2.14a1.64,1.64,0,0,1-.53,1.27,2,2,0,0,1-1.41.51h0A1.87,1.87,0,0,1,.52,3.41,1.7,1.7,0,0,1,0,2.14,1.68,1.68,0,0,1,.54.86,2,2,0,0,1,1.94.35,1.9,1.9,0,0,1,3.32.86a1.74,1.74,0,0,1,.53,1.28M3.64,15.65H.2V5.32H3.64ZM16,9.73v5.92H12.57V10.13a3,3,0,0,0-.42-1.71,1.48,1.48,0,0,0-1.32-.62,1.69,1.69,0,0,0-1.1.36A2.21,2.21,0,0,0,9.07,9,2.51,2.51,0,0,0,9,9.89v5.76H5.53q0-4.16,0-6.74c0-1.72,0-2.75,0-3.08v-.5H9v1.5h0a4.49,4.49,0,0,1,.43-.58A4.3,4.3,0,0,1,10,5.7a2.64,2.64,0,0,1,.91-.45,4.07,4.07,0,0,1,1.19-.16,3.7,3.7,0,0,1,2.87,1.18A5,5,0,0,1,16,9.73"/></svg>