<svg xmlns="http://www.w3.org/2000/svg" viewBox="0 0 16 16"><title>social-media-youku</title><path d="M7.2,2.23a1.23,1.23,0,0,0-.7.21c-.46.32-.72,1.31-1,2S4.82,6,4.48,6.58c-.9-1-1.52-3.3-2.61-4.13a1.46,1.46,0,0,0-1.47,0c-.94.71,0,2,.38,2.61.83,1.44,1.75,3,2.45,4.3-.45,1.2-2.76,4.6.33,4.41A5.21,5.21,0,0,0,5,11.37C5.86,9.51,6.56,7.9,7.42,6c.36-.8,1.22-2,1-2.88A1.26,1.26,0,0,0,7.2,2.23ZM14.65,3a1.19,1.19,0,0,0-1.09.61,10.75,10.75,0,0,1-1,1,3.74,3.74,0,0,1-.6.6,3.22,3.22,0,0,1-.82.76V3.86c0-1.15-2.17-1.15-2.18,0v6c.09.43.29.76.76.81h.65a.85.85,0,0,0,.76-.81V8.59c0-.45-.08-1.22.22-.76s1.07.9,1.63,1.41S14,10.54,14.6,10.66A1.12,1.12,0,0,0,15.85,9c-.46-.86-1.77-1.41-2.34-2.18.38-.87,2.46-1.41,2.28-2.94A1,1,0,0,0,14.65,3Z"/></svg>