<svg xmlns="http://www.w3.org/2000/svg" viewBox="0 0 16 16"><title>social-media-wechat</title><path d="M11,5.64A5.68,5.68,0,0,0,7.2,7.18,4.54,4.54,0,0,0,5.79,11c-.58-.07-1.11-.15-1.64-.2a1,1,0,0,0-.56.09c-.52.29-1,.62-1.6,1,.11-.49.18-.91.3-1.32a.5.5,0,0,0-.23-.67,4.53,4.53,0,0,1-2-5.08A5,5,0,0,1,3.63,1.4a5.93,5.93,0,0,1,6.47,1.9A4.43,4.43,0,0,1,11,5.64ZM4.19,5a.68.68,0,0,0-.66-.68A.67.67,0,0,0,2.84,5a.66.66,0,0,0,.65.68A.68.68,0,0,0,4.19,5Zm3.57-.69A.69.69,0,0,0,7.09,5a.67.67,0,0,0,.69.65.66.66,0,1,0,0-1.33Z"/><path d="M14.36,14.9A5,5,0,0,0,13,14.33a7.61,7.61,0,0,0-1.42.27,4.74,4.74,0,0,1-3.84-1.25A3.9,3.9,0,0,1,8.36,7,5.17,5.17,0,0,1,15,8a3.79,3.79,0,0,1-.44,5.29c-.46.41-.62.74-.33,1.28a1.52,1.52,0,0,1,.09.35ZM9,9.72A.55.55,0,1,0,9,8.61.55.55,0,1,0,9,9.72Zm3.45-1.11a.55.55,0,0,0-.55.53.55.55,0,1,0,.55-.53Z"/></svg>