<svg xmlns="http://www.w3.org/2000/svg" viewBox="0 0 16 16"><title>social-media-weibo</title><path d="M16,5.4a4.08,4.08,0,0,0-4.74-3.8c-.35,0-.69,0-.76.45-.16.92.86.63,1.3.63a3.11,3.11,0,0,1,3.09,3.13c0,.64-.51,1.7.45,1.61C15.9,7.36,16.05,6.3,16,5.4Z"/><path d="M11.74,7.55a2,2,0,0,0,0-1.92c-.9-1-2.93,0-3.89.09.45-1.36,0-2.74-1.7-2.32A7.85,7.85,0,0,0,2.43,5.67,7,7,0,0,0,0,9.79c-.19,2,1,2.95,2.24,3.62,3.56,2,9.25.9,11.14-1.74A3.48,3.48,0,0,0,14,10.28C14.19,8.47,12.85,8.16,11.74,7.55Zm-1.21,4.29a6.55,6.55,0,0,1-5.1,1.7c-1.78-.12-4.21-1.17-3.76-3.4a3.29,3.29,0,0,1,1.7-2.06,6.21,6.21,0,0,1,2.86-.85c2.2-.18,5,.64,5,2.86A2.7,2.7,0,0,1,10.53,11.84Z"/><path d="M13.3,6.7c.39,0,.59-.62.49-1.3a1.92,1.92,0,0,0-2.1-1.65c-.26,0-.72,0-.72.49,0,.71.79.3,1.3.54a1.22,1.22,0,0,1,.58.89C12.89,6.26,12.65,6.74,13.3,6.7Z"/><path d="M6,8.49C4.49,8.65,3,10,3.64,11.62c.91,2.48,5.87,1.14,4.92-1.74A2.3,2.3,0,0,0,6,8.49Zm-.54,3.4c-1.17.28-1.37-1.23-.31-1.48C6.42,10.12,6.31,11.69,5.48,11.89Zm.81-1.52c0-.45.58-.5.63-.18A.34.34,0,0,1,6.28,10.37Z"/></svg>