<svg xmlns="http://www.w3.org/2000/svg" viewBox="0 0 16 16"><title>social-media-tumblr</title><path d="M11.83,12.78l.77,2.28a2.14,2.14,0,0,1-1.07.64,5.37,5.37,0,0,1-1.7.31A5.63,5.63,0,0,1,8,15.75,4.21,4.21,0,0,1,6.63,15a4.5,4.5,0,0,1-.91-1,4.19,4.19,0,0,1-.53-1.15A4.28,4.28,0,0,1,5,11.73V6.5H3.41V4.43a4.62,4.62,0,0,0,1.24-.67,4.27,4.27,0,0,0,.87-.87,5,5,0,0,0,.56-1,5.75,5.75,0,0,0,.33-1A7.81,7.81,0,0,0,6.55.12a.15.15,0,0,1,0-.08.1.1,0,0,1,.07,0H9V4.08h3.2V6.5H9v5a2.23,2.23,0,0,0,.06.54,1.89,1.89,0,0,0,.22.5,1.06,1.06,0,0,0,.48.4,1.82,1.82,0,0,0,.78.13,3.13,3.13,0,0,0,1.29-.28"/></svg>