<svg xmlns="http://www.w3.org/2000/svg" viewBox="0 0 16 16"><title>social-media-google-plus</title><path d="M10,8.12a5.36,5.36,0,0,1-.61,2.57,4.35,4.35,0,0,1-1.72,1.77,5.11,5.11,0,0,1-2.56.63,5,5,0,0,1-2-.4A5,5,0,0,1,.4,10a5.06,5.06,0,0,1,0-4A5,5,0,0,1,3.11,3.31a5,5,0,0,1,2-.4A4.82,4.82,0,0,1,8.5,4.24L7.12,5.57a2.8,2.8,0,0,0-2-.79,3.05,3.05,0,0,0-1.58.43A3.23,3.23,0,0,0,1.94,8a3.23,3.23,0,0,0,1.57,2.79,3,3,0,0,0,1.58.43,3.33,3.33,0,0,0,1.06-.16,2.67,2.67,0,0,0,.8-.4,3,3,0,0,0,.54-.54,2.45,2.45,0,0,0,.34-.58A2.6,2.6,0,0,0,8,9H5.09V7.27H9.9a4.44,4.44,0,0,1,.08.85m6-.85V8.73H14.55v1.45H13.09V8.73H11.64V7.27h1.45V5.82h1.46V7.27Z"/></svg>