<svg xmlns="http://www.w3.org/2000/svg" viewBox="0 0 16 16"><title>file-types-film</title><path d="M13.63,4.25h-1a.5.5,0,0,1-.5-.5v-.5a.5.5,0,0,1,.5-.5h1a.5.5,0,0,1,.5.5v.5a.5.5,0,0,1-.5.5Zm0,3h-1a.5.5,0,0,1-.5-.5v-.5a.5.5,0,0,1,.5-.5h1a.5.5,0,0,1,.5.5v.5a.5.5,0,0,1-.5.5Zm0,3h-1a.5.5,0,0,1-.5-.5v-.5a.5.5,0,0,1,.5-.5h1a.5.5,0,0,1,.5.5v.5a.5.5,0,0,1-.5.5Zm0,3h-1a.5.5,0,0,1-.5-.5v-.5a.5.5,0,0,1,.5-.5h1a.5.5,0,0,1,.5.5v.5a.5.5,0,0,1-.5.5Zm-10-9h-1a.5.5,0,0,1-.5-.5v-.5a.5.5,0,0,1,.5-.5h1a.5.5,0,0,1,.5.5v.5a.5.5,0,0,1-.5.5Zm0,3h-1a.5.5,0,0,1-.5-.5v-.5a.5.5,0,0,1,.5-.5h1a.5.5,0,0,1,.5.5v.5a.5.5,0,0,1-.5.5Zm0,3h-1a.5.5,0,0,1-.5-.5v-.5a.5.5,0,0,1,.5-.5h1a.5.5,0,0,1,.5.5v.5a.5.5,0,0,1-.5.5Zm0,3h-1a.5.5,0,0,1-.5-.5v-.5a.5.5,0,0,1,.5-.5h1a.5.5,0,0,1,.5.5v.5a.5.5,0,0,1-.5.5Zm11.5,2.5h-14a1,1,0,0,1-1-1V1.25a1,1,0,0,1,1-1h14a1,1,0,0,1,1,1v13.5a1,1,0,0,1-1,1Zm0-14.5h-14v13.5h14V1.25Z"/></svg>