<svg xmlns="http://www.w3.org/2000/svg" viewBox="0 0 16 16"><title>file-types-file-indd</title><path d="M10.38,0H2.88a1,1,0,0,0-1,1V15a1,1,0,0,0,1,1h10.5a1,1,0,0,0,1-1V4Zm0,1.41L13,4H10.38Zm3,13.59H2.88V1h6.5V5h4Z"/><rect x="3.88" y="7.5" width="0.57" height="2.67"/><polygon points="6.62 9.21 6.6 9.21 5.46 7.5 5 7.5 5 10.17 5.53 10.17 5.53 8.45 5.55 8.45 6.69 10.17 7.15 10.17 7.15 7.5 6.62 7.5 6.62 9.21"/><path d="M8.7,7.5h-1v2.67h1a1.49,1.49,0,0,0,.46-.06.93.93,0,0,0,.57-.47,1.34,1.34,0,0,0,.13-.37,2.2,2.2,0,0,0,0-.44,2,2,0,0,0-.07-.54,1.17,1.17,0,0,0-.21-.42.89.89,0,0,0-.37-.27A1.45,1.45,0,0,0,8.7,7.5Zm.62,1.34a1,1,0,0,1-.18.67.66.66,0,0,1-.52.2H8.27V8h.35A.78.78,0,0,1,9,8a.51.51,0,0,1,.22.19.86.86,0,0,1,.11.28A1.63,1.63,0,0,1,9.32,8.84Z"/><path d="M11.76,10.11a.93.93,0,0,0,.57-.47,1.34,1.34,0,0,0,.13-.37,2.2,2.2,0,0,0,0-.44,2,2,0,0,0-.07-.54,1.17,1.17,0,0,0-.21-.42.89.89,0,0,0-.37-.27,1.45,1.45,0,0,0-.55-.09h-1v2.67h1A1.49,1.49,0,0,0,11.76,10.11Zm-.89-.39V8h.35a.78.78,0,0,1,.33.07.51.51,0,0,1,.22.19.86.86,0,0,1,.11.28,1.63,1.63,0,0,1,0,.35,1,1,0,0,1-.18.67.66.66,0,0,1-.52.2Z"/></svg>