<svg xmlns="http://www.w3.org/2000/svg" viewBox="0 0 16 16"><title>file-types-file-pdf</title><path d="M10.38,0H2.88a1,1,0,0,0-1,1V15a1,1,0,0,0,1,1h10.5a1,1,0,0,0,1-1V4Zm0,1.41L13,4H10.38Zm3,13.59H2.88V1h6.5V5h4Z"/><path d="M5.41,7.31H4.05v3.33h.71V9.55H5.4a1.13,1.13,0,0,0,.84-.31,1.1,1.1,0,0,0,.31-.8,1.12,1.12,0,0,0-.3-.81A1.1,1.1,0,0,0,5.41,7.31Zm.24,1.57A.88.88,0,0,1,5.13,9H4.75V7.87h.51a.52.52,0,0,1,.57.57A.51.51,0,0,1,5.65,8.88Z"/><path d="M8.24,7.31H7v3.33H8.24a1.86,1.86,0,0,0,.57-.08A1.17,1.17,0,0,0,9.52,10a1.68,1.68,0,0,0,.16-.46A2.75,2.75,0,0,0,9.74,9a2.5,2.5,0,0,0-.08-.68,1.47,1.47,0,0,0-.26-.52,1.11,1.11,0,0,0-.47-.34A1.81,1.81,0,0,0,8.24,7.31ZM9,9a1.27,1.27,0,0,1-.22.84.82.82,0,0,1-.65.25H7.71V7.88h.44A1,1,0,0,1,8.56,8a.63.63,0,0,1,.27.24A1.1,1.1,0,0,1,9,8.54,2,2,0,0,1,9,9Z"/><polygon points="10.97 9.34 12.29 9.34 12.29 8.78 10.97 8.78 10.97 7.89 12.41 7.89 12.41 7.31 10.26 7.31 10.26 10.64 10.97 10.64 10.97 9.34"/></svg>