<svg xmlns="http://www.w3.org/2000/svg" viewBox="0 0 16 16"><title>file-types-file-key</title><path d="M10.38,0H2.88a1,1,0,0,0-1,1V15a1,1,0,0,0,1,1h10.5a1,1,0,0,0,1-1V4Zm0,1.41L13,4H10.38Zm3,13.59H2.88V1h6.5V5h4Z"/><polygon points="6.84 7.31 6.07 7.31 4.85 8.78 4.82 8.78 4.82 7.31 4.11 7.31 4.11 10.64 4.82 10.64 4.82 9.59 5.15 9.22 6.05 10.64 6.89 10.64 5.66 8.75 6.84 7.31"/><polygon points="7.22 10.64 9.39 10.64 9.39 10.07 7.92 10.07 7.92 9.23 9.31 9.23 9.31 8.69 7.92 8.69 7.92 7.88 9.39 7.88 9.39 7.31 7.22 7.31 7.22 10.64"/><polygon points="10.71 10.64 11.42 10.64 11.42 9.39 12.53 7.31 11.77 7.31 11.08 8.71 11.06 8.71 10.37 7.31 9.6 7.31 10.71 9.41 10.71 10.64"/></svg>