<svg xmlns="http://www.w3.org/2000/svg" viewBox="0 0 16 16"><title>file-types-file-psd</title><path d="M10.38,0H2.88a1,1,0,0,0-1,1V15a1,1,0,0,0,1,1h10.5a1,1,0,0,0,1-1V4Zm0,1.41L13,4H10.38Zm3,13.59H2.88V1h6.5V5h4Z"/><path d="M5.24,7.31H3.88v3.33h.71V9.55h.64a1.13,1.13,0,0,0,.84-.31,1.1,1.1,0,0,0,.31-.8,1.12,1.12,0,0,0-.3-.81A1.1,1.1,0,0,0,5.24,7.31Zm.24,1.57A.88.88,0,0,1,5,9H4.58V7.87h.51a.52.52,0,0,1,.57.57A.51.51,0,0,1,5.48,8.88Z"/><path d="M9,9a1.19,1.19,0,0,0-.28-.18,1.75,1.75,0,0,0-.35-.11l-.51-.11q-.45-.09-.45-.38a.36.36,0,0,1,.15-.31A.66.66,0,0,1,8,7.79a.64.64,0,0,1,.43.13.45.45,0,0,1,.17.32h.66a.89.89,0,0,0-.35-.72A1.4,1.4,0,0,0,8,7.24a1.67,1.67,0,0,0-.64.12,1,1,0,0,0-.45.35.91.91,0,0,0-.17.55,1,1,0,0,0,.07.37A.75.75,0,0,0,7,8.9a1.09,1.09,0,0,0,.27.18,1.53,1.53,0,0,0,.33.11l.5.11a1,1,0,0,1,.39.15.31.31,0,0,1,.12.26.37.37,0,0,1-.16.32.73.73,0,0,1-.45.12A.76.76,0,0,1,7.49,10a.45.45,0,0,1-.19-.33H6.63a1.09,1.09,0,0,0,0,.29.92.92,0,0,0,.14.27,1,1,0,0,0,.24.24,1.22,1.22,0,0,0,.37.16,2,2,0,0,0,.51.06,1.53,1.53,0,0,0,1-.28.93.93,0,0,0,.36-.77,1,1,0,0,0-.07-.39A.7.7,0,0,0,9,9Z"/><path d="M11.61,10.56a1.17,1.17,0,0,0,.71-.58,1.7,1.7,0,0,0,.16-.46A2.75,2.75,0,0,0,12.54,9a2.5,2.5,0,0,0-.08-.68,1.48,1.48,0,0,0-.26-.52,1.11,1.11,0,0,0-.47-.34A1.81,1.81,0,0,0,11,7.31H9.8v3.33H11A1.86,1.86,0,0,0,11.61,10.56Zm-1.11-.49V7.88h.44a1,1,0,0,1,.42.08.63.63,0,0,1,.27.24,1.1,1.1,0,0,1,.14.34,2,2,0,0,1,0,.44,1.27,1.27,0,0,1-.22.84.82.82,0,0,1-.65.25Z"/></svg>