<?xml version="1.0" encoding="UTF-8"?>
<svg width="24px" height="24px" viewBox="0 0 24 24" version="1.1" xmlns="http://www.w3.org/2000/svg" xmlns:xlink="http://www.w3.org/1999/xlink">
    <!-- Generator: Sketch 47.1 (45422) - http://www.bohemiancoding.com/sketch -->
    <title>Icons/Excel</title>
    <desc>Created with Sketch.</desc>
    <defs></defs>
    <g id="Symbols" stroke="none" stroke-width="1" fill="none" fill-rule="evenodd">
        <g id="Icons/Excel" fill-rule="nonzero" fill="#ffffff">
            <g id="icons8-Microsoft-Excel" transform="translate(2.000000, 2.000000)">
                <path d="M9.89583333,0 L9.81770833,0.0260416667 L0.651041667,2.05729167 L0,2.21354167 L0,17.7864583 L0.651041667,17.9427083 L9.81770833,19.9739583 L9.89583333,20 L11.6666667,20 L11.6666667,17.5 L20,17.5 L20,2.5 L11.6666667,2.5 L11.6666667,0 L9.89583333,0 Z M10,1.69270833 L10,18.3072917 L1.66666667,16.484375 L1.66666667,3.515625 L10,1.69270833 Z M11.6666667,4.16666667 L18.3333333,4.16666667 L18.3333333,15.8333333 L11.6666667,15.8333333 L11.6666667,14.1666667 L13.3333333,14.1666667 L13.3333333,12.5 L11.6666667,12.5 L11.6666667,11.6666667 L13.3333333,11.6666667 L13.3333333,10 L11.6666667,10 L11.6666667,9.16666667 L13.3333333,9.16666667 L13.3333333,7.5 L11.6666667,7.5 L11.6666667,6.66666667 L13.3333333,6.66666667 L13.3333333,5 L11.6666667,5 L11.6666667,4.16666667 Z M14.1666667,5 L14.1666667,6.66666667 L17.5,6.66666667 L17.5,5 L14.1666667,5 Z M8.46354167,5.83333333 L6.5625,6.06770833 L5.52083333,8.30729167 C5.41015667,8.6295575 5.32877583,8.87369833 5.28645833,9.03645833 L5.26041667,9.03645833 C5.1953125,8.76627583 5.13346333,8.53190083 5.05208333,8.33333333 L4.53125,6.40625 L2.76041667,6.61458333 L2.68229167,6.66666667 L4.16666667,10 L2.5,13.3333333 L4.296875,13.5416667 L5.02604167,11.484375 C5.1139325,11.2239583 5.18554667,11.01237 5.20833333,10.8854167 L5.234375,10.8854167 C5.28320333,11.1555992 5.315755,11.3574217 5.36458333,11.4583333 L6.484375,13.90625 L8.515625,14.1666667 L6.30208333,9.97395833 L8.46354167,5.83333333 Z M14.1666667,7.5 L14.1666667,9.16666667 L17.5,9.16666667 L17.5,7.5 L14.1666667,7.5 Z M14.1666667,10 L14.1666667,11.6666667 L17.5,11.6666667 L17.5,10 L14.1666667,10 Z M14.1666667,12.5 L14.1666667,14.1666667 L17.5,14.1666667 L17.5,12.5 L14.1666667,12.5 Z" id="Shape"></path>
            </g>
        </g>
    </g>
</svg>