<svg xmlns="http://www.w3.org/2000/svg" viewBox="0 0 16 16"><title>file-types-book</title><path d="M15.26,14.14,8.65,15.93a2.64,2.64,0,0,1-1.23,0L1,14.14A1.21,1.21,0,0,1,.13,13V.88A.88.88,0,0,1,1.26,0L7.69,1.82a1.8,1.8,0,0,0,.7,0L15,0a.88.88,0,0,1,1.13.85V13a1.2,1.2,0,0,1-.87,1.11ZM15.13,1,8.65,2.78A2.35,2.35,0,0,1,8,2.85a2.41,2.41,0,0,1-.62-.07L1.12,1V13a.21.21,0,0,0,.12.15L7.69,15a1.76,1.76,0,0,0,.7,0L15,13.18a.23.23,0,0,0,.13-.15V1ZM13.79,4.72l-3.5,1-.14,0a.5.5,0,0,1-.13-1l3.5-1a.5.5,0,0,1,.27,1Zm0,3-3.5,1-.14,0a.5.5,0,0,1-.13-1l3.5-1a.5.5,0,1,1,.27,1Zm0,3-3.5,1-.14,0a.5.5,0,0,1-.13-1l3.5-1a.5.5,0,0,1,.27,1ZM6.64,5.36a.5.5,0,0,1-.48.36L6,5.7l-3.5-1a.5.5,0,0,1,.27-1l3.5,1a.5.5,0,0,1,.35.62Zm0,3a.5.5,0,0,1-.48.36L6,8.7l-3.5-1a.5.5,0,1,1,.27-1l3.5,1a.5.5,0,0,1,.35.62Zm0,3a.5.5,0,0,1-.48.37L6,11.7l-3.5-1a.5.5,0,0,1,.27-1l3.5,1a.5.5,0,0,1,.35.62Zm1,4.2V2.15h1V15.56Z"/></svg>