<svg xmlns="http://www.w3.org/2000/svg" viewBox="0 0 16 16"><title>file-types-file-ppt</title><path d="M10.38,0H2.88a1,1,0,0,0-1,1V15a1,1,0,0,0,1,1h10.5a1,1,0,0,0,1-1V4Zm0,1.41L13,4H10.38Zm3,13.59H2.88V1h6.5V5h4Z"/><path d="M5.56,7.31H4.2v3.33h.71V9.55h.64a1.12,1.12,0,0,0,.84-.31,1.1,1.1,0,0,0,.31-.8,1.12,1.12,0,0,0-.3-.81A1.1,1.1,0,0,0,5.56,7.31ZM5.8,8.88A.88.88,0,0,1,5.28,9H4.9V7.87h.51A.52.52,0,0,1,6,8.44.51.51,0,0,1,5.8,8.88Z"/><path d="M8.5,7.31H7.15v3.33h.71V9.55H8.5a1.13,1.13,0,0,0,.84-.31,1.1,1.1,0,0,0,.3-.8,1.12,1.12,0,0,0-.3-.81A1.1,1.1,0,0,0,8.5,7.31Zm.24,1.57A.88.88,0,0,1,8.22,9H7.85V7.87h.51a.52.52,0,0,1,.57.57A.51.51,0,0,1,8.75,8.88Z"/><polygon points="10.72 10.64 11.43 10.64 11.43 7.9 12.36 7.9 12.36 7.31 9.78 7.31 9.78 7.9 10.72 7.9 10.72 10.64"/></svg>