<svg xmlns="http://www.w3.org/2000/svg" viewBox="0 0 16 16"><title>file-types-file-doc</title><path d="M10.38,0H2.88a1,1,0,0,0-1,1V15a1,1,0,0,0,1,1h10.5a1,1,0,0,0,1-1V4Zm0,1.41L13,4H10.38Zm3,13.59H2.88V1h6.5V5h4Z"/><path d="M6,7.77a1.11,1.11,0,0,0-.47-.34,1.81,1.81,0,0,0-.69-.12H3.61v3.33H4.86a1.86,1.86,0,0,0,.57-.08A1.17,1.17,0,0,0,6.14,10a1.68,1.68,0,0,0,.16-.46A2.75,2.75,0,0,0,6.35,9a2.51,2.51,0,0,0-.08-.68A1.47,1.47,0,0,0,6,7.77Zm-.6,2a.82.82,0,0,1-.65.25H4.32V7.88h.44A1,1,0,0,1,5.18,8a.63.63,0,0,1,.27.24,1.1,1.1,0,0,1,.14.34,2,2,0,0,1,0,.44A1.27,1.27,0,0,1,5.41,9.82Z"/><path d="M8.19,7.25a1.39,1.39,0,0,0-1.06.41,1.57,1.57,0,0,0-.39,1.12V9.2a1.55,1.55,0,0,0,.38,1.11,1.39,1.39,0,0,0,1.06.4,1.4,1.4,0,0,0,1.07-.4A1.54,1.54,0,0,0,9.63,9.2V8.78a1.58,1.58,0,0,0-.38-1.12A1.38,1.38,0,0,0,8.19,7.25Zm.73,2a1,1,0,0,1-.2.69.71.71,0,0,1-1.06,0,1,1,0,0,1-.2-.69V8.77a1.08,1.08,0,0,1,.2-.7.69.69,0,0,1,1.06,0,1.08,1.08,0,0,1,.2.7Z"/><path d="M11.46,10.71a1.62,1.62,0,0,0,.56-.09,1.18,1.18,0,0,0,.42-.25A1.15,1.15,0,0,0,12.7,10a1.07,1.07,0,0,0,.09-.44V9.48h-.68a.63.63,0,0,1-.17.45.61.61,0,0,1-.47.18A.62.62,0,0,1,11,9.88a1.13,1.13,0,0,1-.19-.71V8.8A1.15,1.15,0,0,1,11,8.08a.61.61,0,0,1,.51-.24.6.6,0,0,1,.47.19.68.68,0,0,1,.17.47h.68V8.43a1.15,1.15,0,0,0-.35-.83A1.2,1.2,0,0,0,12,7.34a1.57,1.57,0,0,0-.55-.09,1.34,1.34,0,0,0-1,.41,1.62,1.62,0,0,0-.37,1.14v.38a1.62,1.62,0,0,0,.37,1.13A1.34,1.34,0,0,0,11.46,10.71Z"/></svg>