<svg width="48" height="48" viewBox="0 0 48 48" fill="none" xmlns="http://www.w3.org/2000/svg">
<rect x="3" y="4" width="18" height="12" fill="white"/>
<rect x="6" y="9" width="36" height="27" fill="white"/>
<rect x="30" y="30" width="15" height="8" fill="white"/>
<rect x="22" y="36" width="4" height="5" fill="white"/>
<rect x="19" y="41" width="10" height="3" fill="white"/>
<path d="M27.21 20.7375L25.5975 20.25L24.645 18.8625C24.5761 18.762 24.4838 18.6797 24.3759 18.6229C24.2681 18.566 24.1481 18.5364 24.0262 18.5364C23.9044 18.5364 23.7843 18.566 23.6765 18.6229C23.5687 18.6797 23.4763 18.762 23.4075 18.8625L22.455 20.25L20.835 20.73C20.7179 20.7643 20.6109 20.8266 20.5234 20.9115C20.4358 20.9965 20.3703 21.1015 20.3325 21.2175C20.2948 21.3336 20.2861 21.4571 20.307 21.5774C20.3279 21.6976 20.3778 21.8109 20.4525 21.9075L21.48 23.25L21.435 24.9375C21.4323 25.0584 21.4588 25.1781 21.5124 25.2865C21.5659 25.3949 21.6448 25.4887 21.7425 25.56C21.8404 25.6321 21.9543 25.6794 22.0745 25.6977C22.1947 25.7159 22.3176 25.7047 22.4325 25.665L24 25.095L25.59 25.665C25.6698 25.6913 25.7535 25.704 25.8375 25.7025C26.0364 25.7025 26.2272 25.6235 26.3678 25.4828C26.5085 25.3422 26.5875 25.1514 26.5875 24.9525L26.565 23.25L27.5925 21.915C27.6735 21.8218 27.7303 21.7101 27.7577 21.5897C27.7852 21.4694 27.7825 21.3441 27.75 21.225C27.7087 21.1046 27.6375 20.9967 27.543 20.9114C27.4486 20.8261 27.334 20.7663 27.21 20.7375V20.7375ZM25.215 22.545C25.1122 22.6839 25.0569 22.8522 25.0575 23.025V23.88L24.255 23.595C24.0925 23.5372 23.915 23.5372 23.7525 23.595L22.9425 23.88V23.025C22.9471 22.8516 22.8914 22.682 22.785 22.545L22.26 21.87L23.085 21.6225C23.2494 21.5741 23.3924 21.4709 23.49 21.33L23.9775 20.58L24.465 21.33C24.5626 21.4709 24.7055 21.5741 24.87 21.6225L25.695 21.87L25.215 22.545Z" fill="#0E5066"/>
<path d="M18.21 20.7375L16.5975 20.25L15.645 18.8625C15.5761 18.762 15.4838 18.6797 15.376 18.6229C15.2681 18.566 15.1481 18.5364 15.0262 18.5364C14.9044 18.5364 14.7843 18.566 14.6765 18.6229C14.5687 18.6797 14.4764 18.762 14.4075 18.8625L13.455 20.25L11.835 20.73C11.7179 20.7643 11.6109 20.8266 11.5234 20.9115C11.4358 20.9965 11.3703 21.1015 11.3325 21.2175C11.2948 21.3336 11.2861 21.4571 11.307 21.5774C11.3279 21.6976 11.3778 21.8109 11.4525 21.9075L12.48 23.25L12.435 24.9375C12.4323 25.0584 12.4588 25.1781 12.5124 25.2865C12.5659 25.3949 12.6448 25.4887 12.7425 25.56C12.8404 25.6321 12.9543 25.6794 13.0745 25.6977C13.1947 25.7159 13.3176 25.7047 13.4325 25.665L15 25.095L16.59 25.665C16.6698 25.6913 16.7535 25.704 16.8375 25.7025C17.0364 25.7025 17.2272 25.6235 17.3678 25.4828C17.5085 25.3422 17.5875 25.1514 17.5875 24.9525L17.565 23.25L18.5925 21.915C18.6735 21.8218 18.7303 21.7101 18.7577 21.5897C18.7852 21.4694 18.7826 21.3441 18.75 21.225C18.7087 21.1046 18.6375 20.9967 18.5431 20.9114C18.4486 20.8261 18.334 20.7663 18.21 20.7375V20.7375ZM16.215 22.545C16.1122 22.6839 16.0569 22.8522 16.0575 23.025V23.88L15.255 23.595C15.0925 23.5372 14.915 23.5372 14.7525 23.595L13.9425 23.88V23.025C13.9471 22.8516 13.8914 22.682 13.785 22.545L13.26 21.87L14.085 21.6225C14.2494 21.5741 14.3924 21.4709 14.49 21.33L14.9775 20.58L15.465 21.33C15.5626 21.4709 15.7055 21.5741 15.87 21.6225L16.695 21.87L16.215 22.545Z" fill="#0E5066"/>
<path d="M34.5675 25.665C34.6824 25.7047 34.8053 25.7159 34.9255 25.6977C35.0457 25.6794 35.1596 25.6321 35.2575 25.56C35.3551 25.4887 35.4341 25.3949 35.4876 25.2865C35.5412 25.1781 35.5677 25.0584 35.565 24.9375L35.52 23.25L36.5475 21.915C36.6221 21.8184 36.6721 21.7051 36.693 21.5849C36.7139 21.4646 36.7052 21.3411 36.6675 21.225C36.6297 21.109 36.5642 21.004 36.4766 20.919C36.3891 20.8341 36.2821 20.7718 36.165 20.7375L34.545 20.25L33.5925 18.8625C33.5236 18.762 33.4313 18.6797 33.3235 18.6229C33.2157 18.566 33.0956 18.5364 32.9738 18.5364C32.8519 18.5364 32.7318 18.566 32.624 18.6229C32.5162 18.6797 32.4239 18.762 32.355 18.8625L31.4025 20.25L29.79 20.73C29.6729 20.7643 29.5659 20.8266 29.4784 20.9115C29.3908 20.9965 29.3253 21.1015 29.2875 21.2175C29.2498 21.3336 29.2411 21.4571 29.262 21.5774C29.2829 21.6976 29.3329 21.8109 29.4075 21.9075L30.435 23.25L30.39 24.9375C30.39 25.1364 30.469 25.3272 30.6097 25.4678C30.7503 25.6085 30.9411 25.6875 31.14 25.6875C31.224 25.689 31.3077 25.6763 31.3875 25.65L33 25.095L34.5675 25.665ZM31.92 23.88V23.025C31.9205 22.8522 31.8653 22.6839 31.7625 22.545L31.2375 21.87L32.0625 21.6225C32.227 21.5741 32.3699 21.4709 32.4675 21.33L32.955 20.58L33.4425 21.33C33.5401 21.4709 33.683 21.5741 33.8475 21.6225L34.6725 21.87L34.1475 22.545C34.0411 22.682 33.9854 22.8516 33.99 23.025V23.88L33.18 23.595C33.1223 23.572 33.0618 23.5568 33 23.55C32.913 23.5501 32.8267 23.5653 32.745 23.595L31.92 23.88Z" fill="#0E5066"/>
<path d="M44.25 28.875H43.5V10.875C43.5 10.2783 43.2629 9.70597 42.841 9.28401C42.419 8.86205 41.8467 8.625 41.25 8.625H21.75V4.875C21.75 4.47718 21.592 4.09564 21.3107 3.81434C21.0294 3.53304 20.6478 3.375 20.25 3.375H3.75C3.35218 3.375 2.97064 3.53304 2.68934 3.81434C2.40804 4.09564 2.25 4.47718 2.25 4.875V15.375C2.25 15.7728 2.40804 16.1544 2.68934 16.4357C2.97064 16.717 3.35218 16.875 3.75 16.875H4.5V34.875C4.5 35.4717 4.73705 36.044 5.15901 36.466C5.58097 36.8879 6.15326 37.125 6.75 37.125H21V40.125H20.25C19.6533 40.125 19.081 40.3621 18.659 40.784C18.2371 41.206 18 41.7783 18 42.375C18 42.9717 18.2371 43.544 18.659 43.966C19.081 44.3879 19.6533 44.625 20.25 44.625H27.75C28.3467 44.625 28.919 44.3879 29.341 43.966C29.7629 43.544 30 42.9717 30 42.375C30 41.7783 29.7629 41.206 29.341 40.784C28.919 40.3621 28.3467 40.125 27.75 40.125H27V37.125H28.89V37.875C28.89 38.2728 29.048 38.6544 29.3293 38.9357C29.6106 39.217 29.9922 39.375 30.39 39.375H44.25C44.6478 39.375 45.0294 39.217 45.3107 38.9357C45.592 38.6544 45.75 38.2728 45.75 37.875V30.375C45.75 29.9772 45.592 29.5956 45.3107 29.3143C45.0294 29.033 44.6478 28.875 44.25 28.875ZM21.75 10.125H41.25C41.4489 10.125 41.6397 10.204 41.7803 10.3447C41.921 10.4853 42 10.6761 42 10.875V28.875H40.5V13.875C40.5 13.2783 40.2629 12.706 39.841 12.284C39.419 11.8621 38.8467 11.625 38.25 11.625H21.75V10.125ZM3.75 15.375V4.875H20.25V17.7375L18.81 15.9375C18.6696 15.7621 18.4915 15.6205 18.289 15.5231C18.0865 15.4258 17.8647 15.3751 17.64 15.375H3.75ZM27.75 41.625C27.9489 41.625 28.1397 41.704 28.2803 41.8447C28.421 41.9853 28.5 42.1761 28.5 42.375C28.5 42.5739 28.421 42.7647 28.2803 42.9053C28.1397 43.046 27.9489 43.125 27.75 43.125H20.25C20.0511 43.125 19.8603 43.046 19.7197 42.9053C19.579 42.7647 19.5 42.5739 19.5 42.375C19.5 42.1761 19.579 41.9853 19.7197 41.8447C19.8603 41.704 20.0511 41.625 20.25 41.625H27.75ZM22.5 40.125V37.125H25.5V40.125H22.5ZM28.89 35.625H6.75C6.55109 35.625 6.36032 35.546 6.21967 35.4053C6.07902 35.2647 6 35.0739 6 34.875V16.875H7.5V31.875C7.5 32.4717 7.73705 33.044 8.15901 33.466C8.58097 33.8879 9.15326 34.125 9.75 34.125H28.89V35.625ZM29.8125 27.0525C29.54 27.1662 29.3071 27.3578 29.143 27.6033C28.9789 27.8488 28.8909 28.1372 28.89 28.4325V32.625H9.75C9.55109 32.625 9.36032 32.546 9.21967 32.4053C9.07902 32.2647 9 32.0739 9 31.875V16.875H17.64L19.08 18.675C19.2196 18.8494 19.3965 18.9904 19.5976 19.0878C19.7987 19.1851 20.0191 19.2362 20.2425 19.2375C20.4132 19.2357 20.5827 19.2079 20.745 19.155C21.0389 19.0523 21.2936 18.8606 21.4737 18.6066C21.6537 18.3526 21.7503 18.0489 21.75 17.7375V13.125H38.25C38.4489 13.125 38.6397 13.204 38.7803 13.3447C38.921 13.4853 39 13.6761 39 13.875V28.875H32.9475L31.4475 27.375C31.2374 27.1656 30.9699 27.0232 30.6789 26.9658C30.3879 26.9084 30.0864 26.9386 29.8125 27.0525V27.0525ZM30.39 37.875V36.375V33.375V28.4325L31.89 29.9325C32.17 30.2142 32.5503 30.3733 32.9475 30.375H44.25V37.875H30.39Z" fill="#0E5066"/>
<path d="M41.25 31.875H34.5C34.3011 31.875 34.1103 31.954 33.9697 32.0947C33.829 32.2353 33.75 32.4261 33.75 32.625C33.75 32.8239 33.829 33.0147 33.9697 33.1553C34.1103 33.296 34.3011 33.375 34.5 33.375H41.25C41.4489 33.375 41.6397 33.296 41.7803 33.1553C41.921 33.0147 42 32.8239 42 32.625C42 32.4261 41.921 32.2353 41.7803 32.0947C41.6397 31.954 41.4489 31.875 41.25 31.875Z" fill="#0E5066"/>
<path d="M41.25 34.875H34.5C34.3011 34.875 34.1103 34.954 33.9697 35.0947C33.829 35.2353 33.75 35.4261 33.75 35.625C33.75 35.8239 33.829 36.0147 33.9697 36.1553C34.1103 36.296 34.3011 36.375 34.5 36.375H41.25C41.4489 36.375 41.6397 36.296 41.7803 36.1553C41.921 36.0147 42 35.8239 42 35.625C42 35.4261 41.921 35.2353 41.7803 35.0947C41.6397 34.954 41.4489 34.875 41.25 34.875Z" fill="#0E5066"/>
<path d="M13.98 6.405C13.2904 6.31363 12.5905 6.46475 12 6.8325C11.4095 6.46475 10.7096 6.31363 10.02 6.405C9.3691 6.54611 8.77769 6.88482 8.32663 7.37482C7.87556 7.86482 7.58685 8.48219 7.49999 9.1425C7.24499 11.055 9.03749 13.035 11.76 13.845C11.9018 13.888 12.0532 13.888 12.195 13.845C14.9175 13.035 16.695 11.055 16.455 9.1425C16.3711 8.48817 16.089 7.87518 15.6465 7.38584C15.2041 6.8965 14.6226 6.55423 13.98 6.405V6.405ZM12 12.3375C9.95999 11.6625 8.87999 10.305 8.99999 9.3375C9.04382 9.00113 9.18503 8.68491 9.40622 8.42774C9.62742 8.17057 9.91896 7.98366 10.245 7.89H10.425C10.8259 7.91569 11.2076 8.07099 11.5125 8.3325C11.6473 8.44475 11.8171 8.50622 11.9925 8.50622C12.1679 8.50622 12.3377 8.44475 12.4725 8.3325C12.822 8.02826 13.2776 7.87459 13.74 7.905C14.0667 7.99512 14.36 8.17869 14.5838 8.43317C14.8076 8.68765 14.9523 9.00196 15 9.3375C15.12 10.305 14.04 11.6625 12 12.3375Z" fill="#0E5066"/>
</svg>
