<svg width="48" height="48" viewBox="0 0 48 48" fill="none" xmlns="http://www.w3.org/2000/svg">
<g clip-path="url(#clip0)">
<path d="M1 31L17 46.5L39 25.5L47 16.5L45.5 2.5L31 0.5L23 8.5V3.5L20.5 0.5H3.5L1 2.5L0.5 16L3 18L9 18.5L12 20L1 31Z" fill="white"/>
<circle cx="29" cy="31" r="12" fill="white"/>
<path d="M45.5 45.5L44 47L36.5 40.5L39 38L45.5 45.5Z" fill="white"/>
<path d="M16.2341 47.7657C16.5466 48.0778 17.0528 48.0778 17.3653 47.7657L21.3653 43.7657L20.2341 42.6345L16.7997 46.0688L1.93118 31.2003L10.9654 22.166L9.8342 21.0348L0.234323 30.6346C-0.0777822 30.9471 -0.0777822 31.4534 0.234323 31.7659L16.2341 47.7657Z" fill="#F6AA57"/>
<path d="M47.9947 16.7126L46.3947 2.31279C46.3533 1.94053 46.0595 1.64639 45.6873 1.60537L31.2875 0.00539552C31.0465 -0.0199948 30.8062 0.0643791 30.634 0.23508L25.0341 5.83501L26.1653 6.96624L31.4933 1.63819L44.8795 3.12449L46.3658 16.5067L43.2268 19.6462L41.7065 9.42129C42.7979 8.9877 43.4182 7.83146 43.1756 6.68265C42.9334 5.53384 41.8987 4.72682 40.7252 4.77096C39.5522 4.81549 38.5815 5.69829 38.4264 6.86234C38.2714 8.02599 38.9772 9.13223 40.0979 9.48222L41.3354 17.802L30.1652 6.635C29.8527 6.3225 29.3465 6.3225 29.034 6.635L25.0341 10.6349L26.1653 11.7662L29.5996 8.33185L39.6682 18.4005L37.8339 20.2348L38.9651 21.366L41.3651 18.9661C41.4104 18.9145 41.4487 18.8571 41.4787 18.7958L41.8147 21.0539L40.2338 22.6348L41.3651 23.766L42.1073 23.0234L42.6155 26.4332C42.7362 27.4175 43.3865 28.2566 44.3096 28.6191C45.233 28.9816 46.2802 28.8093 47.0388 28.1703C47.797 27.5312 48.1447 26.5285 47.9443 25.557L46.472 18.6587L47.765 17.3661C47.9369 17.1942 48.0212 16.954 47.9947 16.7126V16.7126ZM40.7995 6.40062C41.2413 6.40062 41.5995 6.75882 41.5995 7.20061C41.5995 7.6424 41.2413 8.0006 40.7995 8.0006C40.3577 8.0006 39.9995 7.6424 39.9995 7.20061C39.9995 6.75882 40.3577 6.40062 40.7995 6.40062ZM46.3779 25.882C46.4545 26.2785 46.3084 26.6855 45.9963 26.9425C45.6845 27.1996 45.2568 27.2652 44.8822 27.1136C44.5076 26.9621 44.2459 26.6179 44.2002 26.2164L43.5193 21.6157L45.1283 20.0067L46.3779 25.882Z" fill="#F6AA57"/>
<path d="M5.83521 31.1148L11.0348 25.9152L12.1661 27.0465L6.96646 32.2461L5.83521 31.1148Z" fill="#F6AA57"/>
<path d="M8.3136 33.5945L13.5132 28.3949L14.6448 29.5261L9.44485 34.7257L8.3136 33.5945Z" fill="#F6AA57"/>
<path d="M10.7939 36.0741L13.8338 33.0343L14.9654 34.1655L11.9252 37.2053L10.7939 36.0741Z" fill="#F6AA57"/>
<path d="M13.274 38.5545L15.4346 36.3944L16.5658 37.5256L14.4057 39.6862L13.274 38.5545Z" fill="#F6AA57"/>
<path d="M15.754 41.0346L17.354 39.435L18.4853 40.5662L16.8857 42.1658L15.754 41.0346Z" fill="#F6AA57"/>
<path d="M28.7996 44.0002C31.525 43.999 34.1781 43.1224 36.3675 41.4994L42.137 47.2689C43.1123 48.2438 44.6932 48.2438 45.6682 47.2689C46.6432 46.2939 46.6432 44.7126 45.6682 43.7377L39.7651 37.8346L39.6628 37.9369C42.7256 32.9827 42.053 26.5847 38.0276 22.3754C34.0019 18.1657 27.6403 17.2087 22.5544 20.0473C17.4681 22.886 14.9432 28.8031 16.4131 34.4393C17.8826 40.0752 22.9751 44.006 28.7996 44.0002ZM44.5369 44.8689C44.8873 45.2193 44.8873 45.7872 44.5369 46.1376C44.1865 46.488 43.6186 46.488 43.2682 46.1376L37.5995 40.4697C38.0351 40.0576 38.4409 39.6158 38.8147 39.1475L44.5369 44.8689ZM28.7996 20.0004C34.9851 20.0004 39.9995 25.0148 39.9995 31.2003C39.9995 37.3858 34.9851 42.4002 28.7996 42.4002C22.6142 42.4002 17.5998 37.3858 17.5998 31.2003C17.6064 25.0176 22.6169 20.0071 28.7996 20.0004Z" fill="#F6AA57"/>
<path d="M28.7996 40.8002C34.1015 40.8002 38.3995 36.5022 38.3995 31.2003C38.3995 25.8984 34.1015 21.6004 28.7996 21.6004C23.4977 21.6004 19.1997 25.8984 19.1997 31.2003C19.2056 36.4998 23.5 40.7943 28.7996 40.8002ZM28.7996 23.2004C33.2179 23.2004 36.7995 26.782 36.7995 31.2003C36.7995 35.6186 33.2179 39.2002 28.7996 39.2002C24.3813 39.2002 20.7997 35.6186 20.7997 31.2003C20.8044 26.7839 24.3832 23.2051 28.7996 23.2004Z" fill="#F6AA57"/>
<path d="M3.99995 19.2005H9.34402L14.735 23.0508C14.8705 23.1481 15.033 23.2004 15.1998 23.2004C15.3537 23.2 15.5045 23.1555 15.6342 23.0723C15.9111 22.8934 16.0498 22.5633 15.9838 22.2403L15.376 19.2005H19.9997C22.2079 19.1977 23.9969 17.4083 23.9997 15.2005V4.00066C23.9969 1.79248 22.2079 0.00344387 19.9997 0.000709534H3.99995C1.79177 0.00344387 0.00273434 1.79248 0 4.00066V15.2005C0.00273434 17.4083 1.79177 19.1977 3.99995 19.2005ZM1.59998 4.00066C1.59998 2.67528 2.67457 1.60069 3.99995 1.60069H19.9997C21.3251 1.60069 22.3997 2.67528 22.3997 4.00066V15.2005C22.3997 16.5259 21.3251 17.6005 19.9997 17.6005H14.3998C14.1596 17.6005 13.9318 17.7083 13.7799 17.8942C13.6279 18.0805 13.5678 18.3251 13.6158 18.5602L14.0158 20.577L10.0624 17.7532C9.92799 17.6552 9.76628 17.6016 9.59987 17.6005H3.99995C2.67457 17.6005 1.59998 16.5259 1.59998 15.2005V4.00066Z" fill="#F6AA57"/>
<path d="M3.99994 16.0005H20.7997V14.4005H4.79993V12.2669L6.39991 10.1342L8.16004 12.4806C8.32059 12.6818 8.56394 12.7994 8.82136 12.8005C9.08112 12.7935 9.32135 12.6607 9.46549 12.4443L12.0709 8.53575L15.3846 12.5134C15.5373 12.6951 15.7623 12.8001 15.9998 12.8005C16.0248 12.8021 16.0498 12.8021 16.0752 12.8005C16.3377 12.7755 16.5709 12.6232 16.699 12.3923L20.6989 5.19244L19.3005 4.41667L15.867 10.5959L12.6151 6.69163C12.4553 6.49398 12.2104 6.38539 11.9565 6.40062C11.7049 6.41429 11.4741 6.54593 11.3342 6.7557L8.7616 10.6166L7.03974 8.32052C6.88232 8.12912 6.64756 8.01818 6.39991 8.01818C6.15226 8.01818 5.91749 8.12912 5.76007 8.32052L4.79993 9.60058V4.00066H3.19995V15.2005C3.19995 15.6423 3.55815 16.0005 3.99994 16.0005Z" fill="#F6AA57"/>
<path d="M32.4093 36.0819L34.0818 34.4093L33.2631 33.0732L33.4811 32.5471L35 32.1829V29.8171L33.4811 29.453L33.2631 28.9269L34.0818 27.5907L32.4093 25.9182L31.0731 26.7369L30.5471 26.5189L30.1829 25H27.8171L27.4529 26.5189L26.9269 26.7369L25.5907 25.9182L23.9182 27.5907L24.7369 28.9269L24.5189 29.453L23 29.8171V32.1829L24.5189 32.5471L24.7369 33.0732L23.9182 34.4093L25.5907 36.0818L26.9268 35.2631L27.4529 35.4812L27.8171 37H30.1829L30.5471 35.4812L31.0731 35.2631L32.4093 36.0819ZM29.5227 34.6067L29.2366 35.8H28.7634L28.4773 34.6067L26.8213 33.9205L25.7702 34.5644L25.4356 34.2298L26.0796 33.1788L25.3934 31.5227L24.2 31.2366V30.7634L25.3934 30.4773L26.0796 28.8213L25.4356 27.7703L25.7703 27.4356L26.8213 28.0796L28.4773 27.3934L28.7634 26.2H29.2366L29.5227 27.3934L31.1787 28.0796L32.2297 27.4356L32.5644 27.7703L31.9204 28.8213L32.6066 30.4773L33.8 30.7634V31.2366L32.6066 31.5227L31.9204 33.1788L32.5644 34.2298L32.2297 34.5645L31.1787 33.9205L29.5227 34.6067Z" fill="#F6AA57"/>
<path d="M29 29C28.6044 29 28.2178 29.1173 27.8889 29.3371C27.56 29.5568 27.3036 29.8692 27.1522 30.2346C27.0009 30.6001 26.9613 31.0022 27.0384 31.3902C27.1156 31.7781 27.3061 32.1345 27.5858 32.4142C27.8655 32.6939 28.2219 32.8844 28.6098 32.9616C28.9978 33.0387 29.3999 32.9991 29.7654 32.8478C30.1308 32.6964 30.4432 32.44 30.6629 32.1111C30.8827 31.7822 31 31.3956 31 31C30.9994 30.4698 30.7885 29.9614 30.4135 29.5865C30.0386 29.2115 29.5302 29.0006 29 29V29ZM29 32C28.8022 32 28.6089 31.9414 28.4444 31.8315C28.28 31.7216 28.1518 31.5654 28.0761 31.3827C28.0004 31.2 27.9806 30.9989 28.0192 30.8049C28.0578 30.6109 28.153 30.4327 28.2929 30.2929C28.4327 30.153 28.6109 30.0578 28.8049 30.0192C28.9989 29.9806 29.2 30.0004 29.3827 30.0761C29.5654 30.1518 29.7216 30.28 29.8315 30.4444C29.9414 30.6089 30 30.8022 30 31C29.9997 31.2651 29.8942 31.5193 29.7068 31.7068C29.5193 31.8942 29.2651 31.9997 29 32V32Z" fill="#F6AA57"/>
</g>
<defs>
<clipPath id="clip0">
<rect width="48" height="48" fill="white"/>
</clipPath>
</defs>
</svg>
