<svg width="48" height="48" viewBox="0 0 48 48" fill="none" xmlns="http://www.w3.org/2000/svg">
<path d="M1 29.5L2.5 25H23L25 29.5L24.5 47H1V29.5Z" fill="white"/>
<path d="M4 13.5V21.5H19.5V13.5L17.5 11.5H6.5L4 13.5Z" fill="white"/>
<ellipse cx="12" cy="5" rx="3" ry="4" fill="white"/>
<ellipse cx="36" cy="6.5" rx="11" ry="5.5" fill="white"/>
<path d="M42 17.5H30L31 24.5H40.5L42 17.5Z" fill="white"/>
<path d="M34.5 47H47L46.5 37.5L37.5 37V31H34.5V42.5L30 41L29 42.5L34.5 47Z" fill="white"/>
<path d="M35.9961 13.6C40.7301 13.5133 45.1355 11.1605 47.8406 7.27422C48.0484 6.99219 48.0484 6.60781 47.8406 6.32578C45.1355 2.43945 40.7301 0.0867188 35.9961 0C31.2617 0.0867188 26.8566 2.43945 24.1512 6.32578C23.9433 6.60781 23.9433 6.99219 24.1512 7.27422C26.8566 11.1605 31.2617 13.5133 35.9961 13.6ZM31.1961 6.8C31.1168 4.24375 32.9527 2.02813 35.4793 1.63125C35.6519 1.62383 35.8223 1.6 35.9961 1.6C36.1695 1.6 36.3398 1.62383 36.5129 1.63125C39.0394 2.02813 40.8754 4.24375 40.7961 6.8C40.8754 9.35625 39.0398 11.5715 36.5137 11.9688C36.3406 11.9762 36.1695 12 35.9961 12C35.8223 12 35.6512 11.9762 35.4785 11.9688C32.9523 11.5715 31.1164 9.35625 31.1961 6.8V6.8ZM46.1887 6.8C44.8414 8.51484 43.114 9.89258 41.1426 10.8246C42.8137 8.40195 42.8137 5.19805 41.1426 2.77539C43.114 3.70742 44.8414 5.08516 46.1887 6.8ZM30.8496 2.77539C29.1781 5.19805 29.1781 8.40195 30.8496 10.8246C28.8781 9.89258 27.1504 8.51484 25.8031 6.8C27.1504 5.08516 28.8781 3.70742 30.8496 2.77539Z" fill="#5EA19B"/>
<path d="M38.6625 6.79999C38.7105 5.8164 38.2132 4.88593 37.3683 4.37929C36.5234 3.87304 35.4683 3.87304 34.6238 4.37929C33.7789 4.88593 33.2812 5.8164 33.3297 6.79999C33.2812 7.78359 33.7789 8.71406 34.6238 9.2207C35.4683 9.72695 36.5234 9.72695 37.3683 9.2207C38.2132 8.71406 38.7105 7.78359 38.6625 6.79999ZM34.9297 6.79999C34.8816 6.38945 35.0738 5.98788 35.4238 5.76757C35.7734 5.54726 36.2187 5.54726 36.5683 5.76757C36.9179 5.98788 37.1101 6.38945 37.0625 6.79999C37.1101 7.21054 36.9179 7.6121 36.5683 7.83242C36.2187 8.05273 35.7734 8.05273 35.4238 7.83242C35.0738 7.6121 34.8816 7.21054 34.9297 6.79999Z" fill="#5EA19B"/>
<path d="M0.796094 48H24.7961C25.2379 48 25.5961 47.6418 25.5961 47.2V29.6C25.5961 29.593 25.5922 29.5863 25.5922 29.5785C25.591 29.5 25.5785 29.4219 25.5543 29.3473L23.9543 24.5473C23.8457 24.2207 23.5402 24.0004 23.1961 24H2.39609C2.05195 24.0004 1.74648 24.2207 1.6375 24.5473L0.0375 29.3473C0.0136719 29.4219 0.00078125 29.5 0 29.5785V29.6V47.2C0 47.6402 0.355859 47.9977 0.796094 48ZM17.5961 46.4V38.4H20.7961V46.4H17.5961ZM22.3961 46.4V37.6C22.3961 37.1582 22.0379 36.8 21.5961 36.8H16.7961C16.3543 36.8 15.9961 37.1582 15.9961 37.6V46.4H1.59609V34.1191C2.67227 34.6461 3.96562 34.4176 4.79609 33.5535C5.3207 34.0945 6.04219 34.4 6.79609 34.4C7.54961 34.4 8.27109 34.0945 8.79609 33.5535C9.3207 34.0945 10.0422 34.4 10.7961 34.4C11.5496 34.4 12.2711 34.0945 12.7961 33.5535C13.3207 34.0945 14.0422 34.4 14.7961 34.4C15.5496 34.4 16.2711 34.0945 16.7961 33.5535C17.3207 34.0945 18.0422 34.4 18.7961 34.4C19.5496 34.4 20.2711 34.0945 20.7961 33.5535C21.6266 34.4176 22.9199 34.6461 23.9961 34.1191V46.4H22.3961ZM1.59609 30.4H3.99609V31.6C3.99609 32.2629 3.45859 32.8 2.79609 32.8C2.1332 32.8 1.59609 32.2629 1.59609 31.6V30.4ZM13.5961 25.6H15.3184L15.652 27.6L15.8512 28.8H13.5961V25.6ZM23.9961 31.6C23.9961 32.2629 23.4586 32.8 22.7961 32.8C22.1332 32.8 21.5961 32.2629 21.5961 31.6V30.4H23.9961V31.6ZM19.9961 31.6C19.9961 32.2629 19.4586 32.8 18.7961 32.8C18.1332 32.8 17.5961 32.2629 17.5961 31.6V30.4H19.9961V31.6ZM15.9961 31.6C15.9961 32.2629 15.4586 32.8 14.7961 32.8C14.1332 32.8 13.5961 32.2629 13.5961 31.6V30.4H15.9961V31.6ZM11.9961 31.6C11.9961 32.2629 11.4586 32.8 10.7961 32.8C10.1332 32.8 9.59609 32.2629 9.59609 31.6V30.4H11.9961V31.6ZM7.99609 31.6C7.99609 32.2629 7.45859 32.8 6.79609 32.8C6.1332 32.8 5.59609 32.2629 5.59609 31.6V30.4H7.99609V31.6ZM22.6191 25.6L23.6855 28.8H21.4734L21.1398 26.8L20.9406 25.6H22.6191ZM19.3184 25.6L19.652 27.6L19.8512 28.8H17.4734L17.1398 26.8L16.9406 25.6H19.3184ZM11.9961 28.8H9.74062L9.93984 27.6L10.2734 25.6H11.9961V28.8ZM8.45195 26.8L8.11836 28.8H5.74062L5.93984 27.6L6.27344 25.6H8.65117L8.45195 26.8ZM2.97266 25.6H4.65273L4.45195 26.8L4.11836 28.8H1.90625L2.97266 25.6Z" fill="#5EA19B"/>
<path d="M13.5961 36.8H3.99611C3.55431 36.8 3.19611 37.1582 3.19611 37.6V44C3.19611 44.4418 3.55431 44.8 3.99611 44.8H13.5961C14.0379 44.8 14.3961 44.4418 14.3961 44V37.6C14.3961 37.1582 14.0379 36.8 13.5961 36.8ZM12.7961 43.2H4.79611V38.4H12.7961V43.2Z" fill="#5EA19B"/>
<path d="M5.83044 41.0348L7.43005 39.4348L8.5613 40.566L6.96169 42.166L5.83044 41.0348Z" fill="#5EA19B"/>
<path d="M9.03046 41.0344L10.6305 39.4344L11.7617 40.566L10.1621 42.1656L9.03046 41.0344Z" fill="#5EA19B"/>
<path d="M47.9961 38.4855C48.0113 37.2914 47.1688 36.2582 45.9961 36.0328C45.2981 35.9164 44.5844 36.1133 44.0449 36.5711L43.9961 36.6121C43.086 35.7949 41.7063 35.7949 40.7961 36.6121C40.1344 36.0445 39.2242 35.8641 38.3961 36.1359V32.0855C38.4114 30.8914 37.5688 29.8582 36.3961 29.6328C35.6992 29.5148 34.986 29.7102 34.4465 30.1664C33.9071 30.6227 33.5957 31.2934 33.5961 32V41.7871L31.4727 40.5129C30.8242 40.1222 30.0207 40.0922 29.345 40.4328L29.2192 40.4953C28.525 40.8422 28.0633 41.5277 28.0024 42.3012C27.9418 43.075 28.2907 43.8242 28.9223 44.2754L33.9313 47.8527C34.0672 47.9492 34.2297 48.0004 34.3961 48H47.1961C47.6379 48 47.9961 47.6418 47.9961 47.2V38.4855ZM46.3961 46.4H34.652L29.852 42.9719C29.6914 42.8562 29.5965 42.6707 29.5961 42.4726C29.5953 42.2402 29.727 42.0277 29.9352 41.9246L30.0602 41.8625C30.2469 41.7676 30.4696 41.7762 30.6489 41.8847L33.984 43.8847C34.2309 44.0332 34.5387 44.0371 34.7895 43.8957C35.0403 43.7539 35.1957 43.4883 35.1961 43.2V32C35.1957 31.7633 35.3004 31.5383 35.4817 31.3859C35.6633 31.2336 35.9028 31.1699 36.136 31.2113C36.5356 31.3094 36.811 31.6746 36.7961 32.0855V38.4C36.7961 38.8418 37.1543 39.2 37.5961 39.2C38.0379 39.2 38.3961 38.8418 38.3961 38.4C38.3961 37.9582 38.7543 37.6 39.1961 37.6C39.6379 37.6 39.9961 37.9582 39.9961 38.4C39.9961 38.8418 40.3543 39.2 40.7961 39.2C41.2379 39.2 41.5961 38.8418 41.5961 38.4C41.5961 37.9582 41.9543 37.6 42.3961 37.6C42.8379 37.6 43.1961 37.9582 43.1961 38.4C43.1961 38.8418 43.5543 39.2 43.9961 39.2C44.4379 39.2 44.7961 38.8418 44.7961 38.4C44.7957 38.1629 44.9004 37.9379 45.0821 37.7855C45.2637 37.6332 45.5035 37.5695 45.7367 37.6113C46.1356 37.7101 46.4106 38.075 46.3961 38.4855V46.4Z" fill="#5EA19B"/>
<path d="M3.99611 22.4H19.9961C20.4379 22.4 20.7961 22.0418 20.7961 21.6V14.4C20.7934 12.1918 19.0039 10.4027 16.7961 10.4H7.19611C4.9879 10.4027 3.19884 12.1918 3.19611 14.4V21.6C3.19611 22.0418 3.55431 22.4 3.99611 22.4ZM4.79611 14.4C4.79611 13.0746 5.87072 12 7.19611 12H16.7961C18.1215 12 19.1961 13.0746 19.1961 14.4V20.8H17.5961V15.2H15.9961V20.8H7.99611V15.2H6.39611V20.8H4.79611V14.4Z" fill="#5EA19B"/>
<path d="M11.9961 9.6C14.2039 9.59727 15.9934 7.8082 15.9961 5.6V4C15.9961 1.79102 14.2051 0 11.9961 0C9.78672 0 7.99609 1.79102 7.99609 4V5.6C7.99883 7.8082 9.78789 9.59727 11.9961 9.6ZM9.59609 4C9.59609 2.67461 10.6707 1.6 11.9961 1.6C13.3215 1.6 14.3961 2.67461 14.3961 4V5.6C14.3961 6.92539 13.3215 8 11.9961 8C10.6707 8 9.59609 6.92539 9.59609 5.6V4Z" fill="#5EA19B"/>
<path d="M46.3961 15.2V13.6H43.1961C42.8289 13.6 42.509 13.8496 42.4199 14.2055L41.7719 16.8H29.5961C29.3531 16.7996 29.1234 16.9098 28.9715 17.0992C28.8195 17.2887 28.7617 17.5367 28.8144 17.7734L30.4144 24.9735C30.4957 25.3399 30.8207 25.6004 31.1961 25.6H40.7961C41.1711 25.6004 41.4961 25.3399 41.5777 24.9735L43.1777 17.7734L43.8176 15.2016L46.3961 15.2ZM40.1558 24H31.8359L30.5922 18.4H41.3984L40.1558 24Z" fill="#5EA19B"/>
<path d="M32.7961 28C32.7961 28.8836 32.0797 29.6 31.1961 29.6C30.3125 29.6 29.5961 28.8836 29.5961 28C29.5961 27.1164 30.3125 26.4 31.1961 26.4C32.0797 26.4 32.7961 27.1164 32.7961 28Z" fill="#5EA19B"/>
<path d="M42.3961 28C42.3961 28.8836 41.6797 29.6 40.7961 29.6C39.9125 29.6 39.1961 28.8836 39.1961 28C39.1961 27.1164 39.9125 26.4 40.7961 26.4C41.6797 26.4 42.3961 27.1164 42.3961 28Z" fill="#5EA19B"/>
<path d="M17.5961 5.60001H19.1961V7.20001H17.5961V5.60001Z" fill="#5EA19B"/>
<path d="M20.7961 5.60001H22.3961V7.20001H20.7961V5.60001Z" fill="#5EA19B"/>
<path d="M27.1961 36H28.7961V37.6H27.1961V36Z" fill="#5EA19B"/>
<path d="M30.3961 36H31.9961V37.6H30.3961V36Z" fill="#5EA19B"/>
</svg>
