<svg width="48" height="48" viewBox="0 0 48 48" fill="none" xmlns="http://www.w3.org/2000/svg">
<rect x="1" y="6" width="42" height="29" fill="white"/>
<circle cx="42.5" cy="5.5" r="4.5" fill="white"/>
<circle cx="35.5" cy="35.5" r="11.5" fill="white"/>
<path d="M43.3548 25.9587V10.7768C45.977 10.399 48 8.14374 48 5.41935C48 2.43174 45.569 0 42.5806 0C39.5923 0 37.1613 2.43174 37.1613 5.41935H0V36.3871H23.2653C23.6679 42.8563 29.0446 48 35.6129 48C42.4428 48 48 42.4428 48 35.6129C48 31.7117 46.183 28.231 43.3548 25.9587ZM42.5806 1.54839C44.7151 1.54839 46.4516 3.2849 46.4516 5.41935C46.4516 7.55381 44.7151 9.29032 42.5806 9.29032C40.4462 9.29032 38.7097 7.55381 38.7097 5.41935C38.7097 3.2849 40.4462 1.54839 42.5806 1.54839ZM1.54839 6.96774H37.3897C37.5747 7.58555 37.8689 8.15458 38.2467 8.65935L33.5117 13.3943C33.2083 13.2488 32.8738 13.1613 32.5161 13.1613C32.1585 13.1613 31.824 13.2488 31.5213 13.3943L29.9613 11.8343C30.1061 11.5308 30.1935 11.1964 30.1935 10.8387C30.1935 9.55819 29.1515 8.51613 27.871 8.51613C26.5905 8.51613 25.5484 9.55819 25.5484 10.8387C25.5484 11.1964 25.6359 11.5308 25.7814 11.8335L21.8988 15.7161C21.5954 15.5714 21.2609 15.4839 20.9032 15.4839C19.6227 15.4839 18.5806 16.5259 18.5806 17.8065C18.5806 19.087 19.6227 20.129 20.9032 20.129C22.1837 20.129 23.2258 19.087 23.2258 17.8065C23.2258 17.4488 23.1383 17.1143 22.9928 16.8116L26.8754 12.929C27.1788 13.0738 27.5133 13.1613 27.871 13.1613C28.2286 13.1613 28.5631 13.0738 28.8658 12.9283L30.4258 14.4883C30.281 14.7917 30.1935 15.1262 30.1935 15.4839C30.1935 16.7644 31.2356 17.8065 32.5161 17.8065C33.7966 17.8065 34.8387 16.7644 34.8387 15.4839C34.8387 15.1262 34.7512 14.7917 34.6057 14.489L39.3414 9.75406C40.0498 10.2852 40.8906 10.6452 41.8065 10.7775V24.9027C39.9817 23.8428 37.8705 23.2258 35.6129 23.2258C31.9123 23.2258 28.5941 24.8655 26.3226 27.4475V24H21.6774V33.2903H23.4519C23.3559 33.7959 23.2978 34.3138 23.2653 34.8387H1.54839V6.96774ZM32.5161 14.7097C32.9427 14.7097 33.2903 15.0565 33.2903 15.4839C33.2903 15.9112 32.9427 16.2581 32.5161 16.2581C32.0895 16.2581 31.7419 15.9112 31.7419 15.4839C31.7419 15.0565 32.0895 14.7097 32.5161 14.7097ZM27.0968 10.8387C27.0968 10.4114 27.4444 10.0645 27.871 10.0645C28.2975 10.0645 28.6452 10.4114 28.6452 10.8387C28.6452 11.2661 28.2975 11.6129 27.871 11.6129C27.4444 11.6129 27.0968 11.2661 27.0968 10.8387ZM21.6774 17.8065C21.6774 18.2338 21.3298 18.5806 20.9032 18.5806C20.4766 18.5806 20.129 18.2338 20.129 17.8065C20.129 17.3791 20.4766 17.0323 20.9032 17.0323C21.3298 17.0323 21.6774 17.3791 21.6774 17.8065ZM35.6129 41.8065C32.1979 41.8065 29.4194 39.0279 29.4194 35.6129C29.4194 32.1979 32.1979 29.4194 35.6129 29.4194C39.0279 29.4194 41.8065 32.1979 41.8065 35.6129C41.8065 39.0279 39.0279 41.8065 35.6129 41.8065ZM24.7742 29.6292C24.4034 30.2981 24.0968 31.0049 23.8537 31.7419H23.2258V25.5484H24.7742V29.6292ZM34.8387 24.8137V27.9104C30.9321 28.3006 27.871 31.6057 27.871 35.6129C27.871 36.7455 28.1218 37.8194 28.5608 38.7902L25.8751 40.3409C25.1768 38.9102 24.7742 37.3092 24.7742 35.6129C24.7742 29.8978 29.2235 25.2132 34.8387 24.8137ZM35.6129 46.4516C31.8859 46.4516 28.5925 44.5603 26.6415 41.6865L29.3381 40.1295C30.7455 42.079 33.0302 43.3548 35.6129 43.3548C38.1956 43.3548 40.4803 42.079 41.8877 40.1295L44.5843 41.6865C42.6333 44.5603 39.3399 46.4516 35.6129 46.4516V46.4516ZM45.3507 40.3409L42.665 38.7902C43.104 37.8194 43.3548 36.7455 43.3548 35.6129C43.3548 31.6057 40.2937 28.2999 36.3871 27.9104V24.8137C42.0023 25.2132 46.4516 29.8978 46.4516 35.6129C46.4516 37.3092 46.049 38.9102 45.3507 40.3409Z" fill="#7F6BA8"/>
<path d="M35.6129 30.9677C33.0511 30.9677 30.9678 33.0511 30.9678 35.6129C30.9678 38.1747 33.0511 40.2581 35.6129 40.2581C38.1747 40.2581 40.2581 38.1747 40.2581 35.6129C40.2581 33.0511 38.1747 30.9677 35.6129 30.9677ZM35.6129 38.7097C33.9051 38.7097 32.5162 37.3208 32.5162 35.6129C32.5162 33.905 33.9051 32.5161 35.6129 32.5161C37.3208 32.5161 38.7097 33.905 38.7097 35.6129C38.7097 37.3208 37.3208 38.7097 35.6129 38.7097Z" fill="#7F6BA8"/>
<path d="M3.0968 33.2903H7.74196V25.5484H3.0968V33.2903ZM4.64519 27.0968H6.19358V31.7419H4.64519V27.0968Z" fill="#7F6BA8"/>
<path d="M9.29028 33.2903H13.9354V27.0968H9.29028V33.2903ZM10.8387 28.6452H12.3871V31.7419H10.8387V28.6452Z" fill="#7F6BA8"/>
<path d="M15.4839 33.2903H20.129V20.9032H15.4839V33.2903ZM17.0323 22.4516H18.5807V31.7419H17.0323V22.4516Z" fill="#7F6BA8"/>
<path d="M12.525 19.5091C12.4254 19.5212 12.3246 19.5212 12.225 19.5091C11.9923 19.47 11.7703 19.3832 11.5728 19.2541C11.3753 19.125 11.2067 18.9565 11.0775 18.7591C10.7778 18.2998 10.3687 17.9223 9.88694 17.6605C9.40516 17.3987 8.86583 17.2607 8.3175 17.2591H7.5C7.30109 17.2591 7.11032 17.18 6.96967 17.0394C6.82902 16.8987 6.75 16.708 6.75 16.5091V12.0091C6.75 11.8102 6.82902 11.6194 6.96967 11.4787C7.11032 11.3381 7.30109 11.2591 7.5 11.2591H8.3175C8.86685 11.2573 9.40719 11.1194 9.89017 10.8576C10.3731 10.5958 10.7837 10.2184 11.085 9.75907C11.2127 9.56188 11.3799 9.39339 11.5762 9.26428C11.7724 9.13517 11.9934 9.04826 12.225 9.00907C12.3246 8.99698 12.4254 8.99698 12.525 9.00907C12.9825 9.00907 13.4213 9.19081 13.7448 9.51431C14.0683 9.83781 14.25 10.2766 14.25 10.7341V17.7841C14.25 18.2416 14.0683 18.6803 13.7448 19.0038C13.4213 19.3273 12.9825 19.5091 12.525 19.5091V19.5091ZM8.25 15.7591H8.3175C9.11236 15.757 9.89527 15.9526 10.5957 16.3283C11.2962 16.7041 11.8921 17.2482 12.33 17.9116C12.3479 17.9374 12.3713 17.9589 12.3985 17.9744C12.4258 17.99 12.4562 17.9993 12.4875 18.0016H12.525C12.5847 18.0016 12.6419 17.9779 12.6841 17.9357C12.7263 17.8935 12.75 17.8362 12.75 17.7766V10.7341C12.751 10.7049 12.7461 10.6758 12.7356 10.6485C12.7252 10.6213 12.7093 10.5964 12.689 10.5754C12.6687 10.5544 12.6444 10.5377 12.6175 10.5263C12.5906 10.5149 12.5617 10.5091 12.5325 10.5091H12.4875C12.458 10.511 12.4293 10.5194 12.4034 10.5337C12.3774 10.5479 12.355 10.5677 12.3375 10.5916C11.8997 11.2579 11.3031 11.8048 10.6013 12.1832C9.89958 12.5615 9.11475 12.7594 8.3175 12.7591H8.25V15.7591ZM12.525 9.75907V10.5091V9.75907Z" fill="#7F6BA8"/>
<path d="M7.5 17.2591H6C5.20435 17.2591 4.44129 16.943 3.87868 16.3804C3.31607 15.8178 3 15.0547 3 14.2591C3 13.4634 3.31607 12.7004 3.87868 12.1377C4.44129 11.5751 5.20435 11.2591 6 11.2591H7.5C7.69891 11.2591 7.88968 11.3381 8.03033 11.4787C8.17098 11.6194 8.25 11.8102 8.25 12.0091V16.5091C8.25 16.708 8.17098 16.8987 8.03033 17.0394C7.88968 17.18 7.69891 17.2591 7.5 17.2591ZM6 12.7591C5.60218 12.7591 5.22064 12.9171 4.93934 13.1984C4.65804 13.4797 4.5 13.8612 4.5 14.2591C4.5 14.6569 4.65804 15.0384 4.93934 15.3197C5.22064 15.601 5.60218 15.7591 6 15.7591H6.75V12.7591H6Z" fill="#7F6BA8"/>
<path d="M7.49994 21.0091C7.34974 21.0092 7.20294 20.9642 7.07858 20.88C6.95422 20.7958 6.85802 20.6761 6.80244 20.5366L5.30244 16.7866C5.266 16.695 5.24796 16.5971 5.24934 16.4985C5.25073 16.4 5.27151 16.3026 5.31051 16.2121C5.34951 16.1215 5.40597 16.0396 5.47664 15.9709C5.54732 15.9021 5.63085 15.848 5.72244 15.8116C5.81404 15.7751 5.91192 15.7571 6.01049 15.7585C6.10906 15.7599 6.20639 15.7806 6.29693 15.8196C6.38747 15.8586 6.46943 15.9151 6.53816 15.9858C6.60688 16.0564 6.661 16.14 6.69744 16.2316L8.19745 19.9816C8.23398 20.0731 8.25209 20.171 8.25075 20.2696C8.24941 20.3682 8.22864 20.4656 8.18963 20.5562C8.15062 20.6467 8.09414 20.7287 8.02341 20.7974C7.95268 20.8661 7.8691 20.9202 7.77745 20.9566C7.68911 20.9915 7.59494 21.0093 7.49994 21.0091V21.0091Z" fill="#7F6BA8"/>
</svg>
