<svg width="48" height="48" viewBox="0 0 48 48" fill="none" xmlns="http://www.w3.org/2000/svg">
<circle cx="10" cy="10" r="8" fill="white"/>
<circle cx="10" cy="38" r="8" fill="white"/>
<circle cx="38" cy="38" r="8" fill="white"/>
<circle cx="38" cy="10" r="8" fill="white"/>
<circle cx="24" cy="24" r="9" fill="white"/>
<path d="M38.25 29.25C36.0382 29.25 34.0132 30.0555 32.4442 31.3838L31.3958 30.3352C32.8598 28.6297 33.75 26.4187 33.75 24C33.75 21.5813 32.8597 19.3702 31.3965 17.6647L32.445 16.6163C34.0132 17.9445 36.0382 18.75 38.25 18.75C43.2127 18.75 47.25 14.7127 47.25 9.75C47.25 4.78725 43.2127 0.75 38.25 0.75C33.2873 0.75 29.25 4.78725 29.25 9.75C29.25 11.9618 30.0555 13.9867 31.3838 15.5557L30.3352 16.6042C28.6297 15.1402 26.4187 14.25 24 14.25C21.5813 14.25 19.3702 15.1403 17.6647 16.6035L16.6163 15.555C17.9445 13.9868 18.75 11.9618 18.75 9.75C18.75 4.78725 14.7127 0.75 9.75 0.75C4.78725 0.75 0.75 4.78725 0.75 9.75C0.75 14.7127 4.78725 18.75 9.75 18.75C11.9618 18.75 13.9867 17.9445 15.5557 16.6163L16.6042 17.6647C15.1402 19.3702 14.25 21.5813 14.25 24C14.25 26.4187 15.1402 28.6297 16.6042 30.3352L15.5557 31.3838C13.9867 30.0555 11.9618 29.25 9.75 29.25C4.78725 29.25 0.75 33.2873 0.75 38.25C0.75 43.2127 4.78725 47.25 9.75 47.25C14.7127 47.25 18.75 43.2127 18.75 38.25C18.75 36.0382 17.9445 34.0132 16.6163 32.4442L17.6647 31.3958C19.3702 32.8598 21.5813 33.75 24 33.75C25.9013 33.75 27.6713 33.195 29.172 32.25H29.25V32.2028C29.631 31.9583 29.9932 31.6898 30.3352 31.3958L31.3838 32.4442C30.0555 34.0132 29.25 36.0382 29.25 38.25C29.25 43.2127 33.2873 47.25 38.25 47.25C43.2127 47.25 47.25 43.2127 47.25 38.25C47.25 33.2873 43.2127 29.25 38.25 29.25ZM36.75 8.25V6.75C36.75 5.92275 37.4227 5.25 38.25 5.25C39.0773 5.25 39.75 5.92275 39.75 6.75V8.25C39.75 9.07725 39.0773 9.75 38.25 9.75C37.4227 9.75 36.75 9.07725 36.75 8.25ZM40.5 11.25C41.7405 11.25 42.75 12.2595 42.75 13.5L42.7305 15.75H33.7688L33.75 13.5C33.75 12.2595 34.7595 11.25 36 11.25H40.5ZM33.7688 15.75H42.7305C41.4787 16.6875 39.9308 17.25 38.2493 17.25C36.5678 17.25 35.0213 16.6875 33.7688 15.75ZM38.25 2.25C42.3855 2.25 45.75 5.6145 45.75 9.75C45.75 11.4307 45.1875 12.9788 44.25 14.2313V13.5C44.25 11.5403 42.7335 9.945 40.815 9.7815C41.085 9.3315 41.25 8.81175 41.25 8.25V6.75C41.25 5.0955 39.9045 3.75 38.25 3.75C36.5955 3.75 35.25 5.0955 35.25 6.75V8.25C35.25 8.81175 35.415 9.3315 35.685 9.7815C33.7665 9.945 32.25 11.5403 32.25 13.5V14.2313C31.3125 12.9795 30.75 11.4315 30.75 9.75C30.75 5.6145 34.1145 2.25 38.25 2.25ZM8.25 8.25V6.75C8.25 5.92275 8.92275 5.25 9.75 5.25C10.5773 5.25 11.25 5.92275 11.25 6.75V8.25C11.25 9.07725 10.5773 9.75 9.75 9.75C8.92275 9.75 8.25 9.07725 8.25 8.25ZM12 11.25C13.2405 11.25 14.25 12.2595 14.25 13.5L14.2305 15.75H5.26875L5.25 13.5C5.25 12.2595 6.2595 11.25 7.5 11.25H12ZM2.25 9.75C2.25 5.6145 5.6145 2.25 9.75 2.25C13.8855 2.25 17.25 5.6145 17.25 9.75C17.25 11.4307 16.6875 12.9788 15.75 14.2313V13.5C15.75 11.5403 14.2335 9.945 12.315 9.7815C12.585 9.3315 12.75 8.81175 12.75 8.25V6.75C12.75 5.0955 11.4045 3.75 9.75 3.75C8.0955 3.75 6.75 5.0955 6.75 6.75V8.25C6.75 8.81175 6.915 9.3315 7.185 9.7815C5.2665 9.945 3.75 11.5403 3.75 13.5V14.2313C2.8125 12.9788 2.25 11.4307 2.25 9.75ZM5.26875 15.75H14.2305C12.9788 16.6875 11.4307 17.25 9.74925 17.25C8.06775 17.25 6.52125 16.6875 5.26875 15.75ZM8.25 36.75V35.25C8.25 34.4227 8.92275 33.75 9.75 33.75C10.5773 33.75 11.25 34.4227 11.25 35.25V36.75C11.25 37.5773 10.5773 38.25 9.75 38.25C8.92275 38.25 8.25 37.5773 8.25 36.75ZM12 39.75C13.2405 39.75 14.25 40.7595 14.25 42L14.2313 44.25H5.2695L5.25 42C5.25 40.7595 6.2595 39.75 7.5 39.75H12ZM5.2695 44.25H14.2313C12.9795 45.1875 11.4315 45.75 9.75075 45.75C8.07 45.75 6.52125 45.1875 5.2695 44.25ZM15.75 42.7305V42C15.75 40.0403 14.2335 38.445 12.3158 38.2822C12.585 37.8322 12.75 37.3117 12.75 36.75V35.25C12.75 33.5955 11.4045 32.25 9.75 32.25C8.0955 32.25 6.75 33.5955 6.75 35.25V36.75C6.75 37.3117 6.915 37.8322 7.18425 38.2822C5.2665 38.445 3.75 40.0403 3.75 42V42.7305C2.8125 41.4787 2.25 39.9307 2.25 38.25C2.25 34.1145 5.6145 30.75 9.75 30.75C13.8855 30.75 17.25 34.1145 17.25 38.25C17.25 39.9307 16.6875 41.4787 15.75 42.7305ZM21.75 31.9305C21.2265 31.782 20.7255 31.5833 20.25 31.3395V27.75H21.75V31.9305ZM23.25 32.2118V27V24.75H24.75V32.2118C24.5025 32.2343 24.2535 32.25 24 32.25C23.7465 32.25 23.4975 32.2343 23.25 32.2118ZM26.25 24V21.75H27.75V31.3395C27.2745 31.5833 26.7735 31.782 26.25 31.9305V24ZM28.5 20.25H25.5C25.086 20.25 24.75 20.586 24.75 21V23.25H22.5C22.086 23.25 21.75 23.586 21.75 24V26.25H19.5C19.086 26.25 18.75 26.5853 18.75 27V30.3592C16.9193 28.845 15.75 26.5567 15.75 24C15.75 19.4513 19.4513 15.75 24 15.75C28.5487 15.75 32.25 19.4513 32.25 24C32.25 26.556 31.0807 28.8442 29.25 30.3592V21C29.25 20.586 28.914 20.25 28.5 20.25ZM36.75 36.75V35.25C36.75 34.4227 37.4227 33.75 38.25 33.75C39.0773 33.75 39.75 34.4227 39.75 35.25V36.75C39.75 37.5773 39.0773 38.25 38.25 38.25C37.4227 38.25 36.75 37.5773 36.75 36.75ZM40.5 39.75C41.7405 39.75 42.75 40.7595 42.75 42L42.7312 44.25H33.7695L33.75 42C33.75 40.7595 34.7595 39.75 36 39.75H40.5ZM33.7695 44.25H42.7312C41.4795 45.1875 39.9315 45.75 38.2507 45.75C36.57 45.75 35.0213 45.1875 33.7695 44.25ZM44.25 42.7305V42C44.25 40.0403 42.7335 38.445 40.8158 38.2822C41.085 37.8322 41.25 37.3117 41.25 36.75V35.25C41.25 33.5955 39.9045 32.25 38.25 32.25C36.5955 32.25 35.25 33.5955 35.25 35.25V36.75C35.25 37.3117 35.415 37.8322 35.6842 38.2822C33.7665 38.445 32.25 40.0403 32.25 42V42.7305C31.3125 41.4787 30.75 39.9307 30.75 38.25C30.75 34.1145 34.1145 30.75 38.25 30.75C42.3855 30.75 45.75 34.1145 45.75 38.25C45.75 39.9307 45.1875 41.4787 44.25 42.7305Z" fill="#5DAED4"/>
</svg>
