<svg width="48" height="48" viewBox="0 0 48 48" fill="none" xmlns="http://www.w3.org/2000/svg">
<path d="M15 36H2V43.5L15 44L26 46C31.1667 44.6667 42.2 41.8 45 41C47.8 40.2 45.5 37.6667 44 36.5L31.5 36V33H45L46 29.5H43.5V2.5H3.5V29.5H2L3.5 33H18L15 36Z" fill="white"/>
<path d="M46.5 31.5V28.5H45V3.75C44.9993 3.15347 44.7621 2.58157 44.3402 2.15975C43.9184 1.73794 43.3465 1.50067 42.75 1.5H5.25C4.65347 1.50067 4.08157 1.73794 3.65975 2.15975C3.23794 2.58157 3.00067 3.15347 3 3.75V28.5H1.5V31.5C1.50068 32.0965 1.73795 32.6684 2.15976 33.0902C2.58157 33.512 3.15347 33.7493 3.75 33.75H16.1919L15.3484 34.5935C15.14 34.8031 14.892 34.9693 14.6189 35.0824C14.3458 35.1955 14.053 35.2534 13.7574 35.2526H1.5V36.7526H13.7574C14.25 36.7539 14.7381 36.6575 15.1932 36.469C15.6484 36.2804 16.0617 36.0035 16.4091 35.6542L18.4016 33.6616C18.61 33.452 18.858 33.2859 19.1311 33.1727C19.4042 33.0596 19.697 33.0018 19.9926 33.0026H29.25C29.6478 33.0026 30.0294 33.1606 30.3107 33.4419C30.592 33.7232 30.75 34.1047 30.75 34.5026C30.75 34.9004 30.592 35.2819 30.3107 35.5632C30.0294 35.8445 29.6478 36.0026 29.25 36.0026H19.5V37.5026H43.6211C43.9548 37.5026 44.2771 37.6236 44.5284 37.8431C44.7796 38.0626 44.9427 38.3658 44.9875 38.6964C45.0323 39.027 44.9557 39.3627 44.7719 39.6411C44.5881 39.9196 44.3095 40.1219 43.9879 40.2107L28.7148 44.424C25.6551 45.2714 22.4121 45.1861 19.4011 44.179L15.6989 42.945C15.3166 42.8174 14.9162 42.7525 14.5131 42.7526H1.5V44.2526H14.5131C14.755 44.2525 14.9953 44.2915 15.2248 44.368L18.9267 45.602C22.2199 46.7035 25.767 46.7968 29.1136 45.8699L44.3868 41.6567C45.0583 41.4714 45.6399 41.0489 46.0237 40.4676C46.4075 39.8862 46.5674 39.1854 46.474 38.4951C46.3805 37.8048 46.0399 37.1718 45.5153 36.7135C44.9907 36.2552 44.3177 36.0026 43.6211 36.0026H31.8464C32.2411 35.3214 32.3517 34.5121 32.1543 33.75H44.25C44.8465 33.7493 45.4184 33.512 45.8402 33.0902C46.262 32.6684 46.4993 32.0965 46.5 31.5V31.5ZM4.5 3.75C4.50023 3.55116 4.57932 3.36052 4.71992 3.21992C4.86052 3.07932 5.05116 3.00023 5.25 3H42.75C42.9488 3.00023 43.1395 3.07932 43.2801 3.21992C43.4207 3.36052 43.4998 3.55116 43.5 3.75V28.5H33.75V26.7257L31.2863 26.135L30.8254 25.0227L32.1536 22.8553L29.6448 20.3464L27.4773 21.6746L26.3651 21.2137L25.7743 18.75H22.2257L21.6349 21.2136L20.5227 21.6746L18.3553 20.3464L15.8464 22.8552L17.1747 25.0227L16.7137 26.135L14.25 26.7257V28.5H4.5V3.75ZM23.9999 24C22.8068 24.0013 21.663 24.4759 20.8194 25.3195C19.9758 26.1631 19.5012 27.3069 19.4999 28.5H15.75V27.9086L17.8068 27.4154L18.853 24.8909L17.7432 23.0797L18.5798 22.2431L20.3907 23.3529L22.9154 22.3068L23.4086 20.25H24.5914L25.0846 22.3068L27.6093 23.353L29.4203 22.2432L30.2568 23.0798L29.1471 24.8908L30.1932 27.4154L32.25 27.9086V28.5H28.4999C28.4986 27.3069 28.024 26.1631 27.1804 25.3195C26.3368 24.4759 25.193 24.0013 23.9999 24V24ZM26.9999 28.5H20.9999C20.9999 27.7044 21.316 26.9413 21.8786 26.3787C22.4412 25.8161 23.2043 25.5 23.9999 25.5C24.7956 25.5 25.5586 25.8161 26.1212 26.3787C26.6838 26.9413 26.9999 27.7044 26.9999 28.5V28.5ZM31.2282 32.25C30.682 31.768 29.9785 31.5021 29.25 31.5026H19.9926C19.1822 31.5004 18.3933 31.7629 17.7456 32.25H3.75C3.55116 32.2498 3.36052 32.1707 3.21992 32.0301C3.07932 31.8895 3.00023 31.6988 3 31.5V30H45V31.5C44.9998 31.6988 44.9207 31.8895 44.7801 32.0301C44.6395 32.1707 44.4488 32.2498 44.25 32.25H31.2282Z" fill="#E2585C"/>
<path d="M15 24.75V6.74998C15.0002 6.55114 15.0793 6.36051 15.2199 6.21991C15.3605 6.0793 15.5511 6.00021 15.75 5.99998H32.25C32.4488 6.00021 32.6395 6.0793 32.7801 6.21991C32.9207 6.36051 32.9998 6.55114 33 6.74998V24.75H34.5V21H35.6893L37.7198 23.0305C37.4909 23.5097 37.4388 24.0543 37.5726 24.5682C37.7064 25.082 38.0176 25.5321 38.4511 25.8387C38.8847 26.1453 39.4127 26.2888 39.9418 26.2437C40.4709 26.1987 40.967 25.9681 41.3425 25.5926C41.718 25.2171 41.9486 24.721 41.9937 24.1919C42.0387 23.6628 41.8953 23.1348 41.5887 22.7012C41.2821 22.2677 40.8321 21.9565 40.3182 21.8227C39.8043 21.6888 39.2597 21.741 38.7805 21.9699L36.3106 19.5H34.5V18H36.3106L38.7805 15.5301C39.2596 15.759 39.8042 15.8111 40.318 15.6773C40.8319 15.5434 41.2818 15.2323 41.5884 14.7987C41.895 14.3652 42.0384 13.8373 41.9934 13.3082C41.9483 12.7792 41.7177 12.2831 41.3422 11.9076C40.9668 11.5322 40.4707 11.3016 39.9416 11.2565C39.4126 11.2115 38.8846 11.355 38.4511 11.6615C38.0176 11.9681 37.7065 12.4181 37.5726 12.9319C37.4388 13.4457 37.491 13.9903 37.7198 14.4694L35.6893 16.5H34.5V11.25H36.3106L38.7805 8.7801C39.2596 9.00897 39.8042 9.0611 40.318 8.92727C40.8319 8.79343 41.2818 8.48226 41.5884 8.04874C41.895 7.61522 42.0384 7.08728 41.9934 6.55823C41.9483 6.02918 41.7177 5.53309 41.3422 5.15765C40.9668 4.7822 40.4707 4.55158 39.9416 4.50655C39.4126 4.46151 38.8846 4.60497 38.4511 4.91155C38.0176 5.21813 37.7065 5.6681 37.5726 6.18193C37.4388 6.69575 37.491 7.24034 37.7198 7.71944L35.6893 9.74998H34.5V6.74998C34.4993 6.15346 34.262 5.58156 33.8402 5.15975C33.4184 4.73794 32.8465 4.50067 32.25 4.49998H15.75C15.1535 4.50067 14.5816 4.73794 14.1597 5.15975C13.7379 5.58156 13.5007 6.15346 13.5 6.74998V9.74998H12.3106L10.2801 7.71944C10.509 7.2403 10.5612 6.69566 10.4274 6.18179C10.2936 5.66792 9.98237 5.2179 9.54883 4.91129C9.11528 4.60467 8.5873 4.4612 8.0582 4.50624C7.5291 4.55127 7.03296 4.78191 6.65747 5.15739C6.28199 5.53287 6.05133 6.029 6.00629 6.5581C5.96124 7.0872 6.1047 7.61518 6.4113 8.04874C6.71791 8.48229 7.16791 8.79348 7.68178 8.92732C8.19565 9.06115 8.74029 9.00901 9.21943 8.7801L11.6893 11.25H13.5V16.5H12.3106L10.2801 14.4694C10.509 13.9903 10.5612 13.4457 10.4274 12.9318C10.2936 12.4179 9.98237 11.9679 9.54883 11.6613C9.11528 11.3547 8.5873 11.2112 8.0582 11.2562C7.5291 11.3013 7.03296 11.5319 6.65747 11.9074C6.28199 12.2829 6.05133 12.779 6.00629 13.3081C5.96124 13.8372 6.1047 14.3652 6.4113 14.7987C6.71791 15.2323 7.16791 15.5435 7.68178 15.6773C8.19565 15.8112 8.74029 15.759 9.21943 15.5301L11.6893 18H13.5V19.5H11.6893L9.21943 21.9699C8.74033 21.741 8.19574 21.6889 7.68192 21.8227C7.1681 21.9565 6.71814 22.2677 6.41156 22.7012C6.10499 23.1347 5.96155 23.6627 6.0066 24.1917C6.05165 24.7208 6.28228 25.2169 6.65774 25.5923C7.03319 25.9678 7.52929 26.1984 8.05834 26.2434C8.58739 26.2885 9.11533 26.145 9.54883 25.8384C9.98234 25.5318 10.2935 25.0819 10.4273 24.568C10.5612 24.0542 10.509 23.5096 10.2801 23.0305L12.3106 21H13.5V24.75H15ZM39.75 23.25C39.8983 23.25 40.0433 23.294 40.1667 23.3764C40.29 23.4588 40.3861 23.5759 40.4429 23.713C40.4997 23.85 40.5145 24.0008 40.4856 24.1463C40.4566 24.2918 40.3852 24.4254 40.2803 24.5303C40.1754 24.6352 40.0418 24.7066 39.8963 24.7356C39.7508 24.7645 39.6 24.7497 39.463 24.6929C39.3259 24.6361 39.2088 24.54 39.1264 24.4167C39.044 24.2933 39 24.1483 39 24C39.0002 23.8011 39.0793 23.6105 39.2199 23.4699C39.3605 23.3293 39.5511 23.2502 39.75 23.25V23.25ZM39.75 12.75C39.8983 12.75 40.0433 12.794 40.1667 12.8764C40.29 12.9588 40.3861 13.0759 40.4429 13.213C40.4997 13.35 40.5145 13.5008 40.4856 13.6463C40.4566 13.7918 40.3852 13.9254 40.2803 14.0303C40.1754 14.1352 40.0418 14.2066 39.8963 14.2356C39.7508 14.2645 39.6 14.2497 39.463 14.1929C39.3259 14.1361 39.2088 14.04 39.1264 13.9167C39.044 13.7933 39 13.6483 39 13.5C39.0002 13.3011 39.0793 13.1105 39.2199 12.9699C39.3605 12.8293 39.5511 12.7502 39.75 12.75V12.75ZM39.75 5.99998C39.8983 5.99998 40.0433 6.04397 40.1667 6.12638C40.29 6.20879 40.3861 6.32593 40.4429 6.46297C40.4997 6.60002 40.5145 6.75082 40.4856 6.8963C40.4566 7.04179 40.3852 7.17542 40.2803 7.28031C40.1754 7.3852 40.0418 7.45663 39.8963 7.48557C39.7508 7.51451 39.6 7.49966 39.463 7.44289C39.3259 7.38613 39.2088 7.29 39.1264 7.16666C39.044 7.04333 39 6.89832 39 6.74998C39.0002 6.55114 39.0793 6.36051 39.2199 6.21991C39.3605 6.0793 39.5511 6.00021 39.75 5.99998V5.99998ZM8.24998 7.49998C8.10165 7.49998 7.95664 7.456 7.8333 7.37359C7.70997 7.29118 7.61384 7.17404 7.55707 7.037C7.50031 6.89995 7.48545 6.74915 7.51439 6.60367C7.54333 6.45818 7.61476 6.32454 7.71965 6.21965C7.82454 6.11476 7.95818 6.04333 8.10366 6.0144C8.24915 5.98546 8.39995 6.00031 8.537 6.05707C8.67404 6.11384 8.79117 6.20997 8.87358 6.33331C8.956 6.45664 8.99998 6.60165 8.99998 6.74998C8.99976 6.94883 8.92066 7.13946 8.78006 7.28006C8.63946 7.42067 8.44883 7.49976 8.24998 7.49998ZM8.24998 14.25C8.10165 14.25 7.95664 14.206 7.8333 14.1236C7.70997 14.0412 7.61384 13.924 7.55707 13.787C7.50031 13.65 7.48545 13.4992 7.51439 13.3537C7.54333 13.2082 7.61476 13.0745 7.71965 12.9697C7.82454 12.8648 7.95818 12.7933 8.10366 12.7644C8.24915 12.7355 8.39995 12.7503 8.537 12.8071C8.67404 12.8638 8.79117 12.96 8.87358 13.0833C8.956 13.2066 8.99998 13.3516 8.99998 13.5C8.99976 13.6988 8.92066 13.8895 8.78006 14.0301C8.63946 14.1707 8.44883 14.2498 8.24998 14.25ZM8.24998 24.75C8.10165 24.75 7.95664 24.706 7.8333 24.6236C7.70997 24.5412 7.61384 24.424 7.55707 24.287C7.50031 24.15 7.48545 23.9992 7.51439 23.8537C7.54333 23.7082 7.61476 23.5745 7.71965 23.4697C7.82454 23.3648 7.95818 23.2933 8.10366 23.2644C8.24915 23.2355 8.39995 23.2503 8.537 23.3071C8.67404 23.3638 8.79117 23.46 8.87358 23.5833C8.956 23.7066 8.99998 23.8516 8.99998 24C8.99976 24.1988 8.92066 24.3895 8.78006 24.5301C8.63946 24.6707 8.44883 24.7498 8.24998 24.75Z" fill="#E2585C"/>
<path d="M31.5 8.25H16.5V9.75H31.5V8.25Z" fill="#E2585C"/>
<path d="M31.5 12H16.5V13.5H31.5V12Z" fill="#E2585C"/>
<path d="M31.5 15.75H16.5V17.25H31.5V15.75Z" fill="#E2585C"/>
</svg>
