<svg width="341" height="32" xmlns="http://www.w3.org/2000/svg">
 <g id="Layer_1">
  <title>Layer 1</title>
  <ellipse fill="#1376cd" stroke="#0f0f00" stroke-opacity="0" cx="12.76592" cy="16.48194" id="svg_1" rx="8.65723" ry="8.65723"/>
  <ellipse fill="#1376cd" stroke="#0f0f00" stroke-opacity="0" cx="33.5926" cy="16.30151" id="svg_4" rx="3.91304" ry="3.91304"/>
  <ellipse fill="#1376cd" stroke="#0f0f00" stroke-opacity="0" cx="52.29532" cy="16.30151" id="svg_5" rx="3.91304" ry="3.91304"/>
  <ellipse fill="#1376cd" stroke="#0f0f00" stroke-opacity="0" cx="70.84604" cy="16.30151" id="svg_6" rx="3.91304" ry="3.91304"/>
  <ellipse fill="#1376cd" stroke="#0f0f00" stroke-opacity="0" cx="88.81706" cy="16.30151" id="svg_7" rx="3.91304" ry="3.91304"/>
  <ellipse fill="#1376cd" stroke="#0f0f00" stroke-opacity="0" cx="107.25114" cy="16.30151" id="svg_8" rx="3.91304" ry="3.91304"/>
  <ellipse fill="#1376cd" stroke="#0f0f00" stroke-opacity="0" cx="124.73435" cy="16.30151" id="svg_9" rx="3.91304" ry="3.91304"/>
  <ellipse fill="#1376cd" stroke="#0f0f00" stroke-opacity="0" cx="143.28507" cy="16.30151" id="svg_10" rx="3.91304" ry="3.91304"/>
  <ellipse fill="#1376cd" stroke="#0f0f00" stroke-opacity="0" cx="161.25608" cy="16.30151" id="svg_11" rx="3.91304" ry="3.91304"/>
  <ellipse fill="#1376cd" stroke="#0f0f00" stroke-opacity="0" cx="179.20236" cy="16.30151" id="svg_12" rx="3.91304" ry="3.91304"/>
  <ellipse fill="#1376cd" stroke="#0f0f00" stroke-opacity="0" cx="197.17337" cy="16.30151" id="svg_13" rx="3.91304" ry="3.91304"/>
  <ellipse fill="#1376cd" stroke="#0f0f00" stroke-opacity="0" cx="215.7241" cy="16.30151" id="svg_14" rx="3.91304" ry="3.91304"/>
  <ellipse fill="#1376cd" stroke="#0f0f00" stroke-opacity="0" cx="233.69511" cy="16.30151" id="svg_15" rx="3.91304" ry="3.91304"/>
  <ellipse fill="#1376cd" stroke="#0f0f00" stroke-opacity="0" cx="252.12919" cy="16.30151" id="svg_16" rx="3.91304" ry="3.91304"/>
  <ellipse fill="#1376cd" stroke="#0f0f00" stroke-opacity="0" cx="270.1002" cy="16.30151" id="svg_17" rx="3.91304" ry="3.91304"/>
  <ellipse fill="#1376cd" stroke="#0f0f00" stroke-opacity="0" cx="288.65093" cy="16.30151" id="svg_18" rx="3.91304" ry="3.91304"/>
  <ellipse fill="#1376cd" stroke="#0f0f00" stroke-opacity="0" cx="306.62194" cy="16.30151" id="svg_19" rx="3.91304" ry="3.91304"/>
  <ellipse fill="#1376cd" stroke="#0f0f00" stroke-opacity="0" cx="326.74202" cy="16.48194" id="svg_2" rx="8.65723" ry="8.65723"/>
 </g>

</svg>