<?xml version="1.0" encoding="utf-8"?>
<!-- Generator: Adobe Illustrator 16.0.4, SVG Export Plug-In . SVG Version: 6.00 Build 0)  -->
<!DOCTYPE svg PUBLIC "-//W3C//DTD SVG 1.1//EN" "http://www.w3.org/Graphics/SVG/1.1/DTD/svg11.dtd">
<svg version="1.1" id="icons" xmlns="http://www.w3.org/2000/svg" xmlns:xlink="http://www.w3.org/1999/xlink" x="0px" y="0px"
	 width="460px" height="460px" viewBox="410 170 460 460" enable-background="new 410 170 460 460" xml:space="preserve">
<g id="small_grid_ACT">
</g>
<g id="Large_grid_ACT">
</g>
<g id="Item_detail_ACT">
</g>
<g id="Med_grid_ACT">
</g>
<path fill="#0000DD" d="M856.157,244.548c-7.558-7.519-17.601-11.66-28.279-11.66s-20.722,4.141-28.34,11.721L575.447,470.107
	l-95.038-95.082c-7.561-7.561-17.605-11.725-28.282-11.725s-20.721,4.164-28.28,11.725c-15.57,15.569-15.583,40.954-0.002,56.612
	l123.726,123.751c7.561,7.562,17.605,11.726,28.282,11.726s20.721-4.165,28.272-11.717c1.116-1.114,1.924-2.232,2.487-3.118
	l249.6-251.142C871.719,285.55,871.719,260.188,856.157,244.548z"/>
</svg>
