<?xml version="1.0" encoding="utf-8"?>
<!-- Generator: Adobe Illustrator 16.0.4, SVG Export Plug-In . SVG Version: 6.00 Build 0)  -->
<!DOCTYPE svg PUBLIC "-//W3C//DTD SVG 1.1//EN" "http://www.w3.org/Graphics/SVG/1.1/DTD/svg11.dtd">
<svg version="1.1" id="icons" xmlns="http://www.w3.org/2000/svg" xmlns:xlink="http://www.w3.org/1999/xlink" x="0px" y="0px"
	 width="32px" height="32px" viewBox="0 0 32 32" enable-background="new 0 0 32 32" xml:space="preserve">
<g id="small_grid_ACT">
</g>
<g id="Large_grid_ACT">
</g>
<g id="Item_detail_ACT">
</g>
<g id="Med_grid_ACT">
</g>
<path fill="#DA1C24" d="M16,0C7.164,0,0,7.161,0,16c0,8.836,7.164,16,16,16c8.839,0,16-7.164,16-16C32,7.161,24.839,0,16,0z
	 M18.09,7.23l-0.579,11.902h-2.996L13.91,7.23H18.09z M16.011,25.23c-1.417,0-2.36-1.023-2.36-2.393c0-1.39,0.97-2.391,2.36-2.391
	c1.396,0,2.316,1.001,2.339,2.391C18.35,24.207,17.434,25.23,16.011,25.23z"/>
</svg>
