<?xml version="1.0" encoding="utf-8"?>
<!-- Generator: Adobe Illustrator 19.2.1, SVG Export Plug-In . SVG Version: 6.00 Build 0)  -->
<svg version="1.1" id="icons" xmlns="http://www.w3.org/2000/svg" xmlns:xlink="http://www.w3.org/1999/xlink" x="0px" y="0px"
	 viewBox="0 0 32 32" enable-background="new 0 0 32 32" xml:space="preserve">
<g id="small_grid_ACT">
</g>
<g id="Large_grid_ACT">
</g>
<g id="Item_detail_ACT">
</g>
<g id="Med_grid_ACT">
</g>
<g>
	<path fill="#777777" d="M31.596,29.7l-9.289-9.057c1.979-2.195,3.195-5.063,3.195-8.208C25.502,5.578,19.786,0,12.755,0
		C5.719,0.001,0,5.578,0,12.435c0,6.856,5.719,12.436,12.755,12.436c2.81,0,5.398-0.902,7.508-2.412l9.38,9.147
		C29.916,31.87,30.268,32,30.624,32c0.354,0,0.709-0.13,0.971-0.393C32.135,31.081,32.135,30.23,31.596,29.7z M12.755,22.18
		c-5.515,0-9.995-4.373-9.995-9.745c0-5.37,4.479-9.739,9.995-9.739c5.502,0,9.99,4.37,9.99,9.739
		C22.745,17.807,18.257,22.18,12.755,22.18z"/>
</g>
</svg>
