<?xml version="1.0" encoding="utf-8"?>
<!-- Generator: Adobe Illustrator 16.0.4, SVG Export Plug-In . SVG Version: 6.00 Build 0)  -->
<!DOCTYPE svg PUBLIC "-//W3C//DTD SVG 1.1//EN" "http://www.w3.org/Graphics/SVG/1.1/DTD/svg11.dtd">
<svg version="1.1" id="icons" xmlns="http://www.w3.org/2000/svg" xmlns:xlink="http://www.w3.org/1999/xlink" x="0px" y="0px"
	 width="32px" height="32px" viewBox="0 0 32 32" enable-background="new 0 0 32 32" xml:space="preserve">
<g id="small_grid_ACT">
</g>
<g id="Large_grid_ACT">
</g>
<g id="Item_detail_ACT">
</g>
<g id="Med_grid_ACT">
</g>
<g>
	<path fill="#48AC68" d="M16,0C7.162,0,0,7.164,0,16c0,8.839,7.162,16,16,16c8.836,0,16-7.161,16-16C32,7.164,24.836,0,16,0z
		 M23.801,11.561L13.77,21.652c-0.02,0.023-0.028,0.055-0.051,0.076c-0.391,0.392-1.023,0.392-1.414,0l-4.949-4.949
		c-0.391-0.394-0.391-1.025,0-1.417c0.391-0.391,1.023-0.391,1.414,0l4.228,4.229l9.388-9.447c0.392-0.389,1.025-0.389,1.416,0
		C24.191,10.537,24.191,11.168,23.801,11.561z"/>
</g>
</svg>
