<svg width="1001" height="197" viewBox="0 0 1001 197" fill="none" xmlns="http://www.w3.org/2000/svg">
<path d="M973.818 67.84C968.524 67.7487 963.323 69.2352 958.876 72.1101C954.43 74.985 950.94 79.1183 948.851 83.9834C946.762 88.8485 946.169 94.2254 947.146 99.429C948.123 104.633 950.628 109.428 954.339 113.203C958.051 116.979 962.803 119.564 967.989 120.63C973.176 121.696 978.562 121.194 983.462 119.188C988.362 117.182 992.554 113.763 995.504 109.367C998.454 104.97 1000.03 99.7947 1000.03 94.5C1000.08 87.4917 997.348 80.7494 992.434 75.7516C987.521 70.7539 980.826 67.9087 973.818 67.84Z" fill="black"/>
<path d="M973.818 142.66C968.524 142.569 963.323 144.055 958.878 146.929C954.432 149.804 950.942 153.936 948.852 158.801C946.763 163.666 946.169 169.042 947.145 174.245C948.122 179.449 950.625 184.244 954.336 188.02C958.047 191.796 962.798 194.382 967.983 195.449C973.169 196.516 978.555 196.015 983.455 194.011C988.355 192.006 992.548 188.589 995.499 184.194C998.451 179.798 1000.03 174.624 1000.03 169.33C1000.08 162.321 997.348 155.577 992.435 150.578C987.522 145.579 980.827 142.731 973.818 142.66Z" fill="black"/>
<path d="M77.3678 80.77L63.6279 77.08C41.8079 71.34 31.1979 60.08 31.1979 42.66C31.1979 24.75 46.1978 13.18 69.5178 13.18C88.9978 13.18 100.048 16.95 110.138 38.4L117.858 54.84C117.901 54.9287 117.967 55.0038 118.05 55.0568C118.133 55.1098 118.229 55.1386 118.328 55.14H125.968C126.044 55.1397 126.118 55.1228 126.187 55.0906C126.255 55.0584 126.316 55.0117 126.365 54.9536C126.413 54.8955 126.449 54.8274 126.468 54.7543C126.488 54.6811 126.491 54.6046 126.478 54.53L118.708 8.13L118.238 7.92999C106.548 2.92999 90.0478 0 72.9578 0C33.2378 0 5.50785 21.07 5.50785 51.25C5.50785 78.85 23.1078 98.52 55.0478 106.64L68.5478 110.08C97.7878 117.58 112.008 130.44 112.008 149.41C112.008 169.23 93.4279 183.07 66.8179 183.07C44.4679 183.07 29.4579 178.42 18.8179 154.67L8.64785 131.84C8.60581 131.748 8.53827 131.67 8.4532 131.615C8.36814 131.56 8.26913 131.53 8.16786 131.53H0.517856C0.44213 131.53 0.367382 131.547 0.298846 131.579C0.23031 131.612 0.169638 131.658 0.121066 131.716C0.0724939 131.775 0.037197 131.843 0.017642 131.916C-0.00191298 131.989 -0.0052612 132.065 0.00784585 132.14L8.92784 182.94L9.00786 183.4L9.40786 183.62C24.0579 191.48 45.3278 196 67.7678 196C101.858 196 138.648 174.34 138.648 139.35C138.678 103.96 116.198 91.07 77.3678 80.77Z" fill="black"/>
<path d="M363.268 68.49V76.13C363.269 76.2473 363.308 76.361 363.381 76.4532C363.453 76.5455 363.554 76.6112 363.668 76.64L371.608 78.43C376.528 79.55 378.918 80.63 379.608 82.02C380.058 82.91 379.878 84.12 379.048 85.97L347.288 159.77L315.768 85.99C315.088 84.3 314.988 83.1 315.448 82.22C316.228 80.75 318.768 79.61 323.928 78.43L331.868 76.64C331.982 76.6128 332.084 76.5476 332.157 76.4549C332.23 76.3623 332.269 76.2477 332.268 76.13V68.49C332.268 68.352 332.213 68.2198 332.116 68.1223C332.018 68.0248 331.886 67.97 331.748 67.97H268.568C268.431 67.9725 268.3 68.0282 268.203 68.1251C268.106 68.2221 268.05 68.3528 268.048 68.49V76.13C268.048 76.2479 268.089 76.3621 268.163 76.4532C268.238 76.5444 268.342 76.6069 268.458 76.63L276.148 78.43C284.658 80.37 285.498 82.23 287.518 86.73L334.878 195.73H345.198L392.798 86.73C394.798 82.23 395.658 80.37 404.178 78.43L411.868 76.63C411.982 76.6048 412.083 76.5415 412.156 76.4506C412.229 76.3596 412.268 76.2465 412.268 76.13V68.49C412.268 68.352 412.213 68.2198 412.116 68.1223C412.018 68.0248 411.886 67.97 411.748 67.97H363.748C363.617 67.9801 363.495 68.0393 363.406 68.1357C363.317 68.2322 363.267 68.3587 363.268 68.49Z" fill="black"/>
<path d="M685.228 182.6C676.768 180.66 675.908 179.37 675.908 174.68V113.34C675.908 80.1701 662.998 64.05 636.428 64.05C616.928 64.05 603.428 73.31 596.148 91.58V64.8901L553.238 70.7301C553.114 70.7469 553.001 70.8076 552.918 70.9013C552.835 70.9949 552.789 71.1152 552.788 71.2401V78.58C552.787 78.6992 552.828 78.8148 552.903 78.9077C552.977 79.0005 553.081 79.0649 553.198 79.0901L561.128 80.8801C569.738 82.8801 570.458 84.4201 570.458 88.7901V174.68C570.458 179.37 569.598 180.68 561.138 182.6L553.198 184.39C553.081 184.415 552.977 184.48 552.903 184.572C552.828 184.665 552.787 184.781 552.788 184.9V192.53C552.788 192.668 552.843 192.8 552.94 192.898C553.038 192.995 553.17 193.05 553.308 193.05H613.308C613.446 193.05 613.578 192.995 613.676 192.898C613.773 192.8 613.828 192.668 613.828 192.53V184.9C613.828 184.781 613.788 184.665 613.713 184.572C613.639 184.48 613.534 184.415 613.418 184.39L605.488 182.6C597.018 180.66 596.158 179.37 596.158 174.68V120.45C596.158 83.99 617.978 81.1501 624.668 81.1501C642.668 81.1501 649.978 91.9701 649.978 118.49V174.68C649.978 179.37 649.118 180.68 640.648 182.6L632.708 184.39C632.593 184.417 632.491 184.482 632.419 184.575C632.346 184.668 632.307 184.782 632.308 184.9V192.53C632.308 192.668 632.363 192.8 632.46 192.898C632.558 192.995 632.69 193.05 632.828 193.05H693.028C693.166 193.05 693.298 192.995 693.396 192.898C693.493 192.8 693.548 192.668 693.548 192.53V184.9C693.548 184.781 693.508 184.665 693.433 184.572C693.358 184.48 693.254 184.415 693.138 184.39L685.228 182.6Z" fill="black"/>
<path d="M784.378 166.05C784.261 165.974 784.119 165.947 783.982 165.975C783.845 166.003 783.725 166.084 783.648 166.2C783.188 166.96 782.198 168.54 781.188 169.86C775.638 177.13 768.308 181.1 760.188 181.1C748.308 181.1 741.498 173.58 741.498 160.45V83.11H784.898C785.036 83.11 785.168 83.0552 785.266 82.9577C785.363 82.8602 785.418 82.7279 785.418 82.59V68.49C785.418 68.3521 785.363 68.2198 785.266 68.1223C785.168 68.0248 785.036 67.97 784.898 67.97H741.498V34.14C741.498 34.0021 741.443 33.8698 741.346 33.7723C741.248 33.6748 741.116 33.62 740.978 33.62H732.158L732.018 34.39C727.408 59.72 715.368 72.27 694.108 73.87L693.228 73.93V82.59C693.228 82.7279 693.283 82.8602 693.38 82.9577C693.478 83.0552 693.61 83.11 693.748 83.11H715.808V162.66C715.808 183.53 728.728 196 750.368 196C758.107 196.104 765.746 194.239 772.568 190.582C779.39 186.924 785.171 181.593 789.368 175.09C789.928 174.25 791.098 172.24 791.608 171.36C791.675 171.245 791.695 171.109 791.663 170.98C791.631 170.852 791.55 170.74 791.438 170.67L784.378 166.05Z" fill="black"/>
<path d="M928.858 173.22C928.812 173.173 928.758 173.136 928.698 173.111C928.638 173.086 928.573 173.073 928.508 173.073C928.443 173.073 928.378 173.086 928.318 173.111C928.258 173.136 928.203 173.173 928.158 173.22C927.388 173.98 925.558 175.81 924.768 176.47C921.648 179.05 918.768 180.36 916.038 180.36C914.994 180.41 913.951 180.24 912.976 179.863C912.002 179.486 911.117 178.909 910.378 178.17C907.538 175.28 906.248 169.32 906.438 159.97L907.438 109.17C907.768 93 904.568 81.69 897.628 74.62C890.468 67.3 879.198 64.04 861.098 64.04C829.288 64.04 809.598 79.56 809.598 93.94C809.598 101.24 814.388 108.63 823.598 108.63C832.378 108.63 838.278 102.53 838.278 93.45C838.172 90.5613 837.615 87.7069 836.628 84.99C836.086 83.5269 835.749 81.9956 835.628 80.44C835.628 78.02 842.718 74.52 855.538 74.52C864.118 74.52 870.338 76.62 874.538 80.95C879.668 86.19 882.038 94.85 881.778 107.41L881.558 117.41C829.558 122.2 803.258 137.02 803.258 161.46C803.258 181.46 820.258 196.03 843.708 196.03C862.428 196.03 875.398 187.72 881.538 171.91V172.5C881.538 188.75 893.228 196.03 904.818 196.03C915.348 196.03 924.178 191.3 930.678 182.34C931.678 181.02 933.008 178.71 933.528 177.82C933.587 177.716 933.609 177.594 933.589 177.475C933.569 177.357 933.508 177.249 933.418 177.17L928.858 173.22ZM881.698 125.47L881.238 148.91C880.778 171.49 867.078 181.6 853.708 181.6C841.068 181.6 832.568 172.41 832.568 158.74C832.568 140.43 847.738 130.14 881.698 125.46V125.47Z" fill="black"/>
<path d="M540.718 173.22C540.671 173.173 540.616 173.136 540.555 173.111C540.494 173.085 540.429 173.072 540.363 173.072C540.297 173.072 540.231 173.085 540.171 173.111C540.11 173.136 540.054 173.173 540.008 173.22C539.248 173.98 537.418 175.81 536.618 176.47C533.508 179.05 530.618 180.36 527.898 180.36C526.856 180.416 525.814 180.254 524.838 179.886C523.862 179.517 522.973 178.95 522.228 178.22C519.398 175.33 518.108 169.37 518.288 160.02L519.288 109.22C519.628 93.05 516.418 81.74 509.488 74.67C502.318 67.35 491.048 64.09 472.948 64.09C441.138 64.09 421.448 79.61 421.448 93.99C421.448 101.29 426.248 108.68 435.448 108.68C444.228 108.68 450.138 102.58 450.138 93.5C450.034 90.6101 449.473 87.7549 448.478 85.04C447.936 83.5769 447.599 82.0456 447.478 80.49C447.478 78.07 454.568 74.57 467.388 74.57C475.968 74.57 482.198 76.67 486.388 81C491.528 86.24 493.898 94.9 493.638 107.46L493.408 117.46C441.408 122.25 415.108 137.07 415.108 161.51C415.108 181.51 432.108 196.08 455.568 196.08C474.288 196.08 487.248 187.77 493.388 171.96V172.55C493.388 188.8 505.088 196.08 516.668 196.08C527.198 196.08 536.028 191.35 542.528 182.39C543.528 181.07 544.858 178.76 545.378 177.87C545.439 177.766 545.462 177.644 545.442 177.525C545.422 177.406 545.36 177.298 545.268 177.22L540.718 173.22ZM493.558 125.47L493.088 148.91C492.628 171.49 478.928 181.6 465.568 181.6C452.918 181.6 444.428 172.41 444.428 158.74C444.428 140.43 459.588 130.14 493.558 125.46V125.47Z" fill="black"/>
<path d="M277.028 173.22C276.981 173.173 276.926 173.136 276.865 173.111C276.804 173.085 276.739 173.072 276.673 173.072C276.607 173.072 276.541 173.085 276.481 173.111C276.42 173.136 276.364 173.173 276.318 173.22C275.558 173.98 273.728 175.81 272.928 176.47C269.818 179.05 266.928 180.36 264.208 180.36C263.162 180.409 262.118 180.24 261.142 179.863C260.166 179.485 259.279 178.909 258.538 178.17C255.708 175.28 254.418 169.32 254.598 159.97L255.598 109.17C255.938 93 252.728 81.69 245.798 74.62C238.628 67.3 227.358 64.04 209.258 64.04C177.448 64.04 157.758 79.56 157.758 93.94C157.758 101.24 162.558 108.63 171.758 108.63C180.538 108.63 186.438 102.53 186.438 93.45C186.334 90.5602 185.773 87.705 184.778 84.99C184.236 83.5269 183.899 81.9956 183.778 80.44C183.778 78.02 190.868 74.52 203.698 74.52C212.268 74.52 218.498 76.62 222.698 80.95C227.838 86.19 230.208 94.85 229.948 107.41L229.728 117.41C177.728 122.2 151.418 137.02 151.418 161.46C151.418 181.46 168.418 196.03 191.878 196.03C210.598 196.03 223.558 187.72 229.708 171.91V172.5C229.708 188.75 241.398 196.03 252.978 196.03C263.518 196.03 272.348 191.3 278.838 182.34C279.838 181.02 281.168 178.71 281.688 177.82C281.749 177.716 281.772 177.594 281.752 177.475C281.732 177.356 281.67 177.248 281.578 177.17L277.028 173.22ZM229.868 125.47L229.398 148.91C228.938 171.49 215.248 181.6 201.878 181.6C189.228 181.6 180.738 172.41 180.738 158.74C180.708 140.43 195.868 130.14 229.838 125.46L229.868 125.47Z" fill="black"/>
</svg>
