<svg xmlns="http://www.w3.org/2000/svg" viewBox="0 0 16 16"><title>symbol-heart</title><path d="M11.67,1.38c.2,0,.41,0,.63,0,1.17.11,2.51,1.22,2.7,3.39v.83c-.22,2.62-2.58,5.56-7,8.76-4.42-3.2-6.78-6.15-7-8.76V4.8c.19-2.16,1.53-3.27,2.7-3.39.22,0,.43,0,.63,0,1.34,0,2,.48,2.91,1.61A1,1,0,0,0,8,3.35H8A1,1,0,0,0,8.77,3c1-1.14,1.57-1.61,2.91-1.61m0-1A4.31,4.31,0,0,0,8,2.35a4.31,4.31,0,0,0-3.67-2Q4,.38,3.6.42C2,.57.22,2,0,4.75v.91c.21,2.63,2.19,5.88,8,10,5.81-4.07,7.79-7.32,8-10V4.75C15.78,2,14,.57,12.4.42q-.39,0-.72,0Z"/></svg>