<svg width="200" height="77" viewBox="0 0 200 77" fill="none" xmlns="http://www.w3.org/2000/svg">
<path d="M46.25 20.6719C46.8958 21.1094 47.4323 21.6823 47.8594 22.3906C48.2865 23.099 48.5 23.9583 48.5 24.9688C48.5 26 48.276 26.8958 47.8281 27.6562C47.3802 28.4167 46.7969 29.0417 46.0781 29.5312C45.3802 30.0104 44.5885 30.375 43.7031 30.625C42.8281 30.875 41.9219 31 40.9844 31H30.4844V29.8906C30.7344 29.8698 31.099 29.8281 31.5781 29.7656C32.0573 29.6927 32.401 29.6094 32.6094 29.5156C32.9323 29.3698 33.1615 29.1771 33.2969 28.9375C33.4323 28.6875 33.5 28.3698 33.5 27.9844V12.0469C33.5 11.6927 33.4375 11.3802 33.3125 11.1094C33.1979 10.8385 32.9635 10.6198 32.6094 10.4531C32.2969 10.2969 31.9479 10.1771 31.5625 10.0938C31.1771 10.0104 30.8542 9.95833 30.5938 9.9375V8.82812H40.8281C41.6198 8.82812 42.375 8.90625 43.0938 9.0625C43.8229 9.21875 44.5156 9.49479 45.1719 9.89062C45.7865 10.2552 46.2917 10.75 46.6875 11.375C47.0833 12 47.2812 12.7604 47.2812 13.6562C47.2812 14.4375 47.1406 15.1354 46.8594 15.75C46.5781 16.3542 46.1823 16.875 45.6719 17.3125C45.1927 17.7292 44.6406 18.0833 44.0156 18.375C43.401 18.6562 42.7344 18.875 42.0156 19.0312V19.1719C42.651 19.2448 43.3594 19.4062 44.1406 19.6562C44.9323 19.8958 45.6354 20.2344 46.25 20.6719ZM42.4844 17.3281C42.8698 16.8802 43.1354 16.3906 43.2812 15.8594C43.4375 15.3281 43.5156 14.6979 43.5156 13.9688C43.5156 12.75 43.1823 11.7969 42.5156 11.1094C41.849 10.4115 40.7969 10.0625 39.3594 10.0625C39.026 10.0625 38.6042 10.0729 38.0938 10.0938C37.5938 10.1042 37.1719 10.1146 36.8281 10.125V18.6406H38.8125C39.6667 18.6406 40.3958 18.5312 41 18.3125C41.6146 18.0938 42.1094 17.7656 42.4844 17.3281ZM44.6406 24.4062C44.6406 23.0938 44.1979 22.0156 43.3125 21.1719C42.4375 20.3281 41.1823 19.9062 39.5469 19.9062C38.8802 19.9062 38.3177 19.9167 37.8594 19.9375C37.401 19.9479 37.0573 19.9583 36.8281 19.9688V27.7812C36.8281 28.4375 37.0938 28.9323 37.625 29.2656C38.1562 29.599 38.8958 29.7656 39.8438 29.7656C41.3958 29.7656 42.5833 29.3125 43.4062 28.4062C44.2292 27.5 44.6406 26.1667 44.6406 24.4062ZM62.8594 17.5781C62.8594 18.1094 62.7292 18.5833 62.4688 19C62.2083 19.4062 61.8073 19.6094 61.2656 19.6094C60.6823 19.6094 60.2344 19.4583 59.9219 19.1562C59.6198 18.8542 59.4688 18.5208 59.4688 18.1562C59.4688 17.9271 59.4844 17.7188 59.5156 17.5312C59.5573 17.3438 59.5938 17.1562 59.625 16.9688C59.1354 16.9688 58.5625 17.1667 57.9062 17.5625C57.25 17.9583 56.6927 18.5208 56.2344 19.25V28.2188C56.2344 28.5833 56.3021 28.8802 56.4375 29.1094C56.5833 29.3385 56.8073 29.5104 57.1094 29.625C57.3698 29.7292 57.7031 29.8073 58.1094 29.8594C58.526 29.9115 58.8854 29.9479 59.1875 29.9688V31H51.0625V29.9688C51.3021 29.9479 51.5469 29.9271 51.7969 29.9062C52.0573 29.8854 52.2812 29.8438 52.4688 29.7812C52.7604 29.6875 52.974 29.526 53.1094 29.2969C53.2552 29.0573 53.3281 28.75 53.3281 28.375V18.8594C53.3281 18.5365 53.25 18.2188 53.0938 17.9062C52.9479 17.5938 52.7396 17.3438 52.4688 17.1562C52.2708 17.0312 52.0365 16.9427 51.7656 16.8906C51.4948 16.8281 51.2031 16.7865 50.8906 16.7656V15.75L56.0156 15.4062L56.2344 15.625V17.7969H56.3125C56.9583 16.9531 57.6771 16.3125 58.4688 15.875C59.2604 15.4375 59.9844 15.2188 60.6406 15.2188C61.2969 15.2188 61.8281 15.4323 62.2344 15.8594C62.651 16.2865 62.8594 16.8594 62.8594 17.5781ZM78.7812 30.7188C78.2917 30.8958 77.8594 31.0365 77.4844 31.1406C77.1198 31.2552 76.7031 31.3125 76.2344 31.3125C75.4219 31.3125 74.7708 31.125 74.2812 30.75C73.8021 30.3646 73.4948 29.8073 73.3594 29.0781H73.2656C72.5885 29.8281 71.8594 30.401 71.0781 30.7969C70.3073 31.1927 69.375 31.3906 68.2812 31.3906C67.125 31.3906 66.1719 31.0365 65.4219 30.3281C64.6823 29.6198 64.3125 28.6927 64.3125 27.5469C64.3125 26.9531 64.3958 26.4219 64.5625 25.9531C64.7292 25.4844 64.9792 25.0625 65.3125 24.6875C65.5729 24.375 65.9167 24.099 66.3438 23.8594C66.7708 23.6094 67.1719 23.4115 67.5469 23.2656C68.0156 23.0885 68.9635 22.7604 70.3906 22.2812C71.8281 21.8021 72.7969 21.4271 73.2969 21.1562V19.6094C73.2969 19.474 73.2656 19.2135 73.2031 18.8281C73.151 18.4427 73.0312 18.0781 72.8438 17.7344C72.6354 17.349 72.3385 17.0156 71.9531 16.7344C71.5781 16.4427 71.0417 16.2969 70.3438 16.2969C69.8646 16.2969 69.4167 16.3802 69 16.5469C68.5938 16.7031 68.3073 16.8698 68.1406 17.0469C68.1406 17.2552 68.1875 17.5625 68.2812 17.9688C68.3854 18.375 68.4375 18.75 68.4375 19.0938C68.4375 19.4583 68.2708 19.7917 67.9375 20.0938C67.6146 20.3958 67.1615 20.5469 66.5781 20.5469C66.0573 20.5469 65.6719 20.3646 65.4219 20C65.1823 19.625 65.0625 19.2083 65.0625 18.75C65.0625 18.2708 65.2292 17.8125 65.5625 17.375C65.9062 16.9375 66.349 16.5469 66.8906 16.2031C67.3594 15.9115 67.9271 15.6667 68.5938 15.4688C69.2604 15.2604 69.9115 15.1562 70.5469 15.1562C71.4219 15.1562 72.1823 15.2188 72.8281 15.3438C73.4844 15.4583 74.0781 15.7135 74.6094 16.1094C75.1406 16.4948 75.5417 17.0208 75.8125 17.6875C76.0938 18.3438 76.2344 19.1927 76.2344 20.2344C76.2344 21.724 76.2188 23.0469 76.1875 24.2031C76.1562 25.349 76.1406 26.6042 76.1406 27.9688C76.1406 28.375 76.2083 28.6979 76.3438 28.9375C76.4896 29.1771 76.7083 29.3802 77 29.5469C77.1562 29.6406 77.401 29.6927 77.7344 29.7031C78.0781 29.7135 78.4271 29.7188 78.7812 29.7188V30.7188ZM73.3281 22.4688C72.4427 22.7292 71.6667 22.9844 71 23.2344C70.3333 23.4844 69.7135 23.7969 69.1406 24.1719C68.6198 24.526 68.2083 24.9479 67.9062 25.4375C67.6042 25.9167 67.4531 26.4896 67.4531 27.1562C67.4531 28.0208 67.6771 28.6562 68.125 29.0625C68.5833 29.4688 69.1615 29.6719 69.8594 29.6719C70.599 29.6719 71.25 29.4948 71.8125 29.1406C72.375 28.776 72.849 28.349 73.2344 27.8594L73.3281 22.4688ZM97.3281 31H89.7812V29.9688C90.0208 29.9479 90.2812 29.9271 90.5625 29.9062C90.8542 29.8854 91.0938 29.8438 91.2812 29.7812C91.5729 29.6875 91.7865 29.526 91.9219 29.2969C92.0677 29.0573 92.1406 28.75 92.1406 28.375V20.4531C92.1406 19.3594 91.8802 18.5156 91.3594 17.9219C90.849 17.3281 90.224 17.0312 89.4844 17.0312C88.9323 17.0312 88.4271 17.1198 87.9688 17.2969C87.5104 17.4635 87.1042 17.6719 86.75 17.9219C86.4062 18.1615 86.1302 18.4219 85.9219 18.7031C85.724 18.974 85.5781 19.1927 85.4844 19.3594V28.2188C85.4844 28.5729 85.5573 28.8646 85.7031 29.0938C85.849 29.3229 86.0677 29.5 86.3594 29.625C86.5781 29.7292 86.8125 29.8073 87.0625 29.8594C87.3229 29.9115 87.5885 29.9479 87.8594 29.9688V31H80.3125V29.9688C80.5521 29.9479 80.7969 29.9271 81.0469 29.9062C81.3073 29.8854 81.5312 29.8438 81.7188 29.7812C82.0104 29.6875 82.224 29.526 82.3594 29.2969C82.5052 29.0573 82.5781 28.75 82.5781 28.375V18.8594C82.5781 18.5052 82.5 18.1823 82.3438 17.8906C82.1979 17.5885 81.9896 17.3438 81.7188 17.1562C81.5208 17.0312 81.2865 16.9427 81.0156 16.8906C80.7448 16.8281 80.4531 16.7865 80.1406 16.7656V15.75L85.2656 15.4062L85.4844 15.625V17.7969H85.5625C85.8125 17.5469 86.125 17.25 86.5 16.9062C86.875 16.5521 87.2292 16.2656 87.5625 16.0469C87.9479 15.7969 88.4062 15.5885 88.9375 15.4219C89.4688 15.2552 90.0677 15.1719 90.7344 15.1719C92.2135 15.1719 93.3073 15.6354 94.0156 16.5625C94.7344 17.4792 95.0938 18.7031 95.0938 20.2344V28.25C95.0938 28.6146 95.1562 28.9115 95.2812 29.1406C95.4062 29.3594 95.6198 29.5312 95.9219 29.6562C96.1719 29.7604 96.3854 29.8333 96.5625 29.875C96.75 29.9167 97.0052 29.9479 97.3281 29.9688V31ZM116.094 30.7188L110.719 31.0625L110.484 30.8438V29.4062L110.359 29.375C109.818 29.9792 109.146 30.474 108.344 30.8594C107.552 31.2448 106.734 31.4375 105.891 31.4375C105.016 31.4375 104.167 31.2448 103.344 30.8594C102.531 30.4635 101.823 29.9115 101.219 29.2031C100.604 28.4844 100.115 27.6198 99.75 26.6094C99.3958 25.599 99.2188 24.4844 99.2188 23.2656C99.2188 22.151 99.4115 21.0938 99.7969 20.0938C100.182 19.0938 100.714 18.2188 101.391 17.4688C102.026 16.7708 102.802 16.2135 103.719 15.7969C104.646 15.3802 105.589 15.1719 106.547 15.1719C107.266 15.1719 107.969 15.2656 108.656 15.4531C109.354 15.6302 109.953 15.8594 110.453 16.1406V10.7812C110.453 10.3438 110.38 9.94792 110.234 9.59375C110.089 9.22917 109.885 8.95312 109.625 8.76562C109.333 8.56771 108.938 8.42708 108.438 8.34375C107.948 8.25 107.417 8.18229 106.844 8.14062V7.17188L113.141 6.8125L113.375 7.04688V27.8281C113.375 28.1927 113.443 28.5052 113.578 28.7656C113.724 29.0156 113.932 29.2292 114.203 29.4062C114.401 29.5312 114.688 29.6094 115.062 29.6406C115.438 29.6719 115.781 29.6927 116.094 29.7031V30.7188ZM110.453 28.0156V19C110.37 18.7292 110.234 18.4375 110.047 18.125C109.859 17.8125 109.625 17.526 109.344 17.2656C109.042 17.0052 108.688 16.7917 108.281 16.625C107.875 16.4479 107.401 16.3594 106.859 16.3594C106.234 16.3594 105.656 16.5208 105.125 16.8438C104.604 17.1667 104.141 17.6302 103.734 18.2344C103.349 18.8177 103.042 19.5625 102.812 20.4688C102.594 21.3646 102.484 22.3594 102.484 23.4531C102.484 24.3281 102.568 25.125 102.734 25.8438C102.901 26.5521 103.182 27.2135 103.578 27.8281C103.943 28.4115 104.406 28.8802 104.969 29.2344C105.542 29.5885 106.219 29.7656 107 29.7656C107.833 29.7656 108.521 29.5833 109.062 29.2188C109.615 28.8542 110.078 28.4531 110.453 28.0156ZM138.453 9.9375C138.182 9.94792 137.854 10.0104 137.469 10.125C137.083 10.2292 136.766 10.3594 136.516 10.5156C136.161 10.7344 135.875 11.0156 135.656 11.3594C135.448 11.7031 135.24 12.1094 135.031 12.5781C134.333 14.2344 133.286 16.8177 131.891 20.3281C130.495 23.8281 129.057 27.4792 127.578 31.2812H126.281C124.781 27.25 123.333 23.3646 121.938 19.625C120.542 15.8854 119.594 13.3594 119.094 12.0469C118.969 11.724 118.802 11.4427 118.594 11.2031C118.385 10.9531 118.109 10.7188 117.766 10.5C117.484 10.3229 117.172 10.1927 116.828 10.1094C116.484 10.0156 116.167 9.95833 115.875 9.9375V8.82812H125.047V9.9375C124.266 9.97917 123.604 10.0573 123.062 10.1719C122.531 10.2865 122.266 10.4896 122.266 10.7812C122.266 10.8958 122.286 11.0312 122.328 11.1875C122.37 11.3438 122.406 11.4688 122.438 11.5625C122.823 12.5833 123.448 14.25 124.312 16.5625C125.177 18.8646 126.406 22.1458 128 26.4062C128.792 24.4792 129.703 22.2031 130.734 19.5781C131.766 16.9531 132.458 15.151 132.812 14.1719C133.156 13.224 133.354 12.5677 133.406 12.2031C133.469 11.8385 133.5 11.5417 133.5 11.3125C133.5 11.0729 133.391 10.875 133.172 10.7188C132.964 10.5521 132.682 10.4115 132.328 10.2969C131.984 10.1927 131.635 10.1146 131.281 10.0625C130.927 10.0104 130.568 9.96875 130.203 9.9375V8.82812H138.453V9.9375ZM155.453 30.7188L150.438 31.0625L150.203 30.8438V28.8906H150.109C149.859 29.151 149.578 29.4323 149.266 29.7344C148.953 30.026 148.594 30.2917 148.188 30.5312C147.719 30.8125 147.266 31.026 146.828 31.1719C146.391 31.3177 145.771 31.3906 144.969 31.3906C143.604 31.3906 142.562 30.9479 141.844 30.0625C141.135 29.1667 140.781 27.8698 140.781 26.1719V18.7969C140.781 18.4219 140.708 18.1094 140.562 17.8594C140.427 17.599 140.224 17.375 139.953 17.1875C139.766 17.0625 139.531 16.974 139.25 16.9219C138.969 16.8594 138.672 16.8177 138.359 16.7969V15.7812L143.5 15.4062L143.734 15.625V26.3281C143.734 27.4427 143.984 28.2812 144.484 28.8438C144.984 29.4062 145.583 29.6875 146.281 29.6875C146.854 29.6875 147.365 29.599 147.812 29.4219C148.26 29.2448 148.635 29.0365 148.938 28.7969C149.219 28.5781 149.464 28.349 149.672 28.1094C149.891 27.8594 150.057 27.6302 150.172 27.4219V18.6875C150.172 18.3438 150.099 18.0417 149.953 17.7812C149.807 17.5104 149.604 17.2812 149.344 17.0938C149.156 16.9688 148.875 16.8958 148.5 16.875C148.135 16.8438 147.724 16.8177 147.266 16.7969V15.7812L152.859 15.4062L153.094 15.625V27.8594C153.094 28.2135 153.167 28.5156 153.312 28.7656C153.458 29.0156 153.661 29.2292 153.922 29.4062C154.109 29.5208 154.333 29.599 154.594 29.6406C154.854 29.6719 155.141 29.6927 155.453 29.7031V30.7188ZM171.031 27.375C170.385 28.6042 169.521 29.5833 168.438 30.3125C167.354 31.0417 166.109 31.4062 164.703 31.4062C163.464 31.4062 162.375 31.1875 161.438 30.75C160.51 30.3125 159.745 29.7188 159.141 28.9688C158.536 28.2188 158.083 27.3438 157.781 26.3438C157.49 25.3438 157.344 24.2865 157.344 23.1719C157.344 22.1719 157.5 21.1927 157.812 20.2344C158.135 19.2656 158.604 18.3958 159.219 17.625C159.812 16.8854 160.547 16.2917 161.422 15.8438C162.307 15.3854 163.297 15.1562 164.391 15.1562C165.516 15.1562 166.479 15.3333 167.281 15.6875C168.083 16.0417 168.734 16.526 169.234 17.1406C169.714 17.724 170.068 18.4115 170.297 19.2031C170.536 19.9948 170.656 20.8542 170.656 21.7812V22.8125H160.453C160.453 23.8229 160.547 24.7396 160.734 25.5625C160.932 26.3854 161.24 27.1094 161.656 27.7344C162.062 28.3385 162.594 28.8177 163.25 29.1719C163.906 29.5156 164.688 29.6875 165.594 29.6875C166.521 29.6875 167.318 29.474 167.984 29.0469C168.661 28.6094 169.312 27.8281 169.938 26.7031L171.031 27.375ZM167.578 21.5C167.578 20.9167 167.526 20.2917 167.422 19.625C167.328 18.9583 167.172 18.401 166.953 17.9531C166.714 17.474 166.385 17.0833 165.969 16.7812C165.552 16.4792 165.016 16.3281 164.359 16.3281C163.266 16.3281 162.354 16.7865 161.625 17.7031C160.906 18.6094 160.516 19.875 160.453 21.5H167.578Z" fill="white"/>
<path d="M40.2969 68.5156C38.974 68.5156 37.7031 68.2552 36.4844 67.7344C35.276 67.2135 34.2031 66.4635 33.2656 65.4844C32.3385 64.5052 31.599 63.3125 31.0469 61.9062C30.4948 60.4896 30.2188 58.8958 30.2188 57.125C30.2188 55.3542 30.4896 53.75 31.0312 52.3125C31.5729 50.8646 32.3229 49.6198 33.2812 48.5781C34.2292 47.5469 35.349 46.75 36.6406 46.1875C37.9323 45.625 39.3125 45.3438 40.7812 45.3438C41.875 45.3438 42.8646 45.4792 43.75 45.75C44.6354 46.0208 45.4792 46.401 46.2812 46.8906L46.9219 45.8281H48.1719L48.3125 53.7344H47.0312C46.8646 52.9635 46.6146 52.1302 46.2812 51.2344C45.9479 50.3281 45.5573 49.5625 45.1094 48.9375C44.6094 48.2292 44.0156 47.6771 43.3281 47.2812C42.6406 46.875 41.8542 46.6719 40.9688 46.6719C39.9583 46.6719 39.0156 46.8958 38.1406 47.3438C37.276 47.7917 36.526 48.4531 35.8906 49.3281C35.2865 50.1719 34.8125 51.2448 34.4688 52.5469C34.125 53.849 33.9531 55.3021 33.9531 56.9062C33.9531 58.3229 34.1302 59.625 34.4844 60.8125C34.849 61.9896 35.3646 63.026 36.0312 63.9219C36.6979 64.8073 37.4844 65.5 38.3906 66C39.3073 66.5 40.3281 66.75 41.4531 66.75C42.2969 66.75 43.0729 66.6198 43.7812 66.3594C44.4896 66.0885 45.1042 65.7344 45.625 65.2969C46.1458 64.8385 46.6042 64.3177 47 63.7344C47.3958 63.151 47.7188 62.5156 47.9688 61.8281L49.1406 62.3906C48.2448 64.5885 47.0573 66.1615 45.5781 67.1094C44.099 68.0469 42.3385 68.5156 40.2969 68.5156ZM67.4219 68H59.8594V66.9688C60.099 66.9479 60.3646 66.9271 60.6562 66.9062C60.9479 66.8854 61.1875 66.8438 61.375 66.7812C61.6667 66.6875 61.8802 66.526 62.0156 66.2969C62.1615 66.0573 62.2344 65.75 62.2344 65.375V57.4531C62.2344 56.3594 61.974 55.5156 61.4531 54.9219C60.9427 54.3281 60.3177 54.0312 59.5781 54.0312C59.0365 54.0312 58.5312 54.1198 58.0625 54.2969C57.6042 54.4635 57.1927 54.6719 56.8281 54.9219C56.474 55.1823 56.2031 55.4427 56.0156 55.7031C55.8281 55.9635 55.6823 56.1823 55.5781 56.3594V65.2188C55.5781 65.5729 55.6458 65.8646 55.7812 66.0938C55.9271 66.3229 56.1458 66.5 56.4375 66.625C56.6667 66.7292 56.901 66.8073 57.1406 66.8594C57.3906 66.9115 57.6615 66.9479 57.9531 66.9688V68H50.3906V66.9688C50.6302 66.9479 50.8802 66.9271 51.1406 66.9062C51.401 66.875 51.6198 66.8333 51.7969 66.7812C52.0885 66.6875 52.3073 66.526 52.4531 66.2969C52.599 66.0573 52.6719 65.75 52.6719 65.375V47.4375C52.6719 47.0833 52.5885 46.7292 52.4219 46.375C52.2656 46.0208 52.0573 45.7552 51.7969 45.5781C51.6094 45.4427 51.276 45.349 50.7969 45.2969C50.3281 45.2344 49.9479 45.1927 49.6562 45.1719V44.1719L55.3594 43.8125L55.5781 44.0469V54.7969H55.6406C55.9844 54.4531 56.2969 54.151 56.5781 53.8906C56.8594 53.6198 57.2292 53.3385 57.6875 53.0469C58.0833 52.7969 58.5469 52.5885 59.0781 52.4219C59.6198 52.2552 60.224 52.1719 60.8906 52.1719C62.2656 52.1719 63.3229 52.6094 64.0625 53.4844C64.8021 54.349 65.1719 55.599 65.1719 57.2344V65.25C65.1719 65.6146 65.2344 65.9115 65.3594 66.1406C65.4948 66.3594 65.7135 66.5312 66.0156 66.6562C66.2552 66.75 66.4688 66.8229 66.6562 66.875C66.8542 66.9167 67.1094 66.9479 67.4219 66.9688V68ZM83.9062 67.7188C83.4167 67.8958 82.9844 68.0365 82.6094 68.1406C82.2448 68.2552 81.8281 68.3125 81.3594 68.3125C80.5469 68.3125 79.8958 68.125 79.4062 67.75C78.9271 67.3646 78.6198 66.8073 78.4844 66.0781H78.3906C77.7135 66.8281 76.9844 67.401 76.2031 67.7969C75.4323 68.1927 74.5 68.3906 73.4062 68.3906C72.25 68.3906 71.2969 68.0365 70.5469 67.3281C69.8073 66.6198 69.4375 65.6927 69.4375 64.5469C69.4375 63.9531 69.5208 63.4219 69.6875 62.9531C69.8542 62.4844 70.1042 62.0625 70.4375 61.6875C70.6979 61.375 71.0417 61.099 71.4688 60.8594C71.8958 60.6094 72.2969 60.4115 72.6719 60.2656C73.1406 60.0885 74.0885 59.7604 75.5156 59.2812C76.9531 58.8021 77.9219 58.4271 78.4219 58.1562V56.6094C78.4219 56.474 78.3906 56.2135 78.3281 55.8281C78.276 55.4427 78.1562 55.0781 77.9688 54.7344C77.7604 54.349 77.4635 54.0156 77.0781 53.7344C76.7031 53.4427 76.1667 53.2969 75.4688 53.2969C74.9896 53.2969 74.5417 53.3802 74.125 53.5469C73.7188 53.7031 73.4323 53.8698 73.2656 54.0469C73.2656 54.2552 73.3125 54.5625 73.4062 54.9688C73.5104 55.375 73.5625 55.75 73.5625 56.0938C73.5625 56.4583 73.3958 56.7917 73.0625 57.0938C72.7396 57.3958 72.2865 57.5469 71.7031 57.5469C71.1823 57.5469 70.7969 57.3646 70.5469 57C70.3073 56.625 70.1875 56.2083 70.1875 55.75C70.1875 55.2708 70.3542 54.8125 70.6875 54.375C71.0312 53.9375 71.474 53.5469 72.0156 53.2031C72.4844 52.9115 73.0521 52.6667 73.7188 52.4688C74.3854 52.2604 75.0365 52.1562 75.6719 52.1562C76.5469 52.1562 77.3073 52.2188 77.9531 52.3438C78.6094 52.4583 79.2031 52.7135 79.7344 53.1094C80.2656 53.4948 80.6667 54.0208 80.9375 54.6875C81.2188 55.3438 81.3594 56.1927 81.3594 57.2344C81.3594 58.724 81.3438 60.0469 81.3125 61.2031C81.2812 62.349 81.2656 63.6042 81.2656 64.9688C81.2656 65.375 81.3333 65.6979 81.4688 65.9375C81.6146 66.1771 81.8333 66.3802 82.125 66.5469C82.2812 66.6406 82.526 66.6927 82.8594 66.7031C83.2031 66.7135 83.5521 66.7188 83.9062 66.7188V67.7188ZM78.4531 59.4688C77.5677 59.7292 76.7917 59.9844 76.125 60.2344C75.4583 60.4844 74.8385 60.7969 74.2656 61.1719C73.7448 61.526 73.3333 61.9479 73.0312 62.4375C72.7292 62.9167 72.5781 63.4896 72.5781 64.1562C72.5781 65.0208 72.8021 65.6562 73.25 66.0625C73.7083 66.4688 74.2865 66.6719 74.9844 66.6719C75.724 66.6719 76.375 66.4948 76.9375 66.1406C77.5 65.776 77.974 65.349 78.3594 64.8594L78.4531 59.4688ZM97.2344 54.5781C97.2344 55.1094 97.1042 55.5833 96.8438 56C96.5833 56.4062 96.1823 56.6094 95.6406 56.6094C95.0573 56.6094 94.6094 56.4583 94.2969 56.1562C93.9948 55.8542 93.8438 55.5208 93.8438 55.1562C93.8438 54.9271 93.8594 54.7188 93.8906 54.5312C93.9323 54.3438 93.9688 54.1562 94 53.9688C93.5104 53.9688 92.9375 54.1667 92.2812 54.5625C91.625 54.9583 91.0677 55.5208 90.6094 56.25V65.2188C90.6094 65.5833 90.6771 65.8802 90.8125 66.1094C90.9583 66.3385 91.1823 66.5104 91.4844 66.625C91.7448 66.7292 92.0781 66.8073 92.4844 66.8594C92.901 66.9115 93.2604 66.9479 93.5625 66.9688V68H85.4375V66.9688C85.6771 66.9479 85.9219 66.9271 86.1719 66.9062C86.4323 66.8854 86.6562 66.8438 86.8438 66.7812C87.1354 66.6875 87.349 66.526 87.4844 66.2969C87.6302 66.0573 87.7031 65.75 87.7031 65.375V55.8594C87.7031 55.5365 87.625 55.2188 87.4688 54.9062C87.3229 54.5938 87.1146 54.3438 86.8438 54.1562C86.6458 54.0312 86.4115 53.9427 86.1406 53.8906C85.8698 53.8281 85.5781 53.7865 85.2656 53.7656V52.75L90.3906 52.4062L90.6094 52.625V54.7969H90.6875C91.3333 53.9531 92.0521 53.3125 92.8438 52.875C93.6354 52.4375 94.3594 52.2188 95.0156 52.2188C95.6719 52.2188 96.2031 52.4323 96.6094 52.8594C97.026 53.2865 97.2344 53.8594 97.2344 54.5781ZM106.047 68H98.5938V66.9688C98.8333 66.9479 99.0781 66.9271 99.3281 66.9062C99.5885 66.8854 99.8125 66.8438 100 66.7812C100.292 66.6875 100.505 66.526 100.641 66.2969C100.786 66.0573 100.859 65.75 100.859 65.375V55.8594C100.859 55.526 100.781 55.224 100.625 54.9531C100.479 54.6719 100.271 54.4375 100 54.25C99.8021 54.125 99.5156 54.0208 99.1406 53.9375C98.7656 53.8438 98.4219 53.7865 98.1094 53.7656V52.75L103.547 52.4062L103.766 52.625V65.1875C103.766 65.5521 103.833 65.8542 103.969 66.0938C104.115 66.3333 104.339 66.5104 104.641 66.625C104.87 66.7188 105.094 66.7969 105.312 66.8594C105.531 66.9115 105.776 66.9479 106.047 66.9688V68ZM104.078 46.3281C104.078 46.9219 103.88 47.4427 103.484 47.8906C103.099 48.3281 102.62 48.5469 102.047 48.5469C101.516 48.5469 101.052 48.3385 100.656 47.9219C100.271 47.4948 100.078 47.0104 100.078 46.4688C100.078 45.8958 100.271 45.3958 100.656 44.9688C101.052 44.5417 101.516 44.3281 102.047 44.3281C102.641 44.3281 103.125 44.5312 103.5 44.9375C103.885 45.3333 104.078 45.7969 104.078 46.3281ZM117.453 67.3281C116.776 67.6094 116.135 67.8438 115.531 68.0312C114.927 68.2292 114.188 68.3281 113.312 68.3281C112.021 68.3281 111.109 68.0052 110.578 67.3594C110.057 66.7031 109.797 65.7812 109.797 64.5938V54.1562H107.016V52.6562H109.859V47.8594H112.703V52.6562H117.125V54.1562H112.734V62.7656C112.734 63.4115 112.755 63.9531 112.797 64.3906C112.849 64.8177 112.964 65.1927 113.141 65.5156C113.307 65.8177 113.557 66.0469 113.891 66.2031C114.224 66.3594 114.672 66.4375 115.234 66.4375C115.495 66.4375 115.875 66.4167 116.375 66.375C116.885 66.3229 117.245 66.2604 117.453 66.1875V67.3281ZM126.484 68H119.031V66.9688C119.271 66.9479 119.516 66.9271 119.766 66.9062C120.026 66.8854 120.25 66.8438 120.438 66.7812C120.729 66.6875 120.943 66.526 121.078 66.2969C121.224 66.0573 121.297 65.75 121.297 65.375V55.8594C121.297 55.526 121.219 55.224 121.062 54.9531C120.917 54.6719 120.708 54.4375 120.438 54.25C120.24 54.125 119.953 54.0208 119.578 53.9375C119.203 53.8438 118.859 53.7865 118.547 53.7656V52.75L123.984 52.4062L124.203 52.625V65.1875C124.203 65.5521 124.271 65.8542 124.406 66.0938C124.552 66.3333 124.776 66.5104 125.078 66.625C125.307 66.7188 125.531 66.7969 125.75 66.8594C125.969 66.9115 126.214 66.9479 126.484 66.9688V68ZM124.516 46.3281C124.516 46.9219 124.318 47.4427 123.922 47.8906C123.536 48.3281 123.057 48.5469 122.484 48.5469C121.953 48.5469 121.49 48.3385 121.094 47.9219C120.708 47.4948 120.516 47.0104 120.516 46.4688C120.516 45.8958 120.708 45.3958 121.094 44.9688C121.49 44.5417 121.953 44.3281 122.484 44.3281C123.078 44.3281 123.562 44.5312 123.938 44.9375C124.323 45.3333 124.516 45.7969 124.516 46.3281ZM142.062 64.375C141.417 65.6042 140.552 66.5833 139.469 67.3125C138.385 68.0417 137.141 68.4062 135.734 68.4062C134.495 68.4062 133.406 68.1875 132.469 67.75C131.542 67.3125 130.776 66.7188 130.172 65.9688C129.568 65.2188 129.115 64.3438 128.812 63.3438C128.521 62.3438 128.375 61.2865 128.375 60.1719C128.375 59.1719 128.531 58.1927 128.844 57.2344C129.167 56.2656 129.635 55.3958 130.25 54.625C130.844 53.8854 131.578 53.2917 132.453 52.8438C133.339 52.3854 134.328 52.1562 135.422 52.1562C136.547 52.1562 137.51 52.3333 138.312 52.6875C139.115 53.0417 139.766 53.526 140.266 54.1406C140.745 54.724 141.099 55.4115 141.328 56.2031C141.568 56.9948 141.688 57.8542 141.688 58.7812V59.8125H131.484C131.484 60.8229 131.578 61.7396 131.766 62.5625C131.964 63.3854 132.271 64.1094 132.688 64.7344C133.094 65.3385 133.625 65.8177 134.281 66.1719C134.938 66.5156 135.719 66.6875 136.625 66.6875C137.552 66.6875 138.349 66.474 139.016 66.0469C139.693 65.6094 140.344 64.8281 140.969 63.7031L142.062 64.375ZM138.609 58.5C138.609 57.9167 138.557 57.2917 138.453 56.625C138.359 55.9583 138.203 55.401 137.984 54.9531C137.745 54.474 137.417 54.0833 137 53.7812C136.583 53.4792 136.047 53.3281 135.391 53.3281C134.297 53.3281 133.385 53.7865 132.656 54.7031C131.938 55.6094 131.547 56.875 131.484 58.5H138.609ZM154.016 60.4531C154.443 60.8281 154.771 61.2604 155 61.75C155.229 62.2396 155.344 62.8385 155.344 63.5469C155.344 64.974 154.807 66.1406 153.734 67.0469C152.672 67.9531 151.292 68.4062 149.594 68.4062C148.698 68.4062 147.87 68.2448 147.109 67.9219C146.359 67.599 145.823 67.3021 145.5 67.0312L145.188 68.0469H144.016L143.859 62.6875H144.938C145.021 63.0938 145.198 63.5677 145.469 64.1094C145.74 64.651 146.068 65.1406 146.453 65.5781C146.859 66.0365 147.344 66.4219 147.906 66.7344C148.479 67.0469 149.12 67.2031 149.828 67.2031C150.828 67.2031 151.599 66.9792 152.141 66.5312C152.682 66.0729 152.953 65.4219 152.953 64.5781C152.953 64.1406 152.865 63.7656 152.688 63.4531C152.521 63.1302 152.271 62.849 151.938 62.6094C151.594 62.3698 151.172 62.1562 150.672 61.9688C150.172 61.7708 149.615 61.5781 149 61.3906C148.51 61.2448 147.964 61.0469 147.359 60.7969C146.766 60.5365 146.255 60.2344 145.828 59.8906C145.37 59.526 144.995 59.0781 144.703 58.5469C144.411 58.0156 144.266 57.3906 144.266 56.6719C144.266 55.4115 144.734 54.3438 145.672 53.4688C146.609 52.5938 147.865 52.1562 149.438 52.1562C150.042 52.1562 150.656 52.2344 151.281 52.3906C151.917 52.5469 152.432 52.7344 152.828 52.9531L153.188 52.1406H154.312L154.547 57.0938H153.469C153.25 55.9896 152.776 55.0938 152.047 54.4062C151.328 53.7083 150.448 53.3594 149.406 53.3594C148.552 53.3594 147.88 53.5729 147.391 54C146.901 54.4271 146.656 54.9427 146.656 55.5469C146.656 56.0156 146.734 56.4062 146.891 56.7188C147.057 57.0312 147.302 57.2969 147.625 57.5156C147.938 57.724 148.328 57.9219 148.797 58.1094C149.276 58.2865 149.865 58.4896 150.562 58.7188C151.25 58.9375 151.896 59.1927 152.5 59.4844C153.115 59.776 153.62 60.099 154.016 60.4531Z" fill="#F5AEB3"/>
</svg>
