<svg xmlns="http://www.w3.org/2000/svg" viewBox="0 0 1000 196">
    <defs>
        <style>.a{fill:#f4adb3}.b{fill:#fff}</style>
    </defs>
    <path class="a" d="M973.78 67.84a26.67 26.67 0 1 0 26.25 26.66 26.46 26.46 0 0 0-26.25-26.66zM973.78 142.66a26.67 26.67 0 1 0 26.25 26.67 26.47 26.47 0 0 0-26.25-26.67z"/>
    <path class="b" d="M77.34 80.77l-13.75-3.69c-21.82-5.74-32.42-17-32.42-34.42 0-17.91 15-29.48 38.32-29.48 19.48 0 30.52 3.77 40.61 25.22l7.73 16.44a.52.52 0 0 0 .47.3h7.64a.52.52 0 0 0 .51-.61l-7.78-46.4-.47-.2C106.52 2.93 90.01 0 72.92 0 33.21 0 5.47 21.07 5.47 51.25c0 27.6 17.6 47.27 49.55 55.39l13.49 3.44c29.25 7.5 43.47 20.36 43.47 39.33 0 19.82-18.59 33.66-45.2 33.66-22.34 0-37.35-4.65-48-28.4L8.6 131.84a.51.51 0 0 0-.47-.31H.47a.52.52 0 0 0-.51.61l8.92 50.8.08.46.41.22C24.02 191.48 45.29 196 67.73 196c34.09 0 70.88-21.66 70.88-56.65.04-35.39-22.44-48.28-61.27-58.58zM363.23 68.49v7.64a.53.53 0 0 0 .41.51l7.94 1.79c4.91 1.12 7.31 2.2 8 3.59.44.89.27 2.1-.56 3.95l-31.77 73.8-31.52-73.78c-.68-1.69-.78-2.89-.31-3.77.77-1.47 3.31-2.61 8.48-3.79l7.93-1.79a.53.53 0 0 0 .41-.51v-7.64a.52.52 0 0 0-.52-.52h-63.18a.52.52 0 0 0-.52.52v7.64a.51.51 0 0 0 .4.5l7.7 1.8c8.51 1.94 9.35 3.8 11.37 8.3l47.36 109h10.32l47.6-109c2-4.5 2.86-6.36 11.38-8.3l7.68-1.8a.51.51 0 0 0 .41-.5v-7.64a.53.53 0 0 0-.52-.52h-48a.52.52 0 0 0-.49.52zM685.2 182.6c-8.47-1.94-9.33-3.23-9.33-7.92v-61.34c0-33.17-12.91-49.29-39.47-49.29-19.5 0-33 9.26-40.28 27.53V64.89l-42.91 5.84a.52.52 0 0 0-.45.51v7.34a.52.52 0 0 0 .4.51l7.94 1.79c8.61 2 9.33 3.54 9.33 7.91v85.89c0 4.69-.86 6-9.33 7.92l-7.94 1.79a.52.52 0 0 0-.4.51v7.63a.52.52 0 0 0 .52.52h60a.52.52 0 0 0 .52-.52v-7.63a.51.51 0 0 0-.4-.51l-7.94-1.79c-8.46-1.94-9.32-3.23-9.32-7.92v-54.23c0-36.46 21.81-39.3 28.5-39.3 18 0 25.32 10.82 25.32 37.34v56.19c0 4.69-.86 6-9.33 7.92l-7.94 1.79a.51.51 0 0 0-.4.51v7.63a.51.51 0 0 0 .51.52h60.23a.52.52 0 0 0 .52-.52v-7.63a.52.52 0 0 0-.4-.51zM784.34 166.05a.52.52 0 0 0-.72.15c-.46.76-1.46 2.34-2.47 3.66-5.55 7.27-12.87 11.24-21 11.24-11.87 0-18.69-7.52-18.69-20.65V83.11h43.41a.52.52 0 0 0 .52-.52v-14.1a.52.52 0 0 0-.52-.52h-43.42V34.14a.51.51 0 0 0-.51-.52h-8.83l-.14.77c-4.6 25.33-16.65 37.88-37.91 39.48l-.87.06v8.66a.52.52 0 0 0 .52.52h22.06v79.55c0 20.87 12.91 33.34 34.55 33.34a45.69 45.69 0 0 0 39-20.91c.55-.84 1.72-2.85 2.23-3.73a.5.5 0 0 0-.17-.69zM928.83 173.22a.5.5 0 0 0-.71 0c-.76.76-2.59 2.59-3.39 3.25-3.11 2.58-6 3.89-8.72 3.89a7.53 7.53 0 0 1-5.67-2.19c-2.83-2.89-4.12-8.85-3.94-18.2l1-50.8c.34-16.17-2.87-27.48-9.8-34.55-7.17-7.32-18.44-10.58-36.54-10.58-31.81 0-51.5 15.52-51.5 29.9 0 7.3 4.8 14.69 14 14.69 8.79 0 14.69-6.1 14.69-15.18a27.45 27.45 0 0 0-1.66-8.46 16.87 16.87 0 0 1-1-4.55c0-2.42 7.09-5.92 19.92-5.92 8.57 0 14.8 2.1 19 6.43 5.14 5.24 7.51 13.9 7.25 26.46l-.23 10c-52 4.79-78.3 19.61-78.3 44.05 0 20 17 34.57 40.46 34.57 18.72 0 31.68-8.31 37.83-24.12v.59c0 16.25 11.69 23.53 23.27 23.53 10.53 0 19.37-4.73 25.86-13.69 1-1.32 2.33-3.63 2.85-4.52a.51.51 0 0 0-.11-.65zm-47.16-47.75l-.47 23.44c-.46 22.58-14.15 32.69-27.52 32.69-12.65 0-21.14-9.19-21.14-22.86 0-18.31 15.16-28.6 49.13-33.28zM540.68 173.22a.5.5 0 0 0-.71 0c-.76.76-2.59 2.59-3.38 3.25-3.12 2.58-6 3.89-8.73 3.89a7.5 7.5 0 0 1-5.66-2.19c-2.84-2.89-4.13-8.85-3.94-18.2l1-50.8c.33-16.17-2.88-27.48-9.81-34.55-7.16-7.32-18.43-10.58-36.54-10.58-31.81 0-51.49 15.52-51.49 29.9 0 7.3 4.79 14.69 14 14.69 8.78 0 14.68-6.1 14.68-15.18a27.76 27.76 0 0 0-1.65-8.46 16.94 16.94 0 0 1-1.05-4.55c0-2.42 7.1-5.92 19.92-5.92 8.57 0 14.8 2.1 19 6.43 5.14 5.24 7.51 13.9 7.25 26.46l-.22 10c-52 4.79-78.3 19.61-78.3 44.05 0 20 17 34.57 40.45 34.57 18.72 0 31.69-8.31 37.83-24.12v.59c0 16.25 11.69 23.53 23.27 23.53 10.54 0 19.37-4.73 25.87-13.69 1-1.32 2.32-3.63 2.85-4.52a.52.52 0 0 0-.11-.65zm-47.16-47.75l-.49 23.43c-.46 22.58-14.16 32.69-27.53 32.69-12.64 0-21.14-9.19-21.14-22.86.03-18.3 15.2-28.59 49.16-33.27zM276.97 173.22a.5.5 0 0 0-.71 0c-.76.76-2.6 2.59-3.39 3.25-3.12 2.58-6 3.89-8.73 3.89a7.5 7.5 0 0 1-5.66-2.19c-2.84-2.89-4.13-8.85-3.94-18.2l1-50.8c.33-16.17-2.87-27.48-9.81-34.55-7.16-7.32-18.43-10.58-36.53-10.58-31.81 0-51.5 15.52-51.5 29.9 0 7.3 4.79 14.69 14 14.69 8.78 0 14.68-6.1 14.68-15.18a27.76 27.76 0 0 0-1.65-8.46 16.87 16.87 0 0 1-1-4.55c0-2.42 7.09-5.92 19.91-5.92 8.58 0 14.8 2.1 19.05 6.43 5.13 5.24 7.5 13.9 7.25 26.46l-.23 10c-52 4.79-78.3 19.61-78.3 44.05 0 20 17 34.57 40.45 34.57 18.72 0 31.69-8.31 37.83-24.12v.59c0 16.25 11.69 23.53 23.28 23.53 10.53 0 19.36-4.73 25.86-13.69 1-1.32 2.33-3.63 2.85-4.52a.52.52 0 0 0-.11-.65zm-47.17-47.75l-.46 23.44c-.46 22.58-14.16 32.69-27.53 32.69-12.64 0-21.14-9.19-21.14-22.86 0-18.31 15.17-28.6 49.13-33.28z"/>
</svg>