<svg width="14" height="10" viewBox="0 0 14 10" fill="none" xmlns="http://www.w3.org/2000/svg">
<path d="M5.57812 0.859375C5.57812 1.13021 5.31771 1.63021 4.79688 2.35938C4.28646 3.07812 4.03125 3.45833 4.03125 3.5C4.03125 3.60417 4.125 3.69792 4.3125 3.78125C4.5 3.86458 4.72917 3.95833 5 4.0625C5.27083 4.16667 5.54167 4.30208 5.8125 4.46875C6.09375 4.625 6.32812 4.86979 6.51562 5.20312C6.70312 5.53646 6.79688 5.93229 6.79688 6.39062C6.79688 7.18229 6.52083 7.82812 5.96875 8.32812C5.42708 8.82812 4.72396 9.07812 3.85938 9.07812C3.02604 9.07812 2.31771 8.80729 1.73438 8.26562C1.16146 7.71354 0.875 7.04167 0.875 6.25C0.875 5.34375 1.05729 4.4375 1.42188 3.53125C1.79688 2.61458 2.29167 1.85938 2.90625 1.26562C3.53125 0.671875 4.17188 0.375 4.82812 0.375C5.32812 0.375 5.57812 0.536458 5.57812 0.859375ZM12.7812 0.859375C12.7812 1.13021 12.5208 1.63021 12 2.35938C11.4896 3.07812 11.2344 3.45833 11.2344 3.5C11.2344 3.59375 11.3021 3.67708 11.4375 3.75C11.5729 3.82292 11.7448 3.89062 11.9531 3.95312C12.1615 4.01562 12.3802 4.10938 12.6094 4.23438C12.849 4.35938 13.0729 4.50521 13.2812 4.67188C13.4896 4.82812 13.6615 5.05729 13.7969 5.35938C13.9323 5.66146 14 6.00521 14 6.39062C14 7.18229 13.724 7.82812 13.1719 8.32812C12.6302 8.82812 11.9271 9.07812 11.0625 9.07812C10.2292 9.07812 9.52083 8.80729 8.9375 8.26562C8.36458 7.71354 8.07812 7.04167 8.07812 6.25C8.07812 5.34375 8.26042 4.4375 8.625 3.53125C9 2.61458 9.49479 1.85938 10.1094 1.26562C10.7344 0.671875 11.375 0.375 12.0312 0.375C12.5312 0.375 12.7812 0.536458 12.7812 0.859375Z" fill="black" fill-opacity="0.25"/>
</svg>
