<svg width="170" height="40" viewBox="0 0 170 55" fill="none" xmlns="http://www.w3.org/2000/svg">
<g clip-path="url(#clip0_1_6)">
<path d="M156.067 20.3837C155.273 20.3709 154.494 20.5995 153.827 21.0403C153.161 21.4811 152.639 22.1142 152.326 22.859C152.014 23.6037 151.926 24.4266 152.073 25.2226C152.22 26.0187 152.596 26.7521 153.153 27.3294C153.71 27.9067 154.423 28.3018 155.201 28.4644C155.979 28.627 156.786 28.5498 157.521 28.2426C158.256 27.9353 158.884 27.412 159.326 26.7392C159.769 26.0663 160.005 25.2745 160.005 24.4643C160.012 23.3904 159.602 22.3573 158.864 21.5921C158.125 20.8268 157.119 20.3922 156.067 20.3837ZM156.067 31.8357C155.273 31.823 154.494 32.0515 153.828 32.4922C153.161 32.9329 152.639 33.5659 152.326 34.3106C152.014 35.0553 151.926 35.8781 152.073 36.6741C152.22 37.4702 152.596 38.2035 153.153 38.7809C153.71 39.3582 154.422 39.7534 155.2 39.9162C155.978 40.079 156.785 40.002 157.52 39.695C158.255 39.388 158.883 38.865 159.326 38.1923C159.768 37.5197 160.004 36.728 160.005 35.9179C160.012 34.8439 159.602 33.8105 158.864 33.0451C158.126 32.2796 157.12 31.8446 156.067 31.8357Z" fill="#F4ADB3"/>
<path d="M21.6011 22.3628L19.5386 21.798C16.2656 20.9194 14.6756 19.1959 14.6756 16.5296C14.6756 13.7883 16.9256 12.0173 20.4236 12.0173C23.3456 12.0173 25.0016 12.5944 26.5151 15.8776L27.6746 18.3939C27.6808 18.4076 27.6908 18.4192 27.7033 18.4273C27.7158 18.4354 27.7303 18.4398 27.7451 18.4398H28.8911C28.9024 18.4397 28.9136 18.4372 28.9239 18.4322C28.9342 18.4273 28.9433 18.4201 28.9506 18.4113C28.9579 18.4024 28.9632 18.392 28.9661 18.3808C28.969 18.3696 28.9695 18.3578 28.9676 18.3464L27.8006 11.2444L27.7301 11.2138C25.9781 10.4485 23.5016 10 20.9381 10C14.9816 10 10.8206 13.225 10.8206 17.8444C10.8206 22.0689 13.4606 25.0796 18.2531 26.3224L20.2766 26.849C24.6641 27.9969 26.7971 29.9653 26.7971 32.8689C26.7971 35.9025 24.0086 38.0209 20.0171 38.0209C16.6661 38.0209 14.4146 37.3092 12.8171 33.674L11.2901 30.1796C11.2842 30.1655 11.2744 30.1535 11.2618 30.145C11.2493 30.1366 11.2346 30.1321 11.2196 30.1321H10.0706C10.0592 30.1322 10.048 30.1348 10.0377 30.1397C10.0274 30.1446 10.0183 30.1518 10.011 30.1607C10.0038 30.1696 9.99847 30.18 9.99553 30.1912C9.9926 30.2024 9.9921 30.2141 9.99407 30.2255L11.3321 38.001L11.3441 38.0714L11.4056 38.1051C13.6031 39.3082 16.7936 40 20.1596 40C25.2731 40 30.7916 36.6847 30.7916 31.3291C30.7976 25.9122 27.4256 23.9393 21.6011 22.3628ZM64.4846 20.4832V21.6525C64.4848 21.6707 64.491 21.6883 64.5021 21.7024C64.5133 21.7166 64.5287 21.7265 64.5461 21.7306L65.7371 22.0046C66.4736 22.176 66.8336 22.3413 66.9371 22.5541C67.0031 22.6903 66.9776 22.8755 66.8531 23.1587L62.0876 34.4546L57.3596 23.1617C57.2576 22.9031 57.2426 22.7194 57.3131 22.5847C57.4286 22.3597 57.8096 22.1852 58.5851 22.0046L59.7746 21.7306C59.7919 21.7265 59.8074 21.7166 59.8185 21.7024C59.8297 21.6883 59.8359 21.6707 59.8361 21.6525V20.4832C59.8361 20.4621 59.8279 20.4418 59.8132 20.4269C59.7986 20.412 59.7788 20.4036 59.7581 20.4036H50.2811C50.2604 20.4036 50.2405 20.412 50.2259 20.4269C50.2113 20.4418 50.2031 20.4621 50.2031 20.4832V21.6525C50.203 21.6704 50.2089 21.6877 50.2198 21.7016C50.2307 21.7155 50.246 21.7252 50.2631 21.7291L51.4181 22.0046C52.6946 22.3015 52.8206 22.5862 53.1236 23.275L60.2276 39.9587H61.7756L68.9156 23.275C69.2156 22.5862 69.3446 22.3015 70.6226 22.0046L71.7746 21.7291C71.7919 21.7255 71.8075 21.716 71.8187 21.702C71.8299 21.6881 71.8361 21.6706 71.8361 21.6525V20.4832C71.8357 20.4622 71.8273 20.4422 71.8128 20.4273C71.7983 20.4125 71.7786 20.404 71.7581 20.4036H64.5581C64.5382 20.4047 64.5195 20.4136 64.5058 20.4284C64.4921 20.4432 64.4845 20.4628 64.4846 20.4832ZM112.78 37.949C111.51 37.652 111.381 37.4546 111.381 36.7367V27.348C111.381 22.2709 109.444 19.8036 105.46 19.8036C102.535 19.8036 100.51 21.2209 99.4181 24.0173V19.9321L92.9816 20.826C92.963 20.8286 92.946 20.8379 92.9336 20.8522C92.9212 20.8666 92.9143 20.885 92.9141 20.9041V22.0276C92.9139 22.0456 92.9198 22.0631 92.9307 22.0773C92.9416 22.0915 92.9569 22.1015 92.9741 22.1056L94.1651 22.3796C95.4566 22.6857 95.5646 22.9214 95.5646 23.5903V36.7367C95.5646 37.4546 95.4356 37.6551 94.1651 37.949L92.9741 38.223C92.9569 38.2271 92.9416 38.2371 92.9307 38.2513C92.9198 38.2655 92.9139 38.283 92.9141 38.301V39.4689C92.9141 39.49 92.9223 39.5102 92.9369 39.5252C92.9515 39.5401 92.9714 39.5485 92.9921 39.5485H101.992C102.013 39.5485 102.033 39.5401 102.047 39.5252C102.062 39.5102 102.07 39.49 102.07 39.4689V38.301C102.07 38.2829 102.065 38.2653 102.054 38.251C102.043 38.2368 102.027 38.2269 102.01 38.223L100.819 37.949C99.5501 37.652 99.4211 37.4546 99.4211 36.7367V28.4362C99.4211 22.8556 102.693 22.4209 103.696 22.4209C106.396 22.4209 107.494 24.077 107.494 28.1362V36.7367C107.494 37.4546 107.365 37.6551 106.095 37.949L104.904 38.223C104.886 38.2269 104.871 38.2368 104.86 38.251C104.849 38.2653 104.843 38.2829 104.844 38.301V39.4689C104.843 39.4793 104.845 39.4896 104.849 39.4992C104.853 39.5089 104.858 39.5177 104.865 39.5251C104.873 39.5325 104.881 39.5384 104.89 39.5424C104.9 39.5464 104.91 39.5485 104.92 39.5485H113.955C113.975 39.5485 113.995 39.5401 114.01 39.5252C114.024 39.5102 114.033 39.49 114.033 39.4689V38.301C114.033 38.283 114.027 38.2655 114.016 38.2513C114.005 38.2371 113.99 38.2271 113.973 38.223L112.78 37.949ZM127.651 35.4158C127.643 35.4101 127.633 35.4061 127.623 35.4042C127.613 35.4022 127.602 35.4023 127.592 35.4045C127.582 35.4066 127.573 35.4107 127.564 35.4166C127.556 35.4225 127.549 35.43 127.543 35.4388C127.474 35.5551 127.324 35.7969 127.173 35.999C126.34 37.1117 125.242 37.7194 124.023 37.7194C122.242 37.7194 121.219 36.5684 121.219 34.5587V22.7209H127.731C127.751 22.7209 127.771 22.7125 127.786 22.6976C127.8 22.6827 127.809 22.6624 127.809 22.6413V20.4832C127.809 20.4621 127.8 20.4418 127.786 20.4269C127.771 20.412 127.751 20.4036 127.731 20.4036H121.218V15.2255C121.218 15.2151 121.216 15.2048 121.212 15.1952C121.208 15.1855 121.203 15.1767 121.196 15.1693C121.189 15.1619 121.18 15.156 121.171 15.152C121.161 15.148 121.151 15.1459 121.141 15.1459H119.817L119.796 15.2638C119.106 19.1408 117.298 21.0617 114.109 21.3066L113.979 21.3158V22.6413C113.979 22.6624 113.987 22.6827 114.001 22.6976C114.016 22.7125 114.036 22.7209 114.057 22.7209H117.366V34.8969C117.366 38.0913 119.302 40 122.548 40C123.709 40.0158 124.855 39.7305 125.878 39.1706C126.901 38.6108 127.768 37.7949 128.398 36.7995C128.481 36.6709 128.656 36.3633 128.733 36.2286C128.738 36.2199 128.741 36.2104 128.743 36.2004C128.744 36.1904 128.744 36.1802 128.741 36.1703C128.739 36.1605 128.735 36.1513 128.729 36.1431C128.723 36.135 128.716 36.1281 128.707 36.123L127.651 35.4158ZM149.325 36.5133C149.318 36.5061 149.309 36.5004 149.3 36.4965C149.291 36.4926 149.281 36.4906 149.271 36.4906C149.261 36.4906 149.252 36.4926 149.242 36.4965C149.233 36.5004 149.225 36.5061 149.218 36.5133C149.104 36.6296 148.83 36.9097 148.71 37.0107C148.243 37.4056 147.81 37.6061 147.402 37.6061C147.245 37.6136 147.088 37.5877 146.942 37.53C146.795 37.4723 146.662 37.384 146.551 37.2709C146.127 36.8286 145.933 35.9163 145.96 34.4852L146.11 26.7097C146.161 24.2347 145.68 22.5036 144.64 21.4214C143.565 20.301 141.874 19.802 139.159 19.802C134.388 19.802 131.434 22.1776 131.434 24.3786C131.434 25.4959 132.154 26.627 133.534 26.627C134.853 26.627 135.738 25.6934 135.738 24.3036C135.722 23.8612 135.638 23.4242 135.489 23.0087C135.407 22.7847 135.357 22.5503 135.339 22.3122C135.339 21.9418 136.402 21.4061 138.327 21.4061C139.612 21.4061 140.547 21.7275 141.177 22.3903C141.948 23.1923 142.303 24.5179 142.264 26.4403L142.23 27.9709C134.43 28.7041 130.485 30.9724 130.485 34.7133C130.485 37.7745 133.035 40.0046 136.554 40.0046C139.362 40.0046 141.306 38.7327 142.228 36.3128V36.4031C142.228 38.8903 143.982 40.0046 145.719 40.0046C147.298 40.0046 148.624 39.2806 149.598 37.9092C149.748 37.7071 149.947 37.3536 150.025 37.2173C150.034 37.2015 150.038 37.1827 150.035 37.1645C150.032 37.1463 150.022 37.1298 150.009 37.1179L149.325 36.5133ZM142.251 29.2046L142.18 32.7923C142.111 36.2485 140.058 37.7959 138.052 37.7959C136.155 37.7959 134.881 36.3893 134.881 34.2969C134.881 31.4944 137.155 29.9194 142.251 29.2031V29.2046ZM91.1021 36.5133C91.0951 36.5061 91.0868 36.5004 91.0777 36.4965C91.0685 36.4926 91.0587 36.4906 91.0488 36.4906C91.0389 36.4906 91.0291 36.4926 91.02 36.4965C91.0108 36.5004 91.0025 36.5061 90.9956 36.5133C90.8816 36.6296 90.6071 36.9097 90.4886 37.0107C90.0206 37.4056 89.5886 37.6061 89.1791 37.6061C89.0225 37.6137 88.8661 37.5878 88.7199 37.5301C88.5737 37.4723 88.4409 37.3841 88.3301 37.2709C87.9041 36.8286 87.7106 35.9163 87.7391 34.4852L87.8891 26.7097C87.9386 24.2347 87.4571 22.5036 86.4176 21.4214C85.3436 20.301 83.6531 19.802 80.9366 19.802C76.1651 19.802 73.2131 22.1776 73.2131 24.3786C73.2131 25.4959 73.9316 26.627 75.3131 26.627C76.6301 26.627 77.5151 25.6934 77.5151 24.3036C77.4991 23.8614 77.4156 23.4245 77.2676 23.0087C77.1838 22.7851 77.1308 22.5507 77.1101 22.3122C77.1101 21.9418 78.1751 21.4061 80.0981 21.4061C81.3836 21.4061 82.3181 21.7275 82.9481 22.3903C83.7191 23.1923 84.0746 24.5179 84.0356 26.4403L84.0026 27.9709C76.2026 28.7041 72.2576 30.9724 72.2576 34.7133C72.2576 37.7745 74.8076 40.0046 78.3251 40.0046C81.1331 40.0046 83.0786 38.7327 83.9996 36.3128V36.4031C83.9996 38.8903 85.7531 40.0046 87.4901 40.0046C89.0711 40.0046 90.3956 39.2806 91.3706 37.9092C91.5206 37.7071 91.7186 37.3536 91.7981 37.2173C91.807 37.2014 91.8103 37.1827 91.8072 37.1646C91.8042 37.1465 91.7952 37.1299 91.7816 37.1179L91.1021 36.5133ZM84.0281 29.2046L83.9546 32.7908C83.8856 36.2469 81.8306 37.7944 79.8251 37.7944C77.9291 37.7944 76.6541 36.3878 76.6541 34.2954C76.6586 31.4944 78.9341 29.9194 84.0281 29.2031V29.2046ZM51.5456 36.5133C51.5386 36.5061 51.5303 36.5004 51.5212 36.4965C51.512 36.4926 51.5022 36.4906 51.4923 36.4906C51.4824 36.4906 51.4726 36.4926 51.4635 36.4965C51.4543 36.5004 51.446 36.5061 51.4391 36.5133C51.3251 36.6296 51.0491 36.9097 50.9306 37.0107C50.4626 37.4056 50.0306 37.6061 49.6211 37.6061C49.4645 37.6137 49.3081 37.5878 49.1619 37.5301C49.0157 37.4723 48.8829 37.3841 48.7721 37.2709C48.3461 36.8286 48.1526 35.9163 48.1811 34.4852L48.3311 26.7097C48.3806 24.2347 47.9006 22.5036 46.8596 21.4214C45.7856 20.301 44.0951 19.802 41.3801 19.802C36.6086 19.802 33.6551 22.1776 33.6551 24.3786C33.6551 25.4959 34.3736 26.627 35.7551 26.627C37.0721 26.627 37.9571 25.6934 37.9571 24.3036C37.9411 23.8614 37.8576 23.4245 37.7096 23.0087C37.6282 22.7847 37.5778 22.5503 37.5596 22.3122C37.5596 21.9418 38.6231 21.4061 40.5461 21.4061C41.8331 21.4061 42.7661 21.7275 43.4036 22.3903C44.1731 23.1923 44.5286 24.5179 44.4911 26.4403L44.4566 27.9709C36.6566 28.7041 32.7116 30.9724 32.7116 34.7133C32.7116 37.7745 35.2616 40.0046 38.7791 40.0046C41.5871 40.0046 43.5326 38.7327 44.4536 36.3128V36.4031C44.4536 38.8903 46.2071 40.0046 47.9456 40.0046C49.5251 40.0046 50.8496 39.2806 51.8246 37.9092C51.9746 37.7071 52.1741 37.3536 52.2521 37.2173C52.261 37.2014 52.2643 37.1827 52.2612 37.1646C52.2582 37.1465 52.2492 37.1299 52.2356 37.1179L51.5456 36.5133ZM44.4701 29.2046L44.4011 32.7923C44.3321 36.2485 42.2771 37.7959 40.2716 37.7959C38.3756 37.7959 37.1006 36.3893 37.1006 34.2969C37.1006 31.4944 39.3761 29.9194 44.4701 29.2031V29.2046Z" fill="white"/>
</g>
<defs>
<clipPath id="clip0_1_6">
<rect width="150" height="30" fill="white" transform="translate(10 10)"/>
</clipPath>
</defs>
</svg>
