<svg xmlns="http://www.w3.org/2000/svg" viewBox="0 0 16 16"><title>instock-age-range</title><path d="M3.18,16a3.15,3.15,0,0,1-2.23-.94,3.11,3.11,0,0,1,0-4.47,3.07,3.07,0,0,1,3.27-.73l1-1A5.84,5.84,0,1,1,14.29,10h0a5.86,5.86,0,0,1-7.18.84l-1,1a3.07,3.07,0,0,1-.73,3.27A3.15,3.15,0,0,1,3.18,16Zm0-5.39a2.17,2.17,0,0,0-1.54.65,2.17,2.17,0,0,0,0,3.14,2.17,2.17,0,0,0,3.14,0,2.14,2.14,0,0,0,.42-2.5L5,11.58l2-2,.32.23a4.94,4.94,0,0,0,6-.2A8.17,8.17,0,0,1,6,3.25a5,5,0,0,0,.18,5.43L6.39,9l-2,2-.3-.15A2.15,2.15,0,0,0,3.15,10.6ZM6.83,2.24c.12,3.53,3.32,6.39,7.29,6.52A4.91,4.91,0,0,0,6.83,2.24Z"/><path d="M3.18,14.21a1.37,1.37,0,0,1-1-.42,1.32,1.32,0,0,1,0-1.93,1.34,1.34,0,0,1,1.93,0,1.31,1.31,0,0,1,0,1.93A1.37,1.37,0,0,1,3.18,14.21Zm0-1.84a.45.45,0,0,0-.3.15.38.38,0,0,0,0,.6.45.45,0,0,0,.3.15.44.44,0,0,0,.3-.15.38.38,0,0,0,0-.6A.44.44,0,0,0,3.18,12.37Z"/></svg>