<svg xmlns="http://www.w3.org/2000/svg" viewBox="0 0 16 16"><title>instock-date</title><path d="M15,2H11V1a.5.5,0,1,0-1,0V2H6V1A.5.5,0,0,0,5,1V2H1A1,1,0,0,0,0,3V15a1,1,0,0,0,1,1H15a1,1,0,0,0,1-1V3A1,1,0,0,0,15,2Zm0,13H1V3H5V4A.5.5,0,1,0,6,4V3h4V4a.5.5,0,1,0,1,0V3h4Z"/><rect x="7" y="6.5" width="2" height="2"/><rect x="10.5" y="6.5" width="2" height="2"/><rect x="3.5" y="6.5" width="2" height="2"/><rect x="7" y="10" width="2" height="2"/><rect x="10.5" y="10" width="2" height="2"/><rect x="3.5" y="10" width="2" height="2"/></svg>