<svg xmlns="http://www.w3.org/2000/svg" viewBox="0 0 16 16"><title>instock-material</title><path d="M15.5,6a.5.5,0,0,0,0-1h-2V3.5h2a.5.5,0,0,0,0-1h-2V.5a.5.5,0,0,0-1,0v2H11V.5a.5.5,0,0,0-1,0v2H8.5V.5a.5.5,0,0,0-1,0v2H6V.5a.5.5,0,0,0-1,0v2H3.5V.5a.5.5,0,0,0-1,0v2H.5a.5.5,0,0,0,0,1h2V5H.5a.5.5,0,0,0,0,1h2V7.5H.5a.5.5,0,0,0,0,1h2V10H.5a.5.5,0,0,0,0,1h2v1.5H.5a.5.5,0,0,0,0,1h2v2a.5.5,0,1,0,1,0v-2H5v2a.5.5,0,1,0,1,0v-2H7.5v2a.5.5,0,1,0,1,0v-2H10v2a.5.5,0,1,0,1,0v-2h1.5v2a.5.5,0,1,0,1,0v-2h2a.5.5,0,0,0,0-1h-2V11h2a.5.5,0,0,0,0-1h-2V8.5h2a.5.5,0,1,0,0-1h-2V6Zm-3-2.5V5H11V3.5ZM10,3.5V5H8.5V3.5Zm-2.5,5V10H6V8.5ZM6,7.5V6H7.5V7.5Zm2.5,1H10V10H8.5Zm0-1V6H10V7.5Zm-1-4V5H6V3.5Zm-4,0H5V5H3.5ZM3.5,6H5V7.5H3.5Zm0,2.5H5V10H3.5Zm0,4V11H5v1.5Zm2.5,0V11H7.5v1.5Zm2.5,0V11H10v1.5Zm4,0H11V11h1.5Zm0-2.5H11V8.5h1.5Zm0-2.5H11V6h1.5Z"/></svg>