<svg xmlns="http://www.w3.org/2000/svg" viewBox="0 0 16 16"><title>instock-print</title><path d="M1.32,2.71,0,1.66l1.64,0L2.19,0l.54,1.63,1.64,0-1.31,1,.47,1.65-1.35-1-1.35,1ZM6.65,4.36,8,3.38l1.35,1L8.88,2.71l1.31-1-1.64,0L8,0,7.46,1.63l-1.64,0,1.31,1Zm5.82,0,1.35-1,1.35,1-.47-1.65,1.31-1-1.64,0L13.82,0l-.54,1.63-1.64,0,1.31,1ZM.84,10.18l1.35-1,1.35,1L3.06,8.53l1.31-1-1.64,0L2.19,5.82,1.65,7.45,0,7.48l1.31,1Zm5.81,0L8,9.19l1.35,1L8.88,8.53l1.31-1-1.64,0L8,5.82,7.46,7.45l-1.64,0,1.31,1Zm5.81,0,1.35-1,1.35,1-.47-1.65,1.31-1-1.64,0-.54-1.63-.54,1.63-1.64,0,1.31,1ZM.83,16l1.35-1,1.35,1-.47-1.65,1.31-1-1.64,0-.54-1.63-.54,1.63L0,13.29l1.31,1Zm5.81,0L8,15l1.35,1-.47-1.65,1.31-1-1.64,0L8,11.63l-.54,1.63-1.64,0,1.31,1Zm5.81,0,1.35-1,1.35,1-.47-1.65,1.31-1-1.64,0-.54-1.63-.54,1.63-1.64,0,1.31,1Z"/></svg>