<svg xmlns="http://www.w3.org/2000/svg" viewBox="0 0 16 16"><title>instock-price</title><path d="M16,6.41l-.67-4.55A1.48,1.48,0,0,0,14.14.69L9.59,0,9.37,0A2.37,2.37,0,0,0,7.83.6L.3,8.13a1,1,0,0,0,0,1.46L6.41,15.7a1,1,0,0,0,1.46,0L15.4,8.17A2.33,2.33,0,0,0,16,6.41Zm-1.31,1L7.14,15,1,8.86,8.56,1.33A1.36,1.36,0,0,1,9.37,1h.07L14,1.71a.48.48,0,0,1,.3.3L15,6.56A1.35,1.35,0,0,1,14.67,7.44Z"/><path d="M11.5,2.88A1.63,1.63,0,1,0,13.13,4.5,1.63,1.63,0,0,0,11.5,2.88Zm0,2.25a.63.63,0,1,1,.63-.62A.63.63,0,0,1,11.5,5.13Z"/></svg>