<svg xmlns="http://www.w3.org/2000/svg" viewBox="0 0 16 16"><title>instock-download-pdf</title><path d="M8,7.48l3-3a.5.5,0,1,0-.71-.71L8.51,5.63V.5a.5.5,0,1,0-1,0V5.66L5.67,3.82A.5.5,0,0,0,5,4.53Z"/><polygon points="12.66 9.79 12.66 9.25 10.26 9.25 10.26 12.75 10.88 12.75 10.88 11.24 12.62 11.24 12.62 10.7 10.88 10.7 10.88 9.79 12.66 9.79"/><path d="M6.53,9.25v3.5h1.3a1.75,1.75,0,1,0,0-3.5ZM9,11a1.15,1.15,0,0,1-1.2,1.21H7.15V9.79h.69A1.13,1.13,0,0,1,9,11Z"/><path d="M4,11.44h.92a1.1,1.1,0,1,0,0-2.19H3.34v3.5H4ZM4,9.79h.84a.56.56,0,1,1,0,1.11H4Z"/><path d="M15.5,10a.5.5,0,0,0-.5.5v4a.5.5,0,0,1-.5.5H1.5a.5.5,0,0,1-.5-.5v-4a.5.5,0,1,0-1,0v4A1.5,1.5,0,0,0,1.5,16h13A1.5,1.5,0,0,0,16,14.5v-4A.5.5,0,0,0,15.5,10Z"/></svg>