<svg xmlns="http://www.w3.org/2000/svg" viewBox="0 0 16 16"><title>instock-colour</title><path d="M15.52,4.8A6.2,6.2,0,0,0,9.68,1H9.59A10.25,10.25,0,0,0,1.73,4.51,7.14,7.14,0,0,0,.14,10.59c.24,1.24.71,1.83,1.4,1.83h0c.88,0,1.68-1.17,2.1-2.16.23-.54.59-.78.88-.78a.42.42,0,0,1,.32.14A1.16,1.16,0,0,1,5,10.5c-.19,1.75,0,3,.72,3.76A2.4,2.4,0,0,0,7.59,15h0c2,0,4.68-1.66,6.41-3.37A6.1,6.1,0,0,0,15.52,4.8ZM13.3,10.95C11.75,12.48,9.29,14,7.59,14a1.37,1.37,0,0,1-1.12-.43,4,4,0,0,1-.47-3A2,2,0,0,0,5.58,9a1.41,1.41,0,0,0-1.06-.47,2,2,0,0,0-1.8,1.39c-.46,1.08-1,1.54-1.19,1.55,0,0-.24-.16-.41-1A6.15,6.15,0,0,1,2.5,5.14,9.26,9.26,0,0,1,9.59,2h.09A5.19,5.19,0,0,1,14.6,5.18,5.11,5.11,0,0,1,13.3,10.95Z"/><path d="M3.25,6.18A.75.75,0,0,0,2.68,7a.69.69,0,0,0,.89.45.75.75,0,0,0,.58-.85A.69.69,0,0,0,3.25,6.18Z"/><path d="M6.44,4a1.17,1.17,0,0,0-1.63.52,1.33,1.33,0,0,0,.68,1.67,1.18,1.18,0,0,0,1.63-.53A1.32,1.32,0,0,0,6.44,4Z"/><path d="M8.48,9.89a1.41,1.41,0,0,0-.85,1.71,1.26,1.26,0,0,0,1.75.51,1.41,1.41,0,0,0,.85-1.71A1.26,1.26,0,0,0,8.48,9.89Z"/><ellipse cx="8.93" cy="4.08" rx="0.92" ry="0.98"/><path d="M11.43,4.14a1.23,1.23,0,0,0-.49,1.59,1.11,1.11,0,0,0,1.38.8,1.23,1.23,0,0,0,.49-1.59A1.11,1.11,0,0,0,11.43,4.14Z"/></svg>