<svg xmlns="http://www.w3.org/2000/svg" viewBox="0 0 16 16"><title>instock-download-xls</title><path d="M8,7.48l3-3a.5.5,0,1,0-.71-.71L8.51,5.63V.5a.5.5,0,1,0-1,0V5.66L5.67,3.82A.5.5,0,0,0,5,4.53Z"/><path d="M11,9.78a1.38,1.38,0,0,1,1,.39l.34-.44a1.76,1.76,0,0,0-1.27-.47c-.74,0-1.23.43-1.23,1,0,1.25,2,.81,2,1.52,0,.22-.19.46-.68.46A1.46,1.46,0,0,1,10,11.75l-.33.46a1.82,1.82,0,0,0,1.38.54c.91,0,1.31-.48,1.31-1,0-1.26-2-.87-2-1.5C10.43,9.95,10.65,9.78,11,9.78Z"/><polygon points="7.3 9.3 7.3 12.69 9.39 12.69 9.39 12.17 7.9 12.17 7.9 9.3 7.3 9.3"/><polygon points="4.31 12.69 5.26 11.36 6.21 12.69 6.92 12.69 5.66 10.95 6.85 9.3 6.13 9.3 5.26 10.54 4.39 9.3 3.68 9.3 4.87 10.95 3.6 12.69 4.31 12.69"/><path d="M15.5,10a.5.5,0,0,0-.5.5v4a.5.5,0,0,1-.5.5H1.5a.5.5,0,0,1-.5-.5v-4a.5.5,0,1,0-1,0v4A1.5,1.5,0,0,0,1.5,16h13A1.5,1.5,0,0,0,16,14.5v-4A.5.5,0,0,0,15.5,10Z"/></svg>