<svg width="16" height="16" viewBox="0 0 16 16" fill="none" xmlns="http://www.w3.org/2000/svg">
<g id="loading_bluesteel">
<path id="icon/action/cached_24px" fill-rule="evenodd" clip-rule="evenodd" d="M8 3.55468C10.573 3.55468 12.664 5.64571 12.664 8.2187H11.2726C10.9228 8.2187 10.7518 8.63846 10.9928 8.87944L13.1615 11.0482C13.317 11.2037 13.558 11.2037 13.7134 11.0482L15.8822 8.87944C16.131 8.63846 15.9599 8.2187 15.6101 8.2187H14.2187C14.2187 4.78287 11.4358 2 8 2C7.19157 2 6.41423 2.15547 5.70685 2.44308C5.18604 2.65296 5.04612 3.32147 5.44256 3.71792C5.65244 3.9278 5.97115 4.0133 6.25099 3.8967C6.78735 3.67128 7.3859 3.55468 8 3.55468ZM4.99945 7.55021L2.83068 5.38144C2.68299 5.23375 2.43424 5.23375 2.28654 5.38922L0.117772 7.55799C-0.130976 7.79896 0.0400372 8.21873 0.389839 8.21873H1.78127C1.78127 11.6546 4.56414 14.4374 7.99998 14.4374C8.80841 14.4374 9.58575 14.282 10.2931 13.9943C10.8139 13.7845 10.9539 13.116 10.5574 12.7195C10.3475 12.5096 10.0288 12.4241 9.74899 12.5407C9.21263 12.7662 8.61408 12.8828 7.99998 12.8828C5.42699 12.8828 3.33595 10.7917 3.33595 8.21873H4.72739C5.07719 8.21873 5.2482 7.79896 4.99945 7.55021Z" fill="#000000"/>
</g>
</svg>
