<svg width="16" height="16" viewBox="0 0 16 16" fill="none" xmlns="http://www.w3.org/2000/svg">
<g clip-path="url(#clip0_1:2)">
<path fill-rule="evenodd" clip-rule="evenodd" d="M8.00001 3.55468C10.573 3.55468 12.664 5.64571 12.664 8.2187H11.2726C10.9228 8.2187 10.7518 8.63846 10.9928 8.87944L13.1615 11.0482C13.317 11.2037 13.558 11.2037 13.7134 11.0482L15.8822 8.87944C16.131 8.63846 15.9599 8.2187 15.6101 8.2187H14.2187C14.2187 4.78287 11.4358 2 8.00001 2C7.19158 2 6.41424 2.15547 5.70686 2.44308C5.18605 2.65296 5.04613 3.32147 5.44257 3.71792C5.65245 3.9278 5.97116 4.0133 6.251 3.8967C6.78736 3.67128 7.38591 3.55468 8.00001 3.55468ZM4.99946 7.55021L2.83069 5.38144C2.683 5.23375 2.43425 5.23375 2.28655 5.38922L0.117778 7.55799C-0.13097 7.79896 0.0400436 8.21873 0.389845 8.21873H1.78128C1.78128 11.6546 4.56415 14.4374 7.99999 14.4374C8.80842 14.4374 9.58576 14.282 10.2931 13.9943C10.8139 13.7845 10.9539 13.116 10.5574 12.7195C10.3475 12.5096 10.0288 12.4241 9.749 12.5407C9.21264 12.7662 8.61409 12.8828 7.99999 12.8828C5.427 12.8828 3.33596 10.7917 3.33596 8.21873H4.7274C5.0772 8.21873 5.24821 7.79896 4.99946 7.55021Z" fill="white"/>
</g>
<defs>
<clipPath id="clip0_1:2">
<rect width="16" height="16" fill="white"/>
</clipPath>
</defs>
</svg>
