<svg width="200" height="77" viewBox="0 0 200 77" fill="none" xmlns="http://www.w3.org/2000/svg">
<path d="M49.6221 24.2856C50.1671 24.6548 50.6197 25.1382 50.9801 25.7358C51.3404 26.3335 51.5206 27.0586 51.5206 27.9111C51.5206 28.7812 51.3316 29.5371 50.9537 30.1787C50.5758 30.8203 50.0836 31.3477 49.4771 31.7607C48.8883 32.165 48.2203 32.4727 47.4732 32.6836C46.7349 32.8945 45.9703 33 45.1793 33H36.3199V32.064C36.5308 32.0464 36.8385 32.0112 37.2428 31.9585C37.647 31.897 37.9371 31.8267 38.1129 31.7476C38.3853 31.6245 38.5787 31.4619 38.6929 31.2598C38.8072 31.0488 38.8643 30.7808 38.8643 30.4556V17.0083C38.8643 16.7095 38.8116 16.4458 38.7061 16.2173C38.6095 15.9888 38.4117 15.8042 38.1129 15.6636C37.8492 15.5317 37.5548 15.4307 37.2296 15.3604C36.9044 15.29 36.6319 15.2461 36.4122 15.2285V14.2925H45.0474C45.7154 14.2925 46.3526 14.3584 46.9591 14.4902C47.5743 14.6221 48.1588 14.855 48.7125 15.189C49.231 15.4966 49.6573 15.9141 49.9913 16.4414C50.3253 16.9688 50.4923 17.6104 50.4923 18.3662C50.4923 19.0254 50.3736 19.6143 50.1363 20.1328C49.899 20.6426 49.565 21.082 49.1344 21.4512C48.7301 21.8027 48.2642 22.1016 47.7369 22.3477C47.2183 22.585 46.6558 22.7695 46.0494 22.9014V23.02C46.5855 23.0815 47.1832 23.2178 47.8424 23.4287C48.5103 23.6309 49.1036 23.9165 49.6221 24.2856ZM46.4449 21.4644C46.7701 21.0864 46.9942 20.6733 47.1173 20.2251C47.2491 19.7769 47.315 19.2451 47.315 18.6299C47.315 17.6016 47.0338 16.7974 46.4713 16.2173C45.9088 15.6284 45.0211 15.334 43.8082 15.334C43.5269 15.334 43.171 15.3428 42.7403 15.3604C42.3184 15.3691 41.9625 15.3779 41.6724 15.3867V22.5718H43.3468C44.0675 22.5718 44.6827 22.4795 45.1925 22.2949C45.711 22.1104 46.1285 21.8335 46.4449 21.4644ZM48.2642 27.4365C48.2642 26.3291 47.8907 25.4194 47.1436 24.7075C46.4053 23.9956 45.3463 23.6396 43.9664 23.6396C43.4039 23.6396 42.9293 23.6484 42.5426 23.666C42.1558 23.6748 41.8658 23.6836 41.6724 23.6924V30.2842C41.6724 30.8379 41.8966 31.2554 42.3448 31.5366C42.793 31.8179 43.4171 31.9585 44.2169 31.9585C45.5264 31.9585 46.5284 31.5762 47.2227 30.8115C47.9171 30.0469 48.2642 28.9219 48.2642 27.4365ZM63.7038 21.6753C63.7038 22.1235 63.5939 22.5234 63.3742 22.875C63.1545 23.2178 62.8161 23.3892 62.3591 23.3892C61.8669 23.3892 61.489 23.2617 61.2253 23.0068C60.9704 22.752 60.843 22.4707 60.843 22.1631C60.843 21.9697 60.8561 21.7939 60.8825 21.6357C60.9177 21.4775 60.9484 21.3193 60.9748 21.1611C60.5617 21.1611 60.0783 21.3281 59.5246 21.6621C58.9709 21.9961 58.5007 22.4707 58.114 23.0859V30.6533C58.114 30.9609 58.1711 31.2114 58.2853 31.4048C58.4084 31.5981 58.5974 31.7432 58.8522 31.8398C59.072 31.9277 59.3532 31.9937 59.696 32.0376C60.0476 32.0815 60.3508 32.1123 60.6057 32.1299V33H53.7502V32.1299C53.9523 32.1123 54.1589 32.0947 54.3698 32.0771C54.5895 32.0596 54.7785 32.0244 54.9367 31.9717C55.1828 31.8926 55.363 31.7563 55.4772 31.563C55.6003 31.3608 55.6618 31.1016 55.6618 30.7852V22.7563C55.6618 22.4839 55.5959 22.2158 55.4641 21.9521C55.341 21.6885 55.1652 21.4775 54.9367 21.3193C54.7697 21.2139 54.572 21.1392 54.3435 21.0952C54.1149 21.0425 53.8688 21.0073 53.6052 20.9897V20.1328L57.9294 19.8428L58.114 20.0273V21.8599H58.1799C58.7248 21.1479 59.3312 20.6074 59.9992 20.2383C60.6672 19.8691 61.278 19.6846 61.8317 19.6846C62.3854 19.6846 62.8337 19.8647 63.1765 20.2251C63.528 20.5854 63.7038 21.0688 63.7038 21.6753ZM77.2054 32.7627C76.7923 32.9121 76.4276 33.0308 76.1112 33.1187C75.8035 33.2153 75.452 33.2637 75.0565 33.2637C74.3709 33.2637 73.8216 33.1055 73.4085 32.7891C73.0042 32.4639 72.7449 31.9937 72.6307 31.3784H72.5516C71.9803 32.0112 71.3651 32.4946 70.7059 32.8286C70.0555 33.1626 69.2689 33.3296 68.346 33.3296C67.3704 33.3296 66.5662 33.0308 65.9334 32.4331C65.3094 31.8354 64.9974 31.0532 64.9974 30.0864C64.9974 29.5854 65.0677 29.1372 65.2083 28.7417C65.3489 28.3462 65.5599 27.9902 65.8411 27.6738C66.0609 27.4102 66.3509 27.1772 66.7112 26.9751C67.0716 26.7642 67.41 26.5972 67.7264 26.4741C68.1219 26.3247 68.9217 26.0479 70.1258 25.6436C71.3387 25.2393 72.1561 24.9229 72.5779 24.6943V23.3892C72.5779 23.2749 72.5516 23.0552 72.4988 22.73C72.4549 22.4048 72.3538 22.0972 72.1956 21.8071C72.0198 21.4819 71.7694 21.2007 71.4442 20.9634C71.1278 20.7173 70.6751 20.5942 70.0862 20.5942C69.682 20.5942 69.304 20.6646 68.9525 20.8052C68.6097 20.937 68.368 21.0776 68.2274 21.2271C68.2274 21.4028 68.2669 21.6621 68.346 22.0049C68.4339 22.3477 68.4778 22.6641 68.4778 22.9541C68.4778 23.2617 68.3372 23.543 68.056 23.7979C67.7835 24.0527 67.4012 24.1802 66.909 24.1802C66.4695 24.1802 66.1444 24.0264 65.9334 23.7188C65.7313 23.4023 65.6302 23.0508 65.6302 22.6641C65.6302 22.2598 65.7708 21.873 66.0521 21.5039C66.3421 21.1348 66.7156 20.8052 67.1727 20.5151C67.5682 20.269 68.0472 20.0625 68.6097 19.8955C69.1722 19.7197 69.7215 19.6318 70.2576 19.6318C70.9959 19.6318 71.6375 19.6846 72.1824 19.79C72.7362 19.8867 73.2371 20.1021 73.6854 20.436C74.1336 20.7612 74.472 21.2051 74.7005 21.7676C74.9378 22.3213 75.0565 23.0376 75.0565 23.9165C75.0565 25.1733 75.0433 26.2896 75.0169 27.2651C74.9905 28.2319 74.9774 29.291 74.9774 30.4424C74.9774 30.7852 75.0345 31.0576 75.1487 31.2598C75.2718 31.4619 75.4564 31.6333 75.7025 31.7739C75.8343 31.853 76.0408 31.897 76.3221 31.9058C76.6121 31.9146 76.9066 31.9189 77.2054 31.9189V32.7627ZM72.6043 25.8018C71.8572 26.0215 71.2025 26.2368 70.64 26.4478C70.0775 26.6587 69.5545 26.9224 69.0711 27.2388C68.6317 27.5376 68.2845 27.8936 68.0296 28.3066C67.7747 28.7109 67.6473 29.1943 67.6473 29.7568C67.6473 30.4863 67.8362 31.0225 68.2142 31.3652C68.6009 31.708 69.0887 31.8794 69.6776 31.8794C70.3016 31.8794 70.8509 31.73 71.3255 31.4312C71.8001 31.1235 72.2 30.7632 72.5252 30.3501L72.6043 25.8018ZM92.9218 33H86.5541V32.1299C86.7563 32.1123 86.976 32.0947 87.2133 32.0771C87.4594 32.0596 87.6616 32.0244 87.8198 31.9717C88.0659 31.8926 88.246 31.7563 88.3603 31.563C88.4833 31.3608 88.5449 31.1016 88.5449 30.7852V24.1011C88.5449 23.1782 88.3251 22.4663 87.8857 21.9653C87.455 21.4644 86.9277 21.2139 86.3036 21.2139C85.8378 21.2139 85.4116 21.2886 85.0248 21.438C84.6381 21.5786 84.2953 21.7544 83.9965 21.9653C83.7065 22.1675 83.4736 22.3872 83.2978 22.6245C83.1308 22.853 83.0078 23.0376 82.9286 23.1782V30.6533C82.9286 30.9521 82.9902 31.1982 83.1132 31.3916C83.2363 31.585 83.4208 31.7344 83.6669 31.8398C83.8515 31.9277 84.0493 31.9937 84.2602 32.0376C84.4799 32.0815 84.704 32.1123 84.9326 32.1299V33H78.5649V32.1299C78.767 32.1123 78.9736 32.0947 79.1845 32.0771C79.4042 32.0596 79.5932 32.0244 79.7514 31.9717C79.9975 31.8926 80.1777 31.7563 80.2919 31.563C80.415 31.3608 80.4765 31.1016 80.4765 30.7852V22.7563C80.4765 22.4575 80.4106 22.1851 80.2787 21.939C80.1557 21.6841 79.9799 21.4775 79.7514 21.3193C79.5844 21.2139 79.3867 21.1392 79.1581 21.0952C78.9296 21.0425 78.6835 21.0073 78.4199 20.9897V20.1328L82.7441 19.8428L82.9286 20.0273V21.8599H82.9946C83.2055 21.6489 83.4692 21.3984 83.7856 21.1084C84.102 20.8096 84.4008 20.5679 84.6821 20.3833C85.0073 20.1724 85.394 19.9966 85.8422 19.856C86.2905 19.7153 86.7958 19.645 87.3583 19.645C88.6064 19.645 89.5292 20.0361 90.1269 20.8184C90.7333 21.5918 91.0366 22.6245 91.0366 23.9165V30.6797C91.0366 30.9873 91.0893 31.2378 91.1948 31.4312C91.3002 31.6157 91.4804 31.7607 91.7353 31.8662C91.9462 31.9541 92.1264 32.0156 92.2758 32.0508C92.434 32.0859 92.6494 32.1123 92.9218 32.1299V33ZM108.823 32.7627L104.288 33.0527L104.09 32.8682V31.6553L103.984 31.6289C103.527 32.1387 102.961 32.5562 102.284 32.8813C101.616 33.2065 100.926 33.3691 100.214 33.3691C99.4756 33.3691 98.7593 33.2065 98.065 32.8813C97.3795 32.5474 96.7818 32.0815 96.272 31.4839C95.7535 30.8774 95.3404 30.1479 95.0328 29.2954C94.7339 28.4429 94.5845 27.5024 94.5845 26.4741C94.5845 25.5337 94.7471 24.6416 95.0723 23.7979C95.3975 22.9541 95.8458 22.2158 96.417 21.583C96.9532 20.9941 97.608 20.5239 98.3814 20.1724C99.1636 19.8208 99.959 19.645 100.768 19.645C101.374 19.645 101.967 19.7241 102.547 19.8823C103.136 20.0317 103.642 20.2251 104.064 20.4624V15.9404C104.064 15.5713 104.002 15.2373 103.879 14.9385C103.756 14.6309 103.585 14.3979 103.365 14.2397C103.119 14.0728 102.785 13.9541 102.363 13.8838C101.95 13.8047 101.502 13.7476 101.018 13.7124V12.895L106.331 12.5918L106.529 12.7896V30.3237C106.529 30.6313 106.586 30.895 106.7 31.1147C106.823 31.3257 106.999 31.5059 107.228 31.6553C107.395 31.7607 107.636 31.8267 107.953 31.853C108.269 31.8794 108.559 31.897 108.823 31.9058V32.7627ZM104.064 30.4819V22.875C103.993 22.6465 103.879 22.4004 103.721 22.1367C103.563 21.873 103.365 21.6313 103.127 21.4116C102.873 21.1919 102.574 21.0117 102.231 20.8711C101.888 20.7217 101.488 20.647 101.031 20.647C100.504 20.647 100.016 20.7832 99.5679 21.0557C99.1285 21.3281 98.7374 21.7192 98.3946 22.229C98.0694 22.7212 97.8101 23.3496 97.6168 24.1143C97.4322 24.8701 97.3399 25.7095 97.3399 26.6323C97.3399 27.3706 97.4102 28.043 97.5508 28.6494C97.6915 29.2471 97.9288 29.8052 98.2628 30.3237C98.5704 30.8159 98.9615 31.2114 99.4361 31.5103C99.9195 31.8091 100.491 31.9585 101.15 31.9585C101.853 31.9585 102.433 31.8047 102.89 31.4971C103.356 31.1895 103.747 30.8511 104.064 30.4819ZM127.756 15.2285C127.528 15.2373 127.251 15.29 126.925 15.3867C126.6 15.4746 126.332 15.5845 126.121 15.7163C125.822 15.9009 125.581 16.1382 125.396 16.4282C125.22 16.7183 125.045 17.061 124.869 17.4565C124.28 18.854 123.397 21.0337 122.219 23.9956C121.041 26.9487 119.828 30.0293 118.58 33.2373H117.486C116.22 29.8359 114.999 26.5576 113.821 23.4023C112.643 20.2471 111.843 18.1157 111.422 17.0083C111.316 16.7358 111.175 16.4985 111 16.2964C110.824 16.0854 110.591 15.8877 110.301 15.7031C110.064 15.5537 109.8 15.4438 109.51 15.3735C109.22 15.2944 108.952 15.2461 108.706 15.2285V14.2925H116.445V15.2285C115.785 15.2637 115.227 15.3296 114.77 15.4263C114.322 15.5229 114.098 15.6943 114.098 15.9404C114.098 16.0371 114.115 16.1514 114.151 16.2832C114.186 16.415 114.216 16.5205 114.243 16.5996C114.568 17.4609 115.095 18.8672 115.825 20.8184C116.554 22.7607 117.591 25.5293 118.936 29.124C119.604 27.498 120.373 25.5776 121.243 23.3628C122.113 21.1479 122.698 19.6274 122.997 18.8013C123.287 18.0015 123.454 17.4478 123.498 17.1401C123.55 16.8325 123.577 16.582 123.577 16.3887C123.577 16.1865 123.485 16.0195 123.3 15.8877C123.124 15.7471 122.887 15.6284 122.588 15.5317C122.298 15.4438 122.004 15.3779 121.705 15.334C121.406 15.29 121.103 15.2549 120.795 15.2285V14.2925H127.756V15.2285ZM142.167 32.7627L137.935 33.0527L137.738 32.8682V31.2202H137.658C137.448 31.4399 137.21 31.6772 136.947 31.9321C136.683 32.1782 136.38 32.4023 136.037 32.6045C135.641 32.8418 135.259 33.022 134.89 33.145C134.521 33.2681 133.998 33.3296 133.321 33.3296C132.17 33.3296 131.291 32.9561 130.684 32.209C130.087 31.4531 129.788 30.3589 129.788 28.9263V22.7036C129.788 22.3872 129.726 22.1235 129.603 21.9126C129.489 21.6929 129.318 21.5039 129.089 21.3457C128.931 21.2402 128.733 21.1655 128.496 21.1216C128.259 21.0688 128.008 21.0337 127.744 21.0161V20.1592L132.082 19.8428L132.28 20.0273V29.0581C132.28 29.9985 132.491 30.7061 132.912 31.1807C133.334 31.6553 133.84 31.8926 134.429 31.8926C134.912 31.8926 135.343 31.8179 135.721 31.6685C136.098 31.519 136.415 31.3433 136.67 31.1411C136.907 30.9565 137.114 30.7632 137.289 30.561C137.474 30.3501 137.615 30.1567 137.711 29.981V22.6113C137.711 22.3213 137.65 22.0664 137.527 21.8467C137.404 21.6182 137.232 21.4248 137.012 21.2666C136.854 21.1611 136.617 21.0996 136.301 21.082C135.993 21.0557 135.646 21.0337 135.259 21.0161V20.1592L139.979 19.8428L140.177 20.0273V30.3501C140.177 30.6489 140.238 30.9038 140.361 31.1147C140.484 31.3257 140.656 31.5059 140.875 31.6553C141.033 31.752 141.222 31.8179 141.442 31.853C141.662 31.8794 141.904 31.897 142.167 31.9058V32.7627ZM155.379 29.9414C154.834 30.9785 154.104 31.8047 153.19 32.4199C152.276 33.0352 151.226 33.3428 150.039 33.3428C148.994 33.3428 148.075 33.1582 147.284 32.7891C146.502 32.4199 145.856 31.9189 145.346 31.2861C144.836 30.6533 144.454 29.915 144.199 29.0713C143.953 28.2275 143.83 27.3354 143.83 26.395C143.83 25.5513 143.962 24.7251 144.226 23.9165C144.498 23.0991 144.893 22.3652 145.412 21.7148C145.913 21.0908 146.533 20.5898 147.271 20.2119C148.018 19.8252 148.853 19.6318 149.776 19.6318C150.725 19.6318 151.538 19.7812 152.215 20.0801C152.892 20.3789 153.441 20.7876 153.863 21.3062C154.267 21.7983 154.566 22.3784 154.759 23.0464C154.961 23.7144 155.062 24.4395 155.062 25.2217V26.0918H146.454C146.454 26.9443 146.533 27.7178 146.691 28.4121C146.858 29.1064 147.117 29.7173 147.469 30.2446C147.811 30.7544 148.26 31.1587 148.813 31.4575C149.367 31.7476 150.026 31.8926 150.791 31.8926C151.573 31.8926 152.246 31.7124 152.808 31.3521C153.379 30.9829 153.929 30.3237 154.456 29.3745L155.379 29.9414ZM152.465 24.9844C152.465 24.4922 152.421 23.9648 152.333 23.4023C152.254 22.8398 152.122 22.3696 151.938 21.9917C151.736 21.5874 151.459 21.2578 151.107 21.0029C150.756 20.748 150.303 20.6206 149.749 20.6206C148.827 20.6206 148.058 21.0073 147.442 21.7808C146.836 22.5454 146.506 23.6133 146.454 24.9844H152.465Z" fill="white"/>
<path d="M27.4763 58.4893L27.1204 64H11.5901V63.064C11.8538 63.0464 12.2054 63.0112 12.6448 62.9585C13.0843 62.897 13.3699 62.8354 13.5017 62.7739C13.783 62.6421 13.9763 62.4707 14.0818 62.2598C14.1961 62.0488 14.2532 61.7808 14.2532 61.4556V48.0083C14.2532 47.7183 14.2049 47.4634 14.1082 47.2437C14.0115 47.0151 13.8094 46.8306 13.5017 46.6899C13.2644 46.5757 12.9436 46.4746 12.5393 46.3867C12.1438 46.2988 11.8274 46.2461 11.5901 46.2285V45.2925H26.0657V49.8013H25.0769C24.9012 49.1333 24.5188 48.4258 23.93 47.6787C23.3499 46.9229 22.7962 46.5098 22.2688 46.4395C21.9964 46.4043 21.6712 46.3779 21.2932 46.3604C20.9153 46.3428 20.4846 46.334 20.0013 46.334H17.0613V53.7695H19.1707C19.8474 53.7695 20.3396 53.708 20.6472 53.585C20.9637 53.4531 21.2405 53.2378 21.4778 52.939C21.6712 52.6841 21.8338 52.3457 21.9656 51.9238C22.1062 51.4932 22.1985 51.0889 22.2425 50.7109H23.2312V58.0278H22.2425C22.2073 57.606 22.1106 57.1621 21.9524 56.6963C21.803 56.2217 21.6448 55.8789 21.4778 55.668C21.2054 55.3252 20.8933 55.1011 20.5418 54.9956C20.199 54.8901 19.742 54.8374 19.1707 54.8374H17.0613V60.4536C17.0613 61.0161 17.1009 61.46 17.18 61.7852C17.2591 62.1104 17.4129 62.3564 17.6414 62.5234C17.8699 62.6904 18.1819 62.8003 18.5774 62.853C18.9729 62.897 19.5354 62.9189 20.2649 62.9189C20.555 62.9189 20.9373 62.9189 21.4119 62.9189C21.8865 62.9189 22.2864 62.9014 22.6116 62.8662C22.9456 62.8311 23.2884 62.7695 23.6399 62.6816C24.0003 62.585 24.2552 62.4575 24.4046 62.2993C24.8089 61.8774 25.2307 61.2402 25.6702 60.3877C26.1184 59.5264 26.4041 58.8936 26.5271 58.4893H27.4763ZM41.4262 63.7627C41.0131 63.9121 40.6483 64.0308 40.3319 64.1187C40.0243 64.2153 39.6728 64.2637 39.2772 64.2637C38.5917 64.2637 38.0424 64.1055 37.6293 63.7891C37.225 63.4639 36.9657 62.9937 36.8515 62.3784H36.7724C36.2011 63.0112 35.5858 63.4946 34.9267 63.8286C34.2763 64.1626 33.4896 64.3296 32.5668 64.3296C31.5912 64.3296 30.787 64.0308 30.1542 63.4331C29.5302 62.8354 29.2182 62.0532 29.2182 61.0864C29.2182 60.5854 29.2885 60.1372 29.4291 59.7417C29.5697 59.3462 29.7807 58.9902 30.0619 58.6738C30.2816 58.4102 30.5717 58.1772 30.932 57.9751C31.2924 57.7642 31.6308 57.5972 31.9472 57.4741C32.3427 57.3247 33.1425 57.0479 34.3466 56.6436C35.5595 56.2393 36.3769 55.9229 36.7987 55.6943V54.3892C36.7987 54.2749 36.7724 54.0552 36.7196 53.73C36.6757 53.4048 36.5746 53.0972 36.4164 52.8071C36.2406 52.4819 35.9901 52.2007 35.6649 51.9634C35.3485 51.7173 34.8959 51.5942 34.307 51.5942C33.9027 51.5942 33.5248 51.6646 33.1732 51.8052C32.8305 51.937 32.5888 52.0776 32.4481 52.2271C32.4481 52.4028 32.4877 52.6621 32.5668 53.0049C32.6547 53.3477 32.6986 53.6641 32.6986 53.9541C32.6986 54.2617 32.558 54.543 32.2768 54.7979C32.0043 55.0527 31.622 55.1802 31.1298 55.1802C30.6903 55.1802 30.3651 55.0264 30.1542 54.7188C29.9521 54.4023 29.851 54.0508 29.851 53.6641C29.851 53.2598 29.9916 52.873 30.2729 52.5039C30.5629 52.1348 30.9364 51.8052 31.3935 51.5151C31.789 51.269 32.268 51.0625 32.8305 50.8955C33.393 50.7197 33.9423 50.6318 34.4784 50.6318C35.2167 50.6318 35.8583 50.6846 36.4032 50.79C36.9569 50.8867 37.4579 51.1021 37.9062 51.436C38.3544 51.7612 38.6928 52.2051 38.9213 52.7676C39.1586 53.3213 39.2772 54.0376 39.2772 54.9165C39.2772 56.1733 39.2641 57.2896 39.2377 58.2651C39.2113 59.2319 39.1981 60.291 39.1981 61.4424C39.1981 61.7852 39.2553 62.0576 39.3695 62.2598C39.4926 62.4619 39.6771 62.6333 39.9232 62.7739C40.0551 62.853 40.2616 62.897 40.5429 62.9058C40.8329 62.9146 41.1273 62.9189 41.4262 62.9189V63.7627ZM36.8251 56.8018C36.078 57.0215 35.4232 57.2368 34.8607 57.4478C34.2982 57.6587 33.7753 57.9224 33.2919 58.2388C32.8524 58.5376 32.5053 58.8936 32.2504 59.3066C31.9955 59.7109 31.8681 60.1943 31.8681 60.7568C31.8681 61.4863 32.057 62.0225 32.435 62.3652C32.8217 62.708 33.3095 62.8794 33.8983 62.8794C34.5224 62.8794 35.0717 62.73 35.5463 62.4312C36.0209 62.1235 36.4208 61.7632 36.746 61.3501L36.8251 56.8018ZM50.8145 63.4331C50.2432 63.6704 49.7027 63.8682 49.1929 64.0264C48.6831 64.1934 48.0591 64.2769 47.3208 64.2769C46.231 64.2769 45.4619 64.0044 45.0137 63.4595C44.5742 62.9058 44.3545 62.1279 44.3545 61.126V52.3193H42.0078V51.0537H44.4072V47.0063H46.8067V51.0537H50.5376V52.3193H46.833V59.5835C46.833 60.1284 46.8506 60.5854 46.8858 60.9546C46.9297 61.3149 47.0264 61.6313 47.1758 61.9038C47.3164 62.1587 47.5274 62.3521 47.8086 62.4839C48.0899 62.6157 48.4678 62.6816 48.9424 62.6816C49.1621 62.6816 49.4829 62.6641 49.9048 62.6289C50.3355 62.585 50.6387 62.5322 50.8145 62.4707V63.4331ZM58.5021 64H52.2135V63.1299C52.4157 63.1123 52.6222 63.0947 52.8331 63.0771C53.0529 63.0596 53.2418 63.0244 53.4 62.9717C53.6461 62.8926 53.8263 62.7563 53.9406 62.563C54.0636 62.3608 54.1251 62.1016 54.1251 61.7852V53.7563C54.1251 53.4751 54.0592 53.2202 53.9274 52.9917C53.8043 52.7544 53.6286 52.5566 53.4 52.3984C53.233 52.293 52.9913 52.2051 52.6749 52.1348C52.3585 52.0557 52.0685 52.0073 51.8048 51.9897V51.1328L56.3927 50.8428L56.5773 51.0273V61.627C56.5773 61.9346 56.6344 62.1895 56.7487 62.3916C56.8717 62.5938 57.0607 62.7432 57.3156 62.8398C57.5089 62.9189 57.6979 62.9849 57.8825 63.0376C58.067 63.0815 58.2736 63.1123 58.5021 63.1299V64ZM56.841 45.7144C56.841 46.2153 56.674 46.6548 56.34 47.0327C56.0148 47.4019 55.6105 47.5864 55.1271 47.5864C54.6788 47.5864 54.2877 47.4106 53.9538 47.0591C53.6286 46.6987 53.466 46.29 53.466 45.833C53.466 45.3496 53.6286 44.9277 53.9538 44.5674C54.2877 44.207 54.6788 44.0269 55.1271 44.0269C55.6281 44.0269 56.0368 44.1982 56.3532 44.541C56.6784 44.875 56.841 45.2661 56.841 45.7144ZM74.5217 64H68.1541V63.1299C68.3562 63.1123 68.5759 63.0947 68.8132 63.0771C69.0593 63.0596 69.2615 63.0244 69.4197 62.9717C69.6658 62.8926 69.846 62.7563 69.9602 62.563C70.0833 62.3608 70.1448 62.1016 70.1448 61.7852V55.1011C70.1448 54.1782 69.9251 53.4663 69.4856 52.9653C69.0549 52.4644 68.5276 52.2139 67.9036 52.2139C67.4378 52.2139 67.0115 52.2886 66.6248 52.438C66.238 52.5786 65.8953 52.7544 65.5964 52.9653C65.3064 53.1675 65.0735 53.3872 64.8977 53.6245C64.7307 53.853 64.6077 54.0376 64.5286 54.1782V61.6533C64.5286 61.9521 64.5901 62.1982 64.7131 62.3916C64.8362 62.585 65.0208 62.7344 65.2669 62.8398C65.4514 62.9277 65.6492 62.9937 65.8601 63.0376C66.0798 63.0815 66.304 63.1123 66.5325 63.1299V64H60.1648V63.1299C60.367 63.1123 60.5735 63.0947 60.7844 63.0771C61.0042 63.0596 61.1931 63.0244 61.3513 62.9717C61.5974 62.8926 61.7776 62.7563 61.8919 62.563C62.0149 62.3608 62.0764 62.1016 62.0764 61.7852V53.7563C62.0764 53.4575 62.0105 53.1851 61.8787 52.939C61.7556 52.6841 61.5798 52.4775 61.3513 52.3193C61.1843 52.2139 60.9866 52.1392 60.7581 52.0952C60.5296 52.0425 60.2835 52.0073 60.0198 51.9897V51.1328L64.344 50.8428L64.5286 51.0273V52.8599H64.5945C64.8054 52.6489 65.0691 52.3984 65.3855 52.1084C65.7019 51.8096 66.0007 51.5679 66.282 51.3833C66.6072 51.1724 66.9939 50.9966 67.4422 50.856C67.8904 50.7153 68.3958 50.645 68.9583 50.645C70.2063 50.645 71.1292 51.0361 71.7268 51.8184C72.3333 52.5918 72.6365 53.6245 72.6365 54.9165V61.6797C72.6365 61.9873 72.6892 62.2378 72.7947 62.4312C72.9002 62.6157 73.0803 62.7607 73.3352 62.8662C73.5462 62.9541 73.7263 63.0156 73.8757 63.0508C74.0339 63.0859 74.2493 63.1123 74.5217 63.1299V64ZM87.3246 62.6553C87.6762 62.9893 87.953 63.3672 88.1552 63.7891C88.3573 64.2109 88.4584 64.7339 88.4584 65.3579C88.4584 65.9819 88.3222 66.5664 88.0497 67.1113C87.7772 67.665 87.3641 68.144 86.8104 68.5483C86.2216 68.9614 85.5184 69.2822 84.7011 69.5107C83.8837 69.7393 82.8729 69.8535 81.6688 69.8535C79.7001 69.8535 78.2279 69.5635 77.2523 68.9834C76.2767 68.4121 75.7889 67.5728 75.7889 66.4653C75.7889 65.5688 76.1405 64.8613 76.8436 64.3428C77.5468 63.8242 78.4432 63.543 79.5331 63.499V63.3145C79.2694 63.2354 78.997 63.1387 78.7157 63.0244C78.4345 62.9014 78.1928 62.7607 77.9906 62.6025C77.7621 62.418 77.5775 62.2026 77.4369 61.9565C77.2963 61.7017 77.226 61.3896 77.226 61.0205C77.226 60.5547 77.3886 60.1284 77.7138 59.7417C78.0477 59.3462 78.5487 59.0078 79.2167 58.7266V58.5288C78.3729 58.1333 77.7181 57.6279 77.2523 57.0127C76.7865 56.3887 76.5536 55.668 76.5536 54.8506C76.5536 53.6201 77.0106 52.6094 77.9247 51.8184C78.8475 51.0273 80.0253 50.6318 81.4579 50.6318C81.8534 50.6318 82.2445 50.6714 82.6312 50.7505C83.0267 50.8296 83.4266 50.9307 83.8309 51.0537H88.3661V52.3193H85.3075V52.3984C85.6327 52.7764 85.8744 53.1938 86.0326 53.6509C86.1908 54.1079 86.2699 54.5562 86.2699 54.9956C86.2699 56.1382 85.8041 57.105 84.8724 57.896C83.9496 58.687 82.8729 59.0825 81.6425 59.0825H80.0472C79.8451 59.1528 79.6342 59.2803 79.4144 59.4648C79.1947 59.6494 79.0848 59.8999 79.0848 60.2163C79.0848 60.5415 79.1771 60.792 79.3617 60.9678C79.5463 61.1348 79.7704 61.249 80.0341 61.3105C80.2889 61.3809 80.5834 61.4248 80.9174 61.4424C81.2601 61.46 81.6117 61.4731 81.9721 61.4819C82.3588 61.4907 82.8861 61.5171 83.5541 61.561C84.2308 61.605 84.7098 61.6313 84.9911 61.6401C85.3954 61.6577 85.7997 61.7544 86.204 61.9302C86.6171 62.106 86.9906 62.3477 87.3246 62.6553ZM83.765 54.9429C83.765 53.9146 83.5541 53.0972 83.1322 52.4907C82.7191 51.8755 82.1347 51.5679 81.3788 51.5679C80.9657 51.5679 80.6097 51.6558 80.3109 51.8315C80.0209 51.9985 79.7836 52.2402 79.599 52.5566C79.4232 52.8467 79.2958 53.1982 79.2167 53.6113C79.1464 54.0156 79.1112 54.4331 79.1112 54.8638C79.1112 55.8394 79.3222 56.6348 79.744 57.25C80.1747 57.8652 80.7284 58.1729 81.4052 58.1729C82.161 58.1729 82.7411 57.8696 83.1454 57.2632C83.5585 56.6479 83.765 55.8745 83.765 54.9429ZM86.2963 65.8457C86.2963 65.3535 86.182 64.9492 85.9535 64.6328C85.725 64.3164 85.3778 64.1011 84.912 63.9868C84.6659 63.9517 84.1605 63.9121 83.3959 63.8682C82.6312 63.8242 81.7435 63.8022 80.7328 63.8022C79.7836 63.9868 79.1068 64.2944 78.7025 64.7251C78.307 65.1646 78.1093 65.7271 78.1093 66.4126C78.1093 66.7202 78.1752 67.0146 78.307 67.2959C78.4389 67.5771 78.6674 67.8364 78.9926 68.0737C79.3002 68.3022 79.7133 68.4868 80.2318 68.6274C80.7504 68.7769 81.3832 68.8516 82.1303 68.8516C83.4222 68.8516 84.4374 68.6011 85.1757 68.1001C85.9227 67.6079 86.2963 66.8564 86.2963 65.8457ZM112.047 47.5073C112.873 48.3687 113.519 49.4102 113.985 50.6318C114.451 51.8447 114.684 53.1895 114.684 54.666C114.684 56.1514 114.446 57.5005 113.972 58.7134C113.497 59.9263 112.838 60.959 111.994 61.8115C111.177 62.6553 110.228 63.3057 109.147 63.7627C108.066 64.2197 106.914 64.4482 105.693 64.4482C104.392 64.4482 103.188 64.2065 102.08 63.7231C100.982 63.231 100.037 62.5498 99.2457 61.6797C98.4547 60.8271 97.8307 59.7944 97.3737 58.5815C96.9254 57.3599 96.7013 56.0547 96.7013 54.666C96.7013 53.1455 96.9386 51.792 97.4132 50.6055C97.8878 49.4102 98.5426 48.3774 99.3776 47.5073C100.204 46.646 101.162 45.9868 102.252 45.5298C103.35 45.0728 104.497 44.8442 105.693 44.8442C106.932 44.8442 108.101 45.0771 109.199 45.543C110.298 46.0088 111.247 46.6636 112.047 47.5073ZM110.083 60.77C110.575 59.9702 110.931 59.0649 111.151 58.0542C111.379 57.0435 111.493 55.9141 111.493 54.666C111.493 53.3828 111.366 52.2051 111.111 51.1328C110.865 50.0605 110.5 49.1465 110.017 48.3906C109.533 47.6436 108.927 47.0635 108.197 46.6504C107.468 46.2285 106.633 46.0176 105.693 46.0176C104.638 46.0176 103.741 46.2593 103.003 46.7427C102.265 47.2261 101.663 47.8721 101.197 48.6807C100.757 49.4541 100.428 50.3594 100.208 51.3965C99.9972 52.4336 99.8917 53.5234 99.8917 54.666C99.8917 55.9316 100.006 57.0742 100.234 58.0938C100.463 59.1133 100.823 60.0186 101.316 60.8096C101.79 61.583 102.388 62.1895 103.109 62.6289C103.829 63.0596 104.691 63.2749 105.693 63.2749C106.633 63.2749 107.481 63.0552 108.237 62.6157C108.993 62.1763 109.608 61.561 110.083 60.77ZM130.69 63.7627L126.458 64.0527L126.26 63.8682V62.2202H126.181C125.97 62.4399 125.733 62.6772 125.469 62.9321C125.206 63.1782 124.903 63.4023 124.56 63.6045C124.164 63.8418 123.782 64.022 123.413 64.145C123.044 64.2681 122.521 64.3296 121.844 64.3296C120.693 64.3296 119.814 63.9561 119.207 63.209C118.61 62.4531 118.311 61.3589 118.311 59.9263V53.7036C118.311 53.3872 118.249 53.1235 118.126 52.9126C118.012 52.6929 117.841 52.5039 117.612 52.3457C117.454 52.2402 117.256 52.1655 117.019 52.1216C116.781 52.0688 116.531 52.0337 116.267 52.0161V51.1592L120.605 50.8428L120.802 51.0273V60.0581C120.802 60.9985 121.013 61.7061 121.435 62.1807C121.857 62.6553 122.363 62.8926 122.951 62.8926C123.435 62.8926 123.865 62.8179 124.243 62.6685C124.621 62.519 124.938 62.3433 125.193 62.1411C125.43 61.9565 125.636 61.7632 125.812 61.561C125.997 61.3501 126.137 61.1567 126.234 60.981V53.6113C126.234 53.3213 126.173 53.0664 126.05 52.8467C125.927 52.6182 125.755 52.4248 125.535 52.2666C125.377 52.1611 125.14 52.0996 124.823 52.082C124.516 52.0557 124.169 52.0337 123.782 52.0161V51.1592L128.502 50.8428L128.699 51.0273V61.3501C128.699 61.6489 128.761 61.9038 128.884 62.1147C129.007 62.3257 129.178 62.5059 129.398 62.6553C129.556 62.752 129.745 62.8179 129.965 62.853C130.185 62.8794 130.427 62.897 130.69 62.9058V63.7627ZM140.382 63.4331C139.81 63.6704 139.27 63.8682 138.76 64.0264C138.25 64.1934 137.626 64.2769 136.888 64.2769C135.798 64.2769 135.029 64.0044 134.581 63.4595C134.141 62.9058 133.922 62.1279 133.922 61.126V52.3193H131.575V51.0537H133.974V47.0063H136.374V51.0537H140.105V52.3193H136.4V59.5835C136.4 60.1284 136.418 60.5854 136.453 60.9546C136.497 61.3149 136.594 61.6313 136.743 61.9038C136.884 62.1587 137.095 62.3521 137.376 62.4839C137.657 62.6157 138.035 62.6816 138.51 62.6816C138.729 62.6816 139.05 62.6641 139.472 62.6289C139.903 62.585 140.206 62.5322 140.382 62.4707V63.4331ZM165.935 46.2285C165.706 46.2373 165.429 46.29 165.104 46.3867C164.779 46.4746 164.511 46.5845 164.3 46.7163C164.001 46.9009 163.759 47.1382 163.575 47.4282C163.399 47.7183 163.223 48.061 163.047 48.4565C162.459 49.854 161.575 52.0337 160.398 54.9956C159.22 57.9487 158.007 61.0293 156.759 64.2373H155.665C154.399 60.8359 153.177 57.5576 152 54.4023C150.822 51.2471 150.022 49.1157 149.6 48.0083C149.495 47.7358 149.354 47.4985 149.178 47.2964C149.003 47.0854 148.77 46.8877 148.48 46.7031C148.242 46.5537 147.979 46.4438 147.689 46.3735C147.399 46.2944 147.13 46.2461 146.884 46.2285V45.2925H154.623V46.2285C153.964 46.2637 153.406 46.3296 152.949 46.4263C152.501 46.5229 152.276 46.6943 152.276 46.9404C152.276 47.0371 152.294 47.1514 152.329 47.2832C152.364 47.415 152.395 47.5205 152.421 47.5996C152.747 48.4609 153.274 49.8672 154.004 51.8184C154.733 53.7607 155.77 56.5293 157.115 60.124C157.783 58.498 158.552 56.5776 159.422 54.3628C160.292 52.1479 160.877 50.6274 161.175 49.8013C161.465 49.0015 161.632 48.4478 161.676 48.1401C161.729 47.8325 161.755 47.582 161.755 47.3887C161.755 47.1865 161.663 47.0195 161.479 46.8877C161.303 46.7471 161.066 46.6284 160.767 46.5317C160.477 46.4438 160.182 46.3779 159.883 46.334C159.585 46.29 159.281 46.2549 158.974 46.2285V45.2925H165.935V46.2285ZM179.265 64H166.912V62.207C167.149 61.9346 167.479 61.6313 167.901 61.2974C168.322 60.9546 168.823 60.5854 169.404 60.1899C169.755 59.9526 170.177 59.6934 170.669 59.4121C171.161 59.1309 171.719 58.8232 172.343 58.4893C173.038 58.1201 173.57 57.7949 173.939 57.5137C174.317 57.2324 174.659 56.8853 174.967 56.4722C175.169 56.1997 175.332 55.8613 175.455 55.457C175.578 55.0439 175.639 54.4595 175.639 53.7036C175.639 52.605 175.345 51.8008 174.756 51.291C174.167 50.7725 173.411 50.5132 172.488 50.5132C171.917 50.5132 171.377 50.6274 170.867 50.856C170.357 51.0757 169.975 51.3833 169.72 51.7788C169.781 52.0601 169.856 52.394 169.944 52.7808C170.041 53.1675 170.089 53.5454 170.089 53.9146C170.089 54.2485 169.948 54.5474 169.667 54.811C169.395 55.0659 168.986 55.1934 168.441 55.1934C168.002 55.1934 167.663 55.0439 167.426 54.7451C167.189 54.4375 167.07 54.0288 167.07 53.519C167.07 53.0444 167.202 52.5698 167.466 52.0952C167.729 51.6118 168.107 51.168 168.599 50.7637C169.083 50.3682 169.68 50.0474 170.392 49.8013C171.104 49.5552 171.873 49.4321 172.699 49.4321C174.501 49.4321 175.929 49.8364 176.984 50.645C178.048 51.4448 178.579 52.5171 178.579 53.8618C178.579 54.5034 178.483 55.0879 178.289 55.6152C178.105 56.1426 177.801 56.6084 177.38 57.0127C176.914 57.4609 176.369 57.8477 175.745 58.1729C175.121 58.4893 174.167 58.9331 172.884 59.5044C172.119 59.8472 171.407 60.2075 170.748 60.5854C170.089 60.9546 169.549 61.3149 169.127 61.6665H179.265V64Z" fill="#F5AEB3"/>
<path fill-rule="evenodd" clip-rule="evenodd" d="M5.33335 5.33334H26.6667C28.1467 5.33334 29.3334 6.52001 29.3334 8.00001V24C29.3334 25.48 28.1467 26.6667 26.6667 26.6667H5.33335C3.85335 26.6667 2.66669 25.48 2.66669 24L2.68002 8.00001C2.68002 6.52001 3.85335 5.33334 5.33335 5.33334ZM10.28 20C10.8534 20 11.3334 19.52 11.3334 18.9467V12.8267C11.3334 12.3733 10.9734 12 10.5067 12C10.04 12 9.66669 12.3733 9.66669 12.8267V16.6667L6.65335 12.44C6.45335 12.16 6.13335 12 5.78669 12H5.72002C5.14669 12 4.66669 12.48 4.66669 13.0533V19.1733C4.66669 19.6267 5.05335 20 5.50669 20C5.96002 20 6.33335 19.64 6.33335 19.1733V15.3333L9.42669 19.56C9.62669 19.84 9.94669 20 10.28 20ZM18 12.8533C18 13.32 17.6267 13.68 17.1734 13.68H14.6667V15.1733H17.1734C17.64 15.1733 18 15.5467 18 16V16.0133C18 16.48 17.6267 16.84 17.1734 16.84H14.6667V18.32H17.1734C17.64 18.32 18 18.6933 18 19.1467C18 19.6133 17.6267 19.9733 17.1734 19.9733H13.8C13.1734 19.9733 12.6667 19.4667 12.6667 18.84V13.1067C12.6667 12.5067 13.1734 12 13.8 12H17.1734C17.64 12 18 12.3733 18 12.8267V12.8533ZM26 20C26.7334 20 27.3334 19.4 27.3334 18.6667H27.2934V12.8267C27.2934 12.3733 26.92 12 26.4667 12C26.0134 12 25.64 12.36 25.64 12.8267V18H24.1467V14.1467C24.1467 13.6933 23.7734 13.32 23.32 13.32C22.8667 13.32 22.4934 13.68 22.4934 14.1467V18.0133H20.9867V12.8267C20.9867 12.3733 20.6134 12 20.16 12C19.7067 12 19.3334 12.3733 19.3334 12.8267V18.6667C19.3334 19.4 19.9334 20 20.6667 20H26Z" fill="#F6AA57"/>
</svg>
