<svg width="200" height="77" viewBox="0 0 200 77" fill="none" xmlns="http://www.w3.org/2000/svg">
<path d="M40.6263 20.6719C41.2721 21.1094 41.8085 21.6823 42.2356 22.3906C42.6627 23.099 42.8763 23.9583 42.8763 24.9688C42.8763 26 42.6523 26.8958 42.2044 27.6562C41.7565 28.4167 41.1731 29.0417 40.4544 29.5312C39.7565 30.0104 38.9648 30.375 38.0794 30.625C37.2044 30.875 36.2981 31 35.3606 31H24.8606V29.8906C25.1106 29.8698 25.4752 29.8281 25.9544 29.7656C26.4335 29.6927 26.7773 29.6094 26.9856 29.5156C27.3085 29.3698 27.5377 29.1771 27.6731 28.9375C27.8085 28.6875 27.8763 28.3698 27.8763 27.9844V12.0469C27.8763 11.6927 27.8138 11.3802 27.6888 11.1094C27.5742 10.8385 27.3398 10.6198 26.9856 10.4531C26.6731 10.2969 26.3242 10.1771 25.9388 10.0938C25.5533 10.0104 25.2304 9.95833 24.97 9.9375V8.82812H35.2044C35.996 8.82812 36.7513 8.90625 37.47 9.0625C38.1992 9.21875 38.8919 9.49479 39.5481 9.89062C40.1627 10.2552 40.6679 10.75 41.0638 11.375C41.4596 12 41.6575 12.7604 41.6575 13.6562C41.6575 14.4375 41.5169 15.1354 41.2356 15.75C40.9544 16.3542 40.5585 16.875 40.0481 17.3125C39.569 17.7292 39.0169 18.0833 38.3919 18.375C37.7773 18.6562 37.1106 18.875 36.3919 19.0312V19.1719C37.0273 19.2448 37.7356 19.4062 38.5169 19.6562C39.3085 19.8958 40.0117 20.2344 40.6263 20.6719ZM36.8606 17.3281C37.246 16.8802 37.5117 16.3906 37.6575 15.8594C37.8138 15.3281 37.8919 14.6979 37.8919 13.9688C37.8919 12.75 37.5585 11.7969 36.8919 11.1094C36.2252 10.4115 35.1731 10.0625 33.7356 10.0625C33.4023 10.0625 32.9804 10.0729 32.47 10.0938C31.97 10.1042 31.5481 10.1146 31.2044 10.125V18.6406H33.1888C34.0429 18.6406 34.7721 18.5312 35.3763 18.3125C35.9908 18.0938 36.4856 17.7656 36.8606 17.3281ZM39.0169 24.4062C39.0169 23.0938 38.5742 22.0156 37.6888 21.1719C36.8138 20.3281 35.5585 19.9062 33.9231 19.9062C33.2565 19.9062 32.694 19.9167 32.2356 19.9375C31.7773 19.9479 31.4335 19.9583 31.2044 19.9688V27.7812C31.2044 28.4375 31.47 28.9323 32.0013 29.2656C32.5325 29.599 33.2721 29.7656 34.22 29.7656C35.7721 29.7656 36.9596 29.3125 37.7825 28.4062C38.6054 27.5 39.0169 26.1667 39.0169 24.4062ZM57.3156 17.5781C57.3156 18.1094 57.1854 18.5833 56.925 19C56.6646 19.4062 56.2635 19.6094 55.7219 19.6094C55.1385 19.6094 54.6906 19.4583 54.3781 19.1562C54.076 18.8542 53.925 18.5208 53.925 18.1562C53.925 17.9271 53.9406 17.7188 53.9719 17.5312C54.0135 17.3438 54.05 17.1562 54.0813 16.9688C53.5917 16.9688 53.0188 17.1667 52.3625 17.5625C51.7063 17.9583 51.149 18.5208 50.6906 19.25V28.2188C50.6906 28.5833 50.7583 28.8802 50.8938 29.1094C51.0396 29.3385 51.2635 29.5104 51.5656 29.625C51.826 29.7292 52.1594 29.8073 52.5656 29.8594C52.9823 29.9115 53.3417 29.9479 53.6438 29.9688V31H45.5188V29.9688C45.7583 29.9479 46.0031 29.9271 46.2531 29.9062C46.5135 29.8854 46.7375 29.8438 46.925 29.7812C47.2167 29.6875 47.4302 29.526 47.5656 29.2969C47.7115 29.0573 47.7844 28.75 47.7844 28.375V18.8594C47.7844 18.5365 47.7063 18.2188 47.55 17.9062C47.4042 17.5938 47.1958 17.3438 46.925 17.1562C46.7271 17.0312 46.4927 16.9427 46.2219 16.8906C45.951 16.8281 45.6594 16.7865 45.3469 16.7656V15.75L50.4719 15.4062L50.6906 15.625V17.7969H50.7688C51.4146 16.9531 52.1333 16.3125 52.925 15.875C53.7167 15.4375 54.4406 15.2188 55.0969 15.2188C55.7531 15.2188 56.2844 15.4323 56.6906 15.8594C57.1073 16.2865 57.3156 16.8594 57.3156 17.5781ZM73.3175 30.7188C72.8279 30.8958 72.3956 31.0365 72.0206 31.1406C71.656 31.2552 71.2394 31.3125 70.7706 31.3125C69.9581 31.3125 69.3071 31.125 68.8175 30.75C68.3383 30.3646 68.031 29.8073 67.8956 29.0781H67.8019C67.1248 29.8281 66.3956 30.401 65.6144 30.7969C64.8435 31.1927 63.9113 31.3906 62.8175 31.3906C61.6613 31.3906 60.7081 31.0365 59.9581 30.3281C59.2185 29.6198 58.8488 28.6927 58.8488 27.5469C58.8488 26.9531 58.9321 26.4219 59.0988 25.9531C59.2654 25.4844 59.5154 25.0625 59.8488 24.6875C60.1092 24.375 60.4529 24.099 60.88 23.8594C61.3071 23.6094 61.7081 23.4115 62.0831 23.2656C62.5519 23.0885 63.4998 22.7604 64.9269 22.2812C66.3644 21.8021 67.3331 21.4271 67.8331 21.1562V19.6094C67.8331 19.474 67.8019 19.2135 67.7394 18.8281C67.6873 18.4427 67.5675 18.0781 67.38 17.7344C67.1717 17.349 66.8748 17.0156 66.4894 16.7344C66.1144 16.4427 65.5779 16.2969 64.88 16.2969C64.4008 16.2969 63.9529 16.3802 63.5363 16.5469C63.13 16.7031 62.8435 16.8698 62.6769 17.0469C62.6769 17.2552 62.7238 17.5625 62.8175 17.9688C62.9217 18.375 62.9738 18.75 62.9738 19.0938C62.9738 19.4583 62.8071 19.7917 62.4738 20.0938C62.1508 20.3958 61.6977 20.5469 61.1144 20.5469C60.5935 20.5469 60.2081 20.3646 59.9581 20C59.7185 19.625 59.5988 19.2083 59.5988 18.75C59.5988 18.2708 59.7654 17.8125 60.0988 17.375C60.4425 16.9375 60.8852 16.5469 61.4269 16.2031C61.8956 15.9115 62.4633 15.6667 63.13 15.4688C63.7967 15.2604 64.4477 15.1562 65.0831 15.1562C65.9581 15.1562 66.7185 15.2188 67.3644 15.3438C68.0206 15.4583 68.6144 15.7135 69.1456 16.1094C69.6769 16.4948 70.0779 17.0208 70.3488 17.6875C70.63 18.3438 70.7706 19.1927 70.7706 20.2344C70.7706 21.724 70.755 23.0469 70.7238 24.2031C70.6925 25.349 70.6769 26.6042 70.6769 27.9688C70.6769 28.375 70.7446 28.6979 70.88 28.9375C71.0258 29.1771 71.2446 29.3802 71.5363 29.5469C71.6925 29.6406 71.9373 29.6927 72.2706 29.7031C72.6144 29.7135 72.9633 29.7188 73.3175 29.7188V30.7188ZM67.8644 22.4688C66.979 22.7292 66.2029 22.9844 65.5363 23.2344C64.8696 23.4844 64.2498 23.7969 63.6769 24.1719C63.156 24.526 62.7446 24.9479 62.4425 25.4375C62.1404 25.9167 61.9894 26.4896 61.9894 27.1562C61.9894 28.0208 62.2133 28.6562 62.6613 29.0625C63.1196 29.4688 63.6977 29.6719 64.3956 29.6719C65.1352 29.6719 65.7863 29.4948 66.3488 29.1406C66.9113 28.776 67.3852 28.349 67.7706 27.8594L67.8644 22.4688ZM91.9444 31H84.3975V29.9688C84.6371 29.9479 84.8975 29.9271 85.1788 29.9062C85.4704 29.8854 85.71 29.8438 85.8975 29.7812C86.1892 29.6875 86.4027 29.526 86.5381 29.2969C86.684 29.0573 86.7569 28.75 86.7569 28.375V20.4531C86.7569 19.3594 86.4965 18.5156 85.9756 17.9219C85.4652 17.3281 84.8402 17.0312 84.1006 17.0312C83.5485 17.0312 83.0433 17.1198 82.585 17.2969C82.1267 17.4635 81.7204 17.6719 81.3663 17.9219C81.0225 18.1615 80.7465 18.4219 80.5381 18.7031C80.3402 18.974 80.1944 19.1927 80.1006 19.3594V28.2188C80.1006 28.5729 80.1735 28.8646 80.3194 29.0938C80.4652 29.3229 80.684 29.5 80.9756 29.625C81.1944 29.7292 81.4288 29.8073 81.6788 29.8594C81.9392 29.9115 82.2048 29.9479 82.4756 29.9688V31H74.9288V29.9688C75.1683 29.9479 75.4131 29.9271 75.6631 29.9062C75.9235 29.8854 76.1475 29.8438 76.335 29.7812C76.6267 29.6875 76.8402 29.526 76.9756 29.2969C77.1215 29.0573 77.1944 28.75 77.1944 28.375V18.8594C77.1944 18.5052 77.1163 18.1823 76.96 17.8906C76.8142 17.5885 76.6058 17.3438 76.335 17.1562C76.1371 17.0312 75.9027 16.9427 75.6319 16.8906C75.361 16.8281 75.0694 16.7865 74.7569 16.7656V15.75L79.8819 15.4062L80.1006 15.625V17.7969H80.1788C80.4288 17.5469 80.7413 17.25 81.1163 16.9062C81.4913 16.5521 81.8454 16.2656 82.1788 16.0469C82.5642 15.7969 83.0225 15.5885 83.5538 15.4219C84.085 15.2552 84.684 15.1719 85.3506 15.1719C86.8298 15.1719 87.9235 15.6354 88.6319 16.5625C89.3506 17.4792 89.71 18.7031 89.71 20.2344V28.25C89.71 28.6146 89.7725 28.9115 89.8975 29.1406C90.0225 29.3594 90.236 29.5312 90.5381 29.6562C90.7881 29.7604 91.0017 29.8333 91.1788 29.875C91.3663 29.9167 91.6215 29.9479 91.9444 29.9688V31ZM110.79 30.7188L105.415 31.0625L105.181 30.8438V29.4062L105.056 29.375C104.514 29.9792 103.842 30.474 103.04 30.8594C102.248 31.2448 101.431 31.4375 100.587 31.4375C99.7119 31.4375 98.8629 31.2448 98.04 30.8594C97.2275 30.4635 96.5192 29.9115 95.915 29.2031C95.3004 28.4844 94.8108 27.6198 94.4463 26.6094C94.0921 25.599 93.915 24.4844 93.915 23.2656C93.915 22.151 94.1077 21.0938 94.4931 20.0938C94.8785 19.0938 95.4098 18.2188 96.0869 17.4688C96.7223 16.7708 97.4983 16.2135 98.415 15.7969C99.3421 15.3802 100.285 15.1719 101.243 15.1719C101.962 15.1719 102.665 15.2656 103.353 15.4531C104.05 15.6302 104.649 15.8594 105.149 16.1406V10.7812C105.149 10.3438 105.076 9.94792 104.931 9.59375C104.785 9.22917 104.582 8.95312 104.321 8.76562C104.03 8.56771 103.634 8.42708 103.134 8.34375C102.644 8.25 102.113 8.18229 101.54 8.14062V7.17188L107.837 6.8125L108.071 7.04688V27.8281C108.071 28.1927 108.139 28.5052 108.274 28.7656C108.42 29.0156 108.629 29.2292 108.899 29.4062C109.097 29.5312 109.384 29.6094 109.759 29.6406C110.134 29.6719 110.478 29.6927 110.79 29.7031V30.7188ZM105.149 28.0156V19C105.066 18.7292 104.931 18.4375 104.743 18.125C104.556 17.8125 104.321 17.526 104.04 17.2656C103.738 17.0052 103.384 16.7917 102.978 16.625C102.571 16.4479 102.097 16.3594 101.556 16.3594C100.931 16.3594 100.353 16.5208 99.8213 16.8438C99.3004 17.1667 98.8369 17.6302 98.4306 18.2344C98.0452 18.8177 97.7379 19.5625 97.5088 20.4688C97.29 21.3646 97.1806 22.3594 97.1806 23.4531C97.1806 24.3281 97.264 25.125 97.4306 25.8438C97.5973 26.5521 97.8785 27.2135 98.2744 27.8281C98.639 28.4115 99.1025 28.8802 99.665 29.2344C100.238 29.5885 100.915 29.7656 101.696 29.7656C102.53 29.7656 103.217 29.5833 103.759 29.2188C104.311 28.8542 104.774 28.4531 105.149 28.0156ZM133.229 9.9375C132.959 9.94792 132.63 10.0104 132.245 10.125C131.86 10.2292 131.542 10.3594 131.292 10.5156C130.938 10.7344 130.651 11.0156 130.433 11.3594C130.224 11.7031 130.016 12.1094 129.808 12.5781C129.11 14.2344 128.063 16.8177 126.667 20.3281C125.271 23.8281 123.834 27.4792 122.354 31.2812H121.058C119.558 27.25 118.11 23.3646 116.714 19.625C115.318 15.8854 114.37 13.3594 113.87 12.0469C113.745 11.724 113.578 11.4427 113.37 11.2031C113.162 10.9531 112.886 10.7188 112.542 10.5C112.261 10.3229 111.948 10.1927 111.604 10.1094C111.261 10.0156 110.943 9.95833 110.651 9.9375V8.82812H119.823V9.9375C119.042 9.97917 118.38 10.0573 117.839 10.1719C117.308 10.2865 117.042 10.4896 117.042 10.7812C117.042 10.8958 117.063 11.0312 117.104 11.1875C117.146 11.3438 117.183 11.4688 117.214 11.5625C117.599 12.5833 118.224 14.25 119.089 16.5625C119.953 18.8646 121.183 22.1458 122.776 26.4062C123.568 24.4792 124.479 22.2031 125.511 19.5781C126.542 16.9531 127.235 15.151 127.589 14.1719C127.933 13.224 128.13 12.5677 128.183 12.2031C128.245 11.8385 128.276 11.5417 128.276 11.3125C128.276 11.0729 128.167 10.875 127.948 10.7188C127.74 10.5521 127.459 10.4115 127.104 10.2969C126.761 10.1927 126.412 10.1146 126.058 10.0625C125.703 10.0104 125.344 9.96875 124.979 9.9375V8.82812H133.229V9.9375ZM150.309 30.7188L145.294 31.0625L145.059 30.8438V28.8906H144.966C144.716 29.151 144.434 29.4323 144.122 29.7344C143.809 30.026 143.45 30.2917 143.044 30.5312C142.575 30.8125 142.122 31.026 141.684 31.1719C141.247 31.3177 140.627 31.3906 139.825 31.3906C138.46 31.3906 137.419 30.9479 136.7 30.0625C135.992 29.1667 135.638 27.8698 135.638 26.1719V18.7969C135.638 18.4219 135.565 18.1094 135.419 17.8594C135.283 17.599 135.08 17.375 134.809 17.1875C134.622 17.0625 134.388 16.974 134.106 16.9219C133.825 16.8594 133.528 16.8177 133.216 16.7969V15.7812L138.356 15.4062L138.591 15.625V26.3281C138.591 27.4427 138.841 28.2812 139.341 28.8438C139.841 29.4062 140.44 29.6875 141.138 29.6875C141.71 29.6875 142.221 29.599 142.669 29.4219C143.117 29.2448 143.492 29.0365 143.794 28.7969C144.075 28.5781 144.32 28.349 144.528 28.1094C144.747 27.8594 144.914 27.6302 145.028 27.4219V18.6875C145.028 18.3438 144.955 18.0417 144.809 17.7812C144.664 17.5104 144.46 17.2812 144.2 17.0938C144.013 16.9688 143.731 16.8958 143.356 16.875C142.992 16.8438 142.58 16.8177 142.122 16.7969V15.7812L147.716 15.4062L147.95 15.625V27.8594C147.95 28.2135 148.023 28.5156 148.169 28.7656C148.315 29.0156 148.518 29.2292 148.778 29.4062C148.966 29.5208 149.19 29.599 149.45 29.6406C149.71 29.6719 149.997 29.6927 150.309 29.7031V30.7188ZM165.967 27.375C165.322 28.6042 164.457 29.5833 163.374 30.3125C162.29 31.0417 161.046 31.4062 159.639 31.4062C158.4 31.4062 157.311 31.1875 156.374 30.75C155.447 30.3125 154.681 29.7188 154.077 28.9688C153.473 28.2188 153.02 27.3438 152.717 26.3438C152.426 25.3438 152.28 24.2865 152.28 23.1719C152.28 22.1719 152.436 21.1927 152.749 20.2344C153.072 19.2656 153.54 18.3958 154.155 17.625C154.749 16.8854 155.483 16.2917 156.358 15.8438C157.244 15.3854 158.233 15.1562 159.327 15.1562C160.452 15.1562 161.415 15.3333 162.217 15.6875C163.02 16.0417 163.671 16.526 164.171 17.1406C164.65 17.724 165.004 18.4115 165.233 19.2031C165.473 19.9948 165.592 20.8542 165.592 21.7812V22.8125H155.389C155.389 23.8229 155.483 24.7396 155.671 25.5625C155.869 26.3854 156.176 27.1094 156.592 27.7344C156.999 28.3385 157.53 28.8177 158.186 29.1719C158.842 29.5156 159.624 29.6875 160.53 29.6875C161.457 29.6875 162.254 29.474 162.921 29.0469C163.598 28.6094 164.249 27.8281 164.874 26.7031L165.967 27.375ZM162.514 21.5C162.514 20.9167 162.462 20.2917 162.358 19.625C162.264 18.9583 162.108 18.401 161.889 17.9531C161.65 17.474 161.322 17.0833 160.905 16.7812C160.488 16.4792 159.952 16.3281 159.296 16.3281C158.202 16.3281 157.29 16.7865 156.561 17.7031C155.842 18.6094 155.452 19.875 155.389 21.5H162.514Z" fill="white"/>
<path d="M69.8781 57.0469C69.8781 58.9323 69.524 60.5677 68.8156 61.9531C68.1073 63.3385 67.1854 64.474 66.05 65.3594C64.9042 66.2448 63.6177 66.9062 62.1906 67.3438C60.7635 67.7812 59.2896 68 57.7687 68H48.5812V66.8906C48.8833 66.8906 49.274 66.8646 49.7531 66.8125C50.2427 66.75 50.5656 66.6823 50.7219 66.6094C51.0344 66.474 51.2583 66.276 51.3937 66.0156C51.5396 65.7448 51.6125 65.4219 51.6125 65.0469V49.0469C51.6125 48.6927 51.55 48.375 51.425 48.0938C51.3104 47.8125 51.076 47.5885 50.7219 47.4219C50.399 47.2656 50.05 47.151 49.675 47.0781C49.3 47.0052 48.9771 46.9583 48.7062 46.9375V45.8281H58.3937C59.7271 45.8281 61.0396 46.0365 62.3312 46.4531C63.6229 46.8594 64.7479 47.4115 65.7062 48.1094C67.0083 49.0365 68.0292 50.25 68.7687 51.75C69.5083 53.25 69.8781 55.0156 69.8781 57.0469ZM66.05 57.0312C66.05 55.5417 65.8521 54.1979 65.4562 53C65.0604 51.7917 64.4823 50.7396 63.7219 49.8438C63.0031 48.9896 62.1177 48.3177 61.0656 47.8281C60.024 47.3385 58.8625 47.0938 57.5812 47.0938C57.1542 47.0938 56.6698 47.1042 56.1281 47.125C55.5969 47.1354 55.201 47.1458 54.9406 47.1562V64.2031C54.9406 65.151 55.2167 65.8073 55.7687 66.1719C56.3208 66.5365 57.1698 66.7188 58.3156 66.7188C59.6385 66.7188 60.7948 66.4844 61.7844 66.0156C62.774 65.5469 63.576 64.8958 64.1906 64.0625C64.8365 63.1875 65.3052 62.1771 65.5969 61.0312C65.899 59.875 66.05 58.5417 66.05 57.0312ZM84.0831 54.5781C84.0831 55.1094 83.9529 55.5833 83.6925 56C83.4321 56.4062 83.031 56.6094 82.4894 56.6094C81.906 56.6094 81.4581 56.4583 81.1456 56.1562C80.8435 55.8542 80.6925 55.5208 80.6925 55.1562C80.6925 54.9271 80.7081 54.7188 80.7394 54.5312C80.781 54.3438 80.8175 54.1562 80.8487 53.9688C80.3592 53.9688 79.7862 54.1667 79.13 54.5625C78.4737 54.9583 77.9165 55.5208 77.4581 56.25V65.2188C77.4581 65.5833 77.5258 65.8802 77.6612 66.1094C77.8071 66.3385 78.031 66.5104 78.3331 66.625C78.5935 66.7292 78.9269 66.8073 79.3331 66.8594C79.7498 66.9115 80.1092 66.9479 80.4112 66.9688V68H72.2862V66.9688C72.5258 66.9479 72.7706 66.9271 73.0206 66.9062C73.281 66.8854 73.505 66.8438 73.6925 66.7812C73.9842 66.6875 74.1977 66.526 74.3331 66.2969C74.479 66.0573 74.5519 65.75 74.5519 65.375V55.8594C74.5519 55.5365 74.4737 55.2188 74.3175 54.9062C74.1717 54.5938 73.9633 54.3438 73.6925 54.1562C73.4946 54.0312 73.2602 53.9427 72.9894 53.8906C72.7185 53.8281 72.4269 53.7865 72.1144 53.7656V52.75L77.2394 52.4062L77.4581 52.625V54.7969H77.5362C78.1821 53.9531 78.9008 53.3125 79.6925 52.875C80.4842 52.4375 81.2081 52.2188 81.8644 52.2188C82.5206 52.2188 83.0519 52.4323 83.4581 52.8594C83.8748 53.2865 84.0831 53.8594 84.0831 54.5781ZM92.9756 68H85.5225V66.9688C85.7621 66.9479 86.0069 66.9271 86.2569 66.9062C86.5173 66.8854 86.7412 66.8438 86.9287 66.7812C87.2204 66.6875 87.434 66.526 87.5694 66.2969C87.7152 66.0573 87.7881 65.75 87.7881 65.375V55.8594C87.7881 55.526 87.71 55.224 87.5537 54.9531C87.4079 54.6719 87.1996 54.4375 86.9287 54.25C86.7308 54.125 86.4444 54.0208 86.0694 53.9375C85.6944 53.8438 85.3506 53.7865 85.0381 53.7656V52.75L90.4756 52.4062L90.6944 52.625V65.1875C90.6944 65.5521 90.7621 65.8542 90.8975 66.0938C91.0433 66.3333 91.2673 66.5104 91.5694 66.625C91.7985 66.7188 92.0225 66.7969 92.2412 66.8594C92.46 66.9115 92.7048 66.9479 92.9756 66.9688V68ZM91.0069 46.3281C91.0069 46.9219 90.809 47.4427 90.4131 47.8906C90.0277 48.3281 89.5485 48.5469 88.9756 48.5469C88.4444 48.5469 87.9808 48.3385 87.585 47.9219C87.1996 47.4948 87.0069 47.0104 87.0069 46.4688C87.0069 45.8958 87.1996 45.3958 87.585 44.9688C87.9808 44.5417 88.4444 44.3281 88.9756 44.3281C89.5694 44.3281 90.0537 44.5312 90.4287 44.9375C90.8142 45.3333 91.0069 45.7969 91.0069 46.3281ZM111.962 68H104.415V66.9688C104.655 66.9479 104.915 66.9271 105.196 66.9062C105.488 66.8854 105.728 66.8438 105.915 66.7812C106.207 66.6875 106.42 66.526 106.556 66.2969C106.701 66.0573 106.774 65.75 106.774 65.375V57.4531C106.774 56.3594 106.514 55.5156 105.993 54.9219C105.483 54.3281 104.858 54.0312 104.118 54.0312C103.566 54.0312 103.061 54.1198 102.603 54.2969C102.144 54.4635 101.738 54.6719 101.384 54.9219C101.04 55.1615 100.764 55.4219 100.556 55.7031C100.358 55.974 100.212 56.1927 100.118 56.3594V65.2188C100.118 65.5729 100.191 65.8646 100.337 66.0938C100.483 66.3229 100.701 66.5 100.993 66.625C101.212 66.7292 101.446 66.8073 101.696 66.8594C101.957 66.9115 102.222 66.9479 102.493 66.9688V68H94.9463V66.9688C95.1858 66.9479 95.4306 66.9271 95.6806 66.9062C95.941 66.8854 96.165 66.8438 96.3525 66.7812C96.6442 66.6875 96.8577 66.526 96.9931 66.2969C97.139 66.0573 97.2119 65.75 97.2119 65.375V55.8594C97.2119 55.5052 97.1338 55.1823 96.9775 54.8906C96.8317 54.5885 96.6233 54.3438 96.3525 54.1562C96.1546 54.0312 95.9202 53.9427 95.6494 53.8906C95.3785 53.8281 95.0869 53.7865 94.7744 53.7656V52.75L99.8994 52.4062L100.118 52.625V54.7969H100.196C100.446 54.5469 100.759 54.25 101.134 53.9062C101.509 53.5521 101.863 53.2656 102.196 53.0469C102.582 52.7969 103.04 52.5885 103.571 52.4219C104.103 52.2552 104.701 52.1719 105.368 52.1719C106.847 52.1719 107.941 52.6354 108.649 53.5625C109.368 54.4792 109.728 55.7031 109.728 57.2344V65.25C109.728 65.6146 109.79 65.9115 109.915 66.1406C110.04 66.3594 110.254 66.5312 110.556 66.6562C110.806 66.7604 111.019 66.8333 111.196 66.875C111.384 66.9167 111.639 66.9479 111.962 66.9688V68ZM130.261 68H125.604C124.792 66.8229 123.922 65.5625 122.995 64.2188C122.068 62.875 121.104 61.5677 120.104 60.2969L118.823 61.5V65.1562C118.823 65.5312 118.891 65.8438 119.026 66.0938C119.162 66.3333 119.38 66.5104 119.682 66.625C119.932 66.7292 120.172 66.8073 120.401 66.8594C120.63 66.9115 120.896 66.9479 121.198 66.9688V68H113.636V66.9688C113.875 66.9479 114.125 66.9271 114.386 66.9062C114.646 66.875 114.865 66.8333 115.042 66.7812C115.334 66.6875 115.552 66.526 115.698 66.2969C115.844 66.0573 115.917 65.75 115.917 65.375V47.4688C115.917 47.0833 115.834 46.724 115.667 46.3906C115.511 46.0469 115.302 45.7865 115.042 45.6094C114.823 45.4427 114.479 45.3333 114.011 45.2812C113.552 45.2292 113.182 45.1927 112.901 45.1719V44.1719L118.604 43.8125L118.823 44.0469V60.3438C119.636 59.5312 120.511 58.6615 121.448 57.7344C122.396 56.7969 123.193 55.9635 123.839 55.2344C123.922 55.1406 124.011 55.0208 124.104 54.875C124.209 54.7188 124.261 54.5938 124.261 54.5C124.261 54.2188 124.031 54.0104 123.573 53.875C123.125 53.7396 122.693 53.6458 122.276 53.5938V52.5938H129.057V53.5625C128.182 53.8229 127.406 54.151 126.729 54.5469C126.063 54.9323 125.552 55.2812 125.198 55.5938C124.948 55.8021 124.594 56.1406 124.136 56.6094C123.677 57.0781 123.037 57.6927 122.214 58.4531C123.068 59.5052 124.026 60.7656 125.089 62.2344C126.162 63.7031 126.943 64.7656 127.432 65.4219C127.891 66.0365 128.302 66.4375 128.667 66.625C129.031 66.8125 129.563 66.9271 130.261 66.9688V68ZM141.341 60.4531C141.768 60.8281 142.096 61.2604 142.325 61.75C142.554 62.2396 142.669 62.8385 142.669 63.5469C142.669 64.974 142.132 66.1406 141.059 67.0469C139.997 67.9531 138.617 68.4062 136.919 68.4062C136.023 68.4062 135.195 68.2448 134.434 67.9219C133.684 67.599 133.148 67.3021 132.825 67.0312L132.512 68.0469H131.341L131.184 62.6875H132.262C132.346 63.0938 132.523 63.5677 132.794 64.1094C133.065 64.651 133.393 65.1406 133.778 65.5781C134.184 66.0365 134.669 66.4219 135.231 66.7344C135.804 67.0469 136.445 67.2031 137.153 67.2031C138.153 67.2031 138.924 66.9792 139.466 66.5312C140.007 66.0729 140.278 65.4219 140.278 64.5781C140.278 64.1406 140.19 63.7656 140.012 63.4531C139.846 63.1302 139.596 62.849 139.262 62.6094C138.919 62.3698 138.497 62.1562 137.997 61.9688C137.497 61.7708 136.94 61.5781 136.325 61.3906C135.835 61.2448 135.289 61.0469 134.684 60.7969C134.091 60.5365 133.58 60.2344 133.153 59.8906C132.695 59.526 132.32 59.0781 132.028 58.5469C131.736 58.0156 131.591 57.3906 131.591 56.6719C131.591 55.4115 132.059 54.3438 132.997 53.4688C133.934 52.5938 135.19 52.1562 136.762 52.1562C137.367 52.1562 137.981 52.2344 138.606 52.3906C139.242 52.5469 139.757 52.7344 140.153 52.9531L140.512 52.1406H141.637L141.872 57.0938H140.794C140.575 55.9896 140.101 55.0938 139.372 54.4062C138.653 53.7083 137.773 53.3594 136.731 53.3594C135.877 53.3594 135.205 53.5729 134.716 54C134.226 54.4271 133.981 54.9427 133.981 55.5469C133.981 56.0156 134.059 56.4062 134.216 56.7188C134.382 57.0312 134.627 57.2969 134.95 57.5156C135.262 57.724 135.653 57.9219 136.122 58.1094C136.601 58.2865 137.19 58.4896 137.887 58.7188C138.575 58.9375 139.221 59.1927 139.825 59.4844C140.44 59.776 140.945 60.099 141.341 60.4531Z" fill="#F5AEB3"/>
</svg>
